<?xml version="1.0" encoding="utf-8"?>
<!-- Generator: Adobe Illustrator 24.3.0, SVG Export Plug-In . SVG Version: 6.00 Build 0)  -->
<svg version="1.1" id="Layer_1" xmlns="http://www.w3.org/2000/svg" xmlns:xlink="http://www.w3.org/1999/xlink" x="0px" y="0px"
	 viewBox="0 0 70.2 72.1" style="enable-background:new 0 0 70.2 72.1;" xml:space="preserve">
<style type="text/css">
	.st0{fill:#F8F6F9;}
	.st1{fill:#F0F2F7;}
	.st2{fill:#E1EBFF;}
	.st3{fill-rule:evenodd;clip-rule:evenodd;fill:#FFFFFF;}
	.st4{fill-rule:evenodd;clip-rule:evenodd;fill:#D61F27;}
	.st5{fill-rule:evenodd;clip-rule:evenodd;fill:#F99D22;}
	.st6{fill-rule:evenodd;clip-rule:evenodd;fill:#F37038;}
	.st7{fill-rule:evenodd;clip-rule:evenodd;fill:#FFB3B2;}
	.st8{fill-rule:evenodd;clip-rule:evenodd;fill:#FF8382;}
	.st9{fill-rule:evenodd;clip-rule:evenodd;fill:#FFF5A6;}
	.st10{fill-rule:evenodd;clip-rule:evenodd;fill:#FFD9C5;}
	.st11{fill-rule:evenodd;clip-rule:evenodd;fill:#ADC3FB;}
	.st12{fill-rule:evenodd;clip-rule:evenodd;fill:#FAC5AA;}
</style>
<path class="st0" d="M64.5,55.1c3.6-5.5,5.6-12,5.6-19c0-19.3-15.7-35-35-35c-19.3,0-35,15.7-35,35c0,4.1,0.7,8,2,11.6
	C17.2,45.8,44.8,54,64.5,55.1z"/>
<path class="st1" d="M35.1,71.1c12.3,0,23.1-6.4,29.4-16C44.8,54,17.2,45.8,2.1,47.7C6.9,61.3,19.9,71.1,35.1,71.1z"/>
<path class="st2" d="M19.3,56c0.7-0.2,1-0.8,0.8-1.5l-4.7-16c-0.1-0.6-0.8-1-1.4-0.8l-5.4,1.7l-7.9,2.4c1.1,6.6,4,12.6,8.2,17.4
	l5.2-1.5L19.3,56z"/>
<path class="st1" d="M35.1,1.1c-1,0-2,0.1-2.9,0.1c8.1,13.7,20.3,24.4,36.9,26.6C65.4,12.5,51.6,1.1,35.1,1.1z"/>
<path id="Fill-17" class="st3" d="M43.7,22.5c0.4,0.6,0.6,1.4,0.6,2.1c0,0.8-0.2,1.5-0.6,2.1c-0.1,0.1,0,0.3,0.1,0.4s0.3,0,0.4-0.1
	c0.5-0.7,0.7-1.5,0.7-2.4c0-0.9-0.3-1.7-0.7-2.4c-0.1-0.1-0.3-0.2-0.4-0.1S43.6,22.3,43.7,22.5 M42.6,23c0.3,0.5,0.5,1,0.5,1.6
	s-0.2,1.1-0.5,1.6c-0.1,0.1,0,0.3,0.1,0.4s0.3,0,0.4-0.1c0.4-0.6,0.6-1.2,0.6-1.9c0-0.7-0.2-1.3-0.6-1.9c0-0.1-0.2-0.2-0.4-0.1
	C42.6,22.7,42.5,22.8,42.6,23 M41.5,23.5c0.3,0.3,0.4,0.7,0.4,1.1s-0.1,0.8-0.4,1.1c-0.1,0.1,0,0.3,0.1,0.4s0.3,0,0.4-0.1
	c0.3-0.4,0.5-0.9,0.5-1.4c0-0.5-0.2-1-0.4-1.4c-0.1-0.1-0.3-0.2-0.4-0.1C41.5,23.2,41.4,23.3,41.5,23.5 M40.5,24.1
	c0.1,0.1,0.1,0.2,0.2,0.3c0,0.1,0.1,0.2,0.1,0.3c0,0.1,0,0.2-0.1,0.3c0,0.1-0.1,0.2-0.2,0.3s-0.1,0.3,0.1,0.4c0.1,0.1,0.3,0,0.4-0.1
	s0.2-0.3,0.3-0.4c0-0.2,0-0.3,0-0.5s0-0.3-0.1-0.5c0-0.2-0.1-0.3-0.2-0.4c-0.1-0.1-0.3-0.1-0.4-0.1C40.4,23.8,40.4,24,40.5,24.1"/>
<path id="Fill-1-Copy" class="st3" d="M46.5,49.1l-12.1,0.2c-2.2,0-4-1.7-4.1-4l-0.4-23.8c0-2.2,1.7-4.1,3.9-4.2l12.1-0.2
	c2.2,0,4,1.7,4.1,4l0.4,23.8C50.4,47.1,48.7,49,46.5,49.1"/>
<path id="Fill-4-Copy" class="st4" d="M44.2,44.7c0-0.6,0.3-1.1,0.7-1.4c-0.3-0.2-0.7-0.4-1.1-0.4c-1,0-1.8,0.8-1.8,1.8
	c0,1,0.8,1.8,1.8,1.8c0.4,0,0.8-0.1,1.1-0.4C44.5,45.8,44.2,45.3,44.2,44.7"/>
<path id="Fill-6-Copy" class="st5" d="M47.8,44.7c0,1-0.8,1.8-1.8,1.8c-0.4,0-0.8-0.1-1.1-0.4c0.4-0.3,0.7-0.8,0.7-1.4
	c0-0.6-0.3-1.1-0.7-1.4c0.3-0.2,0.7-0.4,1.1-0.4C47,42.9,47.8,43.7,47.8,44.7"/>
<path id="Fill-8-Copy" class="st6" d="M44.3,44.7c0,0.5,0.3,1,0.7,1.3l0,0c0.4-0.3,0.7-0.8,0.7-1.3c0-0.5-0.3-1-0.7-1.3
	C44.5,43.7,44.3,44.2,44.3,44.7"/>
<path id="Fill-10-Copy" class="st7" d="M43.6,32.6c1.6,1,3.7,3.1,6.7,7l-0.1-8.1C46.7,31.5,43.6,32.6,43.6,32.6"/>
<path id="Fill-12-Copy" class="st8" d="M30.3,43.7c0,0,2.5-4.4,7.8-8.1c6.3-4.4,12.1-4.1,12.1-4.1L50,21.1c0-2.2-1.9-4.1-4.1-4
	l-12.1,0.2c-2.2,0-4,1.9-3.9,4.2L30.3,43.7z"/>
<path id="Fill-15-Copy" class="st9" d="M38.3,26.8l-2,0c-0.6,0-1-0.5-1-1l-0.1-3c0-0.6,0.5-1,1-1l2,0c0.6,0,1,0.5,1,1l0.1,3
	C39.3,26.3,38.8,26.8,38.3,26.8"/>
<path id="Fill-17-Copy" class="st3" d="M44,21.9c0.4,0.6,0.6,1.4,0.6,2.1c0,0.8-0.2,1.5-0.6,2.1c-0.1,0.1,0,0.3,0.1,0.4
	c0.1,0.1,0.3,0,0.4-0.1c0.5-0.7,0.7-1.5,0.7-2.4c0-0.9-0.3-1.7-0.7-2.4c-0.1-0.1-0.3-0.2-0.4-0.1C43.9,21.7,43.9,21.8,44,21.9
	 M42.9,22.5c0.3,0.5,0.5,1,0.5,1.6c0,0.6-0.2,1.1-0.5,1.6c-0.1,0.1-0.1,0.3,0.1,0.4c0.1,0.1,0.3,0,0.4-0.1c0.4-0.6,0.6-1.2,0.6-1.9
	c0-0.7-0.2-1.3-0.6-1.9c-0.1-0.1-0.3-0.2-0.4-0.1C42.8,22.2,42.8,22.3,42.9,22.5 M41.8,23c0.2,0.3,0.4,0.7,0.4,1.1s-0.1,0.8-0.4,1.1
	c-0.1,0.1-0.1,0.3,0.1,0.4c0.1,0,0.3,0,0.4-0.1c0.3-0.4,0.4-0.9,0.4-1.4c0-0.5-0.2-1-0.4-1.4c-0.1-0.1-0.3-0.2-0.4-0.1
	C41.7,22.7,41.7,22.8,41.8,23 M40.7,23.5c0.1,0.1,0.2,0.1,0.2,0.3c0,0.1,0.1,0.2,0.1,0.3c0,0.1,0,0.2-0.1,0.3c0,0.1-0.1,0.2-0.2,0.3
	c-0.1,0.1,0,0.3,0.1,0.4s0.3,0.1,0.4-0.1c0.1-0.1,0.2-0.3,0.3-0.4c0.1-0.2,0.1-0.3,0.1-0.5c0-0.2,0-0.3-0.1-0.5
	c-0.1-0.2-0.1-0.3-0.3-0.4c-0.1-0.1-0.3-0.1-0.4-0.1C40.7,23.2,40.6,23.4,40.7,23.5"/>
<path id="Fill-13" class="st10" d="M39.7,50L27,53.8c-0.9,0.2-1.8,0.2-2.8-0.2c-0.8-0.4-1.8-0.5-2.8-0.2l-1.7,0.5l-4.2-14l4.5-7.7
	c0.4-0.6,0.6-1.3,0.8-1.9c0.5-1.7,0.5-3.5,0-5.2c-0.1-0.4-0.1-0.9,0-1.3c0.2-0.7,0.7-1.3,1.5-1.4c1-0.3,2.1,0.1,2.5,1.1l0.9,1.6
	c1,1.8,1.6,3.8,1.7,6l0.1,2l8.4-2.5c1.4-0.4,2.7,0.4,3.1,1.8c0.3,1.3-0.5,2.7-1.8,3l0,0l0,0c0.3,0,0.6,0,0.9,0.1
	c0.5,0.1,0.9,0.4,1.2,0.8c0.2,0.3,0.4,0.5,0.5,0.9c0.2,0.7,0.1,1.3-0.2,1.9c-0.5,0.9-1.3,1.2-1.4,1.2c0,0,0,0,0,0.1l0,0
	c0,0,0,0,0.1,0c0.2,0.1,0.4,0,0.6,0.1c0.5,0.1,0.9,0.4,1.2,0.8c0.2,0.3,0.4,0.5,0.5,0.9c0.4,1.3-0.4,2.7-1.7,3c0,0-0.1,0-0.1,0.1
	l0,0l0,0l0,0c0.7,0,1.5,0.3,1.9,0.9c0.2,0.3,0.4,0.5,0.5,0.9C41.7,48.2,40.9,49.7,39.7,50"/>
<path id="Fill-19" class="st11" d="M19.3,56L14,57.7L8.5,39.3l5.4-1.6c0.6-0.2,1.3,0.2,1.4,0.8l4.7,16C20.3,55.2,20,55.8,19.3,56"/>
<path id="Fill-22" class="st12" d="M39.5,36l-4,0.9c-0.6,0.1-1.2-0.3-1.3-0.7l3.3-1l0,0c0.3,0,0.6,0,0.9,0.1
	C38.7,35.4,39.1,35.7,39.5,36"/>
<path id="Fill-25" class="st12" d="M40.1,41.1l-4,0.8c-0.6,0.1-1.2-0.3-1.3-0.7l3.3-1l0.1-0.1c0,0,0,0,0.1,0c0.2,0.1,0.4,0,0.6,0.1
	C39.4,40.4,39.8,40.7,40.1,41.1"/>
<path id="Fill-28" class="st12" d="M40.8,46l-3.5,0.7c-0.6,0.1-1.2-0.3-1.3-0.7l2.9-0.8l0,0C39.6,45.1,40.4,45.4,40.8,46"/>
</svg>
