<?xml version="1.0" encoding="UTF-8"?>
<svg width="59px" height="59px" viewBox="0 0 59 59" version="1.1" xmlns="http://www.w3.org/2000/svg" xmlns:xlink="http://www.w3.org/1999/xlink">
    <title>Group 11</title>
    <defs>
        <polygon id="path-1" points="0 0.112577083 34.2907174 0.112577083 34.2907174 39.6875 0 39.6875"></polygon>
    </defs>
    <g id="Page-1" stroke="none" stroke-width="1" fill="none" fill-rule="evenodd">
        <g id="Métodos-de-Contacto---Desktop" transform="translate(-180.000000, -1012.000000)">
            <g id="Group-11" transform="translate(180.000000, 1012.000000)">
                <rect id="Rectangle" fill="#C7D4FF" x="0" y="0" width="59" height="59" rx="8"></rect>
                <g id="Group-8" transform="translate(12.000000, 10.000000)">
                    <g id="Group-3">
                        <mask id="mask-2" fill="white">
                            <use xlink:href="#path-1"></use>
                        </mask>
                        <g id="Clip-2"></g>
                        <path d="M7.52028261,2.75123681 C4.79636957,2.75123681 2.66441304,4.86246597 2.66441304,7.55838958 L2.66441304,22.8779868 C2.66441304,25.5754174 4.79636957,27.6881535 7.52028261,27.6881535 C8.25528261,27.6881535 8.85180435,28.2773688 8.85180435,29.0067299 L8.85180435,35.1821882 L16.0313696,28.0739313 C16.2809348,27.8267924 16.6202826,27.6881535 16.9733261,27.6881535 L26.7702826,27.6881535 C29.4941957,27.6881535 31.6261522,25.5754174 31.6261522,22.8779868 L31.6261522,7.55838958 C31.6261522,4.86246597 29.4941957,2.75123681 26.7702826,2.75123681 L7.52028261,2.75123681 Z M7.52028261,39.6879521 C7.34832609,39.6879521 7.17484783,39.6547993 7.0105,39.5869868 C6.5128913,39.3835493 6.18876087,38.9013271 6.18876087,38.3693757 L6.18876087,30.2092715 C2.67354348,29.5853965 -0.000152173913,26.535341 -0.000152173913,22.8779868 L-0.000152173913,7.55838958 C-0.000152173913,3.45347292 3.37354348,0.112577083 7.52028261,0.112577083 L26.7702826,0.112577083 C30.9170217,0.112577083 34.2907174,3.45347292 34.2907174,7.55838958 L34.2907174,22.8779868 C34.2907174,26.9859174 30.9170217,30.3268132 26.7702826,30.3268132 L17.5257174,30.3268132 L8.46223913,39.3006674 C8.20658696,39.553834 7.86723913,39.6879521 7.52028261,39.6879521 L7.52028261,39.6879521 Z" id="Fill-1" fill="#668AFF" mask="url(#mask-2)"></path>
                    </g>
                    <path d="M17.0848728,18.6875 C16.2781077,18.6875 15.6243992,18.02941 15.6243992,17.2172376 C15.6243992,14.8325613 16.9561337,13.7151042 17.9288291,12.8986118 C18.7727855,12.191561 19.1146593,11.8704361 19.1146593,11.0237032 C19.1146593,11.0165031 18.9244116,9.81696483 17.5840944,9.81696483 C16.4283033,9.81696483 15.768873,11.2641869 15.7617209,11.2785871 C15.4341514,12.0158783 14.5730298,12.3542835 13.8392169,12.0302786 C13.105404,11.7048336 12.7649606,10.8523406 13.0810866,10.1092893 C13.5931822,8.90831098 15.1165949,6.875 17.5840944,6.875 C20.4893069,6.875 22.037037,9.28415671 22.037037,11.0237032 C22.037037,13.2830976 20.7439242,14.3674342 19.798407,15.1594462 C18.9301333,15.8895374 18.5453464,16.2524229 18.5453464,17.2172376 C18.5453464,18.02941 17.8916378,18.6875 17.0848728,18.6875" id="Fill-4" fill="#668AFF"></path>
                    <path d="M18.1481481,21.3125 C18.1481481,20.5874755 17.5669404,20 16.8524864,20 C16.1367633,20 15.5555556,20.5874755 15.5555556,21.3125 C15.5555556,22.0375245 16.1367633,22.625 16.8524864,22.625 C17.5669404,22.625 18.1481481,22.0375245 18.1481481,21.3125" id="Fill-6" fill="#668AFF"></path>
                </g>
            </g>
        </g>
    </g>
</svg>