<?xml version="1.0" encoding="UTF-8"?>
<svg width="59px" height="59px" viewBox="0 0 59 59" version="1.1" xmlns="http://www.w3.org/2000/svg" xmlns:xlink="http://www.w3.org/1999/xlink">
    <title>Group 4</title>
    <defs>
        <polygon id="path-1" points="0 0 39 0 39 38.99961 0 38.99961"></polygon>
    </defs>
    <g id="Page-1" stroke="none" stroke-width="1" fill="none" fill-rule="evenodd">
        <g id="Métodos-de-Contacto---Desktop" transform="translate(-737.000000, -1012.000000)">
            <g id="Group-4" transform="translate(737.000000, 1012.000000)">
                <rect id="Rectangle" fill="#C7D4FF" x="0" y="0" width="59" height="59" rx="8"></rect>
                <g id="Group-10" transform="translate(11.000000, 9.000000)">
                    <g id="Group-3">
                        <mask id="mask-2" fill="white">
                            <use xlink:href="#path-1"></use>
                        </mask>
                        <g id="Clip-2"></g>
                        <path d="M19.5,2.88951 C10.3415,2.88951 2.8886,10.33981 2.8886,19.49961 C2.8886,28.65941 10.3415,36.11101 19.5,36.11101 C28.6585,36.11101 36.1114,28.65941 36.1114,19.49961 C36.1114,10.33981 28.6585,2.88951 19.5,2.88951 M19.5,38.99961 C8.7477,38.99961 0,30.25191 0,19.49961 C0,8.74861 8.7477,-0.00039 19.5,-0.00039 C30.2523,-0.00039 39,8.74861 39,19.49961 C39,30.25191 30.2523,38.99961 19.5,38.99961" id="Fill-1" fill="#668AFF" mask="url(#mask-2)"></path>
                    </g>
                    <path d="M16.97241,15.52759 C16.97241,17.12399 15.67891,18.41749 14.08381,18.41749 C12.48741,18.41749 11.19521,17.12399 11.19521,15.52759 C11.19521,13.93119 12.48741,12.63899 14.08381,12.63899 C15.67891,12.63899 16.97241,13.93119 16.97241,15.52759" id="Fill-4" fill="#668AFF"></path>
                    <path d="M27.80531,15.52759 C27.80531,17.12399 26.51181,18.41749 24.91671,18.41749 C23.32161,18.41749 22.02811,17.12399 22.02811,15.52759 C22.02811,13.93119 23.32161,12.63899 24.91671,12.63899 C26.51181,12.63899 27.80531,13.93119 27.80531,15.52759" id="Fill-6" fill="#668AFF"></path>
                    <path d="M19.77924,30.69859 C15.74404,30.69859 11.89474,28.96309 9.21934,25.93669 C8.69154,25.33869 8.74874,24.42739 9.34544,23.89829 C9.94344,23.36919 10.85604,23.42639 11.38384,24.02439 C13.51064,26.43069 16.57084,27.80999 19.77924,27.80999 C22.98764,27.80999 26.04784,26.43069 28.17464,24.02439 C28.70244,23.42639 29.61504,23.36919 30.21304,23.89959 C30.81104,24.42739 30.86694,25.33999 30.33914,25.93799 C27.66374,28.96309 23.81444,30.69859 19.77924,30.69859" id="Fill-8" fill="#668AFF"></path>
                </g>
            </g>
        </g>
    </g>
</svg>