<?xml version="1.0" encoding="UTF-8"?>
<svg width="59px" height="59px" viewBox="0 0 59 59" version="1.1" xmlns="http://www.w3.org/2000/svg" xmlns:xlink="http://www.w3.org/1999/xlink">
    <title>Group 7</title>
    <defs>
        <polygon id="path-1" points="1.8942993e-05 0.043866638 40.7542993 0.043866638 40.7542993 11.9132286 1.8942993e-05 11.9132286"></polygon>
        <polygon id="path-3" points="0.000239416058 0.000882352941 40.7542394 0.000882352941 40.7542394 29.9999706 0.000239416058 29.9999706"></polygon>
        <polygon id="path-5" points="0.000239416058 0.000882352941 40.7542394 0.000882352941 40.7542394 29.9999706 0.000239416058 29.9999706"></polygon>
    </defs>
    <g id="Page-1" stroke="none" stroke-width="1" fill="none" fill-rule="evenodd">
        <g id="Métodos-de-Contacto---Desktop" transform="translate(-737.000000, -588.000000)">
            <g id="Group-7" transform="translate(737.000000, 588.000000)">
                <rect id="Rectangle" fill="#C7D4FF" x="0" y="0" width="59" height="59" rx="8"></rect>
                <g id="Group-3" transform="translate(9.000000, 23.000000)">
                    <mask id="mask-2" fill="white">
                        <use xlink:href="#path-1"></use>
                    </mask>
                    <g id="Clip-2"></g>
                    <path d="M20.5687423,11.9132286 C17.4539394,11.9132286 15.192954,10.6138 15.0522971,10.5309429 L0.57720219,2.16437143 C0.0118810219,1.83722857 -0.169177372,1.13465714 0.173187591,0.594942857 C0.515552555,0.0549428571 1.25145766,-0.117342857 1.81737737,0.208942857 L16.3005526,8.58037143 C16.4696401,8.67837143 20.4005526,10.8935143 24.671735,8.56551429 C29.5656985,5.89722857 38.8218226,0.278657143 38.9145964,0.222371429 C39.472735,-0.115914286 40.2122314,0.0406571429 40.5671657,0.573228571 C40.9221,1.1058 40.7575015,1.81208571 40.199662,2.15094286 C40.1062898,2.20751429 30.8025818,7.85522857 25.8589394,10.5503714 C23.9855088,11.5720857 22.1647496,11.9132286 20.5687423,11.9132286" id="Fill-1" fill="#668AFF" mask="url(#mask-2)"></path>
                </g>
                <g id="Group-6" transform="translate(9.000000, 16.000000)">
                    <mask id="mask-4" fill="white">
                        <use xlink:href="#path-3"></use>
                    </mask>
                    <g id="Clip-5"></g>
                    <path d="M3.20931241,2.35379412 C2.76010803,2.35379412 2.3944,2.71320588 2.3944,3.15497059 L2.3944,26.8458529 C2.3944,27.2876176 2.76010803,27.6470294 3.20931241,27.6470294 L37.5451664,27.6470294 C37.9943708,27.6470294 38.3600788,27.2876176 38.3600788,26.8458529 L38.3600788,3.15497059 C38.3600788,2.71320588 37.9943708,2.35379412 37.5451664,2.35379412 L3.20931241,2.35379412 Z M37.5451664,29.9999706 L3.20931241,29.9999706 C1.43972847,29.9999706 0.000239416058,28.5852647 0.000239416058,26.8458529 L0.000239416058,3.15497059 C0.000239416058,1.41585294 1.43972847,0.000852941176 3.20931241,0.000852941176 L37.5451664,0.000852941176 C39.3147504,0.000852941176 40.7542394,1.41585294 40.7542394,3.15497059 L40.7542394,26.8458529 C40.7542394,28.5852647 39.3147504,29.9999706 37.5451664,29.9999706 L37.5451664,29.9999706 Z" id="Fill-4" fill="#668AFF" mask="url(#mask-4)"></path>
                </g>
                <g id="Group-9" transform="translate(9.000000, 16.000000)">
                    <mask id="mask-6" fill="white">
                        <use xlink:href="#path-5"></use>
                    </mask>
                    <g id="Clip-8"></g>
                    <path d="M3.20931241,2.35379412 C2.76010803,2.35379412 2.3944,2.71320588 2.3944,3.15497059 L2.3944,26.8458529 C2.3944,27.2876176 2.76010803,27.6470294 3.20931241,27.6470294 L37.5451664,27.6470294 C37.9943708,27.6470294 38.3600788,27.2876176 38.3600788,26.8458529 L38.3600788,3.15497059 C38.3600788,2.71320588 37.9943708,2.35379412 37.5451664,2.35379412 L3.20931241,2.35379412 Z M37.5451664,29.9999706 L3.20931241,29.9999706 C1.43972847,29.9999706 0.000239416058,28.5852647 0.000239416058,26.8458529 L0.000239416058,3.15497059 C0.000239416058,1.41585294 1.43972847,0.000852941176 3.20931241,0.000852941176 L37.5451664,0.000852941176 C39.3147504,0.000852941176 40.7542394,1.41585294 40.7542394,3.15497059 L40.7542394,26.8458529 C40.7542394,28.5852647 39.3147504,29.9999706 37.5451664,29.9999706 L37.5451664,29.9999706 Z" id="Fill-7" fill="#668AFF" mask="url(#mask-6)"></path>
                </g>
            </g>
        </g>
    </g>
</svg>