<?xml version="1.0" encoding="UTF-8"?>
<svg width="59px" height="59px" viewBox="0 0 59 59" version="1.1" xmlns="http://www.w3.org/2000/svg" xmlns:xlink="http://www.w3.org/1999/xlink">
    <title>Group 2</title>
    <defs>
        <polygon id="path-1" points="3.01980663e-14 0.156 28.8281596 0.156 28.8281596 39 3.01980663e-14 39"></polygon>
    </defs>
    <g id="Page-1" stroke="none" stroke-width="1" fill="none" fill-rule="evenodd">
        <g id="Métodos-de-Contacto---Desktop" transform="translate(-180.000000, -588.000000)">
            <g id="Group-2" transform="translate(180.000000, 588.000000)">
                <rect id="Rectangle" fill="#C7D4FF" x="0" y="0" width="59" height="59" rx="8"></rect>
                <g id="Group-6" transform="translate(28.500000, 30.500000) scale(-1, 1) translate(-28.500000, -30.500000) translate(14.000000, 11.000000)">
                    <g id="Group-3">
                        <mask id="mask-2" fill="white">
                            <use xlink:href="#path-1"></use>
                        </mask>
                        <g id="Clip-2"></g>
                        <path d="M23.8101415,36.5625 L5.01814149,36.5625 C3.61195,36.5625 2.46799255,35.4327188 2.46799255,34.0439531 L2.46799255,31.4775703 L26.3602904,31.3404609 L26.3602904,34.0439531 C26.3602904,35.4327188 25.216333,36.5625 23.8101415,36.5625 L23.8101415,36.5625 Z M5.01814149,2.5935 L23.8101415,2.5935 C25.216333,2.5935 26.3602904,3.72328125 26.3602904,5.11174219 L26.3602904,5.7354375 L2.46799255,5.8719375 L2.46799255,5.11174219 C2.46799255,3.72328125 3.61195,2.5935 5.01814149,2.5935 L5.01814149,2.5935 Z M2.46799255,8.30974219 L26.3602904,8.1729375 L26.3602904,28.9029609 L2.46799255,29.0397656 L2.46799255,8.30974219 Z M23.8101415,0.156 L5.01814149,0.156 C2.25110957,0.156 -9.25532329e-05,2.37930469 -9.25532329e-05,5.11174219 L-9.25532329e-05,34.0439531 C-9.25532329e-05,36.7766953 2.25110957,39 5.01814149,39 L23.8101415,39 C26.5771734,39 28.8283755,36.7766953 28.8283755,34.0439531 L28.8283755,5.11174219 C28.8283755,2.37930469 26.5771734,0.156 23.8101415,0.156 L23.8101415,0.156 Z" id="Fill-1" fill="#668AFF" mask="url(#mask-2)"></path>
                    </g>
                    <path d="M14.5,32.5 C13.771868,32.5 13.1818182,33.3729425 13.1818182,34.4501691 C13.1818182,35.5270575 13.771868,36.4 14.5,36.4 C15.228132,36.4 15.8181818,35.5270575 15.8181818,34.4501691 C15.8181818,33.3729425 15.228132,32.5 14.5,32.5" id="Fill-4" fill="#668AFF"></path>
                </g>
            </g>
        </g>
    </g>
</svg>