<?xml version="1.0" encoding="UTF-8"?>
<svg width="63px" height="86px" viewBox="0 0 63 86" version="1.1" xmlns="http://www.w3.org/2000/svg" xmlns:xlink="http://www.w3.org/1999/xlink">
    <!-- Generator: Sketch 64 (93537) - https://sketch.com -->
    <title>Group 4</title>
    <desc>Created with Sketch.</desc>
    <defs>
        <linearGradient x1="50%" y1="1.38777878e-14%" x2="50%" y2="100%" id="linearGradient-1">
            <stop stop-color="#3E6BFD" offset="0%"></stop>
            <stop stop-color="#4772FD" offset="0%"></stop>
            <stop stop-color="#94ACF9" offset="100%"></stop>
        </linearGradient>
        <polygon id="path-2" points="0 -7.10542736e-15 34.2129375 -7.10542736e-15 34.2129375 36.108 0 36.108"></polygon>
    </defs>
    <g id="Welcome" stroke="none" stroke-width="1" fill="none" fill-rule="evenodd">
        <g id="Home---Desktop-" transform="translate(-778.000000, -1052.000000)">
            <g id="Group-4" transform="translate(777.000000, 1052.000000)">
                <g id="Icon-/-Categorias-32px-/-Banco" transform="translate(1.000000, 0.000000)">
                    <g id="COLOR-/-CATEGORIA-/-COMIDA" fill="url(#linearGradient-1)">
                        <path d="M10,0 L53,0 C58.5228475,-1.01453063e-15 63,4.4771525 63,10 L63,54 C63,59.5228475 58.5228475,64 53,64 L10,64 C4.4771525,64 6.76353751e-16,59.5228475 0,54 L0,10 C-6.76353751e-16,4.4771525 4.4771525,1.01453063e-15 10,0 Z" id="Rectangle-10-Copy-13"></path>
                    </g>
                    <g id="Group-3" transform="translate(13.781250, 12.000000)">
                        <mask id="mask-3" fill="white">
                            <use xlink:href="#path-2"></use>
                        </mask>
                        <g id="Clip-2"></g>
                        <path d="M19.5555937,31.108 L25.0149375,31.108 L25.0149375,16.902 L19.5555937,16.902 L19.5555937,31.108 Z M9.505125,31.108 L14.63175,31.108 L14.63175,16.902 L9.505125,16.902 L9.505125,31.108 Z M4.921875,11.296 L17.0848125,5.286 L29.2910625,11.434 L29.2910625,11.902 L4.921875,11.902 L4.921875,11.296 Z M31.752,16.902 C33.1104375,16.902 34.2129375,15.784 34.2129375,14.402 L34.2129375,9.882 C34.2129375,8.934 33.681375,8.064 32.846625,7.642 L18.1873125,0.26 C17.5021875,-0.086 16.702875,-0.086 16.01775,0.252 L1.38403125,7.484 C0.53746875,7.902 0,8.776 0,9.732 L0,14.402 C0,15.784 1.1025,16.902 2.4609375,16.902 L4.58325,16.902 L4.58325,31.108 L2.4609375,31.108 C1.1025,31.108 0,32.226 0,33.608 C0,34.988 1.1025,36.108 2.4609375,36.108 L31.752,36.108 C33.1104375,36.108 34.2129375,34.988 34.2129375,33.608 C34.2129375,32.226 33.1104375,31.108 31.752,31.108 L29.9368125,31.108 L29.9368125,16.902 L31.752,16.902 Z" id="Fill-1" fill="#FFFFFF" mask="url(#mask-3)"></path>
                    </g>
                </g>
                <text id="CVU/CBU" font-family="Roboto-Medium, Roboto" font-size="10" font-weight="400" line-spacing="14" fill="#668AFD">
                    <tspan x="12.9008789" y="84">CVU/CBU</tspan>
                </text>
            </g>
        </g>
    </g>
</svg>