<?xml version="1.0" encoding="UTF-8"?>
<svg width="100px" height="100px" viewBox="0 0 100 100" version="1.1" xmlns="http://www.w3.org/2000/svg" xmlns:xlink="http://www.w3.org/1999/xlink">
    <!-- Generator: Sketch 64 (93537) - https://sketch.com -->
    <title>Illustration / Delivery</title>
    <desc>Created with Sketch.</desc>
    <defs>
        <polygon id="path-1" points="0 0.361658537 99.4920488 0.361658537 99.4920488 56.428 0 56.428"></polygon>
        <path d="M0.0258536585,49.7663415 C0.0258536585,77.24 22.297561,99.5121951 49.7717073,99.5121951 L49.7717073,99.5121951 C77.2458537,99.5121951 99.5180488,77.24 99.5180488,49.7663415 L99.5180488,49.7663415 C99.5180488,22.2921951 77.2458537,0.02 49.7717073,0.02 L49.7717073,0.02 C22.297561,0.02 0.0258536585,22.2921951 0.0258536585,49.7663415 L0.0258536585,49.7663415 Z" id="path-3"></path>
    </defs>
    <g id="Welcome" stroke="none" stroke-width="1" fill="none" fill-rule="evenodd">
        <g id="Home---Desktop-" transform="translate(-736.000000, -795.000000)">
            <g id="Illustration-/-Delivery" transform="translate(736.000000, 795.000000)">
                <g id="Group">
                    <g id="Group-12">
                        <path d="M99.518,50.1077561 C99.518,77.5819024 77.2458049,99.8536098 49.7721463,99.8536098 C22.2975122,99.8536098 0.025804878,77.5819024 0.025804878,50.1077561 C0.025804878,22.6336098 22.2975122,0.361902439 49.7721463,0.361902439 C77.2458049,0.361902439 99.518,22.6336098 99.518,50.1077561" id="Fill-1" fill="#EFF4FF"></path>
                        <g id="Group-5">
                            <mask id="mask-2" fill="white">
                                <use xlink:href="#path-1"></use>
                            </mask>
                            <g id="Clip-4"></g>
                            <path d="M99.0944878,56.428 C99.3569268,54.3582439 99.4920488,52.2489756 99.4920488,50.1075122 C99.4920488,22.6338537 77.2198537,0.361658537 49.7461951,0.361658537 C22.2725366,0.361658537 -0.000146341463,22.6338537 -0.000146341463,50.1075122 C-0.000146341463,52.2489756 0.135463415,54.3582439 0.397902439,56.428 C11.6525366,52.0821463 29.5676585,49.2587317 49.7461951,49.2587317 C69.9247317,49.2587317 87.8398537,52.0821463 99.0944878,56.428" id="Fill-3" fill="#EFF4FF" mask="url(#mask-2)"></path>
                        </g>
                        <path d="M54.2298049,22.4843902 C53.8702927,22.4843902 53.5273659,22.5497561 53.206878,22.6643902 C52.539561,20.3487805 50.4093171,18.6531707 47.8785854,18.6531707 C47.3278537,18.6531707 46.7966341,18.7365854 46.2937073,18.8863415 C44.7459024,16.977561 42.3824878,15.7570732 39.7332195,15.7570732 C36.4746829,15.7570732 33.6483415,17.6043902 32.2405366,20.3078049 C32.0102927,20.2663415 31.7746829,20.2409756 31.5327317,20.2409756 C29.3561463,20.2409756 27.5922439,22.0053659 27.5922439,24.1814634 C27.5922439,24.2956098 27.599561,24.4078049 27.6093171,24.5195122 L31.2961463,24.5195122 L35.4561463,24.5195122 L42.346878,24.5195122 L48.1702927,24.5195122 L51.359561,24.5195122 L53.4112683,24.5195122 L57.1000488,24.5195122 C56.6824878,23.335122 55.557122,22.4843902 54.2298049,22.4843902" id="Fill-6" fill="#FFFFFF"></path>
                        <path d="M49.7461463,99.8538537 C71.2359024,99.8538537 89.5422439,86.2270244 96.4978537,67.1436098 L2.99443902,67.1436098 C9.95004878,86.2270244 28.2563902,99.8538537 49.7461463,99.8538537" id="Fill-8" fill="#F5F5F5"></path>
                        <path d="M49.7461463,49.258878 C29.5676098,49.258878 11.6524878,52.0822927 0.397853659,56.4281463 C0.85297561,60.0159512 1.69297561,63.4832683 2.87004878,66.7910732 C2.912,66.9081463 2.9515122,67.0266829 2.99443902,67.1437561 L96.4978537,67.1437561 C96.5407805,67.0266829 96.5802927,66.9081463 96.6222439,66.7910732 C97.7993171,63.4832683 98.6393171,60.0159512 99.094439,56.4281463 C87.8398049,52.0822927 69.9246829,49.258878 49.7461463,49.258878" id="Fill-10" fill="#CDF0E5"></path>
                    </g>
                    <g id="Group-18" transform="translate(0.000000, 0.487805)">
                        <mask id="mask-4" fill="white">
                            <use xlink:href="#path-3"></use>
                        </mask>
                        <g id="Clip-14"></g>
                        <polygon id="Fill-13" fill="#DCDCDC" mask="url(#mask-4)" points="8.17609756 61.1917073 11.4565854 61.1917073 11.4565854 49.6365854 8.17609756 49.6365854"></polygon>
                        <polygon id="Fill-15" fill="#73EFC7" mask="url(#mask-4)" points="9.65136585 38.0853171 4.21429268 56.313122 15.4191707 56.313122"></polygon>
                        <polygon id="Fill-16" fill="#DCDCDC" mask="url(#mask-4)" points="86.9814634 61.1917073 88.4253659 61.1917073 88.4253659 50.6717073 86.9814634 50.6717073"></polygon>
                        <path d="M95.8951707,47.2523902 C95.8951707,45.7953171 94.9561463,44.5597073 93.6517561,44.110439 C93.917122,43.6323902 94.0698049,43.083122 94.0698049,42.4972683 C94.0698049,40.6606829 92.5805366,39.1714146 90.7434634,39.1714146 C90.2693171,39.1714146 89.8190732,39.2723902 89.4107805,39.4509268 C88.8059024,38.6245854 87.8307805,38.085561 86.7278537,38.085561 C84.8907805,38.085561 83.402,39.5743415 83.402,41.4114146 C81.5649268,41.4114146 80.0751707,42.9006829 80.0751707,44.7377561 C80.0751707,46.0392195 80.8249268,47.1636098 81.9146829,47.7094634 C81.5673659,48.2562927 81.3634634,48.903122 81.3634634,49.5987317 C81.3634634,51.5489756 82.9439512,53.1299512 84.8941951,53.1299512 C85.5429756,53.1299512 86.1493171,52.9519024 86.6722439,52.6460488 C87.319561,53.4153171 88.2883415,53.9050732 89.3727317,53.9050732 C91.2590732,53.9050732 92.7956585,52.4245854 92.8941951,50.5621463 C94.5785854,50.3987317 95.8951707,48.9797073 95.8951707,47.2523902" id="Fill-17" fill="#73EFC7" mask="url(#mask-4)"></path>
                    </g>
                    <g id="Group-27" transform="translate(27.317073, 60.000000)">
                        <path d="M40.987122,4.67760976 C40.987122,7.0117561 39.0949268,8.90395122 36.7612683,8.90395122 C34.427122,8.90395122 32.5354146,7.0117561 32.5354146,4.67760976 C32.5354146,2.34346341 34.427122,0.451756098 36.7612683,0.451756098 C39.0949268,0.451756098 40.987122,2.34346341 40.987122,4.67760976" id="Fill-19" fill="#7992ED"></path>
                        <path d="M39.166439,4.67760976 C39.166439,6.00590244 38.0893659,7.08297561 36.7610732,7.08297561 C35.4327805,7.08297561 34.3561951,6.00590244 34.3561951,4.67760976 C34.3561951,3.34931707 35.4327805,2.2722439 36.7610732,2.2722439 C38.0893659,2.2722439 39.166439,3.34931707 39.166439,4.67760976" id="Fill-21" fill="#FFFFFF"></path>
                        <path d="M4.50087805,8.90395122 C2.16721951,8.90395122 0.27502439,7.0117561 0.27502439,4.67760976 C0.27502439,2.34346341 2.16721951,0.451756098 4.50087805,0.451756098 C6.83502439,0.451756098 8.72673171,2.34346341 8.72673171,4.67760976 C8.72673171,7.0117561 6.83502439,8.90395122 4.50087805,8.90395122 Z" id="Fill-23" fill="#7992ED"></path>
                        <path d="M6.90604878,4.67760976 C6.90604878,6.00590244 5.82946341,7.08297561 4.50068293,7.08297561 C3.17287805,7.08297561 2.09580488,6.00590244 2.09580488,4.67760976 C2.09580488,3.34931707 3.17287805,2.2722439 4.50068293,2.2722439 C5.82946341,2.2722439 6.90604878,3.34931707 6.90604878,4.67760976" id="Fill-25" fill="#FFFFFF"></path>
                    </g>
                    <g id="Group-34" transform="translate(4.390244, 68.780488)" stroke="#939598" stroke-linecap="round" stroke-linejoin="round" stroke-width="0.5">
                        <line x1="0.053902439" y1="0.1822" x2="2.73682927" y2="0.1822" id="Stroke-28"></line>
                        <line x1="7.52863415" y1="0.1822" x2="85.6300976" y2="0.1822" id="Stroke-30" stroke-dasharray="10.805,9.823"></line>
                        <line x1="88.026" y1="0.1822" x2="90.7089268" y2="0.1822" id="Stroke-32"></line>
                    </g>
                    <g id="Group-47" transform="translate(20.000000, 32.195122)">
                        <path d="M2.85258537,26.8053171 L33.7203902,26.8053171 C35.0881951,26.8053171 36.1969756,25.6965366 36.1969756,24.3282439 L36.1969756,2.56385366 C36.1969756,1.19604878 35.0881951,0.0872682927 33.7203902,0.0872682927 L2.85258537,0.0872682927 C1.48478049,0.0872682927 0.376,1.19604878 0.376,2.56385366 L0.376,24.3282439 C0.376,25.6965366 1.48478049,26.8053171 2.85258537,26.8053171" id="Fill-35" fill="#8EA8FD"></path>
                        <path d="M58.7805854,27.4617561 L58.0708293,27.4617561 C57.8635122,27.4617561 57.6952195,27.2934634 57.6952195,27.0861463 L57.6952195,19.687122 C57.6952195,19.0529756 57.4435122,18.4446829 56.9947317,17.9959024 L46.8010732,7.80273171 C45.7596098,6.76029268 44.3459512,6.17492683 42.8722927,6.17492683 L38.5561951,6.17492683 C37.2547317,6.17492683 36.2000976,7.23004878 36.2000976,8.53102439 L36.2000976,24.5485854 C36.2000976,25.6759024 35.286439,26.5900488 34.1586341,26.5900488 L3.26936585,26.5900488 C2.95521951,26.5900488 2.70009756,26.8446829 2.70009756,27.1593171 L2.70009756,31.9007805 C2.70009756,32.2154146 2.95521951,32.4705366 3.26936585,32.4705366 L5.744,32.4705366 C5.744,32.4705366 5.83229268,26.5851707 11.7171707,26.5851707 C17.6010732,26.5851707 17.8918049,32.4705366 17.8918049,32.4705366 L36.8132683,32.4705366 C36.8332683,32.4705366 36.8522927,32.4666341 36.8718049,32.4641951 C36.8918049,32.4661463 36.9103415,32.4705366 36.9303415,32.4705366 L38.0605854,32.4705366 C38.0605854,32.4705366 38.4259512,26.4876098 44.0781463,26.4876098 C49.7303415,26.4876098 50.208878,32.4705366 50.208878,32.4705366 L58.4254634,32.4705366 C58.8293659,32.4705366 59.1561951,32.1432195 59.1561951,31.7398049 L59.1561951,27.8373659 C59.1561951,27.629561 58.9883902,27.4617561 58.7805854,27.4617561" id="Fill-37" fill="#BDBDBD"></path>
                        <path d="M41.0547805,10.2446829 L43.5801463,10.2446829 C43.8991707,10.2446829 44.2050244,10.3715122 44.4303902,10.596878 L48.8445366,15.0105366 C49.6016098,15.7680976 49.0655122,17.0637073 47.9938049,17.0637073 L41.0547805,17.0637073 C40.390878,17.0637073 39.8523415,16.5251707 39.8523415,15.8612683 L39.8523415,11.447122 C39.8523415,10.7832195 40.390878,10.2446829 41.0547805,10.2446829" id="Fill-39" fill="#FAFAFA"></path>
                        <path d="M57.701122,27.0625366 L55.048439,27.0625366 C54.8138049,27.0625366 54.6240488,26.8727805 54.6240488,26.6386341 L54.6240488,23.9396098 C54.6240488,23.7054634 54.8138049,23.5157073 55.048439,23.5157073 L57.701122,23.5157073 L57.701122,27.0625366 Z" id="Fill-41" fill="#FFE9D0"></path>
                        <path d="M38.0607805,32.4702927 C38.0607805,32.4702927 38.3563902,26.4985854 44.0783415,26.4985854 C49.7998049,26.4985854 50.2085854,32.4702927 50.2085854,32.4702927" id="Stroke-43" stroke="#9E9E9E" stroke-width="3" stroke-linecap="round"></path>
                        <path d="M5.74414634,32.4702927 C5.74414634,32.4702927 6.0397561,26.4985854 11.7617073,26.4985854 C17.4826829,26.4985854 17.8914634,32.4702927 17.8914634,32.4702927" id="Stroke-45" stroke="#9E9E9E" stroke-width="3" stroke-linecap="round"></path>
                    </g>
                </g>
            </g>
        </g>
    </g>
</svg>