<?xml version="1.0" encoding="UTF-8"?>
<svg width="100px" height="101px" viewBox="0 0 100 101" version="1.1" xmlns="http://www.w3.org/2000/svg" xmlns:xlink="http://www.w3.org/1999/xlink">
    <!-- Generator: Sketch 64 (93537) - https://sketch.com -->
    <title>Illustration / App</title>
    <desc>Created with Sketch.</desc>
    <defs>
        <path d="M0.2025,50.333125 C0.2025,77.9475 22.588125,100.333125 50.2025,100.333125 L50.2025,100.333125 C77.816875,100.333125 100.2025,77.9475 100.2025,50.333125 L100.2025,50.333125 C100.2025,22.71875 77.816875,0.333125 50.2025,0.333125 L50.2025,0.333125 C22.588125,0.333125 0.2025,22.71875 0.2025,50.333125" id="path-1"></path>
        <path d="M50.2025,100.333125 C77.816875,100.333125 100.2025,77.9475 100.2025,50.333125 C100.2025,22.71875 77.816875,0.333125 50.2025,0.333125 C22.588125,0.333125 0.2025,22.71875 0.2025,50.333125 C0.2025,77.9475 22.588125,100.333125 50.2025,100.333125 Z" id="path-3"></path>
        <path d="M17.8925625,50.217125 L1.3819375,33.7065 C-0.0655625,32.259 -0.0655625,29.912125 1.3819375,28.464625 L28.4619375,1.38525 C29.9094375,-0.06225 32.2556875,-0.06225 33.7031875,1.38525 L50.2138125,17.895875 C51.6613125,19.343375 51.6613125,21.689625 50.2138125,23.137125 L23.1344375,50.217125 C21.6869375,51.664625 19.3400625,51.664625 17.8925625,50.217125" id="path-5"></path>
    </defs>
    <g id="Welcome" stroke="none" stroke-width="1" fill="none" fill-rule="evenodd">
        <g id="Home---Desktop-" transform="translate(-180.000000, -794.000000)">
            <g id="Illustration-/-App" transform="translate(180.000000, 795.000000)">
                <g id="Ilusrtación-/-app" transform="translate(0.000000, -0.625000)">
                    <path d="M50,100.625 C77.614375,100.625 100,78.239375 100,50.625 C100,23.010625 77.614375,0.625 50,0.625 C22.385625,0.625 0,23.010625 0,50.625 C0,78.239375 22.385625,100.625 50,100.625" id="Fill-1" fill="#E6EAF6"></path>
                    <g id="Group-5">
                        <mask id="mask-2" fill="white">
                            <use xlink:href="#path-1"></use>
                        </mask>
                        <g id="Clip-4"></g>
                        <path d="M124.232875,38.55025 C132.1385,37.013375 139.546,33.854 146.320375,29.13525 C133.2735,31.397125 118.871,27.774625 106.811,19.00025 C85.167875,3.254 77.306625,-23.207875 72.47225,-47.0135 C72.1635,-48.435375 71.866,-49.866 71.59225,-51.276625 C70.347875,-57.676 67.03725,-63.29975 62.26975,-67.109125 C57.1635,-71.189125 50.97225,-72.689125 45.291625,-71.230375 C34.241625,-68.387875 28.044125,-55.260375 30.876,-40.691 C39.290375,2.598375 68.790375,49.327125 124.232875,38.55025" id="Fill-3" fill="#F0F2F7" mask="url(#mask-2)"></path>
                    </g>
                    <g id="Group-8">
                        <mask id="mask-4" fill="white">
                            <use xlink:href="#path-3"></use>
                        </mask>
                        <g id="Clip-7"></g>
                        <path d="M145.645875,84.5915 C149.1765,77.35275 151.110875,69.535875 151.419,61.28525 C145.374,73.0665 133.81275,82.389 119.54775,86.739625 C93.947125,94.549 68.08275,84.9015 46.160875,74.435875 C44.839625,73.8265 43.518375,73.203375 42.2265,72.573375 C36.367125,69.71525 29.883375,68.97525 23.97275,70.49025 C17.640875,72.11275 12.7165,76.154625 10.46275,81.569625 C6.08275,92.104625 12.837125,104.95525 26.177125,111.460875 C65.814,130.793375 120.8865,135.355875 145.645875,84.5915" id="Fill-6" fill="#F0F2F7" mask="url(#mask-4)"></path>
                    </g>
                    <g id="Group-39" transform="translate(50.312500, 51.562500) rotate(-45.000000) translate(-50.312500, -51.562500) translate(18.125000, 19.375000)">
                        <g id="Group-26" transform="translate(-0.000000, -0.000000)" fill="#FFFFFF">
                            <path d="M21.4655625,62.90875 L1.8155625,43.25875 C0.1280625,41.57125 0.1280625,38.83625 1.8155625,37.149375 L37.3505625,1.614375 C39.0374375,-0.0725 41.7724375,-0.0725 43.4593125,1.614375 L63.1093125,21.265 C64.7968125,22.951875 64.7968125,25.686875 63.1093125,27.37375 L27.5743125,62.90875 C25.8874375,64.595625 23.1524375,64.595625 21.4655625,62.90875" id="Fill-24"></path>
                        </g>
                        <g id="Group-29" transform="translate(12.500000, 46.875000)" fill="#DCDCDC">
                            <path d="M4.1935,4.5805 C3.247875,5.526125 1.71475,5.526125 0.7685,4.5805 C-0.177125,3.634875 -0.177125,2.101125 0.7685,1.1555 C1.71475,0.20925 3.247875,0.20925 4.1935,1.1555 C5.13975,2.101125 5.13975,3.634875 4.1935,4.5805" id="Fill-27"></path>
                        </g>
                        <g id="Group-32" transform="translate(8.750000, 4.375000)">
                            <mask id="mask-6" fill="white">
                                <use xlink:href="#path-5"></use>
                            </mask>
                            <use id="Fill-30" fill="#FAFAFA" xlink:href="#path-5"></use>
                            <path d="M68.8963185,75.1883363 C70.3056268,75.3785968 70.3716103,77.415899 68.9755817,77.6890827 C65.9739541,78.2767012 62.2489978,78.7632966 58.1488899,78.7632966 C17.0656428,78.7632966 3.11365622,43.9679429 3.11365622,20.65767 C3.11365622,13.2164658 9.02685839,4.38829655 19.1804353,4.38829655 C28.6003087,4.38829655 35.22024,12.4954123 35.22024,20.65767 C35.22024,40.1139059 37.6786448,70.9706156 68.8963185,75.1883363 Z" id="Leaf" fill="#668AFE" opacity="0.100000001" mask="url(#mask-6)" transform="translate(36.551156, 41.575797) scale(-1, 1) rotate(-60.000000) translate(-36.551156, -41.575797) "></path>
                            <circle id="Oval" fill="#FAEAEA" mask="url(#mask-6)" cx="32.7014565" cy="-8.39689303" r="15.625"></circle>
                        </g>
                    </g>
                    <g id="Group-48" transform="translate(43.125000, 41.875000)">
                        <g id="Logo-/-Imagotipo">
                            <g id="Group-2" stroke-width="1">
                                <path d="M12.4801421,4.1572918 C12.4801421,2.76903566 12.3411178,0.485884857 10.128862,0.238101792 C10.0187148,0.225832457 10.0199377,0.0882817032 10.1190795,0.0716030752 C10.3399383,0.0346033603 10.5063348,0 10.8613267,0 C12.7509481,0 14.7727273,1.5075946 14.7727273,4.1572918 C14.7727273,4.68822812 14.3549017,5.31818182 13.637393,5.31818182 C12.8828237,5.31818182 12.4801421,4.73970182 12.4801421,4.1572918" id="Fill-14" fill="#3E6BFD"></path>
                                <path d="M9.4941194,0.743538223 C10.4796406,0.743538223 11.0588368,1.24448321 11.3499785,1.60921727 C11.4330378,1.7132486 11.3562489,1.81679965 11.2270777,1.78337129 C11.131767,1.75868426 11.032308,1.74302673 10.920887,1.74302673 C8.68397778,1.74302673 8.21379079,7.3912655 5.30758377,7.3912655 C4.32109791,7.3912655 3.7417087,6.89012839 3.45085648,6.52577857 C3.36789365,6.42184329 3.40715629,6.31454597 3.53623101,6.3477822 C3.63183119,6.37237317 3.78145368,6.40311189 3.89335703,6.40311189 C6.13026629,6.40311189 6.52077037,0.743538223 9.4941194,0.743538223" id="Fill-10" fill="#FF6766"></path>
                                <path d="M2.29258513,3.96761235 C2.29258513,5.35586849 2.43160949,7.63901929 4.64386525,7.88680235 C4.75401243,7.89916754 4.75278962,8.03662244 4.65364775,8.05330107 C4.43288308,8.09030079 4.26639247,8.125 3.91140062,8.125 C2.02177921,8.125 0,6.6174054 0,3.96761235 C0,3.43667602 0.417825591,2.80681818 1.13533428,2.80681818 C1.8899036,2.80681818 2.29258513,3.38520233 2.29258513,3.96761235" id="Fill-12" fill="#3E6BFD"></path>
                            </g>
                            <path d="M9.59754127,8.86363636 C9.8447842,8.86353889 10.0440629,9.0729843 10.0441557,9.32445531 L10.0454545,15.7888886 C10.0454545,16.0403596 9.84617581,16.2499025 9.59902565,16.25 C9.35976129,16.25 9.16038978,16.0405546 9.16038978,15.7890836 L9.15909091,9.32465033 C9.15899817,9.07317932 9.35836968,8.86363636 9.59754127,8.86363636" id="Fill-6" fill="#3E6BFD"></path>
                            <path d="M1.76061902,16.25 C0.79609317,16.2501925 0.00059068236,15.4728317 0.00039380017,14.5297393 L0,12.5527003 C-9.84053045e-05,12.3211379 0.202887132,12.1142138 0.448300782,12.1142138 C0.702180366,12.1141176 0.89679841,12.3209454 0.896896851,12.5526041 L0.897290616,14.5295468 C0.897389057,15.0010449 1.27825765,15.3732195 1.76042214,15.3731232 C2.25115099,15.373027 2.64028864,15.0007562 2.64865614,14.5292581 L2.64826237,12.5522191 C2.64826237,12.3205604 2.83431604,12.1137326 3.08809718,12.1136364 C3.3250449,12.1136364 3.5449623,12.3204642 3.54506075,12.5520266 L3.54545455,14.5290656 C3.54565139,15.4720618 2.7336108,16.2498075 1.76061902,16.25" id="Path" fill="#3E6BFD"></path>
                            <path d="M13.8842623,14.189951 C13.8841648,13.8425992 13.7584111,13.5448142 13.5573026,13.3379815 C13.356194,13.1146909 13.0712496,12.9989069 12.7780192,12.9990031 C12.4764051,12.9990994 12.1915582,13.1149796 11.9988333,13.3382703 C11.7978222,13.5451991 11.680647,13.8430805 11.6807444,14.1904322 C11.6807444,14.529603 11.7981147,14.8273881 11.9992232,15.0424016 C12.1919482,15.2492342 12.4768925,15.3649219 12.7785066,15.3649219 C13.0717371,15.3648257 13.356584,15.2489455 13.5576925,15.0421129 C13.7587035,14.8270031 13.8842623,14.5291218 13.8842623,14.189951 L13.8842623,14.189951 Z M14.7723373,14.1897585 L14.7727273,15.8112145 C14.7727273,16.0510595 14.5717162,16.249615 14.3286898,16.2497112 C14.1109116,16.2497112 13.9432399,16.0926378 13.8930359,15.8940823 C13.5746546,16.1174693 13.1975883,16.2499037 12.7787016,16.25 C12.2089103,16.2500962 11.7145713,16.0186246 11.3541747,15.6464414 C10.9938755,15.265981 10.7842859,14.7531825 10.7840909,14.1906247 C10.7839935,13.619886 10.9933881,13.1068949 11.3535898,12.7346155 C11.7137914,12.3540589 12.2081304,12.1140214 12.7778242,12.1139251 C13.196711,12.1138289 13.5737773,12.2544443 13.8923535,12.4776387 C13.94246,12.2709023 14.1100342,12.1136364 14.3278124,12.1136364 C14.5708389,12.1135402 14.7719474,12.3119994 14.7720449,12.5602178 L14.7723373,14.1897585 Z" id="Fill-8" fill="#3E6BFD"></path>
                            <path d="M7.38426233,14.189951 C7.38416485,13.8425992 7.25841109,13.5448142 7.05730255,13.3379815 C6.85619402,13.1146909 6.57124965,12.9989069 6.27801917,12.9990031 C5.97640512,12.9990994 5.69155823,13.1149796 5.49883328,13.3382703 C5.29782223,13.5451991 5.18064702,13.8430805 5.18074444,14.1904322 C5.18074444,14.529603 5.29811468,14.8273881 5.49922321,15.0424016 C5.69194816,15.2492342 5.97689253,15.3649219 6.27850659,15.3649219 C6.57173707,15.3648257 6.85658396,15.2489455 7.05769249,15.0421129 C7.25870354,14.8270031 7.38426233,14.5291218 7.38426233,14.189951 L7.38426233,14.189951 Z M8.27233734,14.1897585 L8.27272727,15.8112145 C8.27272727,16.0510595 8.07171622,16.249615 7.82868977,16.2497112 C7.61091155,16.2497112 7.44323987,16.0926378 7.39303585,15.8940823 C7.07465462,16.1174693 6.69758831,16.2499037 6.27870156,16.25 C5.70891029,16.2500962 5.21457129,16.0186246 4.85417466,15.6464414 C4.49387551,15.265981 4.28428591,14.7531825 4.28409091,14.1906247 C4.28399346,13.619886 4.49338809,13.1068949 4.85358976,12.7346155 C5.21379142,12.3540589 5.70813043,12.1140214 6.27782421,12.1139251 C6.69671096,12.1138289 7.07377727,12.2544443 7.39235347,12.4776387 C7.44246,12.2709023 7.6100342,12.1136364 7.82781242,12.1136364 C8.07083887,12.1135402 8.2719474,12.3119994 8.27204489,12.5602178 L8.27233734,14.1897585 Z" id="Fill-8-Copy" fill="#3E6BFD"></path>
                            <path d="M14.2076754,9.73149638 L14.2051598,9.72897724 C13.9640489,9.47864949 13.5126915,9.33981695 13.1485095,9.57642939 C12.8689872,9.77310882 12.6741247,10.0334198 12.5805635,10.1586303 C12.5695336,10.1732787 12.5598582,10.1863409 12.5510536,10.1976303 L12.5466996,10.2033217 C12.5230917,10.2349509 12.4993869,10.2673265 12.4754887,10.3000753 C12.2577922,10.5972404 12.0111663,10.9341519 11.7101646,10.9675538 C11.6879112,10.9699796 11.6662383,10.9708193 11.6460167,10.9696997 C11.5986073,10.9673672 11.5539069,10.9927452 11.5335886,11.0344509 C11.5138508,11.0748504 11.5212041,11.1205681 11.5541005,11.1549964 C11.7082296,11.3153815 11.9485665,11.430049 12.1971275,11.430049 C12.337324,11.430049 12.4801329,11.3934748 12.6116216,11.3080107 C12.8908536,11.1116112 13.0856194,10.8513002 13.1791805,10.7262763 C13.1903072,10.7114414 13.2000794,10.6982859 13.2091742,10.6865299 L13.2133346,10.681305 C13.2368459,10.6496758 13.2606473,10.6172069 13.2846423,10.5844581 C13.5022421,10.287293 13.748868,9.95047485 14.0498697,9.91697963 C14.0723166,9.91455379 14.0938927,9.91371408 14.1140175,9.9148337 C14.1617173,9.91744614 14.2061273,9.89188155 14.2263489,9.8500825 C14.2460867,9.80968298 14.2388302,9.76415188 14.2076754,9.73149638" id="Fill-11" fill="#FF6766"></path>
                        </g>
                    </g>
                </g>
            </g>
        </g>
    </g>
</svg>