<?xml version="1.0" encoding="UTF-8"?>
<svg width="100px" height="100px" viewBox="0 0 100 100" version="1.1" xmlns="http://www.w3.org/2000/svg" xmlns:xlink="http://www.w3.org/1999/xlink">
    <!-- Generator: Sketch 64 (93537) - https://sketch.com -->
    <title>Illustration / Doc Frente Copy</title>
    <desc>Created with Sketch.</desc>
    <defs>
        <polygon id="path-1" points="-6.25e-05 0 99.9993125 0 99.9993125 99.999875 -6.25e-05 99.999875"></polygon>
        <polygon id="path-3" points="-6.25e-05 0 99.9993125 0 99.9993125 99.999875 -6.25e-05 99.999875"></polygon>
        <polygon id="path-5" points="-6.25e-05 0 99.9993125 0 99.9993125 99.999875 -6.25e-05 99.999875"></polygon>
        <path d="M50,0 C22.385625,0 0,22.385625 0,50 L0,50 C0,77.614375 22.385625,100 50,100 L50,100 C77.614375,100 99.999375,77.614375 99.999375,50 L99.999375,50 C99.999375,22.385625 77.614375,0 50,0 Z" id="path-7"></path>
        <path d="M0.190625,10.135625 C0.190625,15.48625 4.5275,19.82375 9.878125,19.82375 L9.878125,19.82375 C15.228125,19.82375 19.565,15.48625 19.565,10.135625 L19.565,10.135625 C19.565,4.785625 15.228125,0.448125 9.878125,0.448125 L9.878125,0.448125 C4.5275,0.448125 0.190625,4.785625 0.190625,10.135625" id="path-9"></path>
        <path d="M0.190625,10.135625 C0.190625,15.48625 4.5275,19.82375 9.878125,19.82375 L9.878125,19.82375 C15.228125,19.82375 19.565,15.48625 19.565,10.135625 L19.565,10.135625 C19.565,4.785625 15.228125,0.448125 9.878125,0.448125 L9.878125,0.448125 C4.5275,0.448125 0.190625,4.785625 0.190625,10.135625" id="path-11"></path>
        <path d="M0.190625,10.135625 C0.190625,15.48625 4.5275,19.82375 9.878125,19.82375 L9.878125,19.82375 C15.228125,19.82375 19.565,15.48625 19.565,10.135625 L19.565,10.135625 C19.565,4.785625 15.228125,0.448125 9.878125,0.448125 L9.878125,0.448125 C4.5275,0.448125 0.190625,4.785625 0.190625,10.135625" id="path-13"></path>
        <path d="M0.190625,10.135625 C0.190625,15.48625 4.5275,19.82375 9.878125,19.82375 L9.878125,19.82375 C15.228125,19.82375 19.565,15.48625 19.565,10.135625 L19.565,10.135625 C19.565,4.785625 15.228125,0.448125 9.878125,0.448125 L9.878125,0.448125 C4.5275,0.448125 0.190625,4.785625 0.190625,10.135625" id="path-15"></path>
        <path d="M0.190625,10.135625 C0.190625,15.48625 4.5275,19.82375 9.878125,19.82375 L9.878125,19.82375 C15.228125,19.82375 19.565,15.48625 19.565,10.135625 L19.565,10.135625 C19.565,4.785625 15.228125,0.448125 9.878125,0.448125 L9.878125,0.448125 C4.5275,0.448125 0.190625,4.785625 0.190625,10.135625" id="path-17"></path>
        <path d="M0.190625,10.135625 C0.190625,15.48625 4.5275,19.82375 9.878125,19.82375 L9.878125,19.82375 C15.228125,19.82375 19.565,15.48625 19.565,10.135625 L19.565,10.135625 C19.565,4.785625 15.228125,0.448125 9.878125,0.448125 L9.878125,0.448125 C4.5275,0.448125 0.190625,4.785625 0.190625,10.135625" id="path-19"></path>
        <path d="M0.190625,10.135625 C0.190625,15.48625 4.5275,19.82375 9.878125,19.82375 L9.878125,19.82375 C15.228125,19.82375 19.565,15.48625 19.565,10.135625 L19.565,10.135625 C19.565,4.785625 15.228125,0.448125 9.878125,0.448125 L9.878125,0.448125 C4.5275,0.448125 0.190625,4.785625 0.190625,10.135625" id="path-21"></path>
        <path d="M1.185625,0.390625 C0.79,0.390625 0.51125,0.7925 0.663125,1.15875 L0.663125,1.15875 C0.965,1.886875 1.6825,2.399375 2.52,2.399375 L2.52,2.399375 C3.3575,2.399375 4.075625,1.886875 4.376875,1.15875 L4.376875,1.15875 C4.52875,0.7925 4.250625,0.390625 3.854375,0.390625 L3.854375,0.390625" id="path-23"></path>
        <path d="M0.1825,3.209375 C0.67375,3.700625 1.836875,2.9225 1.836875,2.9225 L1.836875,2.9225 L0.676875,0.389375 C0.676875,0.389375 -0.309375,2.7175 0.1825,3.209375" id="path-25"></path>
        <linearGradient x1="26.8600754%" y1="61.9077417%" x2="58.7904784%" y2="42.5624983%" id="linearGradient-27">
            <stop stop-color="#EDCABC" offset="0%"></stop>
            <stop stop-color="#FFE8E2" offset="100%"></stop>
        </linearGradient>
    </defs>
    <g id="Welcome" stroke="none" stroke-width="1" fill="none" fill-rule="evenodd">
        <g id="Home---Desktop-" transform="translate(-459.000000, -796.000000)">
            <g id="Illustration-/-Doc-Frente" transform="translate(459.000000, 796.000000)">
                <g id="Group-65">
                    <g id="Group-10">
                        <g id="Group-3">
                            <mask id="mask-2" fill="white">
                                <use xlink:href="#path-1"></use>
                            </mask>
                            <g id="Clip-2"></g>
                            <path d="M49.9999375,99.999875 C77.6143125,99.999875 99.9993125,77.614875 99.9993125,49.999875 C99.9993125,22.3855 77.6143125,-0.000125 49.9999375,-0.000125 C22.3855625,-0.000125 -6.25e-05,22.3855 -6.25e-05,49.999875 C-6.25e-05,77.614875 22.3855625,99.999875 49.9999375,99.999875" id="Fill-1" fill="#F0F2F7" mask="url(#mask-2)"></path>
                        </g>
                        <g id="Group-6">
                            <mask id="mask-4" fill="white">
                                <use xlink:href="#path-3"></use>
                            </mask>
                            <g id="Clip-5"></g>
                            <path d="M-6.25e-05,49.999875 C-6.25e-05,77.614875 22.3855625,99.999875 49.9999375,99.999875 C77.6143125,99.999875 99.9993125,77.614875 99.9993125,49.999875 C99.9993125,22.3855 77.6143125,-0.000125 49.9999375,-0.000125 C22.3855625,-0.000125 -6.25e-05,22.3855 -6.25e-05,49.999875" id="Fill-4" fill="#F0F2F7" mask="url(#mask-4)"></path>
                        </g>
                        <g id="Group-9">
                            <mask id="mask-6" fill="white">
                                <use xlink:href="#path-5"></use>
                            </mask>
                            <g id="Clip-8"></g>
                            <path d="M-6.25e-05,49.999875 C-6.25e-05,77.614875 22.3855625,99.999875 49.9999375,99.999875 C77.6143125,99.999875 99.9993125,77.614875 99.9993125,49.999875 C99.9993125,22.3855 77.6143125,-0.000125 49.9999375,-0.000125 C22.3855625,-0.000125 -6.25e-05,22.3855 -6.25e-05,49.999875" id="Fill-7" fill="#F0F2F7" mask="url(#mask-6)"></path>
                        </g>
                    </g>
                    <g id="Group-14">
                        <mask id="mask-8" fill="white">
                            <use xlink:href="#path-7"></use>
                        </mask>
                        <g id="Clip-12"></g>
                        <polygon id="Fill-11" fill="#F0F2F7" mask="url(#mask-8)" points="-6.875 121.25 138.75 121.25 138.75 54.375 -6.875 54.375"></polygon>
                        <polygon id="Fill-13" fill="#F0F2F7" mask="url(#mask-8)" points="0 100 100 100 100 0 0 0"></polygon>
                    </g>
                    <g id="Group-19" transform="translate(15.625000, 32.500000)">
                        <path d="M3.7499375,-0.000125 L64.9999375,-0.000125 C67.0705625,-0.000125 68.7499375,1.67925 68.7499375,3.749875 L68.7499375,33.749875 C68.7499375,35.8205 67.0705625,37.499875 64.9999375,37.499875 L3.7499375,37.499875 C1.6793125,37.499875 -6.25e-05,35.8205 -6.25e-05,33.749875 L-6.25e-05,3.749875 C-6.25e-05,1.67925 1.6793125,-0.000125 3.7499375,-0.000125" id="Fill-15" fill="#FFFFFF"></path>
                        <path d="M27.690375,18.886 C27.690375,24.236625 23.3535,28.5735 18.002875,28.5735 C12.65225,28.5735 8.315375,24.236625 8.315375,18.886 C8.315375,13.535375 12.65225,9.1985 18.002875,9.1985 C23.3535,9.1985 27.690375,13.535375 27.690375,18.886" id="Fill-17" fill="#E6EAF6"></path>
                    </g>
                    <g id="Group-41" transform="translate(23.750000, 41.250000)">
                        <g id="Group-22">
                            <mask id="mask-10" fill="white">
                                <use xlink:href="#path-9"></use>
                            </mask>
                            <g id="Clip-21"></g>
                            <path d="M4.1619375,21.588625 C4.1619375,21.588625 5.3913125,21.52175 9.3163125,21.52175 C12.6488125,21.52175 15.9863125,21.588625 15.9863125,21.588625 C15.9863125,21.28425 15.1375625,18.617375 14.7738125,18.253625 C14.4100625,17.889875 12.2275625,17.458625 11.4144375,17.458625 C11.4144375,17.458625 11.1881875,17.994875 10.2144375,17.994875 C9.2400625,17.994875 8.8725625,17.458625 8.8725625,17.458625 C8.0125625,17.458625 5.5363125,17.90425 5.0719375,18.253625 C4.3769375,18.7755 4.1619375,21.588625 4.1619375,21.588625" id="Fill-20" fill="#FF8382" mask="url(#mask-10)"></path>
                        </g>
                        <g id="Group-25">
                            <mask id="mask-12" fill="white">
                                <use xlink:href="#path-11"></use>
                            </mask>
                            <g id="Clip-24"></g>
                            <path d="M8.99225,15.704875 C8.99225,15.704875 9.307875,15.4205 10.2085,15.4205 C11.109125,15.4205 11.297875,15.704875 11.297875,15.704875 L11.297875,17.03175 C11.297875,17.473625 11.551,17.553 11.551,17.789875 C11.551,17.953 11.109125,18.389875 10.2085,18.389875 C9.307875,18.389875 8.707875,18.07425 8.707875,17.789875 C8.707875,17.5055 9.055375,17.486125 9.055375,16.92675 C9.055375,16.368625 8.99225,15.704875 8.99225,15.704875" id="Fill-23" fill="#FFE8E3" mask="url(#mask-12)"></path>
                        </g>
                        <g id="Group-28">
                            <mask id="mask-14" fill="white">
                                <use xlink:href="#path-13"></use>
                            </mask>
                            <g id="Clip-27"></g>
                            <path d="M10.2453125,16.725375 C9.1709375,16.725375 6.3909375,14.861625 5.7903125,14.261 C5.1903125,13.661 5.0640625,11.06975 5.0640625,9.174125 C5.0640625,7.279125 6.8646875,4.97225 10.2134375,4.97225 C13.5628125,4.97225 15.3321875,7.279125 15.3321875,9.426625 C15.3321875,11.575375 15.3321875,13.407875 14.5421875,14.197875 C13.7521875,14.987875 11.7621875,16.725375 10.2453125,16.725375" id="Fill-26" fill="#FFE8E3" mask="url(#mask-14)"></path>
                        </g>
                        <g id="Group-31">
                            <mask id="mask-16" fill="white">
                                <use xlink:href="#path-15"></use>
                            </mask>
                            <g id="Clip-30"></g>
                            <path d="M5.14275,12.1440625 C4.94775,12.1440625 4.479,8.6740625 4.479,8.2321875 C4.479,6.4628125 5.679625,5.5409375 5.679625,5.3515625 C5.679625,5.1621875 5.5215,4.8459375 5.5215,4.5296875 C5.5215,4.2140625 5.869625,2.8871875 7.76525,2.8871875 C9.660875,2.8871875 14.4315,4.4034375 14.747125,4.4034375 C15.063375,4.4034375 15.189625,4.2140625 15.50525,4.2140625 C15.8215,4.2140625 15.50525,4.6246875 15.50525,5.0040625 C15.50525,5.3834375 16.042125,6.1096875 16.042125,6.8046875 C16.042125,9.9553125 15.442125,12.1440625 15.2215,12.1440625 C14.999625,12.1440625 14.779,6.7734375 13.484,6.7734375 C12.18775,6.7734375 11.967125,7.6890625 10.608375,7.6890625 C9.249625,7.6890625 8.5865,6.7734375 7.228375,6.7734375 C5.553375,6.7734375 5.77525,12.1440625 5.14275,12.1440625" id="Fill-29" fill="#2D242D" mask="url(#mask-16)"></path>
                        </g>
                        <g id="Group-34">
                            <mask id="mask-18" fill="white">
                                <use xlink:href="#path-17"></use>
                            </mask>
                            <g id="Clip-33"></g>
                            <path d="M8.1945625,10.8318125 C8.1945625,11.0849375 7.9895625,11.2899375 7.7364375,11.2899375 C7.4833125,11.2899375 7.2783125,11.0849375 7.2783125,10.8318125 C7.2783125,10.5793125 7.4833125,10.3743125 7.7364375,10.3743125 C7.9895625,10.3743125 8.1945625,10.5793125 8.1945625,10.8318125" id="Fill-32" fill="#2D242D" mask="url(#mask-18)"></path>
                        </g>
                        <g id="Group-37">
                            <mask id="mask-20" fill="white">
                                <use xlink:href="#path-19"></use>
                            </mask>
                            <g id="Clip-36"></g>
                            <path d="M12.8856875,10.8318125 C12.8856875,11.0849375 12.6806875,11.2899375 12.4281875,11.2899375 C12.1744375,11.2899375 11.9694375,11.0849375 11.9694375,10.8318125 C11.9694375,10.5793125 12.1744375,10.3743125 12.4281875,10.3743125 C12.6806875,10.3743125 12.8856875,10.5793125 12.8856875,10.8318125" id="Fill-35" fill="#2D242D" mask="url(#mask-20)"></path>
                        </g>
                        <g id="Group-40">
                            <mask id="mask-22" fill="white">
                                <use xlink:href="#path-21"></use>
                            </mask>
                            <g id="Clip-39"></g>
                            <path d="M10.020125,15.5248125 C10.857625,15.5248125 11.575125,15.0123125 11.877,14.2841875 C12.028875,13.9179375 11.75075,13.5160625 11.3545,13.5160625 L8.68575,13.5160625 C8.2895,13.5160625 8.011375,13.9179375 8.16325,14.2841875 C8.465125,15.0123125 9.182625,15.5248125 10.020125,15.5248125" id="Fill-38" fill="#2D242D" mask="url(#mask-22)"></path>
                        </g>
                    </g>
                    <g id="Group-44" transform="translate(31.250000, 54.375000)">
                        <mask id="mask-24" fill="white">
                            <use xlink:href="#path-23"></use>
                        </mask>
                        <g id="Clip-43"></g>
                        <path d="M2.5170625,1.569125 C1.8839375,1.569125 1.3708125,1.6935 1.3708125,2.4685 L3.6633125,2.4685 C3.6633125,1.6935 3.1501875,1.569125 2.5170625,1.569125" id="Fill-42" fill="#F193AF" mask="url(#mask-24)"></path>
                    </g>
                    <g id="Group-47" transform="translate(33.125000, 50.625000)">
                        <mask id="mask-26" fill="white">
                            <use xlink:href="#path-25"></use>
                        </mask>
                        <g id="Clip-46"></g>
                        <path d="M0.1825,3.209375 C0.67375,3.700625 1.836875,2.9225 1.836875,2.9225 L1.836875,2.9225 L0.676875,0.389375 C0.676875,0.389375 -0.309375,2.7175 0.1825,3.209375" id="Fill-45" fill="url(#linearGradient-27)" mask="url(#mask-26)"></path>
                    </g>
                    <g id="Group-64" transform="translate(48.750000, 43.750000)" fill="#FF8382">
                        <path d="M0.811125,0.3618125 L9.07925,0.3618125 C9.42425,0.3618125 9.70425,0.6418125 9.70425,0.9868125 L9.70425,1.0961875 C9.70425,1.4418125 9.42425,1.7211875 9.07925,1.7211875 L0.811125,1.7211875 C0.466125,1.7211875 0.186125,1.4418125 0.186125,1.0961875 L0.186125,0.9868125 C0.186125,0.6418125 0.466125,0.3618125 0.811125,0.3618125" id="Fill-48"></path>
                        <path d="M0.811125,14.6379375 L5.679875,14.6379375 C6.024875,14.6379375 6.304875,14.9179375 6.304875,15.2629375 L6.304875,15.3729375 C6.304875,15.7185625 6.024875,15.9979375 5.679875,15.9979375 L0.811125,15.9979375 C0.466125,15.9979375 0.186125,15.7185625 0.186125,15.3729375 L0.186125,15.2629375 C0.186125,14.9179375 0.466125,14.6379375 0.811125,14.6379375" id="Fill-50"></path>
                        <path d="M8.9690625,14.6379375 L11.7978125,14.6379375 C12.1434375,14.6379375 12.4228125,14.9179375 12.4228125,15.2629375 L12.4228125,15.3729375 C12.4228125,15.7185625 12.1434375,15.9979375 11.7978125,15.9979375 L8.9690625,15.9979375 C8.6240625,15.9979375 8.3440625,15.7185625 8.3440625,15.3729375 L8.3440625,15.2629375 C8.3440625,14.9179375 8.6240625,14.6379375 8.9690625,14.6379375" id="Fill-52"></path>
                        <path d="M23.2458125,14.6379375 L26.0745625,14.6379375 C26.4195625,14.6379375 26.6995625,14.9179375 26.6995625,15.2629375 L26.6995625,15.3729375 C26.6995625,15.7185625 26.4195625,15.9979375 26.0745625,15.9979375 L23.2458125,15.9979375 C22.9001875,15.9979375 22.6208125,15.7185625 22.6208125,15.3729375 L22.6208125,15.2629375 C22.6208125,14.9179375 22.9001875,14.6379375 23.2458125,14.6379375" id="Fill-54"></path>
                        <path d="M15.0878125,14.6379375 L19.9559375,14.6379375 C20.3015625,14.6379375 20.5809375,14.9179375 20.5809375,15.2629375 L20.5809375,15.3729375 C20.5809375,15.7185625 20.3015625,15.9979375 19.9559375,15.9979375 L15.0878125,15.9979375 C14.7421875,15.9979375 14.4628125,15.7185625 14.4628125,15.3729375 L14.4628125,15.2629375 C14.4628125,14.9179375 14.7421875,14.6379375 15.0878125,14.6379375" id="Fill-56"></path>
                        <path d="M13.0480625,0.3618125 L15.8768125,0.3618125 C16.2224375,0.3618125 16.5018125,0.6418125 16.5018125,0.9868125 L16.5018125,1.0961875 C16.5018125,1.4418125 16.2224375,1.7211875 15.8768125,1.7211875 L13.0480625,1.7211875 C12.7030625,1.7211875 12.4230625,1.4418125 12.4230625,1.0961875 L12.4230625,0.9868125 C12.4230625,0.6418125 12.7030625,0.3618125 13.0480625,0.3618125" id="Fill-58"></path>
                        <path d="M0.811125,5.12075 L26.074875,5.12075 C26.419875,5.12075 26.699875,5.400125 26.699875,5.74575 L26.699875,5.855125 C26.699875,6.20075 26.419875,6.480125 26.074875,6.480125 L0.811125,6.480125 C0.466125,6.480125 0.186125,6.20075 0.186125,5.855125 L0.186125,5.74575 C0.186125,5.400125 0.466125,5.12075 0.811125,5.12075" id="Fill-60"></path>
                        <path d="M0.811125,9.8796875 L26.074875,9.8796875 C26.419875,9.8796875 26.699875,10.1590625 26.699875,10.5046875 L26.699875,10.6140625 C26.699875,10.9596875 26.419875,11.2390625 26.074875,11.2390625 L0.811125,11.2390625 C0.466125,11.2390625 0.186125,10.9596875 0.186125,10.6140625 L0.186125,10.5046875 C0.186125,10.1590625 0.466125,9.8796875 0.811125,9.8796875" id="Fill-62"></path>
                    </g>
                </g>
            </g>
        </g>
    </g>
</svg>