<?xml version="1.0" encoding="UTF-8"?>
<svg width="45px" height="45px" viewBox="0 0 45 45" version="1.1" xmlns="http://www.w3.org/2000/svg" xmlns:xlink="http://www.w3.org/1999/xlink">
    <title>Group 10</title>
    <defs>
        <filter id="filter-1">
            <feColorMatrix in="SourceGraphic" type="matrix" values="0 0 0 0 0.780392 0 0 0 0 0.831373 0 0 0 0 1.000000 0 0 0 1.000000 0"></feColorMatrix>
        </filter>
        <polygon id="path-2" points="0 0 44.9614565 0 44.9614565 44.9615217 0 44.9615217"></polygon>
        <polygon id="path-4" points="0 0.17465625 24.9992233 0.17465625 24.9992233 23.4079152 0 23.4079152"></polygon>
        <polygon id="path-6" points="0.135 0.156865179 3.08208738 0.156865179 3.08208738 3.61607143 0.135 3.61607143"></polygon>
        <polygon id="path-8" points="0.0975485437 0.156865179 3.04463592 0.156865179 3.04463592 3.61607143 0.0975485437 3.61607143"></polygon>
        <polygon id="path-10" points="0 26.8254643 24.9992718 26.8254643 24.9992718 0.241071429 0 0.241071429"></polygon>
    </defs>
    <g id="Page-1" stroke="none" stroke-width="1" fill="none" fill-rule="evenodd">
        <g id="Pagos-y-Recargas" transform="translate(-30.000000, -1598.000000)">
            <g id="Group-10" transform="translate(30.000000, 1598.000000)">
                <g filter="url(#filter-1)" id="Group-3">
                    <g>
                        <mask id="mask-3" fill="white">
                            <use xlink:href="#path-2"></use>
                        </mask>
                        <g id="Clip-2"></g>
                        <path d="M36.3790652,44.9615217 L8.58232609,44.9615217 C3.84254348,44.9615217 -6.52173913e-05,41.118913 -6.52173913e-05,36.3791304 L-6.52173913e-05,8.5823913 C-6.52173913e-05,3.8426087 3.84254348,0 8.58232609,0 L36.3790652,0 C41.1190652,0 44.9614565,3.8426087 44.9614565,8.5823913 L44.9614565,36.3791304 C44.9614565,41.118913 41.1190652,44.9615217 36.3790652,44.9615217" id="Fill-1" fill="#FF6666" mask="url(#mask-3)"></path>
                    </g>
                </g>
                <g id="Group-19" transform="translate(10.000000, 9.000000)">
                    <path d="M21.8095874,0.482142857 L3.05570388,0.482142857 C1.44817961,0.482142857 0.242839806,1.81261607 0.242839806,3.27616071 L0.242839806,22.1689286 C0.242839806,22.8340446 0.778519417,23.2332589 1.31444175,23.2332589 L23.6850728,23.2332589 C24.354733,23.2332589 24.7566748,22.7009732 24.7566748,22.1689286 L24.7566748,3.27616071 C24.7566748,1.81261607 23.4171117,0.482142857 21.8095874,0.482142857 M21.8095874,1.81261607 C22.6134709,1.81261607 23.2831311,2.47773214 23.2831311,3.27616071 L23.2831311,21.9025446 L1.44817961,21.9025446 L1.44817961,3.27616071 C1.44817961,2.47773214 2.11808252,1.81261607 2.9217233,1.81261607 L21.8095874,1.81261607" id="Fill-1" fill="#668AFF"></path>
                    <g id="Group-5" transform="translate(0.000000, 0.066536)">
                        <mask id="mask-5" fill="white">
                            <use xlink:href="#path-4"></use>
                        </mask>
                        <g id="Clip-4"></g>
                        <path d="M1.69097087,21.595058 L23.0402427,21.595058 L23.0402427,3.20950446 C23.0402427,2.54679911 22.4766505,1.98703125 21.8096602,1.98703125 L2.92179612,1.98703125 C2.25456311,1.98703125 1.69097087,2.54679911 1.69097087,3.20950446 L1.69097087,21.595058 Z M23.5256796,22.0772009 L1.20553398,22.0772009 L1.20553398,3.20950446 C1.20553398,2.28547768 1.99145631,1.50488839 2.92179612,1.50488839 L21.8096602,1.50488839 C22.74,1.50488839 23.5256796,2.28547768 23.5256796,3.20950446 L23.5256796,22.0772009 Z M3.0557767,0.656799107 C1.63854369,0.656799107 0.48538835,1.80212946 0.48538835,3.20950446 L0.48538835,22.1022723 C0.48538835,22.6369687 0.912330097,22.9257723 1.31427184,22.9257723 L23.6849029,22.9257723 C24.2232524,22.9257723 24.5137864,22.5014866 24.5137864,22.1022723 L24.5137864,3.20950446 C24.5137864,1.84962054 23.2501942,0.656799107 21.8096602,0.656799107 L3.0557767,0.656799107 Z M23.6849029,23.4079152 L1.31427184,23.4079152 C0.668398058,23.4079152 -4.85436893e-05,22.9195045 -4.85436893e-05,22.1022723 L-4.85436893e-05,3.20950446 C-4.85436893e-05,1.53598661 1.37082524,0.17465625 3.0557767,0.17465625 L21.8096602,0.17465625 C23.5086893,0.17465625 24.9992233,1.59263839 24.9992233,3.20950446 L24.9992233,22.1022723 C24.9992233,22.7442455 24.5077184,23.4079152 23.6849029,23.4079152 L23.6849029,23.4079152 Z" id="Fill-3" fill="#668AFF" mask="url(#mask-5)"></path>
                    </g>
                    <g id="Group-8" transform="translate(4.126214, 23.209393)">
                        <mask id="mask-7" fill="white">
                            <use xlink:href="#path-6"></use>
                        </mask>
                        <g id="Clip-7"></g>
                        <path d="M3.08208738,0.156865179 L3.08208738,2.28552589 C3.08208738,3.08395446 2.41242718,3.61624018 1.60854369,3.61624018 C0.804902913,3.61624018 0.135,2.95088304 0.135,2.28552589 L0.135,0.156865179" id="Fill-6" fill="#668AFF" mask="url(#mask-7)"></path>
                    </g>
                    <g id="Group-11" transform="translate(17.961165, 23.209393)">
                        <mask id="mask-9" fill="white">
                            <use xlink:href="#path-8"></use>
                        </mask>
                        <g id="Clip-10"></g>
                        <path d="M3.04463592,0.156865179 L3.04463592,2.28552589 C3.04463592,3.08395446 2.37497573,3.61624018 1.57109223,3.61624018 C0.767451456,3.61624018 0.0975485437,2.95088304 0.0975485437,2.28552589 L0.0975485437,0.156865179" id="Fill-9" fill="#668AFF" mask="url(#mask-9)"></path>
                    </g>
                    <path d="M19.3982767,17.2460089 C18.5946359,17.2460089 17.7907524,17.9113661 17.7907524,18.7095536 C17.7907524,19.5079821 18.4606553,20.1730982 19.3982767,20.1730982 C20.2021602,20.1730982 21.005801,19.5079821 21.005801,18.7095536 C21.005801,17.9113661 20.3361408,17.2460089 19.3982767,17.2460089 M19.3982767,18.5767232 C19.5322573,18.5767232 19.6662379,18.7095536 19.6662379,18.7095536 C19.6662379,18.7095536 19.5322573,18.842625 19.3982767,18.842625 C19.2642961,18.842625 19.1303155,18.7095536 19.1303155,18.7095536 C19.2642961,18.7095536 19.2642961,18.5767232 19.3982767,18.5767232" id="Fill-12" fill="#668AFF"></path>
                    <path d="M5.73480583,17.2460089 C4.93092233,17.2460089 4.12728155,17.9113661 4.12728155,18.7095536 C4.12728155,19.5079821 4.79718447,20.1730982 5.73480583,20.1730982 C6.53868932,20.1730982 7.3423301,19.5079821 7.3423301,18.7095536 C7.20834951,17.9113661 6.53868932,17.2460089 5.73480583,17.2460089 M5.73480583,18.5767232 C5.86878641,18.5767232 6.00276699,18.7095536 6.00276699,18.7095536 C6.00276699,18.7095536 5.86878641,18.842625 5.73480583,18.842625 C5.60082524,18.842625 5.46684466,18.7095536 5.46684466,18.7095536 C5.46684466,18.7095536 5.60082524,18.5767232 5.73480583,18.5767232" id="Fill-14" fill="#668AFF"></path>
                    <mask id="mask-11" fill="white">
                        <use xlink:href="#path-10"></use>
                    </mask>
                    <g id="Clip-17"></g>
                    <polygon id="Fill-16" fill="#668AFF" mask="url(#mask-11)" points="1.49199029 15.2540357 23.3366505 15.2540357 23.3366505 13.0843929 1.49199029 13.0843929"></polygon>
                    <path d="M14.2348301,19.3523464 L10.8367718,19.3523464 C10.5018204,19.3523464 10.2299757,19.0823464 10.2299757,18.7496679 C10.2299757,18.4167482 10.5018204,18.1469893 10.8367718,18.1469893 L14.2348301,18.1469893 C14.5700243,18.1469893 14.8416262,18.4167482 14.8416262,18.7496679 C14.8416262,19.0823464 14.5700243,19.3523464 14.2348301,19.3523464" id="Fill-18" fill="#668AFF" mask="url(#mask-11)"></path>
                </g>
            </g>
        </g>
    </g>
</svg>