<?xml version="1.0" encoding="UTF-8"?>
<svg width="50px" height="50px" viewBox="0 0 50 50" version="1.1" xmlns="http://www.w3.org/2000/svg" xmlns:xlink="http://www.w3.org/1999/xlink">
    <title>confianza</title>
    <g id="Welcome" stroke="none" stroke-width="1" fill="none" fill-rule="evenodd">
        <g id="Nosotros---Desktop" transform="translate(-215.000000, -2574.000000)" fill-rule="nonzero">
            <g id="confianza" transform="translate(215.000000, 2574.000000)">
                <circle id="Oval" fill="#3E6BFD" opacity="0.1" cx="25" cy="25" r="25"></circle>
                <circle id="Oval" fill="#FFFFFF" cx="31.582" cy="19.062" r="3.84"></circle>
                <path d="M24.9619696,32.5 C24.9566691,30.7429848 25.6521445,29.0563665 26.8943598,27.8137757 C28.1365752,26.571185 29.8229833,25.8752 31.58,25.8799753 C35.258,25.8799753 38.2,28.6 38.2,33 C30.6,28.6 24.9619696,32.5 24.9619696,32.5 Z" id="Path" fill="#FFFFFF"></path>
                <circle id="Oval" fill="#FFFFFF" cx="19.782" cy="17.634" r="5.234"></circle>
                <path d="M10.762,35.6 C10.762,30.59 14.762,25.58 19.78,25.58 C24.798,25.58 28.8,29.8 28.8,35.6 C19.8,31.6 10.762,35.6 10.762,35.6 Z" id="Path" fill="#FFFFFF"></path>
                <g id="Group" opacity="0.8" transform="translate(9.800000, 11.600000)" fill="#3E6BFD">
                    <path d="M21.782,12 C24.2891121,11.9988955 26.320736,9.96577951 26.32,7.45866725 C26.3192636,4.951555 24.286446,2.9196325 21.7793336,2.92000049 C19.2722213,2.92036848 17.24,4.95288764 17.24,7.46 C17.2433076,9.96678217 19.2752166,11.9977965 21.782,12 Z M21.782,4.32 C23.5159133,4.3211044 24.9207359,5.72741895 24.92,7.46133248 C24.9192636,9.19524602 23.5132474,10.6003672 21.7793338,10.5999994 C20.0454201,10.5996314 18.64,9.19391369 18.64,7.46 C18.6433074,5.72674079 20.048738,4.32309943 21.782,4.322 L21.782,4.32 Z" id="Shape"></path>
                    <path d="M21.78,13.3799959 C19.7041895,13.377808 17.7251697,14.2575339 16.336,15.8 C13.4173488,13.3186652 9.3218358,12.7619868 5.84676495,14.3742615 C2.3716941,15.9865362 0.152082393,19.4731451 0.161966902,23.304 C0.161966902,23.7458278 0.5201722,24.104 0.962,24.104 C1.4038278,24.104 1.762,23.7458278 1.762,23.304 C1.76612417,20.0005534 3.74460884,17.0195341 6.78707966,15.7326199 C9.82955048,14.4457057 13.3466382,15.1021901 15.72,17.4 C15.7644896,17.461499 15.818501,17.5155104 15.88,17.56 C17.3767765,19.0946453 18.2100657,21.1563175 18.2,23.3 C18.2,23.7418278 18.5581722,24.1 19,24.1 C19.4418278,24.1 19.8,23.7418278 19.8,23.3 C19.8105145,20.8960282 18.933077,18.5728128 17.336,16.776 C18.9685878,14.93429 21.5693486,14.2929071 23.8710416,15.1643702 C26.1727346,16.0358333 27.6965513,18.2388566 27.7,20.7 C27.7,21.0865993 28.0134007,21.4 28.4,21.4 C28.7865993,21.4 29.1,21.0865993 29.1,20.7 C29.0955909,16.6591033 25.8208967,13.3844091 21.78,13.3799959 L21.78,13.3799959 Z" id="Path"></path>
                    <path d="M9.982,12.096 C13.3144862,12.096 16.016,9.39448618 16.016,6.062 C16.016,2.72951382 13.3144862,0.028 9.982,0.028 C6.64951382,0.028 3.948,2.72951382 3.948,6.062 C3.95130741,9.39311524 6.65088476,12.0926926 9.982,12.096 L9.982,12.096 Z M9.982,1.628 C12.4308306,1.628 14.416,3.61316942 14.416,6.062 C14.416,8.51083058 12.4308306,10.496 9.982,10.496 C7.53316942,10.496 5.548,8.51083058 5.548,6.062 C5.55020533,3.61408348 7.53408348,1.63020533 9.982,1.628 L9.982,1.628 Z" id="Shape"></path>
                </g>
            </g>
        </g>
    </g>
</svg>