<?xml version="1.0" encoding="UTF-8"?>
<svg width="50px" height="50px" viewBox="0 0 50 50" version="1.1" xmlns="http://www.w3.org/2000/svg" xmlns:xlink="http://www.w3.org/1999/xlink">
    <title>motivación</title>
    <g id="Welcome" stroke="none" stroke-width="1" fill="none" fill-rule="evenodd">
        <g id="Nosotros---Desktop" transform="translate(-211.000000, -2346.000000)" fill-rule="nonzero">
            <g id="motivación" transform="translate(211.000000, 2346.000000)">
                <circle id="Oval" fill="#3E6BFD" opacity="0.1" cx="25" cy="25" r="25"></circle>
                <path d="M29.76,35.738 C33.714,32.58 40.186,25.35 37.972,19.49 C37.124,17.252 34.814,14.69 31.71,14.584 C29,14.488 26.332,16.286 24.924,19.17 C23.504,16.264 20.806,14.462 18.078,14.57 C14.976,14.7 12.678,17.274 11.852,19.518 C9.676,25.392 16.2,32.578 20.176,35.718 C21.958,37.118 23.934,38.08 25.13,38.644 C26.777331,37.8506531 28.330427,36.8765299 29.76,35.738 Z" id="Path" fill="#FFFFFF"></path>
                <g id="Group" opacity="0.8" transform="translate(10.600000, 13.600000)" fill="#3E6BFD">
                    <path d="M14.53,25.8420013 C14.4118279,25.8420013 14.2951116,25.8159175 14.188,25.766 C12.62,25.026 10.788,24.09 9.082,22.744 C8.126,21.994 4.826,19.248 2.432,15.478 C0.13,11.854 -0.538,8.454 0.502,5.648 C1.44,3.116 4.012,0.324 7.444,0.178 C10.08,0.062 12.664,1.524 14.324,3.978 C15.97,1.548 18.524,0.094 21.14,0.188 C24.572,0.31 27.164,3.084 28.12,5.61 C29.178,8.41 28.534,11.81 26.258,15.452 C23.89,19.24 20.608,22.006 19.658,22.764 C18.1821786,23.9410568 16.5779868,24.9474507 14.876,25.764 C14.7679557,25.8155613 14.6497167,25.8420013 14.53,25.8420013 Z M7.73,1.772 L7.512,1.772 C5.618,1.852 3.086,3.272 2.002,6.2 C0.918,9.128 2.372,12.4 3.782,14.616 C6.04,18.172 9.166,20.772 10.07,21.484 C11.4540103,22.5309399 12.9473937,23.4248241 14.524,24.15 C15.9915081,23.4168228 17.3778054,22.5312818 18.66,21.508 C22.316,18.588 28.686,11.626 26.624,6.17 C25.518,3.25 22.978,1.848 21.082,1.77 C18.682,1.682 16.31,3.308 15.042,5.906 C14.9082804,6.18084251 14.6296453,6.35547456 14.324,6.356 L14.324,6.356 C14.0188051,6.35584806 13.7402858,6.18206444 13.606,5.908 C12.364,3.38 10.076,1.772 7.73,1.772 Z" id="Shape"></path>
                </g>
            </g>
        </g>
    </g>
</svg>