<?xml version="1.0" encoding="UTF-8"?>
<svg width="59px" height="59px" viewBox="0 0 59 59" version="1.1" xmlns="http://www.w3.org/2000/svg" xmlns:xlink="http://www.w3.org/1999/xlink">
    <title>Group 9</title>
    <defs>
        <filter id="filter-1">
            <feColorMatrix in="SourceGraphic" type="matrix" values="0 0 0 0 0.780392 0 0 0 0 0.831373 0 0 0 0 1.000000 0 0 0 1.000000 0"></feColorMatrix>
        </filter>
        <polygon id="path-2" points="0 0 58.9494652 0 58.9494652 58.9495507 0 58.9495507"></polygon>
    </defs>
    <g id="Page-1" stroke="none" stroke-width="1" fill="none" fill-rule="evenodd">
        <g id="Pagos-y-Recargas---Desktop---MX" transform="translate(-181.000000, -1240.000000)">
            <g id="Group-9" transform="translate(181.000000, 1240.000000)">
                <g filter="url(#filter-1)" id="Group-3">
                    <g>
                        <mask id="mask-3" fill="white">
                            <use xlink:href="#path-2"></use>
                        </mask>
                        <g id="Clip-2"></g>
                        <path d="M47.6969966,58.9495507 L11.2523831,58.9495507 C5.03800145,58.9495507 -8.55072464e-05,53.9114638 -8.55072464e-05,47.6970821 L-8.55072464e-05,11.2524686 C-8.55072464e-05,5.03808696 5.03800145,0 11.2523831,0 L47.6969966,0 C53.9116633,0 58.9494652,5.03808696 58.9494652,11.2524686 L58.9494652,47.6970821 C58.9494652,53.9114638 53.9116633,58.9495507 47.6969966,58.9495507" id="Fill-1" fill="#FF6666" mask="url(#mask-3)"></path>
                    </g>
                </g>
                <g id="Group-5" transform="translate(13.000000, 13.000000)" stroke="#668AFF" stroke-linecap="round" stroke-linejoin="round" stroke-width="2">
                    <polyline id="Stroke-1" points="23.916948 32.73897 31.954758 32.73897 31.954758 24.50547"></polyline>
                    <polyline id="Stroke-3" points="3.51718654e-15 24.897279 3.51718654e-15 32.935089 8.23383 32.935089"></polyline>
                    <polyline id="Stroke-5" points="23.916948 4.68958206e-15 31.954758 4.68958206e-15 31.954758 8.23383"></polyline>
                    <polyline id="Stroke-7" points="3.51718654e-15 8.429817 3.51718654e-15 0.392337 8.23383 0.392337"></polyline>
                    <line x1="7.841691" y1="7.449816" x2="7.841691" y2="25.877676" id="Stroke-10"></line>
                    <line x1="25.245" y1="7.449816" x2="25.245" y2="25.877676" id="Stroke-11"></line>
                    <line x1="19.965" y1="7.449816" x2="19.965" y2="22.348656" id="Stroke-13"></line>
                    <line x1="13.365" y1="7.449816" x2="13.365" y2="22.348656" id="Stroke-14"></line>
                </g>
            </g>
        </g>
    </g>
</svg>