<?xml version="1.0" encoding="UTF-8"?>
<svg width="45px" height="45px" viewBox="0 0 45 45" version="1.1" xmlns="http://www.w3.org/2000/svg" xmlns:xlink="http://www.w3.org/1999/xlink">
    <title>Group 2</title>
    <defs>
        <filter id="filter-1">
            <feColorMatrix in="SourceGraphic" type="matrix" values="0 0 0 0 0.780392 0 0 0 0 0.831373 0 0 0 0 1.000000 0 0 0 1.000000 0"></feColorMatrix>
        </filter>
        <polygon id="path-2" points="0 0 45 0 45 45 0 45"></polygon>
        <polygon id="path-4" points="0 0.126637363 22.9109234 0.126637363 22.9109234 20 0 20"></polygon>
    </defs>
    <g id="Page-1" stroke="none" stroke-width="1" fill="none" fill-rule="evenodd">
        <g id="Transferencias---MX" transform="translate(-31.000000, -1916.000000)">
            <g id="Group-2" transform="translate(31.000000, 1916.000000)">
                <g filter="url(#filter-1)" id="Group-3">
                    <g>
                        <mask id="mask-3" fill="white">
                            <use xlink:href="#path-2"></use>
                        </mask>
                        <g id="Clip-2"></g>
                        <path d="M36.4102638,45 L8.58973615,45 C3.84567964,45 0,41.1543204 0,36.4102638 L0,8.58973615 C0,3.84589722 3.84567964,0 8.58973615,0 L36.4102638,0 C41.1543204,0 45,3.84589722 45,8.58973615 L45,36.4102638 C45,41.1543204 41.1543204,45 36.4102638,45" id="Fill-1" fill="#3E6BFD" mask="url(#mask-3)"></path>
                    </g>
                </g>
                <g id="Group-8" transform="translate(11.000000, 9.000000)">
                    <path d="M17.1739345,10 C16.7177398,10 16.3478689,9.60350667 16.3478689,9.1144761 L16.3478689,6.96796617 C16.3478689,4.10218946 14.1730448,1.7710478 11.4998967,1.7710478 C8.82695515,1.7710478 6.65213109,4.10218946 6.65213109,6.96796617 L6.65213109,9.1144761 C6.65213109,9.60350667 6.28226024,10 5.82606555,10 C5.36987085,10 5,9.60350667 5,9.1144761 L5,6.96796617 C5,3.12567798 7.91580486,0 11.4998967,0 C15.0839886,0 18,3.12567798 18,6.96796617 L18,9.1144761 C18,9.60350667 17.6301292,10 17.1739345,10" id="Fill-1" fill="#668AFF"></path>
                    <g id="Group-5" transform="translate(0.000000, 8.000000)">
                        <mask id="mask-5" fill="white">
                            <use xlink:href="#path-4"></use>
                        </mask>
                        <g id="Clip-4"></g>
                        <path d="M3.52321308,1.88487912 C2.49509159,1.88487912 1.71954019,2.67762637 1.71954019,3.72905495 L1.71954019,16.3976264 C1.71954019,17.4488352 2.49509159,18.2418022 3.52321308,18.2418022 L19.3878393,18.2418022 C20.4666897,18.2418022 21.1912972,17.2881758 21.1912972,16.3976264 L21.1912972,3.72905495 C21.1912972,2.67762637 20.4159607,1.88487912 19.3878393,1.88487912 L3.52321308,1.88487912 Z M19.3878393,20.000044 L3.52321308,20.000044 C1.54757757,20.000044 -8.59813084e-05,18.4178462 -8.59813084e-05,16.3976264 L-8.59813084e-05,3.72905495 C-8.59813084e-05,1.70883516 1.54757757,0.126637363 3.52321308,0.126637363 L19.3878393,0.126637363 C21.3634748,0.126637363 22.9109234,1.70883516 22.9109234,3.72905495 L22.9109234,16.3976264 C22.9109234,18.3503736 21.2974841,20.000044 19.3878393,20.000044 L19.3878393,20.000044 Z" id="Fill-3" fill="#668AFF" mask="url(#mask-5)"></path>
                    </g>
                    <path d="M10.9425934,15.7391304 C10.8525723,15.7391304 10.6555606,15.8152174 10.6555606,16.0406522 L10.6555606,20.9595652 C10.6555606,21.053913 10.7277844,21.2608696 10.9425934,21.2608696 L12.0574066,21.2608696 C12.2695253,21.2608696 12.3444394,21.1819565 12.3444394,20.9595652 L12.3444394,16.0406522 C12.3444394,15.946087 12.2722156,15.7391304 12.0574066,15.7391304 L10.9425934,15.7391304 Z M12.0574066,23 L10.9425934,23 C9.87144572,23 9,22.0845652 9,20.9595652 L9,16.0406522 C9,14.9154348 9.87144572,14 10.9425934,14 L12.0574066,14 C13.1285543,14 14,14.9154348 14,16.0406522 L14,20.9595652 C14,22.1419565 13.1831878,23 12.0574066,23 L12.0574066,23 Z" id="Fill-6" fill="#668AFF"></path>
                </g>
            </g>
        </g>
    </g>
</svg>