<?xml version="1.0" encoding="UTF-8"?>
<svg width="45px" height="45px" viewBox="0 0 45 45" version="1.1" xmlns="http://www.w3.org/2000/svg" xmlns:xlink="http://www.w3.org/1999/xlink">
    <title>Group 6</title>
    <defs>
        <filter id="filter-1">
            <feColorMatrix in="SourceGraphic" type="matrix" values="0 0 0 0 0.870588 0 0 0 0 0.909804 0 0 0 0 1.000000 0 0 0 1.000000 0"></feColorMatrix>
        </filter>
        <polygon id="path-2" points="0 0 44.9614565 0 44.9614565 44.9615217 0 44.9615217"></polygon>
    </defs>
    <g id="Page-1" stroke="none" stroke-width="1" fill="none" fill-rule="evenodd">
        <g id="Pagos-y-Recargas" transform="translate(-30.000000, -548.000000)">
            <g id="Group-6" transform="translate(30.000000, 548.000000)">
                <g filter="url(#filter-1)" id="Group-3">
                    <g>
                        <mask id="mask-3" fill="white">
                            <use xlink:href="#path-2"></use>
                        </mask>
                        <g id="Clip-2"></g>
                        <path d="M36.3790652,44.9615217 L8.58232609,44.9615217 C3.84254348,44.9615217 -6.52173913e-05,41.118913 -6.52173913e-05,36.3791304 L-6.52173913e-05,8.5823913 C-6.52173913e-05,3.8426087 3.84254348,0 8.58232609,0 L36.3790652,0 C41.1190652,0 44.9614565,3.8426087 44.9614565,8.5823913 L44.9614565,36.3791304 C44.9614565,41.118913 41.1190652,44.9615217 36.3790652,44.9615217" id="Fill-1" fill="#FF6666" mask="url(#mask-3)"></path>
                    </g>
                </g>
                <g id="Group-4" transform="translate(10.000000, 10.000000)" stroke="#668AFF" stroke-linecap="round" stroke-linejoin="round" stroke-width="2">
                    <path d="M12.5,0 C19.4036447,0 25,5.59663324 25,12.500278 C25,19.4039227 19.4036447,25 12.5,25 C5.59635527,25 0,19.4039227 0,12.500278 C0,5.59663324 5.59635527,0 12.5,0 Z" id="Stroke-1"></path>
                    <line x1="12.2916667" y1="7.08333333" x2="12.2916667" y2="17.9166667" id="Stroke-3"></line>
                    <line x1="12.2916667" y1="7.08333333" x2="12.2916667" y2="17.9166667" id="Stroke-3" transform="translate(12.291667, 12.500000) rotate(-90.000000) translate(-12.291667, -12.500000) "></line>
                </g>
            </g>
        </g>
    </g>
</svg>