<?xml version="1.0" encoding="UTF-8"?>
<svg width="50px" height="50px" viewBox="0 0 50 50" version="1.1" xmlns="http://www.w3.org/2000/svg" xmlns:xlink="http://www.w3.org/1999/xlink">
    <title>innovacion</title>
    <g id="Welcome" stroke="none" stroke-width="1" fill="none" fill-rule="evenodd">
        <g id="Nosotros---Desktop" transform="translate(-596.000000, -2346.000000)" fill-rule="nonzero">
            <g id="innovacion" transform="translate(596.000000, 2346.000000)">
                <circle id="Oval" fill="#3E6BFD" opacity="0.1" cx="25" cy="25" r="25"></circle>
                <rect id="Rectangle" fill="#FFFFFF" x="14.97" y="11.164" width="19.9" height="27.83" rx="9.95"></rect>
                <g id="Group" opacity="0.8" transform="translate(14.000000, 10.200000)" fill="#3E6BFD">
                    <path d="M18.418,0.163999371 L3.418,0.163999371 C1.62255853,0.166201307 0.167305175,1.62056022 0.163999385,3.416 L0.163999385,26.34 C0.163468978,27.2047684 0.50676175,28.0342708 1.11824549,28.6457545 C1.72972924,29.2572383 2.55923156,29.600531 3.424,29.6000006 L18.424,29.6000006 C20.2198963,29.5977941 21.6748982,28.1418973 21.676,26.346 L21.676,3.416 C21.6737922,1.61854201 20.215459,0.162894554 18.418,0.163999371 Z M1.77,6.134 L20.07,6.028 L20.07,22.138 L1.77,22.244 L1.77,6.134 Z M3.424,1.764 L18.424,1.764 C19.3359175,1.76510202 20.074898,2.50408245 20.076,3.416 L20.076,4.428 L1.776,4.534 L1.776,3.416 C1.77818725,2.50609249 2.51410046,1.76839307 3.424,1.764 L3.424,1.764 Z M18.424,27.994 L3.424,27.994 C2.51097788,27.992898 1.77110202,27.2530221 1.77,26.34 L1.77,23.844 L20.0700194,23.738 L20.0700194,26.338 C20.0721271,26.7777062 19.899081,27.2001617 19.5890978,27.5120214 C19.2791145,27.823881 18.857711,27.9994735 18.418,28 L18.424,27.994 Z" id="Shape"></path>
                    <path d="M10.92,24.575994 C10.3762209,24.575994 9.88602365,24.9036725 9.67811571,25.4061365 C9.47020778,25.9086004 9.58556176,26.4868354 9.97035787,26.8710589 C10.355154,27.2552824 10.9335601,27.3697751 11.4357139,27.1611192 C11.9378677,26.9524632 12.2648092,26.4617785 12.2640015,25.918 C12.2645336,25.5615693 12.1230412,25.2196128 11.8708188,24.9677657 C11.6185964,24.7159186 11.2764295,24.5749356 10.92,24.575994 L10.92,24.575994 Z" id="Path"></path>
                </g>
            </g>
        </g>
    </g>
</svg>