<?xml version="1.0" encoding="UTF-8"?>
<svg width="71px" height="71px" viewBox="0 0 71 71" version="1.1" xmlns="http://www.w3.org/2000/svg" xmlns:xlink="http://www.w3.org/1999/xlink">
    <title>Illustration / Factura</title>
    <defs>
        <polygon id="path-1" points="0.416385601 0.3828125 70.4165269 0.3828125 70.4165269 70.3828831 0.416385601 70.3828831"></polygon>
        <path d="M35.0424375,0.385 C15.71325,0.5915 0.2121875,16.428125 0.41825,35.7573125 L0.41825,35.7573125 C0.6251875,55.085625 16.4618125,70.5875625 35.7905625,70.380625 L35.7905625,70.380625 C55.1193125,70.1745625 70.6208125,54.3375 70.41475,35.0091875 L70.41475,35.0091875 C70.209125,15.808625 54.578125,0.385 35.424375,0.38325 L35.424375,0.38325 C35.2961875,0.38325 35.1710625,0.38325 35.0424375,0.385" id="path-3"></path>
        <path d="M35.0424375,0.385 C15.71325,0.5915 0.2121875,16.428125 0.41825,35.7573125 L0.41825,35.7573125 C0.6251875,55.085625 16.4618125,70.5875625 35.7905625,70.380625 L35.7905625,70.380625 C55.1193125,70.1745625 70.6208125,54.3375 70.41475,35.0091875 L70.41475,35.0091875 C70.209125,15.808625 54.578125,0.385 35.424375,0.38325 L35.424375,0.38325 C35.2961875,0.38325 35.1710625,0.38325 35.0424375,0.385" id="path-5"></path>
    </defs>
    <g id="Page-1" stroke="none" stroke-width="1" fill="none" fill-rule="evenodd">
        <g id="Home---Desktop-" transform="translate(-1134.000000, -2290.000000)">
            <g id="Group-4" transform="translate(1110.000000, 2269.000000)">
                <g id="Group" transform="translate(25.000000, 21.000000)">
                    <g id="Group-18" transform="translate(-0.437500, 0.000000)">
                        <g id="Group-3" transform="translate(0.000000, 0.054688)">
                            <mask id="mask-2" fill="white">
                                <use xlink:href="#path-1"></use>
                            </mask>
                            <g id="Clip-2"></g>
                            <path d="M0.418425,35.7570938 C0.6253625,55.0858438 16.4619875,70.5873438 35.7907375,70.3808437 C55.1194875,70.1743437 70.6209875,54.3377187 70.4144875,35.0089687 C70.2079875,15.6797813 54.3713625,0.17828125 35.0426125,0.38478125 C15.713425,0.59171875 0.211925,16.4279063 0.418425,35.7570938" id="Fill-1" fill="#E6EAF6" mask="url(#mask-2)"></path>
                        </g>
                        <g id="Group-10" transform="translate(0.000000, 0.054688)">
                            <g id="Group-6">
                                <mask id="mask-4" fill="white">
                                    <use xlink:href="#path-3"></use>
                                </mask>
                                <g id="Clip-5"></g>
                                <path d="M44.21795,87.1133375 C45.352825,92.6354625 47.6195125,97.7962125 50.9733875,102.503275 C49.2925125,93.3879625 51.7202,83.2790875 57.7717,74.7723375 C68.631325,59.5053375 87.0951375,53.8047125 103.722325,50.2425875 C104.714575,50.0159625 105.713825,49.796775 106.699075,49.59465 C111.16945,48.6763375 115.081137,46.3164625 117.711388,42.9512125 C120.529325,39.3462125 121.53295,35.0014 120.469825,31.0359 C118.397387,23.322775 109.161762,19.0829625 98.9855125,21.1742125 C68.7472625,27.388025 36.259825,48.3858375 44.21795,87.1133375" id="Fill-4" fill="#C1EAE7" mask="url(#mask-4)"></path>
                            </g>
                            <g id="Group-9">
                                <mask id="mask-6" fill="white">
                                    <use xlink:href="#path-5"></use>
                                </mask>
                                <g id="Clip-8"></g>
                                <path d="M12.1510375,102.445525 C17.2444125,104.862713 22.7306625,106.15815 28.50785,106.312588 C20.21635,102.169025 13.603975,94.1465875 10.452225,84.1943375 C4.7949125,66.3334 11.3539125,48.157025 18.51535,32.734275 C18.93185,31.805025 19.35885,30.8753375 19.7897875,29.96665 C21.7462875,25.84365 22.215725,21.299775 21.1110375,17.1737125 C19.9280375,12.7540875 17.0624125,9.33765 13.25485,7.800275 C5.847975,4.8134625 -3.096275,9.6373375 -7.550025,19.0234625 C-20.785275,46.9119 -23.5673375,85.495025 12.1510375,102.445525" id="Fill-7" fill="#F0F2F7" mask="url(#mask-6)"></path>
                            </g>
                        </g>
                        <g id="Group-17" transform="translate(19.687500, 17.117188)">
                            <path d="M20.167,10.1885437 C20.181,11.5181062 21.2786875,12.5899812 22.6139375,12.5759812 L32.2511875,12.4731687 L32.4736515,33.2872312 C32.494,35.1846688 31.030125,36.7395437 29.2053125,36.7592312 L4.025875,37.0289198 C2.2015,37.0484187 0.7048125,35.5241687 0.6846875,33.6267312 L0.367723501,4.00754375 C0.347375,2.10748125 1.81125,0.55435625 3.6360625,0.53510625 L20.062,0.35966875 L20.167,10.1885437 Z" id="Fill-11" fill="#FFFFFF"></path>
                            <path d="M13.8207125,21.2559375 C15.8235875,21.877625 18.5675875,22.7268125 18.5982125,25.59375 C18.61615,27.27375 17.2743375,29.0504375 14.7333375,29.5343125 L14.7412125,30.2806875 C14.7490875,30.996 14.1768375,31.5826875 13.4593375,31.5906425 C12.744025,31.5984375 12.1569,31.0235625 12.1494625,30.30825 L12.1415875,29.56975 C9.2042125,29.098125 8.3134625,26.989375 8.2705875,26.8891875 C8.0019625,26.2255 8.3257125,25.470375 8.9889625,25.2039375 C9.65265,24.9375 10.407775,25.258625 10.6764,25.9223125 C10.719275,26.0124375 11.293275,27.097875 13.410775,27.075125 C15.2128375,27.055875 16.0125875,26.212375 16.006025,25.62175 C15.997275,24.79225 15.2229,24.406375 13.05115,23.7321875 C10.994025,23.095625 8.174775,22.2236875 8.1424,19.2224375 C8.1179,16.926 9.9449,15.65375 11.9889,15.264375 L11.9797125,14.4318125 C11.9718375,13.7169375 12.5467125,13.1298125 13.262025,13.1218661 C13.979525,13.1145 14.564025,13.6889375 14.5719,14.40425 L14.58065,15.2285 C16.94665,15.628375 18.183025,17.0743125 18.2434,17.1465 C18.697525,17.6964375 18.6209625,18.5136875 18.0684,18.970875 C17.5210875,19.4228125 16.7139,19.3484375 16.254525,18.8059375 C16.1994,18.7446875 15.234275,17.6920625 13.311025,17.712625 C13.2047125,17.7135 10.7188375,17.7559375 10.73415,19.1944375 C10.74465,20.1376875 11.552275,20.5541875 13.8207125,21.2559375" id="Fill-13" fill="#9CB3F3"></path>
                            <polygon id="Fill-15" fill="#FFFFFF" points="22.6548438 0.33114375 23.0617188 0.32676875 32.2181563 9.35151875 32.2242812 9.89839375 22.7598438 10.1630812"></polygon>
                        </g>
                    </g>
                </g>
            </g>
        </g>
    </g>
</svg>