<?xml version="1.0" encoding="UTF-8"?>
<svg width="160px" height="28px" viewBox="0 0 160 28" version="1.1" xmlns="http://www.w3.org/2000/svg" xmlns:xlink="http://www.w3.org/1999/xlink">
    <!-- Generator: Sketch 64 (93537) - https://sketch.com -->
    <title>Group 21</title>
    <desc>Created with Sketch.</desc>
    <defs>
        <polygon id="path-1" points="0.248906667 0.322015973 25.8083797 0.322015973 25.8083797 22 0.248906667 22"></polygon>
        <polygon id="path-3" points="0.05369 0.322015973 25.6406101 0.322015973 25.6406101 22 0.05369 22"></polygon>
    </defs>
    <g id="Welcome" stroke="none" stroke-width="1" fill="none" fill-rule="evenodd">
        <g id="Home---Desktop-" transform="translate(-459.000000, -1070.000000)">
            <g id="Group-21" transform="translate(459.000000, 1070.000000)">
                <g id="Group-3" transform="translate(68.000000, 6.000000)">
                    <mask id="mask-2" fill="white">
                        <use xlink:href="#path-1"></use>
                    </mask>
                    <g id="Clip-2"></g>
                    <path d="M20.35124,0.322321569 L5.88310667,0.375380392 L4.16190667,4.86079216 C4.16190667,4.86079216 4.52417333,4.91773333 5.66254,4.96475294 C7.15624,5.03463529 6.20464,6.82267451 6.20464,6.82267451 L0.248906667,22.0000863 L6.46854,22.0000863 L8.87960667,15.9820078 L10.7277733,15.9820078 C10.7277733,15.9820078 15.35534,15.9755373 16.03914,15.9345569 C22.0195733,15.5049098 22.92004,11.1389882 22.92004,11.1389882 C22.92004,11.1389882 24.15374,8.2669098 25.60064,4.21287059 C27.0601067,0.211458824 20.35124,0.322321569 20.35124,0.322321569 M18.3085067,6.66392941 C17.5025067,8.85400784 17.0847733,9.80863529 17.0847733,9.80863529 C17.0847733,9.80863529 16.85944,11.5125569 14.3175067,11.5125569 L10.6866067,11.5125569 L13.31694,4.96475294 L16.8980067,4.96475294 C16.8980067,4.96475294 19.03694,4.68953725 18.3085067,6.66392941" id="Fill-1" fill="#1D2776" mask="url(#mask-2)"></path>
                </g>
                <path d="M111.827004,17.5735285 C110.510557,17.3672047 111.505369,15.4900704 111.505369,15.4900704 L115,7.07082015 C115,7.07082015 109.237024,7.02006449 104.806966,7.02006449 C97.915236,6.71099139 95.5445917,10.0748951 95.5445917,10.0748951 C95.5445917,10.0748951 94.1913002,12.6906687 92.3299824,17.6750398 C90.4677978,22.6602363 97.0946784,21.9546088 97.0946784,21.9546088 L111.785824,22 L113.501496,17.8240056 C113.501496,17.8240056 113.14345,17.779027 111.827004,17.5735285 M104.393003,17.7245576 L100.171444,17.7245576 C98.5684744,17.7245576 99.2607251,16.0496207 99.2607251,16.0496207 C99.2607251,16.0496207 99.9404052,14.2624436 100.673402,12.8396345 C101.395996,11.4160001 103.347041,11.4609787 103.347041,11.4609787 L106.839505,11.4609787 L104.393003,17.7245576" id="Fill-4" fill="#1D2776"></path>
                <path d="M133.93026,8.48964484 C133.93026,8.48964484 133.806431,8.32072251 132.668202,7.08980857 C131.51413,5.84259114 132.713231,5.07904409 132.713231,5.07904409 L133.845623,4.3539914 L130.829108,1 C130.829108,1 118.863947,8.12689206 116.573731,9.84374075 C113.789449,11.8603926 115.66023,14.8783508 115.66023,14.8783508 L120.362824,19.9618714 C120.362824,19.9618714 120.941528,20.307415 120.796018,21.4119768 C120.66385,22.4277752 119.189156,22.4277752 119.189156,22.4277752 L115.837426,22.4277752 L114,27 L119.415551,27 C120.535851,27 121.327191,26.558447 121.327191,26.558447 C121.327191,26.558447 125.514038,24.3746843 127.311856,22.1909216 C129.09383,20.017575 127.045853,18.0072634 127.045853,18.0072634 L132.144534,14.8226472 C132.144534,14.8226472 133.276925,13.9825643 134.278817,12.8105241 C136.084556,10.6951455 133.93026,8.48964484 133.93026,8.48964484 M128.05233,12.4210517 C126.654352,13.4223581 123.196305,15.5418125 123.196305,15.5418125 L121.193356,13.1429343 C121.193356,13.1429343 120.076807,11.801066 121.540244,10.7988539 L123.771256,9.33335075 C123.771256,9.33335075 125.821319,7.76232778 126.95913,8.89904374 C128.091522,10.0629322 128.223273,10.2381948 128.223273,10.2381948 C128.223273,10.2381948 129.440302,11.4061591 128.05233,12.4210517" id="Fill-6" fill="#1D2776"></path>
                <path d="M159.077324,12.2447131 C156.449007,9.54195871 154.636246,7.96470114 154.636246,7.96470114 C154.636246,7.96470114 151.996395,6.18519943 149.122586,7.45991294 C146.274727,8.72476089 139.165789,12.8502123 139.165789,12.8502123 C139.165789,12.8502123 135.417522,15.1308026 137.783049,17.7246247 C140.006472,20.1379891 142.216302,21.9791506 142.216302,21.9791506 C142.216302,21.9791506 144.379587,24.2079467 148.861855,22.0790394 C153.381194,19.9505433 157.785614,17.1598209 157.785614,17.1598209 C157.785614,17.1598209 161.742713,14.8800528 159.077324,12.2447131 M152.2666,15.6861518 C152.2666,15.6861518 150.331094,16.8564547 148.519569,17.7246247 C146.704748,18.5800516 146.017703,17.569242 146.017703,17.569242 C146.017703,17.569242 145.282466,16.914826 144.416658,15.9940397 C143.470941,14.9770642 145.329011,14.0209263 145.329011,14.0209263 C145.329011,14.0209263 146.92223,13.0027175 148.348219,12.3347364 C149.774208,11.6729213 150.719925,12.3347364 150.719925,12.3347364 C151.674703,13.2242817 151.85429,13.3862414 151.869531,13.4055615 C151.877769,13.4055615 151.877769,13.4076168 151.869531,13.4055615 C151.869531,13.3977513 151.869531,13.3977513 151.867471,13.3977513 C151.896716,13.4252926 151.988157,13.5075057 152.2666,13.7582555 C153.774145,15.1793083 152.2666,15.6861518 152.2666,15.6861518" id="Fill-8" fill="#1D2776"></path>
                <path d="M0,21.9726927 L6.11698482,7 L19,7.03144481 L17.1606782,11.4146853 L13.1033888,11.4146853 C13.1033888,11.4146853 10.695667,11.1440944 9.88705541,13.1644232 C9.08448147,15.1793733 6.26533808,22 6.26533808,22 L0,21.9726927" id="Fill-10" fill="#EC1C2D"></path>
                <path d="M35.4713159,15.490304 L39,7.0708221 C39,7.0708221 33.207542,7.02006504 28.8084751,7.02006504 C21.9349601,6.71098344 19.5816388,10.0749797 19.5816388,10.0749797 C19.5816388,10.0749797 18.2228553,12.6904126 16.3267878,17.6753335 C14.4713844,22.6606671 21.1221125,21.9550202 21.1221125,21.9550202 L35.7429861,22 L37.4958643,17.8243034 C37.4958643,17.8243034 37.1385402,17.7793236 35.790139,17.5738194 C34.4785085,17.3674899 35.4713159,15.490304 35.4713159,15.490304 M28.4100543,17.7248526 L24.1520136,17.7248526 C22.5726063,17.7248526 23.2530795,16.049457 23.2530795,16.049457 C23.2530795,16.049457 23.9270638,14.2622308 24.6564204,12.8397952 C25.3801532,11.4157089 27.3618746,11.4606887 27.3618746,11.4606887 L30.8516251,11.4606887 L28.4100543,17.7248526" id="Fill-12" fill="#EC1C2D"></path>
                <g id="Group-16" transform="translate(36.000000, 6.000000)">
                    <mask id="mask-4" fill="white">
                        <use xlink:href="#path-3"></use>
                    </mask>
                    <g id="Clip-15"></g>
                    <path d="M20.18029,0.322321569 L5.72255667,0.375380392 L3.99529,4.86079216 C3.99529,4.86079216 4.35149,4.91773333 5.49159,4.96475294 C6.98572333,5.03463529 6.03369,6.82267451 6.03369,6.82267451 L0.05369,22.0000863 L6.30799,22.0000863 L8.70865667,15.9820078 L10.5243233,15.9820078 C10.5243233,15.9820078 15.19479,15.9755373 15.8781567,15.9345569 C21.8174233,15.5049098 22.7508233,11.1389882 22.7508233,11.1389882 C22.7508233,11.1389882 23.9871233,8.2669098 25.4340233,4.21287059 C26.8891567,0.211458824 20.18029,0.322321569 20.18029,0.322321569 M18.14189,6.66392941 C17.33329,8.85400784 16.9138233,9.80863529 16.9138233,9.80863529 C16.9138233,9.80863529 16.6906567,11.5125569 14.1530567,11.5125569 L10.4853233,11.5125569 L13.14599,4.96475294 L16.7357233,4.96475294 C16.7357233,4.96475294 18.86859,4.68953725 18.14189,6.66392941" id="Fill-14" fill="#EC1C2D" mask="url(#mask-4)"></path>
                </g>
                <path d="M65.1077162,7 L72,7 L67.9641137,15.7286695 C67.9641137,15.7286695 67.0300378,17.4130264 68.8430778,17.5654363 C70.0310452,17.6695211 70.2802263,17.714542 70.2802263,17.714542 L68.3093874,21.946912 C68.3093874,21.946912 64.1825901,22.2034068 62.3935733,21.5888106 C60.4693674,20.9296067 59.4349596,19.7561741 60.3200472,17.6695211 C61.2145556,15.5779117 65.1077162,7 65.1077162,7" id="Fill-17" fill="#EC1C2D"></path>
                <path d="M71.8181427,2.61188084 C71.2064257,3.99925397 69.2347384,5.06320342 67.3941925,4.99707747 C65.5457616,4.93519037 64.5696705,3.76187879 65.1830475,2.38044004 C65.7926894,0.99730576 67.7975771,-0.0670675731 69.6285779,0.0032972112 C71.4496185,0.0689992688 72.4294446,1.23425705 71.8181427,2.61188084" id="Fill-19" fill="#EC1C2D"></path>
            </g>
        </g>
    </g>
</svg>