<?xml version="1.0" encoding="UTF-8"?>
<svg width="70px" height="71px" viewBox="0 0 70 71" version="1.1" xmlns="http://www.w3.org/2000/svg" xmlns:xlink="http://www.w3.org/1999/xlink">
    <title>Illustration / Cajero Contactless</title>
    <defs>
        <path d="M0.4274375,35.2331875 C0.4274375,54.56325 16.0969375,70.2331875 35.427,70.2331875 L35.427,70.2331875 C54.7575,70.2331875 70.427,54.56325 70.427,35.2331875 L70.427,35.2331875 C70.427,15.903125 54.7575,0.2331875 35.427,0.2331875 L35.427,0.2331875 C16.0969375,0.2331875 0.4274375,15.903125 0.4274375,35.2331875" id="path-1"></path>
        <path d="M0.4274375,35.2331875 C0.4274375,54.56325 16.0969375,70.2331875 35.427,70.2331875 L35.427,70.2331875 C54.7575,70.2331875 70.427,54.56325 70.427,35.2331875 L70.427,35.2331875 C70.427,15.903125 54.7575,0.2331875 35.427,0.2331875 L35.427,0.2331875 C16.0969375,0.2331875 0.4274375,15.903125 0.4274375,35.2331875" id="path-3"></path>
        <path d="M0.18375,35.2331875 C0.18375,54.56325 15.8536875,70.2331875 35.18375,70.2331875 L35.18375,70.2331875 C54.5138125,70.2331875 70.1833125,54.56325 70.1833125,35.2331875 L70.1833125,35.2331875 C70.1833125,15.903125 54.5138125,0.2331875 35.18375,0.2331875 L35.18375,0.2331875 C15.8536875,0.2331875 0.18375,15.903125 0.18375,35.2331875" id="path-5"></path>
        <path d="M0.18375,35.2331875 C0.18375,54.56325 15.8536875,70.2331875 35.18375,70.2331875 L35.18375,70.2331875 C54.5138125,70.2331875 70.1833125,54.56325 70.1833125,35.2331875 L70.1833125,35.2331875 C70.1833125,15.903125 54.5138125,0.2331875 35.18375,0.2331875 L35.18375,0.2331875 C15.8536875,0.2331875 0.18375,15.903125 0.18375,35.2331875" id="path-7"></path>
        <polygon id="path-9" points="0 70.0695625 70 70.0695625 70 0.0695625 0 0.0695625"></polygon>
        <path d="M0.378,0.4116875 L0.378,24.934 C0.378,28.2253125 3.0541875,30.918125 6.3249375,30.918125 L6.3249375,30.918125 L24.16575,30.918125 C27.0869375,30.918125 29.5343125,28.7695625 30.0234375,25.9651875 L30.0234375,25.9651875 L30.0234375,0.4116875 L0.378,0.4116875 Z" id="path-11"></path>
        <path d="M0.33425,2.6849375 C0.33425,4.130875 1.504125,5.3029375 2.9474375,5.3029375 L2.9474375,5.3029375 C3.5564375,5.3029375 4.11775,5.09425 4.56225,4.743375 L4.56225,4.743375 C3.954125,4.263875 3.5643125,3.520125 3.5643125,2.6849375 L3.5643125,2.6849375 C3.5643125,1.8501875 3.954125,1.1064375 4.56225,0.6269375 L4.56225,0.6269375 C4.11775,0.2765 3.5564375,0.0669375 2.9474375,0.0669375 L2.9474375,0.0669375 C1.504125,0.0669375 0.33425,1.239 0.33425,2.6849375 L0.33425,2.6849375 Z" id="path-13"></path>
        <path d="M0.18725,0.6269375 C0.7949375,1.1064375 1.185625,1.8501875 1.185625,2.6849375 L1.185625,2.6849375 C1.185625,3.520125 0.7949375,4.263875 0.18725,4.743375 L0.18725,4.743375 C0.63175,5.09425 1.192625,5.3029375 1.8020625,5.3029375 L1.8020625,5.3029375 C3.2449375,5.3029375 4.41525,4.130875 4.41525,2.6849375 L4.41525,2.6849375 C4.41525,1.239 3.2449375,0.0669375 1.8020625,0.0669375 L1.8020625,0.0669375 C1.192625,0.0669375 0.63175,0.2765 0.18725,0.6269375 L0.18725,0.6269375 Z" id="path-15"></path>
        <path d="M0.086625,2.2474375 C0.086625,3.044125 0.468125,3.75375 1.06225,4.211375 L1.06225,4.211375 C1.6568125,3.75375 2.0383125,3.044125 2.0383125,2.2474375 L2.0383125,2.2474375 C2.0383125,1.45075 1.6568125,0.7415625 1.06225,0.2839375 L1.06225,0.2839375 C0.468125,0.7415625 0.086625,1.45075 0.086625,2.2474375 L0.086625,2.2474375 Z" id="path-17"></path>
        <path d="M0.2454375,1.7443125 C2.5396875,3.2326875 5.5015625,6.470625 9.8984375,12.0894375 L9.8984375,12.0894375 L9.8984375,0.2699375 C4.7744375,0.284375 0.2454375,1.7443125 0.2454375,1.7443125 L0.2454375,1.7443125 Z" id="path-19"></path>
        <path d="M0.3653125,0.4116875 L0.3653125,22.710625 C0.3653125,22.710625 4.1365625,16.2015 12.0771875,10.8408125 L12.0771875,10.8408125 C20.9619375,4.8426875 29.150625,5.03825 30.0234375,5.0780625 L30.0234375,5.0780625 L30.0234375,0.4116875 L0.3653125,0.4116875 Z" id="path-21"></path>
        <path d="M0.144375,0.763875 C0.144375,2.4189375 1.4818125,3.3613125 2.73175,3.3613125 L2.73175,3.3613125 C2.7488125,3.3613125 2.7645625,3.360875 2.7803125,3.360875 L2.7803125,3.360875 C2.8713125,3.3595625 2.89625,3.241 2.814,3.2038125 L2.814,3.2038125 C2.1765625,2.91375 1.6611875,2.6464375 1.6611875,0.763875 L1.6611875,0.763875 C1.6611875,0.399875 1.39475,0.0385 0.896,0.0385 L0.896,0.0385 C0.420875,0.0385 0.144375,0.4318125 0.144375,0.763875 L0.144375,0.763875 Z" id="path-23"></path>
        <path d="M0.3994375,0.10325 C0.3075625,0.1054375 0.2830625,0.2253125 0.3661875,0.26075 L0.3661875,0.26075 C0.5779375,0.350875 1.563625,0.63 1.563625,2.6998125 L1.563625,2.6998125 C1.563625,3.063375 1.8300625,3.42475 2.32925,3.42475 L2.32925,3.42475 C2.6674375,3.42475 2.905,3.2248125 3.0135,2.989875 L3.0135,2.989875 L3.0135,2.0820625 C2.7286875,0.8115625 1.5780625,0.1019375 0.492625,0.1019375 L0.492625,0.1019375 C0.4589375,0.1019375 0.4283125,0.102375 0.3994375,0.10325 L0.3994375,0.10325 Z" id="path-25"></path>
        <path d="M3.1233125,0.4379375 C2.8590625,0.6435625 2.6355,0.9279375 2.4329375,1.2438125 L2.4329375,1.2438125 C2.303875,1.4459375 2.1818125,1.6603125 2.0645625,1.875125 L2.0645625,1.875125 C2.058,1.8878125 2.0514375,1.899625 2.0444375,1.9123125 L2.0444375,1.9123125 C1.5710625,2.7811875 1.148875,3.6360625 0.438375,3.6360625 L0.438375,3.6360625 C0.4300625,3.6360625 0.42175,3.6360625 0.4125625,3.635625 L0.4125625,3.635625 C0.33775,3.63125 0.293125,3.712625 0.3395,3.7695 L0.3395,3.7695 C0.5770625,4.060875 0.9454375,4.249 1.3593125,4.251625 L1.3593125,4.251625 C1.6485,4.2503125 1.9000625,4.165 2.1245,4.0215 L2.1245,4.0215 C2.445625,3.815875 2.7103125,3.49125 2.9483125,3.124625 L2.9483125,3.124625 C3.084375,2.9141875 3.2125625,2.690625 3.336375,2.4670625 L3.336375,2.4670625 C3.3355,2.4600625 3.33375,2.4539375 3.3315625,2.447375 L3.3315625,2.447375 C3.3355,2.45 3.3394375,2.45175 3.343375,2.4539375 L3.343375,2.4539375 C3.8259375,1.586375 4.2599375,0.730625 4.9713125,0.730625 L4.9713125,0.730625 L4.9730625,0.730625 C5.0439375,0.730625 5.08725,0.6531875 5.0439375,0.5989375 L5.0439375,0.5989375 C4.8085625,0.3058125 4.44325,0.1155 4.031125,0.1080625 L4.031125,0.1080625 C3.677625,0.1124375 3.381,0.2375625 3.1233125,0.4379375 L3.1233125,0.4379375 Z" id="path-27"></path>
    </defs>
    <g id="Page-1" stroke="none" stroke-width="1" fill="none" fill-rule="evenodd">
        <g id="Home---Desktop-" transform="translate(-205.000000, -2290.000000)">
            <g id="Group-4" transform="translate(180.000000, 2269.000000)">
                <g id="Group" transform="translate(25.000000, 21.000000)">
                    <g id="Group-53" transform="translate(-0.437500, -0.437500)">
                        <path d="M35.4270437,70.6011687 C54.7575437,70.6011687 70.4270437,54.9312313 70.4270437,35.6011687 C70.4270437,16.2711063 54.7575437,0.60116875 35.4270437,0.60116875 C16.0969812,0.60116875 0.42704375,16.2711063 0.42704375,35.6011687 C0.42704375,54.9312313 16.0969812,70.6011687 35.4270437,70.6011687" id="Fill-1" fill="#E6EAF6"></path>
                        <g id="Group-9" transform="translate(0.000000, 0.367938)">
                            <g id="Group-5">
                                <mask id="mask-2" fill="white">
                                    <use xlink:href="#path-1"></use>
                                </mask>
                                <g id="Clip-4"></g>
                                <path d="M87.2485688,26.9852187 C92.7825062,25.9094062 97.9677562,23.6974062 102.709819,20.3947187 C93.5770062,21.9780312 83.4952562,19.4422812 75.0532563,13.3002187 C59.9030688,2.27784375 54.4001937,-16.2454688 51.0161313,-32.9094062 C50.8000062,-33.9047187 50.5917563,-34.9065938 50.3996938,-35.8935938 C49.5290688,-40.3735938 47.2111938,-44.3097812 43.8743813,-46.9763438 C40.3000063,-49.8323438 35.9661313,-50.8823437 31.9892563,-49.8616563 C24.2546938,-47.8719063 19.9164438,-38.6822188 21.8987563,-28.4840937 C27.7888188,1.81890625 48.4388188,34.5290312 87.2485688,26.9852187" id="Fill-3" fill="#E6EAF6" mask="url(#mask-2)"></path>
                            </g>
                            <g id="Group-8">
                                <mask id="mask-4" fill="white">
                                    <use xlink:href="#path-3"></use>
                                </mask>
                                <g id="Clip-7"></g>
                                <path d="M102.237625,59.2141375 C104.708625,54.1470125 106.062688,48.6752 106.278813,42.8997625 C102.046875,51.1466375 93.9544375,57.6723875 83.9689375,60.717825 C66.0485,66.1843875 47.9434375,59.4311375 32.5976875,52.1052 C31.67325,51.6786375 30.748375,51.2420125 29.8440625,50.80145 C25.7425,48.8007625 21.2034375,48.2827625 17.066,49.3432625 C12.6336875,50.4790125 9.1870625,53.308325 7.6094375,57.0983875 C4.5434375,64.473325 9.2715,73.468325 18.6095,78.0227 C46.3553125,91.5550125 84.9060625,94.7492 102.237625,59.2141375" id="Fill-6" fill="#E6EAF6" mask="url(#mask-4)"></path>
                            </g>
                        </g>
                        <g id="Group-16" transform="translate(0.000000, 0.367938)">
                            <g id="Group-12">
                                <mask id="mask-6" fill="white">
                                    <use xlink:href="#path-5"></use>
                                </mask>
                                <g id="Clip-11"></g>
                                <path d="M87.0050562,26.9852187 C92.5389938,25.9094062 97.7242437,23.6974062 102.466306,20.3947187 C93.3334938,21.9780312 83.2517438,19.4422812 74.8097438,13.3002187 C59.6595563,2.27784375 54.1566812,-16.2454688 50.7726188,-32.9094062 C50.5564938,-33.9047187 50.3482438,-34.9065938 50.1561813,-35.8935938 C49.2855562,-40.3735938 46.9676813,-44.3097812 43.6308688,-46.9763438 C40.0564938,-49.8323438 35.7226188,-50.8823437 31.7457438,-49.8616563 C24.0111813,-47.8719063 19.6729312,-38.6822188 21.6552438,-28.4840937 C27.5453062,1.81890625 48.1953063,34.5290312 87.0050562,26.9852187" id="Fill-10" fill="#F0F2F7" mask="url(#mask-6)"></path>
                            </g>
                            <g id="Group-15">
                                <mask id="mask-8" fill="white">
                                    <use xlink:href="#path-7"></use>
                                </mask>
                                <g id="Clip-14"></g>
                                <path d="M101.994112,59.2141375 C104.465112,54.1470125 105.819175,48.6752 106.0353,42.8997625 C101.803362,51.1466375 93.710925,57.6723875 83.725425,60.717825 C65.8049875,66.1843875 47.699925,59.4311375 32.354175,52.1052 C31.4297375,51.6786375 30.5048625,51.2420125 29.60055,50.80145 C25.49855,48.8007625 20.959925,48.2827625 16.8224875,49.3432625 C12.390175,50.4790125 8.94355,53.308325 7.365925,57.0983875 C4.299925,64.473325 9.0279875,73.468325 18.3659875,78.0227 C46.1118,91.5550125 84.66255,94.7492 101.994112,59.2141375" id="Fill-13" fill="#F0F2F7" mask="url(#mask-8)"></path>
                            </g>
                        </g>
                        <g id="Group-21" transform="translate(0.437500, 0.367938)">
                            <path d="M57.3964563,36.3468437 L12.9709563,36.3468437 C11.1076438,36.3468437 9.59739375,34.8361562 9.59739375,32.9732812 L9.59739375,23.5766562 C9.59739375,21.7133437 11.1076438,20.2030937 12.9709563,20.2030937 L57.3964563,20.2030937 C59.2597688,20.2030937 60.7700188,21.7133437 60.7700188,23.5766562 L60.7700188,32.9732812 C60.7700188,34.8361562 59.2597688,36.3468437 57.3964563,36.3468437" id="Fill-17" fill="#9CB3F3"></path>
                            <mask id="mask-10" fill="white">
                                <use xlink:href="#path-9"></use>
                            </mask>
                            <g id="Clip-20"></g>
                            <polygon id="Fill-19" fill="#7992ED" mask="url(#mask-10)" points="15.3969375 32.96825 55.878375 32.96825 55.878375 26.2241875 15.3969375 26.2241875"></polygon>
                        </g>
                        <g id="Group-25" transform="translate(20.562500, 26.180438)">
                            <mask id="mask-12" fill="white">
                                <use xlink:href="#path-11"></use>
                            </mask>
                            <g id="Clip-24"></g>
                            <polygon id="Fill-23" fill="#FFFFFF" mask="url(#mask-12)" points="-2.42725 33.7238125 32.9175 33.7238125 32.9175 -19.0133125 -2.42725 -19.0133125"></polygon>
                        </g>
                        <g id="Group-28" transform="translate(38.062500, 48.055437)">
                            <mask id="mask-14" fill="white">
                                <use xlink:href="#path-13"></use>
                            </mask>
                            <g id="Clip-27"></g>
                            <polygon id="Fill-26" fill="#D61F27" mask="url(#mask-14)" points="-2.4705625 8.1081875 7.3675 8.1081875 7.3675 -2.7383125 -2.4705625 -2.7383125"></polygon>
                        </g>
                        <g id="Group-31" transform="translate(42.437500, 48.055437)">
                            <mask id="mask-16" fill="white">
                                <use xlink:href="#path-15"></use>
                            </mask>
                            <g id="Clip-30"></g>
                            <polygon id="Fill-29" fill="#F99D22" mask="url(#mask-16)" points="-2.618 8.1081875 7.2200625 8.1081875 7.2200625 -2.7383125 -2.618 -2.7383125"></polygon>
                        </g>
                        <g id="Group-34" transform="translate(41.562500, 48.492937)">
                            <mask id="mask-18" fill="white">
                                <use xlink:href="#path-17"></use>
                            </mask>
                            <g id="Clip-33"></g>
                            <polygon id="Fill-32" fill="#F37038" mask="url(#mask-18)" points="-2.7181875 7.0161875 4.843125 7.0161875 4.843125 -2.5213125 -2.7181875 -2.5213125"></polygon>
                        </g>
                        <g id="Group-37" transform="translate(40.687500, 30.992938)">
                            <mask id="mask-20" fill="white">
                                <use xlink:href="#path-19"></use>
                            </mask>
                            <g id="Clip-36"></g>
                            <polygon id="Fill-35" fill="#FFB3B2" mask="url(#mask-20)" points="-2.5598125 14.99225 12.78025 14.99225 12.78025 -2.5353125 -2.5598125 -2.5353125"></polygon>
                        </g>
                        <g id="Group-40" transform="translate(20.562500, 26.180438)">
                            <mask id="mask-22" fill="white">
                                <use xlink:href="#path-21"></use>
                            </mask>
                            <g id="Clip-39"></g>
                            <polygon id="Fill-38" fill="#FF8382" mask="url(#mask-22)" points="-2.4399375 25.5154375 32.9048125 25.5154375 32.9048125 -19.0133125 -2.4399375 -19.0133125"></polygon>
                        </g>
                        <g id="Group-46" transform="translate(24.500000, 49.805437)">
                            <mask id="mask-24" fill="white">
                                <use xlink:href="#path-23"></use>
                            </mask>
                            <g id="Clip-45"></g>
                            <polygon id="Fill-44" fill="#3E6BFD" mask="url(#mask-24)" points="-2.6604375 6.166125 5.6686875 6.166125 5.6686875 -2.76675 -2.6604375 -2.76675"></polygon>
                        </g>
                        <g id="Group-49" transform="translate(31.062500, 48.055437)">
                            <mask id="mask-26" fill="white">
                                <use xlink:href="#path-25"></use>
                            </mask>
                            <g id="Clip-48"></g>
                            <polygon id="Fill-47" fill="#3E6BFD" mask="url(#mask-26)" points="-2.4898125 6.2295625 5.88525 6.2295625 5.88525 -2.7033125 -2.4898125 -2.7033125"></polygon>
                        </g>
                        <g id="Group-52" transform="translate(26.687500, 48.492937)">
                            <mask id="mask-28" fill="white">
                                <use xlink:href="#path-27"></use>
                            </mask>
                            <g id="Clip-51"></g>
                            <polygon id="Fill-50" fill="#FF6766" mask="url(#mask-28)" points="-2.4845625 7.056875 7.86625 7.056875 7.86625 -2.6971875 -2.4845625 -2.6971875"></polygon>
                        </g>
                    </g>
                </g>
            </g>
        </g>
    </g>
</svg>