<?xml version="1.0" encoding="UTF-8"?>
<svg width="177px" height="177px" viewBox="0 0 177 177" version="1.1" xmlns="http://www.w3.org/2000/svg" xmlns:xlink="http://www.w3.org/1999/xlink">
    <title>correo</title>
    <g id="Welcome" stroke="none" stroke-width="1" fill="none" fill-rule="evenodd">
        <g id="Seguridad---Desktop---1" transform="translate(-187.000000, -1156.000000)">
            <g id="correo" transform="translate(187.000000, 1156.000000)">
                <circle id="Oval" fill="#FFFFFF" fill-rule="nonzero" cx="88.5" cy="88.5" r="88.5"></circle>
                <circle id="Oval" fill="#3E6BFD" fill-rule="nonzero" opacity="0.1" cx="88.5" cy="88.5" r="88.5"></circle>
                <circle id="Oval" fill="#3E6BFD" fill-rule="nonzero" opacity="0.05" cx="89" cy="89" r="79"></circle>
                <rect id="Rectangle" fill="#3E6BFD" fill-rule="nonzero" opacity="0.2" x="24" y="44" width="130" height="90" rx="15.85"></rect>
                <rect id="Rectangle" fill="#FFFFFF" fill-rule="nonzero" opacity="0.5" x="29" y="49" width="120" height="80" rx="10.9"></rect>
                <rect id="Rectangle" fill="#FFFFFF" fill-rule="nonzero" opacity="0.5" x="38" y="60" width="102" height="5" rx="2.5"></rect>
                <rect id="Rectangle" fill="#FFFFFF" fill-rule="nonzero" opacity="0.5" x="38" y="69" width="102" height="5" rx="2.5"></rect>
                <rect id="Rectangle" fill="#FFFFFF" fill-rule="nonzero" opacity="0.5" x="38" y="77" width="102" height="5" rx="2.5"></rect>
                <rect id="Rectangle" fill="#FFFFFF" fill-rule="nonzero" opacity="0.5" x="38" y="86" width="102" height="5" rx="2.5"></rect>
                <rect id="Rectangle" fill="#FFFFFF" fill-rule="nonzero" opacity="0.5" x="38" y="95" width="102" height="5" rx="2.5"></rect>
                <rect id="Rectangle" fill="#FFFFFF" fill-rule="nonzero" opacity="0.5" x="38" y="115" width="102" height="5" rx="2.5"></rect>
                <rect id="Rectangle" fill="#FFFFFF" fill-rule="nonzero" x="66" y="70" width="47" height="34" rx="6.72"></rect>
                <path d="M66,77 L83.7585511,87.4836861 C83.7585511,87.4836861 89.4051413,90.8953924 95.4960697,87.4836861 C101.586998,84.0719798 113,77 113,77" id="Path" stroke="#3E6BFD" opacity="0.2"></path>
                <rect id="Rectangle" stroke="#FFFFFF" x="66" y="70" width="47" height="34" rx="6.72"></rect>
                <rect id="Rectangle" stroke="#3E6BFD" opacity="0.2" x="66" y="70" width="47" height="34" rx="6.72"></rect>
                <path d="M49.239471,111 L75.7655336,111 C76.561744,110.999018 77.2974385,110.571309 77.6973438,109.876907 C78.097249,109.182505 78.1010946,108.326064 77.7074416,107.628037 L64.4544201,84.1404052 C64.0566418,83.4354034 63.3142715,83 62.5100097,83 C61.7057479,83 60.9633776,83.4354034 60.5655993,84.1404052 L47.2925581,107.628037 C46.8984635,108.326847 46.9027896,109.184359 47.3039144,109.879089 C47.7050392,110.573818 48.442367,111.000816 49.239471,111 Z" id="Path" fill="#FFFFFF" fill-rule="nonzero"></path>
                <path d="M49.239471,111 L75.7655336,111 C76.561744,110.999018 77.2974385,110.571309 77.6973438,109.876907 C78.097249,109.182505 78.1010946,108.326064 77.7074416,107.628037 L64.4544201,84.1404052 C64.0566418,83.4354034 63.3142715,83 62.5100097,83 C61.7057479,83 60.9633776,83.4354034 60.5655993,84.1404052 L47.2925581,107.628037 C46.8984635,108.326847 46.9027896,109.184359 47.3039144,109.879089 C47.7050392,110.573818 48.442367,111.000816 49.239471,111 Z" id="Path" fill="#FF6666" fill-rule="nonzero" opacity="0.75"></path>
                <path d="M55.3714824,106 L71.6271319,106 C72.1157737,105.998647 72.5670811,105.738737 72.8129811,105.317062 C73.0588811,104.895387 73.0625207,104.375144 72.8225443,103.95008 L64.6947196,89.6935933 C64.4510081,89.2648817 63.9954183,89 63.5017568,89 C63.0080952,89 62.5525055,89.2648817 62.3087939,89.6935933 L54.1809692,103.95008 C53.9382016,104.374003 53.9397844,104.894929 54.1851236,105.317374 C54.4304628,105.739818 54.8824541,106 55.3714824,106 Z" id="Path" fill="#F1F1F1" fill-rule="nonzero" opacity="0.4"></path>
                <g id="Group" opacity="0.5" transform="translate(62.000000, 95.000000)" fill="#FF6666" fill-rule="nonzero">
                    <path d="M1.12,5.65 C1.32786825,5.6419308 1.52962874,5.73849581 1.68002973,5.918037 C1.83043073,6.09757818 1.9168842,6.3450686 1.92,6.605 C1.92,7.15728475 1.5618278,7.605 1.12,7.605 C0.6781722,7.605 0.32,7.15728475 0.32,6.605 C0.320905485,6.34417659 0.406673704,6.09504104 0.557575313,5.91490224 C0.708476921,5.73476345 0.911520594,5.6391298 1.12,5.65 L1.12,5.65 Z M0.428,0.255 L1.832,0.255 L1.68,5.065 L0.58,5.065 L0.428,0.255 Z" id="Shape"></path>
                </g>
            </g>
        </g>
    </g>
</svg>