<?xml version="1.0" encoding="UTF-8"?>
<svg width="270px" height="271px" viewBox="0 0 270 271" version="1.1" xmlns="http://www.w3.org/2000/svg" xmlns:xlink="http://www.w3.org/1999/xlink">
    <title>Illustration / Clave</title>
    <g id="Welcome" stroke="none" stroke-width="1" fill="none" fill-rule="evenodd">
        <g id="Seguridad---Desktop---1" transform="translate(-896.000000, -143.000000)">
            <g id="Illustration-/-Lock" transform="translate(896.000000, 143.000000)">
                <path d="M135,271 C209.558812,271 269.998312,210.334956 269.998312,135.5 C269.998312,60.6650438 209.558812,0 135,0 C60.4411875,0 0,60.6650438 0,135.5 C0,210.334956 60.4411875,271 135,271" id="Fill-1" fill="#F8F6F9"></path>
                <g id="Group-9"></g>
                <g id="001-locked" transform="translate(74.250000, 52.506250)" fill-rule="nonzero">
                    <path d="M104.475397,152.4375 L18.1928726,152.4375 C8.14575721,152.4375 0,144.261573 0,134.177246 L0,76.8900613 C0,66.8057344 8.14575721,58.6298077 18.1928726,58.6298077 L104.475397,58.6298077 C114.522512,58.6298077 122.668269,66.8057344 122.668269,76.8900613 L122.668269,134.177246 C122.668269,144.261573 114.522512,152.4375 104.475397,152.4375 Z" id="Path" fill="#DCDCDC"></path>
                    <path d="M61.3341346,122.340865 L61.3341346,122.340865 C56.515024,122.340865 52.5721154,118.383353 52.5721154,113.546394 L52.5721154,95.9574519 C52.5721154,91.1204928 56.515024,87.1629808 61.3341346,87.1629808 L61.3341346,87.1629808 C66.1532452,87.1629808 70.0961538,91.1204928 70.0961538,95.9574519 L70.0961538,113.546394 C70.0961538,118.383353 66.1532452,122.340865 61.3341346,122.340865 Z" id="Path" fill="#9E9E9E"></path>
                    <path d="M18.1928726,58.6298077 L29.2067308,58.6298077 L29.2067308,39.5751202 C29.2067308,24.2199736 43.6202524,11.7259615 61.3341346,11.7259615 C79.0480168,11.7259615 93.4615385,24.2199736 93.4615385,39.5751202 L93.4615385,58.6298077 L104.475397,58.6298077 C104.700288,58.6298077 104.919339,58.6561911 105.144231,58.6620541 L105.144231,39.5751202 C105.144231,17.8088041 85.4296875,0 61.3341346,0 C37.2385817,0 17.5240385,17.8088041 17.5240385,39.5751202 L17.5240385,58.6620541 C17.7489303,58.6561911 17.9679808,58.6298077 18.1928726,58.6298077 Z" id="Path" fill="#BDBDBD"></path>
                </g>
                <g id="Group" transform="translate(167.062500, 167.681250)">
                    <ellipse id="Oval" fill="#43E2AF" cx="25.3125" cy="25.40625" rx="25.3125" ry="25.40625"></ellipse>
                    <polyline id="Path-2" stroke="#FFFFFF" stroke-width="2.5" stroke-linecap="round" stroke-linejoin="round" points="14.4642857 27.8560445 21.6328403 34.6613839 36.1607143 20.1435268"></polyline>
                </g>
            </g>
        </g>
    </g>
</svg>