<?xml version="1.0" encoding="UTF-8"?>
<svg width="59px" height="59px" viewBox="0 0 59 59" version="1.1" xmlns="http://www.w3.org/2000/svg" xmlns:xlink="http://www.w3.org/1999/xlink">
    <title>Group 7</title>
    <defs>
        <filter id="filter-1">
            <feColorMatrix in="SourceGraphic" type="matrix" values="0 0 0 0 0.780392 0 0 0 0 0.831373 0 0 0 0 1.000000 0 0 0 1.000000 0"></feColorMatrix>
        </filter>
        <polygon id="path-2" points="0 0 59 0 59 59 0 59"></polygon>
        <polygon id="path-4" points="0 0 35 0 35 34 0 34"></polygon>
    </defs>
    <g id="Welcome" stroke="none" stroke-width="1" fill="none" fill-rule="evenodd">
        <g id="Transferencias---desktop" transform="translate(-737.000000, -665.000000)">
            <g id="Group-7" transform="translate(737.000000, 665.000000)">
                <g filter="url(#filter-1)" id="Group-3">
                    <g>
                        <mask id="mask-3" fill="white">
                            <use xlink:href="#path-2"></use>
                        </mask>
                        <g id="Clip-2"></g>
                        <path d="M47.7379015,59 L11.2620985,59 C5.0421133,59 0,53.9578867 0,47.7379015 L0,11.2620985 C0,5.04239857 5.0421133,0 11.2620985,0 L47.7379015,0 C53.9578867,0 59,5.04239857 59,11.2620985 L59,47.7379015 C59,53.9578867 53.9578867,59 47.7379015,59" id="Fill-1" fill="#3E6BFD" mask="url(#mask-3)"></path>
                    </g>
                </g>
                <g id="Group-3" transform="translate(12.000000, 13.000000)">
                    <mask id="mask-5" fill="white">
                        <use xlink:href="#path-4"></use>
                    </mask>
                    <g id="Clip-2"></g>
                    <path d="M5.53527719,31.8178775 L9.99094571,31.8178775 L9.99094571,15.769185 L5.53527719,15.769185 L5.53527719,31.8178775 Z M2.48712833,10.0176557 L17.4950317,2.3161272 L32.5126031,10.183497 L32.5126031,13.5870625 L2.48712833,13.5870625 L2.48712833,10.0176557 Z M18.5741032,31.8178775 L23.0297717,31.8178775 L23.0297717,15.769185 L18.5741032,15.769185 L18.5741032,31.8178775 Z M12.1394207,31.8178775 L16.4256282,31.8178775 L16.4256282,15.769185 L12.1394207,15.769185 L12.1394207,31.8178775 Z M25.1785153,31.8178775 L29.4647228,31.8178775 L29.4647228,15.769185 L25.1785153,15.769185 L25.1785153,31.8178775 Z M33.9257625,31.8178775 L31.6131978,31.8178775 L31.6131978,15.769185 L33.5868406,15.769185 C34.1800882,15.769185 34.6610781,15.2806624 34.6610781,14.6781238 L34.6610781,9.5184952 C34.6610781,9.11016553 34.436831,8.73593152 34.0793785,8.54881452 L17.9924036,0.121457527 C17.6859774,-0.0392012407 17.3226165,-0.0402923019 17.0153846,0.117093282 L0.928678304,8.37260813 C0.566660272,8.55836131 0.338653367,8.93477743 0.338653367,9.34638029 L0.338653367,14.6781238 C0.338653367,15.2806624 0.8196432,15.769185 1.41289085,15.769185 L3.38680223,15.769185 L3.38680223,31.8178775 L1.07423748,31.8178775 C0.480989833,31.8178775 0,32.3064002 0,32.9089388 C0,33.5114773 0.480989833,34 1.07423748,34 L33.9257625,34 C34.5190102,34 35,33.5114773 35,32.9089388 C35,32.3064002 34.5190102,31.8178775 33.9257625,31.8178775 L33.9257625,31.8178775 Z" id="Fill-1" fill="#668AFF" mask="url(#mask-5)"></path>
                </g>
            </g>
        </g>
    </g>
</svg>