<?xml version="1.0" encoding="UTF-8"?>
<svg width="59px" height="59px" viewBox="0 0 59 59" version="1.1" xmlns="http://www.w3.org/2000/svg" xmlns:xlink="http://www.w3.org/1999/xlink">
    <title>Group 9</title>
    <defs>
        <filter id="filter-1">
            <feColorMatrix in="SourceGraphic" type="matrix" values="0 0 0 0 0.780392 0 0 0 0 0.831373 0 0 0 0 1.000000 0 0 0 1.000000 0"></feColorMatrix>
        </filter>
        <polygon id="path-2" points="0 0 59 0 59 59 0 59"></polygon>
        <polygon id="path-4" points="0 0.166147537 29.9401976 0.166147537 29.9401976 26.2398922 0 26.2398922"></polygon>
    </defs>
    <g id="Welcome" stroke="none" stroke-width="1" fill="none" fill-rule="evenodd">
        <g id="Transferencias---desktop" transform="translate(-181.000000, -1335.000000)">
            <g id="Group-9" transform="translate(181.000000, 1335.000000)">
                <g filter="url(#filter-1)" id="Group-3">
                    <g>
                        <mask id="mask-3" fill="white">
                            <use xlink:href="#path-2"></use>
                        </mask>
                        <g id="Clip-2"></g>
                        <path d="M47.7379015,59 L11.2620985,59 C5.0421133,59 0,53.9578867 0,47.7379015 L0,11.2620985 C0,5.04239857 5.0421133,0 11.2620985,0 L47.7379015,0 C53.9578867,0 59,5.04239857 59,11.2620985 L59,47.7379015 C59,53.9578867 53.9578867,59 47.7379015,59" id="Fill-1" fill="#3E6BFD" mask="url(#mask-3)"></path>
                    </g>
                </g>
                <g id="Group-8" transform="translate(14.471698, 12.245283)">
                    <path d="M22.4430497,13.1199461 C21.8468904,13.1199461 21.3635399,12.599749 21.3635399,11.9581435 L21.3635399,9.14193406 C21.3635399,5.38205045 18.5214606,2.32360516 15.0281669,2.32360516 C11.5351432,2.32360516 8.69306384,5.38205045 8.69306384,9.14193406 L8.69306384,11.9581435 C8.69306384,12.599749 8.20971334,13.1199461 7.61355407,13.1199461 C7.0173948,13.1199461 6.5340443,12.599749 6.5340443,11.9581435 L6.5340443,9.14193406 C6.5340443,4.10087266 10.3444439,0 15.0281669,0 C19.71189,0 23.5225595,4.10087266 23.5225595,9.14193406 L23.5225595,11.9581435 C23.5225595,12.599749 23.039209,13.1199461 22.4430497,13.1199461" id="Fill-1" fill="#668AFF"></path>
                    <g id="Group-5" transform="translate(0.000000, 10.495957)">
                        <mask id="mask-5" fill="white">
                            <use xlink:href="#path-4"></use>
                        </mask>
                        <g id="Clip-4"></g>
                        <path d="M4.60416607,2.47295125 C3.26060779,2.47295125 2.24711035,3.51303137 2.24711035,4.89249999 L2.24711035,21.5135974 C2.24711035,22.8927777 3.26060779,23.9331461 4.60416607,23.9331461 L25.3362001,23.9331461 C26.7460515,23.9331461 27.6929749,22.6819935 27.6929749,21.5135974 L27.6929749,4.89249999 C27.6929749,3.51303137 26.6797584,2.47295125 25.3362001,2.47295125 L4.60416607,2.47295125 Z M25.3362001,26.2399499 L4.60416607,26.2399499 C2.02238808,26.2399499 -0.000112361136,24.1641149 -0.000112361136,21.5135974 L-0.000112361136,4.89249999 C-0.000112361136,2.24198252 2.02238808,0.166147537 4.60416607,0.166147537 L25.3362001,0.166147537 C27.9179781,0.166147537 29.9401976,2.24198252 29.9401976,4.89249999 L29.9401976,21.5135974 C29.9401976,24.0755913 27.8317409,26.2399499 25.3362001,26.2399499 L25.3362001,26.2399499 Z" id="Fill-3" fill="#668AFF" mask="url(#mask-5)"></path>
                    </g>
                    <path d="M14.2998781,20.6496543 C14.1822377,20.6496543 13.924781,20.74948 13.924781,21.0452492 L13.924781,27.4988366 C13.924781,27.6226204 14.0191638,27.8941463 14.2998781,27.8941463 L15.7567257,27.8941463 C16.0339243,27.8941463 16.1318228,27.7906128 16.1318228,27.4988366 L16.1318228,21.0452492 C16.1318228,20.9211801 16.03744,20.6496543 15.7567257,20.6496543 L14.2998781,20.6496543 Z M15.7567257,30.175876 L14.2998781,30.175876 C12.9000927,30.175876 11.7612797,28.9748305 11.7612797,27.4988366 L11.7612797,21.0452492 C11.7612797,19.56897 12.9000927,18.3679245 14.2998781,18.3679245 L15.7567257,18.3679245 C17.1565111,18.3679245 18.295324,19.56897 18.295324,21.0452492 L18.295324,27.4988366 C18.295324,29.0501276 17.2279066,30.175876 15.7567257,30.175876 L15.7567257,30.175876 Z" id="Fill-6" fill="#668AFF"></path>
                </g>
            </g>
        </g>
    </g>
</svg>