<?xml version="1.0" encoding="UTF-8"?>
<svg width="162px" height="33px" viewBox="0 0 162 33" version="1.1" xmlns="http://www.w3.org/2000/svg" xmlns:xlink="http://www.w3.org/1999/xlink">
    <title>Group 2</title>
    <defs>
        <polygon id="path-1" points="0.5748 0.363968125 17.8208 0.363968125 17.8208 29 0.5748 29"></polygon>
        <polygon id="path-3" points="0.0206783626 0.363968125 16.9152982 0.363968125 16.9152982 29 0.0206783626 29"></polygon>
        <polygon id="path-5" points="0.0984389474 0.695391544 16.4833789 0.695391544 16.4833789 30.9996011 0.0984389474 30.9996011"></polygon>
    </defs>
    <g id="Page-1" stroke="none" stroke-width="1" fill="none" fill-rule="evenodd">
        <g id="Artboard" transform="translate(-180.000000, -275.000000)">
            <g id="Group-2" transform="translate(180.000000, 275.000000)">
                <path d="M0,24.8808226 L0,3 L6.39262762,3 L6.39262762,24.3072495 L6.39262762,24.435809 C6.39262762,24.7581966 6.39456772,25.0093821 6.40232812,25.1952988 C6.40814842,25.3812156 6.43919001,25.6343789 6.49545289,25.9528108 C6.54977568,26.2751984 6.63125985,26.5263839 6.73796532,26.7123006 C6.84273069,26.8982174 7.00181884,27.062378 7.21522978,27.2028045 C7.42670062,27.343231 7.68667394,27.4144331 8.00097005,27.4144331 C8.26094337,27.4144331 8.48793501,27.3728986 8.68194495,27.2858737 C8.87595489,27.1988488 9.02728265,27.0663336 9.13980842,26.8883282 C9.25233418,26.7103228 9.34157876,26.536273 9.41142234,26.3701346 C9.47932582,26.2039963 9.5258882,25.9824784 9.55110949,25.7036032 C9.57633079,25.4267059 9.59185158,25.2130994 9.59767188,25.0667394 C9.60349218,24.9184015 9.60737238,24.7087507 9.60737238,24.435809 L9.60737238,24.3072495 L9.60737238,3 L16,3 L16,24.8808226 C16,27.5449705 15.355887,29.566321 14.0657209,30.9468519 C12.7755547,32.3293608 10.7656117,33.0117149 8.03783194,33 C5.25766946,33.0117149 3.22444525,32.3293608 1.93427913,30.9468519 C0.64605311,29.566321 0,27.5449705 0,24.8808226" id="Fill-1" fill="#898F9C"></path>
                <path d="M20,33 L20,5.3140588 L26.5021798,5.3140588 L26.5021798,8.48780828 C26.7679981,7.29399471 27.26193,6.41423993 27.9820903,5.84854396 C28.7022505,5.28284799 29.5770001,5 30.6063391,5 C32.3143631,5 33.6396842,5.54423854 34.5841876,6.63271562 C35.5286909,7.7211927 36,9.39487251 36,11.6596071 L36,33 L29.5883115,33 L29.5883115,12.3403929 C29.5883115,11.7629929 29.4733121,11.2538665 29.2433133,10.8110631 C29.0133145,10.366309 28.6438082,10.1458827 28.1366796,10.1458827 C27.8199599,10.1458827 27.5560269,10.2356138 27.3373395,10.4150759 C27.1186521,10.5925874 26.958407,10.7954577 26.8566042,11.0217361 C26.7529162,11.2519158 26.6718511,11.5484186 26.6115235,11.9170963 C26.5493107,12.285774 26.5172617,12.568622 26.511606,12.7656402 C26.504065,12.9626585 26.5021798,13.2201477 26.5021798,13.5400585 L26.5021798,33 L20,33 Z" id="Fill-3" fill="#898F9C"></path>
                <path d="M46.8536528,12.5451261 L46.8536528,23.0060208 L46.8536528,23.4888314 L46.8536528,24.1186706 L46.8536528,24.1941718 L46.8536528,24.2676862 C46.8536528,26.5963032 47.402104,27.7606117 48.5009936,27.7606117 C48.7036821,27.7606117 48.8864991,27.724848 49.0454705,27.6513336 C49.206429,27.5738455 49.3415546,27.4605937 49.4568089,27.3056174 C49.5720631,27.1526281 49.6694331,26.9976519 49.752893,26.8506232 C49.836353,26.7016076 49.9039158,26.4969595 49.9555815,26.2386658 C50.0052601,25.9783852 50.0469901,25.7578421 50.0807715,25.5790234 C50.1105786,25.3982178 50.13045,25.157806 50.1364115,24.8518273 C50.1423729,24.5498224 50.1503214,24.3272924 50.1562829,24.1842375 C50.1622443,24.0411825 50.1622443,23.8266 50.1562829,23.5345295 C50.1503214,23.2444458 50.1463472,23.0676139 50.1463472,23.0060208 L50.1463472,12.5451261 C50.1463472,12.2590162 50.13045,11.9828406 50.0986558,11.7086519 C50.0668615,11.4364501 49.9992987,11.1304714 49.8979544,10.788729 C49.794623,10.4489734 49.6296902,10.1747848 49.3991818,9.96218917 C49.1706604,9.75356734 48.8825248,9.64627612 48.5387493,9.64627612 C48.1810637,9.64627612 47.8810053,9.7336986 47.6385739,9.90655669 C47.3961426,10.0814016 47.2232613,10.3257872 47.121917,10.6417003 C47.0185856,10.9556265 46.9490357,11.2576314 46.91128,11.5417545 C46.8735243,11.8278644 46.8536528,12.1616593 46.8536528,12.5451261 M40,23.8027575 L40.0755114,11.2457102 C40.0755114,10.3516166 40.1967271,9.50719489 40.4391584,8.70847131 C40.6835769,7.90974773 41.0392753,7.192486 41.5122151,6.55271238 C41.9851549,5.91492564 42.6071303,5.40827262 43.3781414,5.03076645 C44.1511397,4.65127341 45.0215079,4.46450719 45.9912332,4.46450719 C47.8174167,4.46450719 49.2024547,5.07646457 50.1463472,6.30236619 L50.1463472,0 L57,0 L57,32.6662051 L50.1463472,32.6662051 L50.1463472,29.7117226 C49.6614845,30.9634535 49.0573933,31.8237702 48.3380479,32.2926726 C47.6167154,32.7655488 46.7960257,33 45.8779661,33 C45.2142607,33 44.6101695,32.9423806 44.0676797,32.8231682 C43.5251899,32.7039557 43.0601987,32.5211632 42.6707189,32.2668433 C42.281239,32.0125233 41.9354763,31.732374 41.637405,31.4303691 C41.3373466,31.1283641 41.090941,30.7448973 40.9001753,30.2879162 C40.7074226,29.8289482 40.5524255,29.3819014 40.4312098,28.9408152 C40.3099942,28.5017159 40.2165985,27.9751942 40.1530099,27.3612499 C40.0894214,26.7473057 40.0476914,26.1790595 40.02782,25.6525378 C40.0099357,25.126016 40,24.508098 40,23.8027575" id="Fill-5" fill="#898F9C"></path>
                <path d="M65.8987503,12.474725 L65.8987503,25.8372093 C65.8987503,26.5663557 66.0462856,27.0966439 66.3452904,27.4319733 C66.640361,27.7673026 67.0239528,27.9330177 67.4901643,27.9330177 C67.958343,27.9330177 68.3399676,27.7673026 68.6370053,27.4319733 C68.934043,27.0966439 69.0835455,26.5663557 69.0835455,25.8372093 L69.0835455,12.474725 C69.0835455,10.8819106 68.5524184,10.0845286 67.4901643,10.0845286 C66.4298773,10.0845286 65.8987503,10.8819106 65.8987503,12.474725 M67.4901643,33 C61.8307105,33 59,30.1633477 59,24.4880936 L59,13.5119064 C59,10.8994569 59.7573478,8.82899318 61.2740106,7.29661607 C62.7906735,5.76618855 64.862069,5 67.4901643,5 C70.1320296,5 72.2093265,5.76618855 73.7259894,7.29661607 C75.2426522,8.82899318 76,10.8994569 76,13.5119064 L76,24.4880936 C76,27.3442417 75.2760935,29.4770923 73.8302476,30.8846957 C72.3824346,32.2961983 70.2697292,33 67.4901643,33" id="Fill-7" fill="#898F9C"></path>
                <g id="Group-11" transform="translate(77.000000, 4.000000)">
                    <mask id="mask-2" fill="white">
                        <use xlink:href="#path-1"></use>
                    </mask>
                    <g id="Clip-10"></g>
                    <path d="M10.5568,9.03279313 L10.5168,7.97012438 C10.5168,7.72289938 10.4988,7.47368063 10.4608,7.22446188 C10.4228,6.97723688 10.3508,6.71804938 10.2488,6.45088688 C10.1448,6.18372438 9.9908,5.97039313 9.7868,5.80889938 C9.5808,5.64740563 9.3368,5.56566188 9.0548,5.56566188 C8.5788,5.56566188 8.2148,5.69525563 7.9648,5.95643688 C7.7148,6.21761813 7.5888,6.58446813 7.5888,7.05698688 C7.5888,8.05186813 8.0008,8.83939938 8.8228,9.42356813 L13.0808,12.4440994 C13.9288,13.0541869 14.6608,13.6941806 15.2768,14.3660744 C15.8928,15.0359744 16.3588,15.6480556 16.6748,16.2023181 C16.9888,16.7545869 17.2388,17.3487244 17.4268,17.9807431 C17.6108,18.6167494 17.7248,19.1311369 17.7628,19.5298869 C17.8008,19.9266431 17.8208,20.3732431 17.8208,20.8696869 C17.8208,23.5433056 17.0408,25.5669619 15.4788,26.9386619 C13.9188,28.3143494 11.8028,29.0001994 9.1308,29.0001994 C3.4268,29.0001994 0.5748,26.1910056 0.5748,20.5726181 L0.6148,18.3555681 L7.5128,18.3555681 L7.5508,21.6352869 C7.5508,22.0838806 7.6048,22.4527244 7.7148,22.7458056 C7.8228,23.0368931 7.9748,23.2462369 8.1668,23.3678556 C8.3608,23.4934619 8.5368,23.5752056 8.6968,23.6110931 C8.8568,23.6489744 9.0408,23.6689119 9.2468,23.6689119 C10.1708,23.6689119 10.6348,22.9411931 10.6348,21.4857556 C10.6348,21.1149181 10.6268,20.8437681 10.6148,20.6762931 C10.6008,20.5088181 10.5528,20.2595994 10.4708,19.9306306 C10.3868,19.6016619 10.2508,19.3105744 10.0648,19.0633494 C9.8788,18.8141306 9.6088,18.5110806 9.2568,18.1482181 C8.9028,17.7893431 8.4568,17.4105306 7.9168,17.0117806 L4.2368,14.2723681 C3.4388,13.6742431 2.7948,13.0940619 2.3008,12.5298306 C1.8068,11.9636056 1.4448,11.3674744 1.2208,10.7374494 C0.9968,10.1114119 0.8508,9.54718063 0.7868,9.04276188 C0.7228,8.54033688 0.6908,7.89037438 0.6908,7.09287438 C0.6908,5.66534938 1.1148,4.42723063 1.9628,3.38449938 C2.8108,2.34176813 3.8668,1.57616813 5.1328,1.09168688 C6.3968,0.605211875 7.7688,0.363968125 9.2468,0.363968125 C11.9568,0.363968125 14.0348,1.02788688 15.4788,2.35771813 C16.9248,3.68754938 17.6468,5.74111188 17.6468,8.51043063 L17.6468,9.03279313 L10.5568,9.03279313 Z" id="Fill-9" fill="#898F9C" mask="url(#mask-2)"></path>
                </g>
                <path d="M98.0602356,0 L104.767726,0 L104.767726,5.91758341 L106,5.91758341 L106,10.9801623 L104.767726,10.9801623 L104.767726,26.6380523 C104.767726,26.8721371 104.771727,27.0586114 104.78573,27.1935077 C104.799733,27.328404 104.823739,27.4752029 104.863747,27.6299369 C104.901756,27.7846709 104.975772,27.8957619 105.085797,27.9651939 C105.193821,28.032642 105.331852,28.0643823 105.499889,28.0643823 C105.665926,28.0643823 105.833963,28.0405771 106,27.9909829 L106,32.5179441 C105.023783,32.8393147 103.797511,33 102.319182,33 C101.573016,33 100.934874,32.9047791 100.400756,32.7123535 C99.8686375,32.5219116 99.4545455,32.2858431 99.1584797,32.0081154 C98.8624139,31.728404 98.6283619,31.3693417 98.4543232,30.9329125 C98.282285,30.4925158 98.1722605,30.0818756 98.1282507,29.6990081 C98.0822405,29.3141569 98.0602356,28.8757439 98.0602356,28.3817854 L98.0602356,10.9801623 L97,10.9801623 L97,5.91758341 L98.0602356,5.91758341 L98.0602356,0 Z" id="Fill-12" fill="#898F9C"></path>
                <path d="M109,33 L109,5.33217027 L115.89283,5.33217027 L115.89283,8.41353803 C116.278541,7.14738311 116.818136,6.26029309 117.509618,5.7581298 C118.203098,5.25205862 119.082438,5 120.147639,5 C121.430677,5 122.561829,5.37711096 123.537097,6.13524075 C124.512366,6.89141661 125,7.98757851 125,9.42763433 L125,18.6873692 L118.261054,18.6873692 L118.261054,12.0654571 C118.261054,11.7332868 118.245066,11.453873 118.21309,11.2252617 C118.181114,10.9986043 118.077192,10.7797627 117.905321,10.5706909 C117.731451,10.361619 117.485636,10.2561061 117.163877,10.2561061 C116.830127,10.2561061 116.534349,10.4006978 116.278541,10.6820656 C116.020734,10.9653873 115.89283,11.352268 115.89283,11.8446615 L115.89283,33 L109,33 Z" id="Fill-14" fill="#898F9C"></path>
                <g id="Group-18" transform="translate(127.000000, 4.000000)">
                    <mask id="mask-4" fill="white">
                        <use xlink:href="#path-3"></use>
                    </mask>
                    <g id="Clip-17"></g>
                    <path d="M8.56243275,5.38024313 C8.20453801,5.38024313 7.90430409,5.46996188 7.66173099,5.64939938 C7.41915789,5.83083063 7.24021053,6.09998688 7.12687719,6.46085563 C7.01155556,6.82172438 6.936,7.19056813 6.89623392,7.57137438 C6.85845614,7.94819313 6.8385731,8.41273688 6.8385731,8.95902438 C6.8385731,9.22020563 6.84453801,9.61098063 6.85845614,10.1333431 C6.87038596,10.6557056 6.87635088,11.0464806 6.87635088,11.3076619 L10.0954152,11.3076619 L10.0954152,8.40077438 C10.0954152,6.38708688 9.58442105,5.38024313 8.56243275,5.38024313 M8.2940117,29.0001994 C7.2740117,29.0001994 6.34746199,28.8965244 5.51635088,28.6911681 C4.68722807,28.4878056 3.98734503,28.2206431 3.42067836,27.8896806 C2.85003509,27.5607119 2.35892398,27.1440181 1.94535673,26.6415931 C1.52980117,26.1371744 1.19974269,25.6247806 0.957169591,25.1044119 C0.714596491,24.5820494 0.521730994,23.9839244 0.374596491,23.3140244 C0.227461988,22.6421306 0.132023392,22.0220744 0.0862923977,21.4498681 C0.0405614035,20.8776619 0.0206783626,20.2436494 0.0206783626,19.5478306 L0.0206783626,8.30706813 C0.0206783626,5.73313688 0.776233918,3.76530563 2.28933333,2.40556813 C3.80243275,1.04383688 5.9179883,0.363968125 8.63997661,0.363968125 C14.1555322,0.363968125 16.9152982,3.01166813 16.9152982,8.30706813 L16.9152982,10.3386994 C16.9152982,12.8607931 16.8894503,14.5953556 16.8377544,15.5403931 L6.87635088,15.5403931 L6.87635088,19.4561181 C6.87635088,19.5797306 6.87436257,19.7810994 6.86640936,20.0602244 C6.86044444,20.3393494 6.85845614,20.5546744 6.85845614,20.7042056 C6.85845614,21.1508056 6.87635088,21.5336056 6.91412865,21.8506119 C6.95389474,22.1676181 7.02348538,22.4906056 7.12687719,22.8195744 C7.2282807,23.1485431 7.39728655,23.3977619 7.63389474,23.5652369 C7.87050292,23.7327119 8.16676023,23.8164494 8.52465497,23.8164494 C8.89447953,23.8164494 9.19471345,23.6908431 9.42535673,23.4356431 C9.6540117,23.1804431 9.81705263,22.8135931 9.91249123,22.3350931 C10.0099181,21.8565931 10.0695673,21.4319244 10.0954152,21.0570994 C10.1212632,20.6862619 10.133193,20.2177306 10.133193,19.6594806 C10.133193,18.5649119 10.1212632,17.9687806 10.0954152,17.8710869 L16.9152982,17.8710869 L16.9152982,19.4561181 C16.9152982,21.0092494 16.7940117,22.3330994 16.5514386,23.4256744 C16.3088655,24.5202431 15.8774035,25.5051556 15.2570526,26.3804119 C14.6386901,27.2576619 13.7538947,27.9136056 12.604655,28.3482431 C11.4554152,28.7808869 10.0178713,29.0001994 8.2940117,29.0001994" id="Fill-16" fill="#898F9C" mask="url(#mask-4)"></path>
                </g>
                <g id="Group-21" transform="translate(145.000000, 2.000000)">
                    <mask id="mask-6" fill="white">
                        <use xlink:href="#path-5"></use>
                    </mask>
                    <g id="Clip-20"></g>
                    <path d="M8.70831263,30.9996011 C5.61001789,30.9996011 3.40144947,30.3035257 2.08063895,28.911375 C0.75786,27.5192243 0.0984389474,25.3671746 0.0984389474,22.4592151 L0.0984389474,19.549261 L6.69855474,19.549261 L6.69855474,22.2158879 C6.69855474,24.1305938 7.23002842,25.0879467 8.29100737,25.0879467 C8.78311263,25.0879467 9.17286,24.9004651 9.45631263,24.5294908 C9.74173368,24.1545276 9.88346,23.6638842 9.88346,23.0555662 C9.88346,22.2597665 9.77322842,21.587625 9.55276526,21.041136 C9.33033368,20.4926526 8.99570211,19.9760809 8.54690211,19.4854375 C8.09810211,18.9908051 7.36191263,18.3126801 6.33636526,17.4410901 L3.51168105,15.0357408 C1.23618632,13.1070735 0.0984389474,10.9310901 0.0984389474,8.50978493 C0.0984389474,5.87108088 0.785417895,3.91050184 2.15543895,2.62405882 C3.52742842,1.33761581 5.41514421,0.695391544 7.81661789,0.695391544 L7.98787053,0.695391544 L8.99373368,0.695391544 C9.61181789,0.695391544 10.4090284,0.833011029 11.3814284,1.11423346 C12.3557968,1.3934614 13.2219021,1.86017096 13.9797442,2.51236765 C14.7375863,3.16456434 15.3084284,4.07205515 15.6863653,5.23484007 C16.0662705,6.397625 16.2552389,7.81769853 16.2552389,9.49705515 L9.48583895,9.49705515 L9.44647053,7.70600735 C9.43466,7.37093382 9.28899684,7.07176103 9.01144947,6.81048346 C8.73390211,6.54920588 8.42289158,6.41956434 8.08235474,6.41956434 C7.63946,6.41956434 7.26349158,6.55319485 6.95444947,6.82045588 C6.64343895,7.08771691 6.48990211,7.43276287 6.48990211,7.85559375 C6.48990211,8.70125551 7.11389158,9.62071324 8.36580737,10.6159614 L12.4050074,13.8250882 C13.06246,14.3456489 13.6352705,14.876182 14.1214705,15.418682 C14.6096389,15.9591875 14.9954495,16.4937096 15.2789021,17.0222482 C15.5623547,17.5507868 15.7946284,18.0294632 15.9717863,18.4582776 C16.1489442,18.8870919 16.2709863,19.351807 16.3398811,19.8564118 C16.4107442,20.3610165 16.4520811,20.7379743 16.4638916,20.9932684 C16.4757021,21.2485625 16.4835758,21.5816415 16.4835758,21.990511 C16.4835758,23.0376158 16.4146811,23.9830018 16.2749232,24.8366415 C16.1351653,25.6882868 15.8891126,26.5080202 15.5347968,27.2998309 C15.1804811,28.0876526 14.7159337,28.7458327 14.1411547,29.2743713 C13.5663758,29.8029099 12.8203442,30.2217518 11.90306,30.534886 C10.9877442,30.8440313 9.92086,30.9996011 8.70831263,30.9996011" id="Fill-19" fill="#898F9C" mask="url(#mask-6)"></path>
                </g>
            </g>
        </g>
    </g>
</svg>