<?xml version="1.0" encoding="UTF-8"?>
<svg width="59px" height="60px" viewBox="0 0 59 60" version="1.1" xmlns="http://www.w3.org/2000/svg" xmlns:xlink="http://www.w3.org/1999/xlink">
    <title>Icon / Categorias 32px / Rejected Line</title>
    <defs>
        <path d="M28.8839462,37.6944444 C30.6956205,37.6944444 32.1631944,39.1620183 32.1631944,40.9707517 C32.1631944,42.7824261 30.6956205,44.25 28.8839462,44.25 C27.0752128,44.25 25.6076389,42.7824261 25.6076389,40.9707517 C25.6076389,39.1620183 27.0752128,37.6944444 28.8839462,37.6944444 Z M30.1844818,14.75 C32.3224744,14.75 33.9954234,16.3620258 33.7840399,18.2220555 L33.7840399,18.2220555 L32.467423,29.9230938 C32.2832175,31.5430346 30.7280393,32.7777778 28.8648452,32.7777778 C26.9986313,32.7777778 25.4404333,31.5377579 25.2622673,29.9151788 L25.2622673,29.9151788 L23.9849073,18.2115022 C23.7856029,16.3541108 25.4555322,14.75 27.590505,14.75 L27.590505,14.75 Z" id="path-1"></path>
    </defs>
    <g id="Page-1" stroke="none" stroke-width="1" fill="none" fill-rule="evenodd">
        <g id="La-Tarjeta---Desktop-" transform="translate(-202.000000, -2324.000000)">
            <g id="Icon-/-Categorias-32px-/-Rejected-Line" transform="translate(202.000000, 2324.928276)">
                <path d="M10,0 L49,0 C54.5228475,-1.01453063e-15 59,4.4771525 59,10 L59,49 C59,54.5228475 54.5228475,59 49,59 L10,59 C4.4771525,59 6.76353751e-16,54.5228475 0,49 L0,10 C-6.76353751e-16,4.4771525 4.4771525,1.01453063e-15 10,0 Z" id="#FF6766" fill="#FFEBEB"></path>
                <mask id="mask-2" fill="white">
                    <use xlink:href="#path-1"></use>
                </mask>
                <use id="Combined-Shape" fill="#FF4443" xlink:href="#path-1"></use>
            </g>
        </g>
    </g>
</svg>