<?xml version="1.0" encoding="UTF-8"?>
<svg width="50px" height="50px" viewBox="0 0 50 50" version="1.1" xmlns="http://www.w3.org/2000/svg" xmlns:xlink="http://www.w3.org/1999/xlink">
    <title>transparencia</title>
    <g id="Welcome" stroke="none" stroke-width="1" fill="none" fill-rule="evenodd">
        <g id="Nosotros---Desktop" transform="translate(-596.000000, -2574.000000)" fill-rule="nonzero">
            <g id="transparencia" transform="translate(596.000000, 2574.000000)">
                <circle id="Oval" fill="#3E6BFD" opacity="0.1" cx="25" cy="25" r="25"></circle>
                <path d="M25.086,34.214 C23.6067064,32.8376587 21.6544024,32.0835221 19.634,32.108 C16.164,32.108 12.57,34.214 12.57,34.214 L12.57,17.984 C12.57,17.984 16.17,15.876 19.634,15.876 C21.6546402,15.8522702 23.6069061,16.6071082 25.086,17.984" id="Path" fill="#FFFFFF"></path>
                <path d="M25.086,34.214 C26.5652936,32.8376587 28.5175976,32.0835221 30.538,32.108 C34.006,32.108 37.6,34.214 37.6,34.214 L37.6,17.984 C37.6,17.984 34,15.876 30.538,15.876 C28.5172482,15.8516514 26.5647602,16.6065752 25.086,17.984" id="Path" fill="#FFFFFF"></path>
                <path d="M37.954,17.38 C37.8,17.29 34.154,15.1798764 30.538,15.1798764 C28.5612603,15.1694921 26.6393405,15.829403 25.086,17.052 C23.5325063,15.8296843 21.6106878,15.1698083 19.634,15.1798764 C16.016,15.1798764 12.37,17.294 12.216,17.38 C12.0028698,17.5049315 11.8713754,17.7329566 11.87,17.98 L11.87,34.212 C11.8726141,34.4616886 12.0076651,34.6911946 12.2246698,34.8147267 C12.4416745,34.9382588 12.7079652,34.9372205 12.924,34.812 C12.958,34.8 16.4,32.8 19.634,32.8 C21.4608483,32.7848613 23.2262492,33.4590273 24.578,34.688 L24.578,34.688 C24.578,34.688 24.592,34.7 24.598,34.708 L24.598,34.708 L24.598,34.708 L24.648,34.75 L24.68,34.776 L24.702,34.788 L24.72,34.798 C24.7460009,34.8150249 24.7734383,34.8297475 24.802,34.842 C24.8092875,34.8431596 24.8167125,34.8431596 24.824,34.842 L24.846,34.842 C24.8746713,34.8527676 24.9040806,34.8614567 24.934,34.868 L24.956,34.868 L24.972,34.868 C25.0039693,34.8699813 25.0360307,34.8699813 25.068,34.868 L25.092,34.868 C25.130854,34.8660843 25.1695767,34.8620785 25.208,34.856 L25.26,34.84 C25.2861958,34.8350435 25.3117085,34.8269869 25.336,34.816 C25.3552075,34.8085492 25.3739131,34.7998644 25.392,34.79 C25.412,34.778 25.434,34.768 25.454,34.754 L25.472,34.744 L25.498,34.722 L25.51,34.712 C25.5256082,34.7019405 25.5403284,34.6905658 25.554,34.678 L25.554,34.678 L25.568,34.664 C25.568,34.664 25.568,34.664 25.568,34.664 C26.9299956,33.4376052 28.7054398,32.7717243 30.538,32.8 C33.77,32.8 37.212,34.8 37.246,34.81 C37.3528981,34.8742379 37.4752856,34.9080003 37.6,34.9080003 C37.9856905,34.9058147 38.2978147,34.5936905 38.3,34.208 L38.3,17.984 C38.3,17.7355277 38.1683574,17.505656 37.954,17.38 L37.954,17.38 Z M13.27,33.064 L13.27,18.4 C14.226,17.898 17,16.5759448 19.634,16.5759448 C21.3701779,16.5692868 23.0530178,17.1755624 24.386,18.288 L24.386,32.78 C22.9665983,31.8749525 21.3173884,31.3960153 19.634,31.4 C17.142,31.4 14.64,32.41 13.27,33.064 Z M36.9,33.064 C35.532,32.41 33.028,31.408 30.538,31.408 C28.8554077,31.4016253 27.2062589,31.8777684 25.786,32.78 L25.786,18.288 C27.1194153,17.1763179 28.8019703,16.5701449 30.538,16.575958 C33.172,16.575958 35.938,17.9 36.9,18.4 L36.9,33.064 Z" id="Shape" fill="#3E6BFD" opacity="0.8"></path>
            </g>
        </g>
    </g>
</svg>