<?xml version="1.0" encoding="UTF-8"?>
<svg width="177px" height="177px" viewBox="0 0 177 177" version="1.1" xmlns="http://www.w3.org/2000/svg" xmlns:xlink="http://www.w3.org/1999/xlink">
    <title>claves</title>
    <g id="Welcome" stroke="none" stroke-width="1" fill="none" fill-rule="evenodd">
        <g id="Seguridad---Desktop---1" transform="translate(-187.000000, -477.000000)" fill-rule="nonzero">
            <g id="claves" transform="translate(187.000000, 477.000000)">
                <circle id="Oval" fill="#FFFFFF" cx="88.5" cy="88.5" r="88.5"></circle>
                <circle id="Oval" fill="#3E6BFD" opacity="0.1" cx="88.5" cy="88.5" r="88.5"></circle>
                <circle id="Oval" fill="#3E6BFD" opacity="0.05" cx="89.5" cy="89.5" r="79.5"></circle>
                <path d="M68.7485714,62.2758524 C68.7485714,50.5255236 58.9551201,41 46.8742857,41 C34.7934513,41 25,50.5255236 25,62.2758524 L25,76 L33.3977143,76 L33.2971429,62.0313024 C33.297143,54.8730562 39.2632685,49.0701512 46.6228571,49.0701512 C53.9824458,49.0701512 59.9485713,54.8730562 59.9485714,62.0313024 L59.9485714,66.6777529 L69,66.6777529 L68.7485714,62.2758524 Z" id="Path" fill="#FFFFFF"></path>
                <rect id="Rectangle" fill="#FFFFFF" x="34" y="76" width="119" height="41" rx="20.5"></rect>
                <polygon id="Path" fill="#3E6BFD" points="77.0478153 102.1875 80.8615004 97.2849771 75 95.540711 76.4443528 91.0252294 82.0684254 93.3577982 81.6974444 87 86.3470734 87 85.9315746 93.3061927 91.649629 91.0252294 93 95.540711 87.1879637 97.1766055 91.0461665 102.223624 87.4204452 104.917431 84.1063479 99.6639908 80.569662 105"></polygon>
                <polygon id="Path" fill="#3E6BFD" points="100.047815 102.174449 103.8615 97.2761386 98 95.5333715 99.4443528 91.0217703 105.073372 93.3523346 104.697444 87 109.35202 87 108.931575 93.3007734 114.649629 91.0217703 116 95.5333715 110.187964 97.1678602 114.046167 102.210541 110.420445 104.902034 107.116241 99.6685763 103.584501 105"></polygon>
                <polygon id="Path" fill="#3E6BFD" points="125.045117 102.174449 128.862999 97.2761386 123 95.5333715 124.44099 91.0217703 130.076204 93.3523346 129.704814 87 134.35956 87 133.923796 93.3007734 139.653095 91.0217703 141 95.5333715 135.196424 97.1678602 139.058872 102.210541 135.409354 104.902034 132.106465 99.6685763 128.565887 105"></polygon>
                <path d="M65.4929474,76 L27.5070526,76 C25.0178762,76 23,77.9691687 23,80.3982615 L23,95.3117957 L23.0346316,95.3117957 C23.7120881,107.475678 34.0168476,117 46.5,117 C58.9831524,117 69.2879119,107.475678 69.9653684,95.3117957 L70,95.3117957 L70,80.3982615 C70,79.23177 69.5251512,78.113055 68.6799148,77.288221 C67.8346785,76.4633869 66.688292,76 65.4929474,76 Z" id="Path" fill="#3E6BFD"></path>
                <path d="M47.04881,117 C59.7860002,116.998932 70.2943251,107.461656 70.9647035,95.2941176 L71,95.2941176 L71,80.3942353 C71,79.2288116 70.5160343,78.1111207 69.6545698,77.2870417 C68.7931053,76.4629627 67.6247087,76 66.4064139,76 L46,76 L47.04881,117 Z" id="Path" fill="#FFFFFF" opacity="0.1"></path>
                <path d="M52,89.7490697 C51.9991246,87.4259516 50.2299968,85.4442324 47.8178577,85.0643708 C45.4057187,84.6845092 43.0582818,86.0179553 42.2686181,88.2165801 C41.4789545,90.4152048 42.4787486,92.833939 44.6320884,93.9343636 L44.6320884,100.749842 C44.6320884,101.99257 45.6923933,103 47.0003456,103 C48.3082979,103 49.3686028,101.99257 49.3686028,100.749842 L49.3686028,93.9343636 C50.9897623,93.1059002 52.0006584,91.4980481 52,89.7490697 L52,89.7490697 Z" id="Path" fill="#FFFFFF"></path>
                <path d="M52,89.7490697 C51.9991246,87.4259516 50.2299968,85.4442324 47.8178577,85.0643708 C45.4057187,84.6845092 43.0582818,86.0179553 42.2686181,88.2165801 C41.4789545,90.4152048 42.4787486,92.833939 44.6320884,93.9343636 L44.6320884,100.749842 C44.6320884,101.99257 45.6923933,103 47.0003456,103 C48.3082979,103 49.3686028,101.99257 49.3686028,100.749842 L49.3686028,93.9343636 C50.9897623,93.1059002 52.0006584,91.4980481 52,89.7490697 L52,89.7490697 Z" id="Path" fill="#3E6BFD" opacity="0.2"></path>
            </g>
        </g>
    </g>
</svg>