<?xml version="1.0" encoding="UTF-8"?>
<svg width="177px" height="177px" viewBox="0 0 177 177" version="1.1" xmlns="http://www.w3.org/2000/svg" xmlns:xlink="http://www.w3.org/1999/xlink">
    <title>dispositivo</title>
    <g id="Welcome" stroke="none" stroke-width="1" fill="none" fill-rule="evenodd">
        <g id="Seguridad---Desktop---1" transform="translate(-187.000000, -820.000000)" fill-rule="nonzero">
            <g id="dispositivo" transform="translate(187.000000, 820.000000)">
                <circle id="Oval" fill="#FFFFFF" cx="88.5" cy="88.5" r="88.5"></circle>
                <circle id="Oval" fill="#3E6BFD" opacity="0.1" cx="88.5" cy="88.5" r="88.5"></circle>
                <circle id="Oval" fill="#3E6BFD" opacity="0.05" cx="89" cy="89" r="79"></circle>
                <rect id="Rectangle" fill="#3E6BFD" opacity="0.2" x="57" y="29" width="63" height="119" rx="11.32"></rect>
                <rect id="Rectangle" fill="#FFFFFF" opacity="0.5" x="62" y="44" width="55" height="93" rx="6.04"></rect>
                <rect id="Rectangle" fill="#FFFFFF" x="84" y="38" width="11" height="2" rx="1"></rect>
                <circle id="Oval" fill="#FFFFFF" cx="98" cy="39" r="1"></circle>
                <circle id="Oval" fill="#FFFFFF" cx="89" cy="142" r="3"></circle>
                <path d="M80.7485714,68.2758524 C80.7485714,56.5255236 70.9551201,47 58.8742857,47 C46.7934513,47 37,56.5255236 37,68.2758524 L37,82 L45.3977143,82 L45.2971429,68.0313024 C45.297143,60.8730562 51.2632685,55.0701512 58.6228571,55.0701512 C65.9824458,55.0701512 71.9485713,60.8730562 71.9485714,68.0313024 L71.9485714,72.6777529 L81,72.6777529 L80.7485714,68.2758524 Z" id="Path" fill="#FFFFFF"></path>
                <path d="M77.4929474,83 L39.5070526,83 C37.0178762,83 35,85.0171972 35,87.5055361 L35,102.782815 L35.0346316,102.782815 C35.7120881,115.243377 46.0168476,125 58.5,125 C70.9831524,125 81.2879119,115.243377 81.9653684,102.782815 L82,102.782815 L82,87.5055361 C82,85.0171972 79.9821238,83 77.4929474,83 Z" id="Path" fill="#3E6BFD"></path>
                <path d="M59.0068576,125 C71.2345602,124.998906 81.3225521,115.229014 81.9661154,102.764706 L82,102.764706 L82,87.5014118 C82,85.0153507 80.0256462,83 77.5901573,83 L58,83 L59.0068576,125 Z" id="Path" fill="#FFFFFF" opacity="0.1"></path>
                <path d="M64,96.7490697 C63.9991246,94.4259516 62.2299968,92.4442324 59.8178577,92.0643708 C57.4057187,91.6845092 55.0582818,93.0179553 54.2686181,95.2165801 C53.4789545,97.4152048 54.4787486,99.833939 56.6320884,100.934364 L56.6320884,107.749842 C56.6320884,108.99257 57.6923933,110 59.0003456,110 C60.3082979,110 61.3686028,108.99257 61.3686028,107.749842 L61.3686028,100.934364 C62.9897623,100.1059 64.0006584,98.4980481 64,96.7490697 Z" id="Path" fill="#FFFFFF"></path>
                <path d="M64,96.7490697 C63.9991246,94.4259516 62.2299968,92.4442324 59.8178577,92.0643708 C57.4057187,91.6845092 55.0582818,93.0179553 54.2686181,95.2165801 C53.4789545,97.4152048 54.4787486,99.833939 56.6320884,100.934364 L56.6320884,107.749842 C56.6320884,108.99257 57.6923933,110 59.0003456,110 C60.3082979,110 61.3686028,108.99257 61.3686028,107.749842 L61.3686028,100.934364 C62.9897623,100.1059 64.0006584,98.4980481 64,96.7490697 Z" id="Path" fill="#3E6BFD" opacity="0.2"></path>
            </g>
        </g>
    </g>
</svg>