<?xml version="1.0" encoding="UTF-8"?>
<svg width="71px" height="71px" viewBox="0 0 71 71" version="1.1" xmlns="http://www.w3.org/2000/svg" xmlns:xlink="http://www.w3.org/1999/xlink">
    <title>Illustration / Transferencias</title>
    <defs>
        <path d="M0.14175,35.2331875 C0.14175,54.56325 15.8116875,70.2331875 35.14175,70.2331875 L35.14175,70.2331875 C54.4718125,70.2331875 70.14175,54.56325 70.14175,35.2331875 L70.14175,35.2331875 C70.14175,15.903125 54.4718125,0.2331875 35.14175,0.2331875 L35.14175,0.2331875 C15.8116875,0.2331875 0.14175,15.903125 0.14175,35.2331875" id="path-1"></path>
        <path d="M0.14175,35.2331875 C0.14175,54.56325 15.8116875,70.2331875 35.14175,70.2331875 L35.14175,70.2331875 C54.4718125,70.2331875 70.14175,54.56325 70.14175,35.2331875 L70.14175,35.2331875 C70.14175,15.903125 54.4718125,0.2331875 35.14175,0.2331875 L35.14175,0.2331875 C15.8116875,0.2331875 0.14175,15.903125 0.14175,35.2331875" id="path-3"></path>
        <path d="M0.14175,35.2331875 C0.14175,54.56325 15.8116875,70.2331875 35.14175,70.2331875 L35.14175,70.2331875 C54.4718125,70.2331875 70.14175,54.56325 70.14175,35.2331875 L70.14175,35.2331875 C70.14175,15.903125 54.4718125,0.2331875 35.14175,0.2331875 L35.14175,0.2331875 C15.8116875,0.2331875 0.14175,15.903125 0.14175,35.2331875" id="path-5"></path>
        <path d="M0.14175,35.2331875 C0.14175,54.56325 15.8116875,70.2331875 35.14175,70.2331875 L35.14175,70.2331875 C54.4718125,70.2331875 70.14175,54.56325 70.14175,35.2331875 L70.14175,35.2331875 C70.14175,15.903125 54.4718125,0.2331875 35.14175,0.2331875 L35.14175,0.2331875 C15.8116875,0.2331875 0.14175,15.903125 0.14175,35.2331875" id="path-7"></path>
        <path d="M0.14175,35.2331875 C0.14175,54.56325 15.8116875,70.2331875 35.14175,70.2331875 L35.14175,70.2331875 C54.4718125,70.2331875 70.14175,54.56325 70.14175,35.2331875 L70.14175,35.2331875 C70.14175,15.903125 54.4718125,0.2331875 35.14175,0.2331875 L35.14175,0.2331875 C15.8116875,0.2331875 0.14175,15.903125 0.14175,35.2331875" id="path-9"></path>
        <path d="M0.14175,35.2331875 C0.14175,54.56325 15.8116875,70.2331875 35.14175,70.2331875 L35.14175,70.2331875 C54.4718125,70.2331875 70.14175,54.56325 70.14175,35.2331875 L70.14175,35.2331875 C70.14175,15.903125 54.4718125,0.2331875 35.14175,0.2331875 L35.14175,0.2331875 C15.8116875,0.2331875 0.14175,15.903125 0.14175,35.2331875" id="path-11"></path>
        <path d="M0.14175,35.2331875 C0.14175,54.56325 15.8116875,70.2331875 35.14175,70.2331875 L35.14175,70.2331875 C54.4718125,70.2331875 70.14175,54.56325 70.14175,35.2331875 L70.14175,35.2331875 C70.14175,15.903125 54.4718125,0.2331875 35.14175,0.2331875 L35.14175,0.2331875 C15.8116875,0.2331875 0.14175,15.903125 0.14175,35.2331875" id="path-13"></path>
        <path d="M0.14175,35.2331875 C0.14175,54.56325 15.8116875,70.2331875 35.14175,70.2331875 L35.14175,70.2331875 C54.4718125,70.2331875 70.14175,54.56325 70.14175,35.2331875 L70.14175,35.2331875 C70.14175,15.903125 54.4718125,0.2331875 35.14175,0.2331875 L35.14175,0.2331875 C15.8116875,0.2331875 0.14175,15.903125 0.14175,35.2331875" id="path-15"></path>
        <path d="M0.14175,35.2331875 C0.14175,54.56325 15.8116875,70.2331875 35.14175,70.2331875 L35.14175,70.2331875 C54.4718125,70.2331875 70.14175,54.56325 70.14175,35.2331875 L70.14175,35.2331875 C70.14175,15.903125 54.4718125,0.2331875 35.14175,0.2331875 L35.14175,0.2331875 C15.8116875,0.2331875 0.14175,15.903125 0.14175,35.2331875" id="path-17"></path>
        <path d="M0.14175,35.2331875 C0.14175,54.56325 15.8116875,70.2331875 35.14175,70.2331875 L35.14175,70.2331875 C54.4718125,70.2331875 70.14175,54.56325 70.14175,35.2331875 L70.14175,35.2331875 C70.14175,15.903125 54.4718125,0.2331875 35.14175,0.2331875 L35.14175,0.2331875 C15.8116875,0.2331875 0.14175,15.903125 0.14175,35.2331875" id="path-19"></path>
        <path d="M0.14175,35.2331875 C0.14175,54.56325 15.8116875,70.2331875 35.14175,70.2331875 L35.14175,70.2331875 C54.4718125,70.2331875 70.14175,54.56325 70.14175,35.2331875 L70.14175,35.2331875 C70.14175,15.903125 54.4718125,0.2331875 35.14175,0.2331875 L35.14175,0.2331875 C15.8116875,0.2331875 0.14175,15.903125 0.14175,35.2331875" id="path-21"></path>
        <path d="M35.14175,70.2331875 C54.4718125,70.2331875 70.14175,54.56325 70.14175,35.2331875 C70.14175,15.903125 54.4718125,0.2331875 35.14175,0.2331875 C15.8116875,0.2331875 0.14175,15.903125 0.14175,35.2331875 C0.14175,54.56325 15.8116875,70.2331875 35.14175,70.2331875 Z" id="path-23"></path>
    </defs>
    <g id="Page-1" stroke="none" stroke-width="1" fill="none" fill-rule="evenodd">
        <g id="Home---Desktop-" transform="translate(-825.000000, -2290.000000)">
            <g id="Group-4" transform="translate(800.000000, 2269.000000)">
                <g id="Group" transform="translate(25.000000, 21.000000)">
                    <g id="Group-49" transform="translate(0.000000, -0.437500)">
                        <path d="M35.14175,70.6012125 C54.4718125,70.6012125 70.14175,54.931275 70.14175,35.6012125 C70.14175,16.27115 54.4718125,0.6012125 35.14175,0.6012125 C15.8116875,0.6012125 0.14175,16.27115 0.14175,35.6012125 C0.14175,54.931275 15.8116875,70.6012125 35.14175,70.6012125" id="Fill-1" fill="#E6EAF6"></path>
                        <g id="Group-39" transform="translate(0.000000, 0.367938)">
                            <g id="Group-5">
                                <mask id="mask-2" fill="white">
                                    <use xlink:href="#path-1"></use>
                                </mask>
                                <g id="Clip-4"></g>
                                <path d="M86.963275,26.9850875 C92.4972125,25.9097125 97.682025,23.6977125 102.424525,20.3945875 C93.2917125,21.9779 83.209525,19.44215 74.7679625,13.3000875 C59.6173375,2.27815 54.1149,-16.2456 50.7304,-32.9095375 C50.514275,-33.90485 50.3064625,-34.9062875 50.1144,-35.893725 C49.243775,-40.3732875 46.9259,-44.3099125 43.5890875,-46.976475 C40.014275,-49.832475 35.6804,-50.882475 31.7039625,-49.86135 C23.9689625,-47.8716 19.63115,-38.68235 21.613025,-28.4837875 C27.503525,1.818775 48.1530875,34.5293375 86.963275,26.9850875" id="Fill-3" fill="#F0F2F7" mask="url(#mask-2)"></path>
                            </g>
                            <g id="Group-8">
                                <mask id="mask-4" fill="white">
                                    <use xlink:href="#path-3"></use>
                                </mask>
                                <g id="Clip-7"></g>
                                <path d="M101.951938,59.2141812 C104.423375,54.1470562 105.777438,48.6752437 105.993125,42.8998062 C101.761625,51.1466812 93.66875,57.6724312 83.68325,60.7178687 C65.7628125,66.1844312 47.65775,59.4311812 32.3124375,52.1052437 C31.388,51.6786812 30.4626875,51.2420562 29.558375,50.8014937 C25.4568125,48.8008062 20.9181875,48.2828062 16.78075,49.3433062 C12.3484375,50.4790562 8.901375,53.3079312 7.32375,57.0984312 C4.25775,64.4733687 8.98625,73.4683687 18.32425,78.0227437 C46.0700625,91.5550562 84.6208125,94.7492437 101.951938,59.2141812" id="Fill-6" fill="#F0F2F7" mask="url(#mask-4)"></path>
                            </g>
                            <g id="Group-11">
                                <mask id="mask-6" fill="white">
                                    <use xlink:href="#path-5"></use>
                                </mask>
                                <g id="Clip-10"></g>
                                <path d="M10.2657625,52.3210188 L-3.4892375,38.5660187 C-4.6704875,37.3847687 -4.6704875,35.4702687 -3.4892375,34.2894563 L21.3852625,9.41495625 C22.566075,8.23414375 24.480575,8.23414375 25.6613875,9.41495625 L39.416825,23.1703937 C40.5976375,24.3507687 40.5976375,26.2657063 39.416825,27.4465187 L14.5418875,52.3210188 C13.361075,53.5018313 11.446575,53.5018313 10.2657625,52.3210188" id="Fill-9" fill="#FFFFFF" mask="url(#mask-6)"></path>
                            </g>
                            <g id="Group-14">
                                <mask id="mask-8" fill="white">
                                    <use xlink:href="#path-7"></use>
                                </mask>
                                <g id="Clip-13"></g>
                                <path d="M6.92558125,44.3037437 C6.26320625,44.9656812 5.19001875,44.9656812 4.52808125,44.3037437 C3.86614375,43.6413687 3.86614375,42.5681812 4.52808125,41.9062437 C5.19001875,41.2438687 6.26320625,41.2438687 6.92558125,41.9062437 C7.58751875,42.5681812 7.58751875,43.6413687 6.92558125,44.3037437" id="Fill-12" fill="#CDF0E5" mask="url(#mask-8)"></path>
                            </g>
                            <g id="Group-17">
                                <mask id="mask-10" fill="white">
                                    <use xlink:href="#path-9"></use>
                                </mask>
                                <g id="Clip-16"></g>
                                <path d="M13.8896625,46.4993375 L2.332225,34.9419 C1.3194125,33.92865 1.3194125,32.2858375 2.332225,31.2725875 L21.2877875,12.317025 C22.301475,11.303775 23.94385,11.303775 24.9571,12.317025 L36.5145375,23.8744625 C37.5277875,24.8877125 37.5277875,26.5300875 36.5145375,27.5433375 L17.558975,46.4993375 C16.545725,47.5125875 14.9029125,47.5125875 13.8896625,46.4993375" id="Fill-15" fill="#CDF0E5" mask="url(#mask-10)"></path>
                            </g>
                            <g id="Group-20">
                                <mask id="mask-12" fill="white">
                                    <use xlink:href="#path-11"></use>
                                </mask>
                                <g id="Clip-19"></g>
                                <path d="M14.4797187,29.7365688 C14.4797187,32.4337563 16.6663437,34.6203813 19.3635313,34.6203813 C22.0607187,34.6203813 24.2469062,32.4337563 24.2469062,29.7365688 C24.2469062,27.0393813 22.0607187,24.8527562 19.3635313,24.8527562 C16.6663437,24.8527562 14.4797187,27.0393813 14.4797187,29.7365688" id="Fill-18" fill="#FFFFFF" mask="url(#mask-12)"></path>
                            </g>
                            <g id="Group-23">
                                <mask id="mask-14" fill="white">
                                    <use xlink:href="#path-13"></use>
                                </mask>
                                <g id="Clip-22"></g>
                                <polyline id="Stroke-21" stroke="#CDF0E5" stroke-width="3" stroke-linecap="round" stroke-linejoin="round" mask="url(#mask-14)" points="17.6550062 29.9694062 18.8008188 31.1152187 21.3575688 28.5580312"></polyline>
                            </g>
                            <g id="Group-26">
                                <mask id="mask-16" fill="white">
                                    <use xlink:href="#path-15"></use>
                                </mask>
                                <g id="Clip-25"></g>
                                <path d="M46.5257187,61.0987562 L32.7707188,47.3433187 C31.5894688,46.1625062 31.5894688,44.2480062 32.7707188,43.0671937 L57.6452187,18.1926938 C58.8260312,17.0114437 60.7405313,17.0114437 61.9213437,18.1926938 L75.6767812,31.9476937 C76.8575937,33.1285062 76.8575937,35.0430062 75.6767812,36.2242562 L50.8018437,61.0987562 C49.6210313,62.2795687 47.7065312,62.2795687 46.5257187,61.0987562" id="Fill-24" fill="#FFFFFF" mask="url(#mask-16)"></path>
                            </g>
                            <g id="Group-29">
                                <mask id="mask-18" fill="white">
                                    <use xlink:href="#path-17"></use>
                                </mask>
                                <g id="Clip-28"></g>
                                <path d="M43.1855375,53.0813062 C42.5231625,53.7432437 41.449975,53.7432437 40.788475,53.0813062 C40.1261,52.4193687 40.1261,51.3457437 40.788475,50.6838062 C41.449975,50.0218687 42.5231625,50.0218687 43.1855375,50.6838062 C43.8479125,51.3457437 43.8479125,52.4193687 43.1855375,53.0813062" id="Fill-27" fill="#C6D3FD" mask="url(#mask-18)"></path>
                            </g>
                            <g id="Group-32">
                                <mask id="mask-20" fill="white">
                                    <use xlink:href="#path-19"></use>
                                </mask>
                                <g id="Clip-31"></g>
                                <path d="M50.1496188,55.2769 L38.5926188,43.7194625 C37.5793688,42.7062125 37.5793688,41.0634 38.5926188,40.05015 L57.5481812,21.0945875 C58.5614312,20.0813375 60.2038062,20.0813375 61.2174938,21.0945875 L72.7744938,32.652025 C73.7877438,33.665275 73.7877438,35.3080875 72.7744938,36.3213375 L53.8189313,55.2769 C52.8056813,56.29015 51.1628688,56.29015 50.1496188,55.2769" id="Fill-30" fill="#8EA8FD" mask="url(#mask-20)"></path>
                            </g>
                            <g id="Group-35">
                                <mask id="mask-22" fill="white">
                                    <use xlink:href="#path-21"></use>
                                </mask>
                                <g id="Clip-34"></g>
                                <path d="M50.7298312,38.58015 C50.7298312,41.2773375 52.9160187,43.4639625 55.6132063,43.4639625 C58.3103937,43.4639625 60.4970187,41.2773375 60.4970187,38.58015 C60.4970187,35.8829625 58.3103937,33.6963375 55.6132063,33.6963375 C52.9160187,33.6963375 50.7298312,35.8829625 50.7298312,38.58015" id="Fill-33" fill="#FFFFFF" mask="url(#mask-22)"></path>
                            </g>
                            <g id="Group-38">
                                <mask id="mask-24" fill="white">
                                    <use xlink:href="#path-23"></use>
                                </mask>
                                <g id="Clip-37"></g>
                                <polyline id="Stroke-36" stroke="#8EA8FD" stroke-width="3" stroke-linecap="round" stroke-linejoin="round" mask="url(#mask-24)" points="53.9046812 38.8132062 55.0504937 39.9590187 57.6076812 37.4018312"></polyline>
                            </g>
                        </g>
                        <g id="Group-48" transform="translate(20.125000, 12.617938)" stroke-linecap="round" stroke-linejoin="round" stroke-width="3">
                            <polyline id="Stroke-40" stroke="#8EA8FD" points="19.9198563 0.1756125 19.2832938 3.2739875 22.7019187 3.4594875"></polyline>
                            <path d="M32.6543437,1.57185 C32.6543437,1.57185 30.5066562,0.3381 27.8309062,0.3381 C21.7785312,0.3381 19.2834687,3.273725 19.2834687,3.273725" id="Stroke-42" stroke="#8EA8FD"></path>
                            <polyline id="Stroke-44" stroke="#73EFC7" points="13.0898687 45.9300625 13.7334313 42.448 10.3143688 42.2620625"></polyline>
                            <path d="M0.36220625,44.1497 C0.36220625,44.1497 2.50989375,45.38345 5.18564375,45.38345 C11.2380188,45.38345 13.7330812,42.447825 13.7330812,42.447825" id="Stroke-46" stroke="#73EFC7"></path>
                        </g>
                    </g>
                </g>
            </g>
        </g>
    </g>
</svg>