<?xml version="1.0" encoding="utf-8"?>
<!-- Generator: Adobe Illustrator 24.3.0, SVG Export Plug-In . SVG Version: 6.00 Build 0)  -->
<svg version="1.1" xmlns="http://www.w3.org/2000/svg" xmlns:xlink="http://www.w3.org/1999/xlink" x="0px" y="0px"
	 viewBox="0 0 320.3 71.5" enable-background="new 0 0 320.3 71.5" xml:space="preserve">
<g id="BOOKING.COM__x2F__MASTER___x2F__BB_x5F_LLB">
</g>
<g id="BOOKING.COM__x2F__MASTER__x2F__WT_x5F_LLB">
	<g id="XMLID_1_">
		<path id="XMLID_75_" fill="#003580" d="M129.6,16.5c0-2.4,1.9-4.3,4.3-4.3c2.4,0,4.3,1.9,4.3,4.3c0,2.4-1.9,4.3-4.3,4.3
			C131.5,20.8,129.6,18.9,129.6,16.5z"/>
		<path id="XMLID_74_" fill="#009FE3" d="M201.9,49.6c2.4,0,4.3-1.9,4.3-4.3c0-2.4-1.9-4.3-4.3-4.3c-2.4,0-4.3,1.9-4.3,4.3
			C197.6,47.6,199.5,49.6,201.9,49.6z"/>
		<path id="XMLID_28_" fill="#003580" d="M58.9,22.8c-7.8,0-13.5,5.7-13.5,13.4c0,7.8,5.7,13.4,13.5,13.4c7.9,0,13.6-5.7,13.6-13.4
			C72.5,28.4,66.8,22.8,58.9,22.8z M58.9,43.4c-3.7,0-6.3-3-6.3-7.2c0-4.2,2.6-7.2,6.3-7.2c3.7,0,6.3,2.9,6.3,7.2
			C65.2,40.5,62.7,43.4,58.9,43.4z"/>
		<path id="XMLID_44_" fill="#003580" d="M121.3,36.9c-0.3-0.6-0.7-1.1-1-1.4l-0.2-0.3l0.2-0.2c0.4-0.4,0.7-0.8,1.1-1.4l6.9-10.3
			h-8.4l-5.2,8.1c-0.3,0.4-0.9,0.7-1.8,0.7h-1.2V16.8c0-3-1.9-3.5-3.9-3.5h-3.5l0,35.9h7.5V38.5h0.7c0.8,0,1.4,0.1,1.7,0.6l4.1,7.8
			c1.1,2.1,2.3,2.5,4.4,2.5h5.7l-4.3-7L121.3,36.9z"/>
		<path id="XMLID_43_" fill="#003580" d="M157.4,22.7c-3.8,0-6.2,1.7-7.6,3.1l-0.5,0.5l-0.2-0.6c-0.4-1.5-1.7-2.4-3.8-2.4h-3.3l0,26
			h7.4v-12c0-1.2,0.2-2.2,0.5-3.1c0.8-2.8,3.1-4.5,6-4.5c2.3,0,3.2,1.2,3.2,4.4v11.3c0,2.7,1.2,3.9,3.9,3.9h3.5l0-16.5
			C166.7,26.2,163.5,22.7,157.4,22.7z"/>
		<path id="XMLID_39_" fill="#003580" d="M134,23.3h-3.5l0,26l7.4,0l0-22C137.9,24.6,136.6,23.3,134,23.3z"/>
		<path id="XMLID_31_" fill="#003580" d="M88,22.8c-7.9,0-13.6,5.7-13.6,13.4c0,7.8,5.7,13.4,13.6,13.4c7.9,0,13.6-5.7,13.6-13.4
			C101.6,28.4,95.8,22.8,88,22.8z M88,43.4c-3.7,0-6.3-3-6.3-7.2c0-4.2,2.6-7.2,6.3-7.2c3.7,0,6.3,2.9,6.3,7.2
			C94.3,40.5,91.8,43.4,88,43.4z"/>
		<path id="XMLID_34_" fill="#009FE3" d="M246.6,22.8c-7.9,0-13.6,5.7-13.6,13.4c0,7.8,5.7,13.4,13.6,13.4c7.9,0,13.6-5.7,13.6-13.4
			C260.2,28.4,254.5,22.8,246.6,22.8z M246.6,43.4c-3.7,0-6.3-3-6.3-7.2c0-4.2,2.6-7.2,6.3-7.2c3.7,0,6.3,2.9,6.3,7.2
			C253,40.5,250.4,43.4,246.6,43.4z"/>
		<path id="XMLID_37_" fill="#003580" d="M191.2,23.2c-1.4,0-2.5,0.6-3,1.6l-0.2,0.4l-0.3-0.3c-1.2-1-3.3-2.3-6.8-2.3
			c-6.9,0-11.6,5.2-11.6,12.9c0,7.7,4.8,13.1,11.7,13.1c2.4,0,4.2-0.5,5.7-1.7l0.6-0.4v0.7c0,3.5-2.2,5.4-6.3,5.4
			c-2,0-3.8-0.5-5-0.9c-1.6-0.5-2.5-0.1-3.1,1.5l-1.4,3.6l0.5,0.3c2.6,1.4,6,2.2,9,2.2c6.3,0,13.7-3.2,13.7-12.3l0-23.8H191.2z
			 M182.3,42.2c-4,0-5.5-3.5-5.5-6.8c0-1.5,0.4-6.2,5.1-6.2c2.4,0,5.5,0.7,5.5,6.5C187.4,41.1,184.6,42.2,182.3,42.2z"/>
		<path id="XMLID_41_" fill="#003580" d="M39,30.8l-1.1-0.6l0.9-0.8c1.1-1,3-3.1,3-6.8c0-5.7-4.4-9.3-11.2-9.3H23h-0.9
			c-2,0.1-3.6,1.7-3.6,3.7v32.1h12.4c7.5,0,12.4-4.1,12.4-10.5C43.3,35.2,41.7,32.3,39,30.8z M25.3,21.7c0-1.7,0.7-2.5,2.2-2.6h3.1
			c2.6,0,4.2,1.6,4.2,4.2c0,2-1.1,4.4-4.1,4.4h-5.4V21.7z M31.3,43.1l-6,0v-7.2c0-1.5,0.6-2.3,1.9-2.5h4.1c2.9,0,4.8,1.8,4.8,4.8
			C36.2,41.2,34.3,43.1,31.3,43.1z"/>
		<path id="XMLID_47_" fill="#009FE3" d="M293.3,22.8c-3.1,0-6,1.4-7.9,3.9l-0.5,0.7l-0.4-0.8c-1.4-2.5-3.7-3.8-7-3.8
			c-3.4,0-5.7,1.9-6.8,3.1l-0.7,0.8l-0.3-1c-0.4-1.4-1.7-2.2-3.6-2.2h-3.1l0,25.9h7V37.8c0-1,0.1-2,0.4-3c0.7-2.8,2.5-5.7,5.6-5.4
			c1.9,0.2,2.9,1.7,2.9,4.5v15.3h7.1V37.8c0-1.2,0.1-2.2,0.4-3.1c0.6-2.6,2.5-5.3,5.5-5.3c2.2,0,3,1.2,3,4.5v11.6
			c0,2.6,1.2,3.8,3.8,3.8h3.3V32.7C301.9,26.1,299,22.8,293.3,22.8z"/>
		<path id="XMLID_48_" fill="#009FE3" d="M229,40.3c0,0-3.1,3.2-7.1,3.2c-3.7,0-7.3-2.2-7.3-7.2c0-4.3,2.9-7.3,6.9-7.3
			c1.3,0,2.8,0.5,3.1,1.3l0,0.1c0.5,1.8,2.2,1.9,2.5,1.9h3.9v-3.4c0-4.5-5.7-6.1-9.5-6.1c-8.2,0-14.1,5.7-14.1,13.5
			c0,7.8,5.9,13.5,14,13.5c7,0,11.1-4.9,11.1-4.9l-3.1-5.1L229,40.3z"/>
	</g>
</g>
</svg>
