<?xml version="1.0" encoding="UTF-8"?>
<svg width="234px" height="50px" viewBox="0 0 234 50" version="1.1" xmlns="http://www.w3.org/2000/svg" xmlns:xlink="http://www.w3.org/1999/xlink">
    <title>logotype</title>
    <g id="Page-1" stroke="none" stroke-width="1" fill="none" fill-rule="evenodd">
        <g id="Promociones---1" transform="translate(-71.000000, -2072.000000)" fill-rule="nonzero">
            <g id="logotype" transform="translate(71.000000, 2072.000000)">
                <polygon id="Path" fill="#DBE120" points="223.03077 50 0 50 10.96875 0 234 0"></polygon>
                <path d="M31.2809843,37.4175116 C30.0101774,43.1547051 26.3441072,46 20.3808534,46 C15.4439763,46 13,44.0409352 13,40.1695988 C13,39.3299726 13.0977529,38.3971387 13.342164,37.4175116 L18.6700335,13.5824884 C19.9408404,7.84527592 23.558063,5 29.5701643,5 C34.5070415,5 37,6.95904586 37,10.8304959 C37,11.6700842 36.9021125,12.5563333 36.6576822,13.5824884 L35.3380276,19.2264175 L28.3970526,19.2264175 L29.6680519,13.5824884 C29.7168995,13.3026382 29.7657471,13.0227691 29.7657471,12.7895417 C29.7657471,11.85667 29.2280388,11.3435734 28.1037747,11.3435734 L28.0549271,11.3435734 C26.6862327,11.3435734 25.8554388,12.0898784 25.513121,13.5824884 L20.2341183,37.4175116 C20.1852707,37.6975133 20.1364231,37.9773256 20.1364231,38.210534 C20.1364231,39.1899717 20.6741314,39.6565781 21.7983955,39.6565781 C23.1668976,39.6565781 24.0467314,38.9101595 24.3400093,37.4175116 L25.6110085,31.7737151 L32.5517912,31.7737151 L31.2809843,37.4175116 Z" id="Path" fill="#010101"></path>
                <path d="M50.2809705,37.4175116 C49.0101606,43.1547051 45.3440815,46 39.3808135,46 C34.4439245,46 32,44.0409352 32,40.1695988 C32,39.3299726 32.0976954,38.3971387 32.3421264,37.4175116 L37.6699894,13.5824884 C38.9407994,7.84527592 42.5580307,5 48.5701465,5 C53.5070355,5 56,6.95904586 56,10.8304959 C56,11.6700842 55.9021122,12.5563333 55.6576813,13.5824884 L50.2809705,37.4175116 Z M48.6680342,13.5824884 C48.716882,13.3026382 48.7657297,13.0227691 48.7657297,12.7895417 C48.7657297,11.85667 48.2280201,11.3435734 47.1037533,11.3435734 L47.0549056,11.3435734 C45.6862079,11.3435734 44.855412,12.0898784 44.5130934,13.5824884 L39.234078,37.4175116 C39.1852303,37.6975133 39.1363826,37.9773256 39.1363826,38.210534 C39.1363826,39.1899717 39.6740921,39.6565781 40.7983589,39.6565781 C42.1668643,39.6565781 43.0467002,38.9101595 43.3399788,37.4175116 L48.6680342,13.5824884 Z" id="Shape" fill="#010101"></path>
                <path d="M60.8007214,4 L70.2785532,4 C74.7755624,4 77,5.92488621 77,9.72771251 C77,10.6197269 76.9033515,11.5586874 76.66154,12.6385054 L71.6809077,35.3614946 C70.4235259,41.0892262 66.8935725,44 61.1391815,44 L52,44 L60.8007214,4 Z M66.2649767,10.3849772 L60.3170984,37.6620833 L62.3480488,37.6620833 C63.7020791,37.6620833 64.5241621,36.9107928 64.8626221,35.4084026 L69.8432544,12.6854515 C69.8915786,12.4037557 69.9400931,12.122079 69.9400931,11.8873293 C69.9400931,10.9014227 69.4081459,10.3849772 68.2959271,10.3849772 L66.2649767,10.3849772 Z" id="Shape" fill="#010101"></path>
                <polygon id="Path" fill="#010101" points="79.7863647 4 96 4 94.592203 10.377468 85.2718265 10.377468 82.9902442 20.8347115 91.0000382 20.8347115 89.5922412 27.2122175 81.5826381 27.2122175 79.3010558 37.6224939 88.6214323 37.6224939 87.2136353 44 71 44"></polygon>
                <path d="M98.9742595,4 L108.145822,4 C112.7317,4 115,5.92262239 115,9.72097625 C115,10.6119416 114.901252,11.5497978 114.654672,12.6283458 L113.37269,18.5368285 C112.583674,22.147733 110.512676,24.4922783 107.208974,25.5708454 L109.822408,44 L102.179408,44 L101.24256,26.7901613 L100.848149,26.7901613 L97.0020099,44 L90,44 L98.9742595,4 Z M104.546262,10.377468 L102.228685,20.7878586 L103.066978,20.7878586 C103.806717,20.7878586 104.299683,20.7408154 104.546262,20.6471097 C105.48311,20.3187591 106.124101,19.6153955 106.37068,18.4899757 L107.652856,12.5814549 C107.702133,12.3000904 107.75141,12.0187449 107.75141,11.7842714 C107.75141,10.7995052 107.208974,10.2836862 106.074824,10.2836862 L104.546262,10.2836862 L104.546262,10.377468 Z" id="Shape" fill="#010101"></path>
                <polygon id="Path" fill="#010101" points="126.901639 4 133.885335 4 130.147552 20.7878586 134.278715 20.7878586 138.016497 4 145 4 136.098361 44 129.114665 44 132.852448 27.2122175 128.721285 27.2122175 124.983503 44 118 44"></polygon>
                <path d="M158.280971,37.4175116 C157.010161,43.1547051 153.344274,46 147.380813,46 C142.443924,46 140,44.0409352 140,40.1695988 C140,39.3299726 140.097695,38.3971387 140.342126,37.4175116 L145.669989,13.5824884 C146.940992,7.84527592 150.558031,5 156.570339,5 C161.507035,5 164,6.95904586 164,10.8304959 C164,11.6700842 163.902305,12.5563333 163.657874,13.5824884 L158.280971,37.4175116 Z M156.668034,13.5824884 C156.716882,13.3026382 156.76573,13.0227691 156.76573,12.7895417 C156.76573,11.85667 156.22802,11.3435734 155.103946,11.3435734 L155.054906,11.3435734 C153.6864,11.3435734 152.855412,12.0898784 152.513286,13.5824884 L147.18523,37.4175116 C147.136383,37.6975133 147.087535,37.9773256 147.087535,38.210534 C147.087535,39.1899717 147.625244,39.6565781 148.749511,39.6565781 C150.118209,39.6565781 150.997852,38.9101595 151.291131,37.4175116 L156.668034,13.5824884 Z" id="Shape" fill="#010101"></path>
                <path d="M178.015419,37.2886773 C176.763069,43.1119936 173.150244,46 167.273599,46 C162.408424,46 160,44.0115271 160,40.082077 C160,39.2298468 160.096276,38.2830099 160.337157,37.2886773 L167.321737,5 L174.161903,5 L167.177133,37.2886773 C167.128995,37.5728822 167.080857,37.8568948 167.080857,38.0936041 C167.080857,39.0877444 167.610756,39.5611628 168.718691,39.5611628 C170.067507,39.5611628 170.934373,38.8037317 171.223391,37.2886773 L178.159834,5 L185,5 L178.015419,37.2886773 Z" id="Path" fill="#010101"></path>
                <path d="M186.670091,13.5727044 C187.94088,7.84203232 191.557862,5 197.569112,5 C202.507652,5 205,6.95681255 205,10.8238491 C205,11.6624804 204.901922,12.5477191 204.657687,13.5727044 L203.386513,19.2101994 L196.446017,19.2101994 L197.717191,13.5727044 C197.765269,13.2931733 197.815269,13.0136232 197.815269,12.7806617 C197.815269,11.8488534 197.276799,11.3363607 196.151781,11.3363607 L196.103704,11.3363607 C194.734451,11.3363607 193.903668,12.0818149 193.561355,13.5727044 L192.780573,17.1136213 C192.730573,17.2999754 192.730573,17.4863484 192.730573,17.6727025 C192.730573,19.2101994 194.099825,21.0272653 196.78833,23.2170394 C199.378756,25.2669722 200.698008,27.6896889 200.698008,30.3920881 C200.698008,31.090916 200.599929,31.7897438 200.453773,32.4885716 L199.328755,37.4272956 C198.059504,43.1579488 194.442138,46 188.429734,46 C183.492925,46 181,44.0431685 181,40.1295056 C181,39.2908365 181.097886,38.4056167 181.342313,37.3805557 L182.613103,31.7431931 L189.553791,31.7431931 L188.283001,37.3805557 C188.234154,37.6602382 188.185307,37.9397315 188.185307,38.1726741 C188.185307,39.1509952 188.723008,39.6170697 189.847065,39.6170697 C191.215741,39.6170697 192.046715,38.8715019 192.388836,37.3805557 L193.367121,32.9544569 C193.415199,32.7680649 193.415199,32.5351223 193.415199,32.3487304 C193.415199,30.7181321 192.095562,28.8078513 189.40725,26.6648171 C186.816632,24.6146951 185.545842,22.1919784 185.545842,19.443161 C185.545842,18.7442953 185.643536,17.9988411 185.790269,17.2533869 L186.670091,13.5727044 Z" id="Path" fill="#010101"></path>
                <polygon id="Path" fill="#010101" points="207.785332 4 224 4 222.590527 10.3849772 213.270435 10.3849772 210.990069 20.8076258 219.047746 20.8076258 217.640183 27.1924505 209.630252 27.1924505 207.349885 37.6149846 216.620321 37.6149846 215.212758 44 199 44"></polygon>
            </g>
        </g>
    </g>
</svg>