<?xml version="1.0" encoding="utf-8"?>
<!-- Generator: Adobe Illustrator 24.1.2, SVG Export Plug-In . SVG Version: 6.00 Build 0)  -->
<svg version="1.1" id="Layer_1" xmlns="http://www.w3.org/2000/svg" xmlns:xlink="http://www.w3.org/1999/xlink" x="0px" y="0px"
	 viewBox="0 0 281.85 134.88" style="enable-background:new 0 0 281.85 134.88;" xml:space="preserve">
<style type="text/css">
	.st0{fill:#164734;}
	.st1{fill:#FFC60A;}
</style>
<g>
	<g>
		<g>
			<path class="st0" d="M71.7,96.58l-1.15,0.1c-0.12-1.05-0.93-1.69-1.98-1.69c-1.3,0-2.23,0.94-2.23,2.6c0,1.67,0.96,2.6,2.23,2.6
				c1.09,0,1.83-0.6,1.99-1.58l1.15,0.11c-0.26,1.54-1.46,2.5-3.14,2.5c-1.95,0-3.43-1.32-3.43-3.62s1.46-3.61,3.43-3.61
				C70.21,93.97,71.49,94.95,71.7,96.58z"/>
			<path class="st0" d="M80.22,97.58c0,2.21-1.56,3.62-3.58,3.62c-2.02,0-3.58-1.41-3.58-3.62s1.56-3.61,3.58-3.61
				C78.66,93.97,80.22,95.36,80.22,97.58z M74.25,97.58c0,1.63,1.04,2.6,2.39,2.6c1.35,0,2.39-0.97,2.39-2.6
				c0-1.63-1.04-2.58-2.39-2.58C75.29,95,74.25,95.95,74.25,97.58z"/>
			<path class="st0" d="M92.62,96.81v4.25h-1.18v-4.09c0-1.16-0.64-1.91-1.69-1.91c-1.01,0-1.65,0.74-1.75,1.68v0.08v4.24h-1.19
				v-4.09c0-1.16-0.67-1.91-1.65-1.91c-1.11,0-1.82,0.87-1.82,1.93v4.07h-1.18v-6.97h1.12v1.05c0.33-0.64,1.02-1.17,2.12-1.17
				c1.02,0,1.86,0.51,2.28,1.38c0.41-0.81,1.22-1.38,2.34-1.38C91.57,93.97,92.62,95.12,92.62,96.81z"/>
			<path class="st0" d="M101.66,97.58c0,2.21-1.56,3.62-3.58,3.62c-2.02,0-3.58-1.41-3.58-3.62s1.56-3.61,3.58-3.61
				C100.11,93.97,101.66,95.36,101.66,97.58z M95.69,97.58c0,1.63,1.04,2.6,2.39,2.6c1.35,0,2.39-0.97,2.39-2.6
				c0-1.63-1.04-2.58-2.39-2.58C96.73,95,95.69,95.95,95.69,97.58z"/>
			<path class="st0" d="M112.26,101.06v-1.13c-0.4,0.72-1.28,1.27-2.47,1.27c-1.91,0-3.36-1.37-3.36-3.61
				c0-2.25,1.45-3.62,3.36-3.62c1.16,0,2.02,0.51,2.4,1.17v-4.7h1.17v10.62H112.26z M107.62,97.58c0,1.68,1.01,2.6,2.34,2.6
				c1.28,0,2.24-0.81,2.24-2.39v-0.41c0-1.57-0.96-2.38-2.24-2.38C108.63,95,107.62,95.91,107.62,97.58z"/>
			<path class="st0" d="M116.56,98.03c0.07,1.34,0.96,2.14,2.19,2.14c1.02,0,1.72-0.46,1.95-1.24l1.17,0.07
				c-0.29,1.26-1.49,2.2-3.1,2.2c-1.99,0-3.46-1.35-3.46-3.62c0-2.27,1.45-3.61,3.43-3.61c1.99,0,3.2,1.35,3.2,3.42v0.64H116.56z
				 M116.56,97.07h4.21c-0.03-1.22-0.71-2.08-2.04-2.08C117.53,95,116.65,95.72,116.56,97.07z"/>
			<path class="st0" d="M125.06,95.15c0.4-0.67,1.24-1.17,2.42-1.17c1.91,0,3.36,1.37,3.36,3.62c0,2.24-1.45,3.61-3.36,3.61
				c-1.2,0-2.08-0.55-2.47-1.27v1.13h-1.12V90.45h1.17V95.15z M125.07,97.37v0.41c0,1.59,0.96,2.39,2.23,2.39
				c1.33,0,2.34-0.92,2.34-2.6c0-1.67-1.01-2.58-2.34-2.58C126.03,95,125.07,95.8,125.07,97.37z"/>
			<path class="st0" d="M133.56,98.03c0.07,1.34,0.96,2.14,2.19,2.14c1.02,0,1.72-0.46,1.95-1.24l1.17,0.07
				c-0.29,1.26-1.49,2.2-3.1,2.2c-1.99,0-3.46-1.35-3.46-3.62c0-2.27,1.45-3.61,3.43-3.61c1.99,0,3.2,1.35,3.2,3.42v0.64H133.56z
				 M133.56,97.07h4.21c-0.03-1.22-0.71-2.08-2.04-2.08C134.53,95,133.64,95.72,133.56,97.07z"/>
			<path class="st0" d="M148.85,96.07l-1.18,0.07c-0.08-0.7-0.53-1.16-1.42-1.15c-0.89-0.01-1.33,0.4-1.33,1.01
				c0,0.74,0.66,0.79,1.65,1.02c1.48,0.36,2.42,0.76,2.42,2.01c0,1.38-1.02,2.16-2.64,2.16c-1.57,0-2.58-0.78-2.76-2.12l1.17-0.08
				c0.11,0.77,0.68,1.17,1.61,1.17c0.83,0,1.43-0.34,1.43-1.04c0-0.71-0.46-0.87-1.72-1.18c-1.35-0.31-2.36-0.57-2.36-1.94
				c0-1.22,0.92-2.05,2.55-2.04C147.86,93.97,148.7,94.87,148.85,96.07z"/>
			<path class="st0" d="M151.78,98.03c0.07,1.34,0.96,2.14,2.19,2.14c1.02,0,1.72-0.46,1.95-1.24l1.18,0.07
				c-0.29,1.26-1.49,2.2-3.1,2.2c-1.99,0-3.46-1.35-3.46-3.62c0-2.27,1.45-3.61,3.43-3.61c1.99,0,3.2,1.35,3.2,3.42v0.64H151.78z
				 M151.78,97.07h4.21c-0.03-1.22-0.71-2.08-2.04-2.08C152.75,95,151.86,95.72,151.78,97.07z"/>
			<path class="st0" d="M162.29,95.15c-1.24,0-2.02,0.85-2.02,1.91v4h-1.17v-6.97h1.15v1.05c0.25-0.57,0.9-1.13,2.05-1.13V95.15z"/>
			<path class="st0" d="M167.83,98.03c0.07,1.34,0.96,2.14,2.19,2.14c1.02,0,1.72-0.46,1.95-1.24l1.17,0.07
				c-0.29,1.26-1.49,2.2-3.1,2.2c-1.99,0-3.46-1.35-3.46-3.62c0-2.27,1.45-3.61,3.43-3.61c1.99,0,3.2,1.35,3.2,3.42v0.64H167.83z
				 M167.83,97.07h4.21C172.01,95.86,171.32,95,170,95C168.79,95,167.91,95.72,167.83,97.07z"/>
			<path class="st0" d="M175.15,101.06V90.45h1.17v10.62H175.15z"/>
			<path class="st0" d="M186.72,96.07l-1.17,0.07c-0.08-0.7-0.53-1.16-1.42-1.15c-0.89-0.01-1.33,0.4-1.33,1.01
				c0,0.74,0.66,0.79,1.65,1.02c1.48,0.36,2.42,0.76,2.42,2.01c0,1.38-1.02,2.16-2.64,2.16c-1.57,0-2.58-0.78-2.76-2.12l1.17-0.08
				c0.11,0.77,0.68,1.17,1.61,1.17c0.83,0,1.43-0.34,1.43-1.04c0-0.71-0.46-0.87-1.72-1.18c-1.35-0.31-2.36-0.57-2.36-1.94
				c0-1.22,0.92-2.05,2.56-2.04C185.72,93.97,186.57,94.87,186.72,96.07z"/>
			<path class="st0" d="M193.44,101.06v-1.04c-0.26,0.56-0.93,1.17-2.09,1.17c-1.56,0-2.54-1.13-2.54-2.8v-4.3h1.17v4.14
				c0,1.13,0.59,1.86,1.64,1.86c1.11,0,1.76-0.9,1.76-1.93v-4.07h1.18v6.97H193.44z M191.25,92.93l1.41-2.61H194l-1.8,2.61H191.25z"
				/>
			<path class="st0" d="M203.91,97.58c0,2.25-1.45,3.62-3.36,3.62c-1.18,0-2.02-0.51-2.42-1.17v4.52h-1.18V94.09h1.12v1.15
				c0.4-0.72,1.27-1.27,2.47-1.27C202.46,93.97,203.91,95.34,203.91,97.58z M198.15,97.39v0.41c0,1.57,0.96,2.38,2.23,2.38
				c1.33,0,2.34-0.92,2.34-2.58c0-1.68-1.01-2.6-2.34-2.6C199.1,95,198.15,95.8,198.15,97.39z"/>
			<path class="st0" d="M206.63,98.03c0.07,1.34,0.96,2.14,2.19,2.14c1.02,0,1.72-0.46,1.95-1.24l1.17,0.07
				c-0.29,1.26-1.49,2.2-3.1,2.2c-1.99,0-3.46-1.35-3.46-3.62c0-2.27,1.45-3.61,3.43-3.61c1.99,0,3.2,1.35,3.2,3.42v0.64H206.63z
				 M206.63,97.07h4.21c-0.03-1.22-0.71-2.08-2.04-2.08C207.6,95,206.71,95.72,206.63,97.07z"/>
			<path class="st0" d="M217.15,95.15c-1.24,0-2.02,0.85-2.02,1.91v4h-1.18v-6.97h1.15v1.05c0.25-0.57,0.9-1.13,2.05-1.13V95.15z"/>
		</g>
	</g>
	<g>
		<g>
			<path class="st1" d="M73.37,45.4c-0.82-0.53-1.71-0.92-2.55-0.97c-0.88-0.05-1.76,0.2-2.46,0.71c-1.41,1.02-2.42,3.36-2.28,5.02
				c0.16,1.88,1.49,3.61,3.27,4.42c1.88,0.85,4.55,0.82,6.16-0.53c1.19-1,1.65-2.69,1.41-4.18C76.6,47.92,75.01,46.45,73.37,45.4z"
				/>
			<path class="st0" d="M67.36,34.48v3.25c0,0.4-0.3,0.74-0.7,0.79l-2.53,0.31c-0.4,0.05-0.7,0.39-0.7,0.79c0,0,0,23.38,0,23.39
				c0,4.7-1.11,9.69-4.85,12.85c-4.26,3.58-10.68,4.19-16,3.42c-4.37-0.63-8.88-2.92-8.88-7.92c0-3.73,1.97-6.38,5.91-6.38
				c2.54,0,4.66,1.25,5.77,3.55c0.77,1.6,0.83,3.42,1.57,5c0.43,0.91,1.53,1.28,2.07,0.22c0.38-0.74,0.26-1.78,0.23-2.58
				c-0.25-6.49-0.14-13-0.14-19.49c0-3.33,0-6.65,0-9.98c0-0.7,0-1.4,0-2.09c0-0.39-0.29-0.73-0.68-0.79l-1.77-0.27
				c-0.39-0.06-0.68-0.39-0.68-0.79v-3.27c0-0.44,0.36-0.8,0.8-0.8h19.79C67,33.68,67.36,34.04,67.36,34.48z"/>
			<path class="st0" d="M127.14,51.95c0.01,2.74-2.48,4.08-5.11,4.09c-1.47,0.01-2.74-0.71-3.68-1.73c-1.02-1.1-1.29-2.64-2.3-3.73
				c-1.26-1.37-3.26,0.38-3.99,1.43c-0.76,1.09-0.78,2.41,0.37,3.26c0.95,0.7,2.2,1.02,3.34,1.33c3.09,0.84,6.37,1.46,9,3.29
				c2.69,1.88,3.85,4.77,3.87,7.85c0.04,9.61-8.57,12.05-15.7,12.08c-4.35,0.02-12.76-0.47-12.79-6.68
				c-0.01-2.8,2.26-5.15,5.25-5.16c1.95-0.01,3.64,0.77,4.72,2.31c0.47,0.67,0.86,1.4,1.09,2.18c0.39,1.35,0.66,2.67,2.36,2.99
				c0.72,0.13,1.47,0.04,2.18-0.16c1.17-0.32,2.31-0.94,2.9-1.94c2.17-3.65-4.26-4.86-6.64-5.56c-3.41-1-7.05-2.35-8.89-5.42
				c-0.9-1.52-1.25-3.26-1.26-4.98c-0.04-9.47,8.57-11.65,15.7-11.68C123.05,45.7,127.12,47.48,127.14,51.95z"/>
			<path class="st0" d="M169.93,45.81c-9.7,0-16.77,6.65-16.77,16.97c0,2.03,0.27,3.92,0.78,5.64c-0.25,0.27-0.51,0.54-0.77,0.81
				c-1.15,1.19-2.44,2.3-3.97,2.97c-0.76,0.33-1.67,0.55-2.48,0.33c-1.96-0.61-1.96-3.46-1.96-5.52V53.43
				c0-0.67,0.54-1.22,1.22-1.22h5.25c0.89,0,1.61-0.72,1.61-1.61V46.9c0-0.67-0.54-1.22-1.22-1.22h-5.64
				c-0.67,0-1.22-0.54-1.22-1.22v-9.53c0-0.76-0.69-1.33-1.43-1.2c-0.08,0.01-0.16,0.03-0.24,0.03l-9.02,0.05
				c-1.18,0-1.62,0.46-1.68,1.07c0,0.03,0,0.85,0,0.88v8.69c0,0.67-0.54,1.22-1.22,1.22h-1.44c-0.67,0-1.22,0.54-1.22,1.22V51
				c0,0.67,0.54,1.22,1.22,1.22h1.44c0.67,0,1.22,0.54,1.22,1.22v13.98c0,7.33,1.43,12.02,9.78,12.02c0.71,0,1.43-0.05,2.14-0.15
				c0,0,0,0,0,0c2.8-0.44,5.61-1.33,7.89-3.06c1.43-1.09,2.56-2.47,3.36-4.03c2.86,4.81,8.05,7.62,14.35,7.62
				c9.7,0,16.77-6.65,16.77-16.97C186.7,52.46,179.63,45.81,169.93,45.81z M172.71,71.51c-0.03,0.01-0.05,0.02-0.08,0.03
				c-2.92,0.92-5.68-0.55-7.29-2.82c-1.95-2.74-3.47-6.88-2.61-10.25c0.51-1.98,1.92-3.63,3.97-4.3c5.33-1.75,8.28,3.66,9.6,7.55
				C177.89,66.42,176.31,70.33,172.71,71.51z"/>
			<path class="st0" d="M99.26,54.8c-0.11-0.72-0.23-0.78-0.36-1.5c-0.12-0.66-0.25-1.33-0.46-1.97l0,0l-0.85-2.89
				c-0.2-0.68-0.93-1.05-1.61-0.83l-3.62,1.21c-1,0.32-1.96,0.76-2.73,1.15c-0.43,0.22-0.88,0.48-1.08,0.91
				c-0.18,0.39-0.13,0.85-0.06,1.28c0.35,2.15,0.87,3.63,1.01,5.8c0.15,2.34-0.03,5.02-1.7,6.83c-1.49,1.61-3.75,2.5-5.95,2.39
				c-3.19-0.17-5.98-2.46-7.45-5.18c-1.15-2.13-0.96-3.69-2.8-3.79c-1.45-0.08-2.87,0.82-4.13,1.34c-0.34,0.14-0.96,0.52-1.18,0.82
				c-0.7,0.97,0.06,2.67,0.39,3.91c0.12,0.48,0.26,0.95,0.42,1.42c1.67,4.83,5.07,9.97,9.96,12.48c3.52,1.81,7.89,2.11,11.65,0.89
				c6.52-2.13,10.27-8.35,10.96-14.82C99.99,61.1,99.74,57.93,99.26,54.8z"/>
			<g id="_x34_zvlF6_4_">
				<g>
					<path class="st1" d="M88,40.81c0.38,0.26,0.95,0.1,1.38,0.09c1.41-0.03,3.1,0.64,3.42,2.17c0.47,2.2-2.14,3.28-3.65,4.14
						c-1.44,0.82-2.89,1.62-4.35,2.41c-0.98,0.53-2.71,1.98-3.65,0.78c-0.21-0.33-0.29-0.72-0.36-1.1
						c-0.27-1.58-0.29-3.21-0.33-4.81c-0.06-2.29,0.18-4.91,2.11-6.43c0.84-0.66,2.01-0.94,3.04-0.61c1.29,0.42,1.7,1.57,2.06,2.76
						C87.72,40.44,87.8,40.68,88,40.81z"/>
				</g>
			</g>
		</g>
		<path class="st1" d="M191.21,76.61c-0.17-1.06-1.03-1.85-1.92-2.42c-0.44-0.29-0.93-0.5-1.38-0.52c-0.48-0.03-0.95,0.11-1.33,0.39
			c-0.76,0.55-1.31,1.82-1.24,2.72c0.09,1.02,0.8,1.95,1.77,2.39c1.02,0.46,2.47,0.45,3.33-0.29
			C191.09,78.33,191.34,77.42,191.21,76.61z"/>
		<g>
			<g>
				<path class="st0" d="M225.92,65.7l-0.91,11.25c-0.11,1.35-1.19,2.42-2.54,2.48c-0.13,0.01-0.27,0.01-0.42,0.01
					c-2.66,0-3.94-1.24-3.68-4.02l0.68-8.33c0.19-2.14-0.71-3.38-2.1-3.38c-1.61,0-2.74,1.28-3.08,5.1v-0.04l-0.65,8.17
					c-0.11,1.35-1.19,2.42-2.54,2.48c-0.13,0.01-0.27,0.01-0.41,0.01c-2.66,0-3.94-1.24-3.68-4.02l0.68-8.74
					c0.19-2.03-0.6-2.96-2.14-2.96c-1.69,0-2.74,1.5-3.08,5.1l-0.74,8.17c-0.12,1.37-1.26,2.45-2.64,2.45c-0.01,0-0.02,0-0.04,0
					c-2.66,0-4.09-1.24-3.83-4.24l1-13.92c0.09-1.28,1.07-2.35,2.34-2.48c0.22-0.02,0.44-0.04,0.68-0.04c2.44,0,3.57,0.75,3.57,2.89
					v-0.04h0.15c1.2-1.88,3.04-3.23,5.85-3.23c2.18,0,4.65,1.01,5.48,3.94h0.15c1.01-2.29,3.34-3.94,6.27-3.94
					C223.37,58.38,226.37,60.26,225.92,65.7z"/>
				<path class="st0" d="M242.31,69.68l3.32,5.02c1.32,2-0.07,4.71-2.46,4.74c-0.02,0-0.05,0-0.07,0c-1.54,0-2.7-0.6-3.57-2.36
					l-1.99-4.39h-0.19l-4.06,5.34c-0.87,1.14-2.44,1.56-3.72,0.92c-1.12-0.56-1.6-1.54-1.6-2.8c0-1.09,0.49-2.21,1.95-3.75
					l4.02-3.94l-3.27-4.94c-1.28-1.94-0.02-4.56,2.29-4.73c0.13-0.01,0.27-0.01,0.42-0.01c1.16,0,2.36,0.34,3.38,2.4l1.99,4.39h0.19
					l3.89-5.29c0.96-1.3,2.79-1.68,4.12-0.76c0.81,0.57,1.19,1.42,1.23,2.48c0,1.16-0.45,2.29-1.99,3.87L242.31,69.68z"/>
			</g>
		</g>
	</g>
</g>
</svg>
