<?xml version="1.0" encoding="UTF-8"?>
<svg width="160px" height="61px" viewBox="0 0 160 61" version="1.1" xmlns="http://www.w3.org/2000/svg" xmlns:xlink="http://www.w3.org/1999/xlink">
    <title>Group 18</title>
    <defs>
        <polygon id="path-1" points="0 60.9881529 159.818683 60.9881529 159.818683 0 0 0"></polygon>
    </defs>
    <g id="Page-1" stroke="none" stroke-width="1" fill="none" fill-rule="evenodd">
        <g id="Promociones---1" transform="translate(-108.000000, -1236.000000)">
            <g id="Group-18" transform="translate(108.000000, 1236.000000)">
                <path d="M80.6450157,30.4910769 C80.6450157,29.5380149 80.2061442,27.7755686 78.282884,27.7755686 C76.49279,27.7755686 75.7825705,29.4381967 75.68,30.4910769 L80.6450157,30.4910769 Z M76.095047,33.8460769 C76.2673354,34.9813826 77.9179937,35.6218826 79.741442,35.6218826 C81.1026959,35.6218826 82.3771787,35.4771967 83.6489028,35.0675893 L84.3174922,38.562486 C82.6084013,39.2589446 80.7553605,39.4900893 78.9893417,39.4900893 C73.9806897,39.4900893 71.1435737,36.6977008 71.1435737,32.1584942 C71.1435737,28.8133248 73.2877743,24.536519 78.5248903,24.536519 C83.1290282,24.536519 85.0984326,27.9394116 85.0984326,31.8691223 C85.0984326,32.7407669 84.9823197,33.4969653 84.895047,33.8460769 L76.095047,33.8460769 Z" id="Fill-1" fill="#231F20"></path>
                <path d="M86.4289655,29.714688 C86.4289655,27.8239401 86.3725392,26.1643368 86.3146082,24.8548533 L90.8023824,24.8548533 L91.033605,26.6888864 L91.1479624,26.6888864 C91.6703448,25.9309236 93.0293417,24.5359897 95.4037618,24.5359897 C98.7334169,24.5359897 100.52953,26.8048368 100.52953,30.7335393 L100.52953,39.1717045 L95.3174922,39.1717045 L95.3174922,31.373031 C95.3174922,29.714688 94.739185,28.7535599 93.4945455,28.7535599 C92.480627,28.7535599 92.0169279,29.4540517 91.7847022,30.0068326 C91.6703448,30.2679731 91.6415047,30.675312 91.6415047,31.0531591 L91.6415047,39.1717045 L86.4289655,39.1717045 L86.4289655,29.714688 Z" id="Fill-3" fill="#231F20"></path>
                <path d="M111.529856,30.7613421 C111.529856,30.5579248 111.501768,30.2970364 111.474433,30.0926107 C111.239699,29.0750198 110.575373,28.4632554 109.618633,28.4632554 C108.373241,28.4632554 107.303147,29.6850198 107.303147,31.9551273 C107.303147,33.8181479 108.171862,35.1856066 109.618633,35.1856066 C110.575373,35.1856066 111.268539,34.5453587 111.443586,33.7599207 C111.529856,33.4692884 111.529856,33.002462 111.529856,32.6835983 L111.529856,30.7613421 Z M116.742395,37.0783711 C116.742395,39.6078545 116.248853,41.965681 114.542019,43.4780777 C112.890357,44.874776 110.719824,45.2531273 108.520201,45.2531273 C106.551047,45.2531273 104.55205,44.874776 103.221392,44.2060446 L104.20647,40.2496149 C105.072677,40.7139207 106.694495,41.2669537 108.31531,41.2669537 C110.168351,41.2669537 111.616125,40.2778463 111.616125,38.0372306 L111.616125,37.3977388 L111.557944,37.3977388 C110.690734,38.5033008 109.417254,38.9978545 107.997818,38.9978545 C104.525718,38.9978545 102.004339,36.2031975 102.004339,32.0428463 C102.004339,27.5321231 104.900389,24.5358132 108.461517,24.5358132 C110.198947,24.5358132 111.386408,25.2047967 112.137505,26.3693421 L112.195436,26.3693421 L112.36973,24.8541727 L116.885592,24.8541727 C116.798821,25.7275818 116.742395,26.9798463 116.742395,29.2784372 L116.742395,37.0783711 Z" id="Fill-5" fill="#231F20"></path>
                <mask id="mask-2" fill="white">
                    <use xlink:href="#path-1"></use>
                </mask>
                <g id="Clip-8"></g>
                <polygon id="Fill-7" fill="#231F20" mask="url(#mask-2)" points="118.941944 39.1715785 124.152727 39.1715785 124.152727 19.1779463 118.941944 19.1779463"></polygon>
                <path d="M133.819987,34.7781669 C134.633279,35.2727207 136.483812,35.8539851 137.787135,35.8539851 C138.88632,35.8539851 139.32168,35.594105 139.32168,35.0675388 C139.32168,34.546014 139.005191,34.3126008 137.46889,33.817543 C134.340364,32.8274273 133.271774,31.1113612 133.299361,29.4540264 C133.299361,26.6016463 135.701868,24.5364686 139.438796,24.5364686 C141.203812,24.5364686 142.765944,24.9112909 143.693592,25.3503901 L142.852213,28.9007413 C142.18889,28.5801132 140.856476,28.114295 139.698107,28.114295 C138.798545,28.114295 138.280426,28.3472041 138.280426,28.9307372 C138.280426,29.395043 138.74237,29.6861793 140.422119,30.2387083 C143.228389,31.1698405 144.300489,32.6240099 144.328577,34.6919603 C144.328577,37.4261215 142.21447,39.4895347 137.81447,39.4895347 C135.848075,39.4895347 134.082809,39.0547207 132.951774,38.4749686 L133.819987,34.7781669 Z" id="Fill-9" fill="#231F20" mask="url(#mask-2)"></path>
                <path d="M145.718245,19.1783748 L150.929781,19.1783748 L150.929781,26.3688128 L150.988966,26.3688128 C151.479749,25.7855318 152.031975,25.3214781 152.667712,25.0288293 C153.305455,24.7102178 154.086144,24.535788 154.838997,24.535788 C158.05279,24.535788 159.818809,26.8333707 159.818809,30.8785277 L159.818809,39.1715029 L154.607774,39.1715029 L154.607774,31.459288 C154.607774,29.7727136 154.058307,28.7528541 152.754984,28.7528541 C151.770658,28.7528541 151.30721,29.335631 151.075737,29.8876558 C150.958871,30.1213211 150.929781,30.5006806 150.929781,30.7335897 L150.929781,39.1715029 L145.718245,39.1715029 L145.718245,19.1783748 Z" id="Fill-10" fill="#231F20" mask="url(#mask-2)"></path>
                <polygon id="Fill-11" fill="#231F20" mask="url(#mask-2)" points="126.281129 39.0079876 131.493668 39.0079876 131.493668 24.6908843 126.281129 24.6908843"></polygon>
                <polygon id="Fill-12" fill="#231F20" mask="url(#mask-2)" points="126.440125 23.401062 131.467335 23.401062 131.467335 19.0135992 126.440125 19.0135992"></polygon>
                <path d="M5.38848903,32.0019864 C5.38848903,34.1271558 6.08341066,35.7867591 7.70497806,35.7867591 C9.09582445,35.7867591 9.87776803,34.3008293 9.87776803,32.0019864 C9.87776803,30.021755 9.24002508,28.2164574 7.67613793,28.2164574 C5.96729781,28.2164574 5.38848903,30.1087178 5.38848903,32.0019864 M15.2653542,31.8547798 C15.2653542,37.0667508 11.5570157,39.484569 7.55902194,39.484569 C3.30247022,39.484569 -0.00010031348,36.7481393 -0.00010031348,32.0886971 C-0.00010031348,27.5482302 2.98322257,24.5188996 7.85018182,24.5188996 C12.3098683,24.5188996 15.2653542,27.5482302 15.2653542,31.8547798" id="Fill-13" fill="#231F20" mask="url(#mask-2)"></path>
                <path d="M42.4335799,30.4775409 C42.4335799,29.5269996 41.9934545,27.7610244 40.0679373,27.7610244 C38.2773417,27.7610244 37.5688777,29.4241566 37.4655549,30.4775409 L42.4335799,30.4775409 Z M37.8790972,33.8363219 C38.0523887,34.9721318 39.7040502,35.6126318 41.528,35.6126318 C42.8902571,35.6126318 44.1637367,35.4654252 45.4389718,35.0593467 L46.1048025,38.5517227 C44.3969655,39.2519624 42.5419185,39.4843674 40.7761505,39.4843674 C35.7639875,39.4843674 32.9258683,36.6899624 32.9258683,32.1479831 C32.9258683,28.7985285 35.0690658,24.5192021 40.3116991,24.5192021 C44.9173417,24.5192021 46.8874984,27.9248674 46.8874984,31.8548302 C46.8874984,32.7292475 46.7721379,33.4867062 46.6843636,33.8363219 L37.8790972,33.8363219 Z" id="Fill-14" fill="#231F20" mask="url(#mask-2)"></path>
                <path d="M48.2204639,29.701631 C48.2204639,27.8093707 48.1615298,26.1492632 48.1043511,24.840788 L52.594884,24.840788 L52.8253542,26.6735607 L52.9424702,26.6735607 C53.4638495,25.9163541 54.8243511,24.5186475 57.1997743,24.5186475 C60.531185,24.5186475 62.327047,26.7892591 62.327047,30.7207343 L62.327047,39.164445 L57.1127524,39.164445 L57.1127524,31.360226 C57.1127524,29.701631 56.5339436,28.7420153 55.2880502,28.7420153 C54.274884,28.7420153 53.8104326,29.4389781 53.57921,29.9935236 C53.4638495,30.254664 53.4347586,30.6627591 53.4347586,31.0411103 L53.4347586,39.164445 L48.2204639,39.164445 L48.2204639,29.701631 Z" id="Fill-15" fill="#231F20" mask="url(#mask-2)"></path>
                <path d="M23.9088903,35.4959504 C22.8648777,35.4959504 22.0849404,34.7082438 21.8810533,33.7771116 C21.8238746,33.5147107 21.7947837,33.2235744 21.7947837,32.9037025 L21.7947837,31.1278967 C21.7947837,30.8957438 21.7947837,30.6628347 21.8527147,30.4599215 C22.0270094,29.4390537 22.924815,28.593876 23.9670721,28.593876 C25.6177304,28.593876 26.4277618,30.0505661 26.4277618,32.0595331 C26.4277618,34.1269793 25.4725266,35.4959504 23.9088903,35.4959504 L23.9088903,35.4959504 Z M16.5865078,45.079 L21.7947837,45.079 L21.7947837,38.1156736 L21.8527147,38.1156736 C22.3733417,38.8443967 23.6197367,39.4838884 25.2405517,39.4838884 C28.3397367,39.4838884 31.7300815,37.0660702 31.7300815,31.826876 C31.7300815,27.1689463 28.8330282,24.5187231 25.848953,24.5187231 C24.0330282,24.5187231 22.8528401,25.1660289 21.7860063,26.3933388 L21.7947837,24.8398554 L16.5865078,24.8398554 L16.5865078,45.079 Z" id="Fill-16" fill="#231F20" mask="url(#mask-2)"></path>
                <polygon id="Fill-17" fill="#0094D9" mask="url(#mask-2)" points="69.3672226 -7.56198347e-05 16.6088527 9.65279628 16.6088527 22.1905649 21.7654671 22.1905649 21.7654671 13.8502012 64.2730533 6.06135826 64.2730533 55.0249492 16.6088527 47.1451103 16.6088527 52.2038252 69.3672226 60.9880773"></polygon>
            </g>
        </g>
    </g>
</svg>