<?xml version="1.0" encoding="utf-8"?>
<!-- Generator: Adobe Illustrator 25.0.1, SVG Export Plug-In . SVG Version: 6.00 Build 0)  -->
<svg version="1.1" id="Layer_1" xmlns="http://www.w3.org/2000/svg" xmlns:xlink="http://www.w3.org/1999/xlink" x="0px" y="0px"
	 viewBox="0 0 129.33 64.15" style="enable-background:new 0 0 129.33 64.15;" xml:space="preserve">
<g>
	<path d="M54.74,54.26l10.92-11.13h-9.83v-2.78h15.67v1.54L60.42,53.02h11.07v2.93H54.74V54.26z"/>
	<polygon points="110.88,40.35 107.37,40.35 98.54,55.96 102.17,55.96 103.71,53.04 103.71,53.04 103.81,52.86 103.98,52.54 
		103.99,52.54 105.32,50.1 105.32,50.1 105.77,49.28 105.77,49.28 109,43.37 112.36,49.73 108.14,49.73 107.93,50.1 107.93,50.1 
		106.6,52.54 113.87,52.54 115.75,55.96 119.83,55.96 	"/>
	<path d="M93.79,48.86c-0.48-0.51-1.18-0.83-2.09-0.95c0.87-0.1,1.53-0.37,2-0.82c0.46-0.44,0.7-1.05,0.7-1.82v-1.91
		c0-1.09-0.28-1.87-0.85-2.33c-0.56-0.46-1.45-0.7-2.66-0.7H77.51v15.61h12.4c3.06,0,4.6-1.02,4.6-3.06v-2
		C94.51,50.06,94.27,49.38,93.79,48.86z M91.13,51.75c0,0.59-0.14,0.96-0.41,1.13c-0.27,0.17-0.72,0.26-1.35,0.26h-8.29v-3.96h0
		v-2.57h0v-3.72h8.29c0.56,0,0.98,0.07,1.26,0.21c0.27,0.14,0.41,0.44,0.41,0.91v1.48c0,0.46-0.14,0.77-0.41,0.91
		c-0.27,0.14-0.69,0.21-1.26,0.21h-5.63v2.57h5.63c0.62,0,1.07,0.09,1.35,0.26c0.27,0.17,0.41,0.55,0.41,1.13V51.75z"/>
	<g>
		<polygon points="37.68,43.01 46.86,43.01 50.02,43.01 50.02,40.35 34.05,40.35 34.05,43.01 		"/>
		<polygon points="37.68,53.02 37.68,49.15 44.88,49.15 44.88,46.49 34.05,46.49 34.05,55.96 50.17,55.96 50.17,53.02 		"/>
	</g>
	<path d="M26.21,42.38c-1.5-1.35-3.73-2.03-6.67-2.03H9.49v2.79h3.63v-0.01h6.44c1.71,0,3,0.41,3.86,1.24
		c0.86,0.83,1.29,2.04,1.29,3.63c0,0.97-0.14,1.77-0.42,2.42C24,51.07,23.58,51.58,23,51.96c-0.57,0.38-1.3,0.66-2.16,0.82
		c-0.87,0.16-1.88,0.24-3.02,0.24h-4.69V46.5H9.49v9.46h9.1c1.39,0,2.62-0.09,3.68-0.26c1.06-0.17,1.97-0.49,2.74-0.95
		c1.09-0.67,1.94-1.58,2.54-2.74c0.61-1.16,0.91-2.48,0.91-3.95C28.46,45.62,27.71,43.73,26.21,42.38z"/>
	<g>
		<g>
			<path d="M117.14,43.22v-2.05h0.91c0.18,0,0.32,0.02,0.42,0.06c0.1,0.04,0.17,0.1,0.23,0.2c0.06,0.09,0.09,0.2,0.09,0.31
				c0,0.15-0.05,0.27-0.14,0.37c-0.09,0.1-0.24,0.16-0.44,0.19c0.07,0.03,0.13,0.07,0.16,0.1c0.08,0.07,0.15,0.16,0.23,0.27
				l0.36,0.56h-0.34l-0.27-0.43c-0.08-0.12-0.14-0.22-0.2-0.28c-0.05-0.07-0.1-0.11-0.14-0.14c-0.04-0.03-0.08-0.04-0.12-0.05
				c-0.03-0.01-0.08-0.01-0.15-0.01h-0.31v0.91H117.14z M117.41,42.08h0.58c0.12,0,0.22-0.01,0.29-0.04
				c0.07-0.03,0.12-0.07,0.16-0.12c0.04-0.06,0.05-0.12,0.05-0.18c0-0.1-0.04-0.18-0.11-0.24c-0.07-0.06-0.18-0.09-0.33-0.09h-0.65
				V42.08z"/>
		</g>
		<path d="M117.96,44.07c-1.03,0-1.87-0.84-1.87-1.87c0-1.03,0.84-1.87,1.87-1.87c1.03,0,1.87,0.84,1.87,1.87
			C119.83,43.23,118.99,44.07,117.96,44.07z M117.96,40.57c-0.9,0-1.63,0.73-1.63,1.63c0,0.9,0.73,1.63,1.63,1.63
			c0.9,0,1.63-0.73,1.63-1.63C119.59,41.3,118.86,40.57,117.96,40.57z"/>
	</g>
	<g>
		<g>
			<path d="M82.25,9.29c-0.04-0.08-0.09-0.15-0.15-0.19c-0.1-0.08-0.36-0.14-0.5-0.17c-11.54-2.44-20.94,1.9-23.42,3.2
				c-0.51,0.28-1.21,0.79-1.21,0.79l0,0c-7.19,5.73-9.61,17.42-9.91,19.01c-0.01,0.03-0.03,0.18-0.03,0.31
				c0.07,0.89,0.75,1.26,0.75,1.26c0.16,0.09,0.32,0.02,0.32,0.02c0.18-0.08,0.21-0.24,0.21-0.24
				c5.49-18.47,22.45-20.14,22.45-20.14c0.13,0,0.14,0.11,0.14,0.11c0,0.05-0.02,0.08-0.04,0.1c0,0,0,0,0,0.01
				c-0.01,0-0.02,0.01-0.02,0.01c-0.02,0.01-0.03,0.01-0.04,0.02c-6.47,2.13-12.13,6.05-16.39,11.17l0,0l-0.03,0.04
				c-0.05,0.06-0.08,0.13-0.08,0.22c0,0.18,0.15,0.33,0.33,0.33c0.04,0,0.08-0.01,0.11-0.02l0,0c0,0,0,0,0,0l0,0l0,0
				c2.05-0.8,4.21-0.49,4.21-0.49c4.67,0.45,6.72-0.52,6.72-0.52c2.92-1.19,4.17-3.3,4.55-4.04c0-0.01,0.01-0.02,0.01-0.02l0,0
				c0.05-0.09,0.08-0.16,0.1-0.21c0.11-0.28,0.08-0.4,0.08-0.42l0,0c-0.02-0.13-0.1-0.22-0.17-0.29c-0.52-0.36-2.07-0.23-2.47-0.19
				l0,0c-0.09,0.01-0.12,0-0.14-0.01c-0.03-0.02-0.05-0.06-0.05-0.06c-0.04-0.12,0.08-0.15,0.08-0.15c0.01,0,0.02-0.01,0.03-0.01
				c0.05-0.02,0.2-0.07,0.4-0.12c0.02,0,0.04-0.01,0.06-0.01c0,0,0,0,0,0c0,0,0,0,0,0c0.33-0.07,0.87-0.17,1.26-0.18l0,0
				c0.09,0,0.14,0,0.14,0c9.77-0.29,12.48-8.22,12.63-8.58C82.35,9.44,82.25,9.29,82.25,9.29z"/>
		</g>
		<g>
			<g>
				<path d="M77.7,20.02v-2.05h0.91c0.18,0,0.32,0.02,0.42,0.06c0.1,0.04,0.17,0.1,0.23,0.2c0.06,0.09,0.09,0.2,0.09,0.31
					c0,0.15-0.05,0.27-0.14,0.37c-0.09,0.1-0.24,0.16-0.44,0.19c0.07,0.03,0.13,0.07,0.16,0.1c0.08,0.07,0.15,0.16,0.23,0.27
					l0.36,0.56h-0.34l-0.27-0.43c-0.08-0.12-0.14-0.22-0.2-0.28c-0.05-0.07-0.1-0.11-0.14-0.14c-0.04-0.03-0.08-0.04-0.12-0.05
					c-0.03-0.01-0.08-0.01-0.15-0.01h-0.31v0.91H77.7z M77.97,18.88h0.58c0.12,0,0.22-0.01,0.29-0.04c0.07-0.03,0.12-0.07,0.16-0.12
					c0.04-0.06,0.05-0.12,0.05-0.18c0-0.1-0.04-0.18-0.11-0.24c-0.07-0.06-0.18-0.09-0.33-0.09h-0.65V18.88z"/>
			</g>
			<path d="M78.52,20.87c-1.03,0-1.87-0.84-1.87-1.87c0-1.03,0.84-1.87,1.87-1.87c1.03,0,1.87,0.84,1.87,1.87
				C80.39,20.03,79.55,20.87,78.52,20.87z M78.52,17.37c-0.9,0-1.63,0.73-1.63,1.63c0,0.9,0.73,1.63,1.63,1.63
				c0.9,0,1.63-0.73,1.63-1.63C80.16,18.1,79.42,17.37,78.52,17.37z"/>
		</g>
	</g>
</g>
</svg>
