<?xml version="1.0" encoding="utf-8"?>
<!-- Generator: Adobe Illustrator 24.2.1, SVG Export Plug-In . SVG Version: 6.00 Build 0)  -->
<svg version="1.1" id="Capa_1" xmlns="http://www.w3.org/2000/svg" xmlns:xlink="http://www.w3.org/1999/xlink" x="0px" y="0px"
	 viewBox="0 0 182 66" enable-background="new 0 0 182 66" xml:space="preserve">
<g>
	<path fill="#2D2C2B" d="M41.8,33.9c0,4-1.5,7.5-4.4,10.4c-2.9,2.9-6.4,4.3-10.4,4.3c-4.1,0-7.6-1.4-10.4-4.3
		c-2.9-2.9-4.3-6.4-4.3-10.4V10.3h5.5V23c2.7-2.6,6-3.9,9.7-3.9c3.9,0,7.3,1.5,10.1,4.4C40.4,26.4,41.8,29.9,41.8,33.9z M36.3,33.9
		c0-2.5-0.9-4.7-2.7-6.5c-1.8-1.8-4-2.7-6.5-2.7c-2.5,0-4.7,0.9-6.5,2.7c-1.8,1.8-2.7,4-2.7,6.5c0,2.5,0.9,4.7,2.7,6.5
		c1.8,1.8,4,2.7,6.5,2.7c2.5,0,4.7-0.9,6.5-2.7C35.3,38.6,36.3,36.4,36.3,33.9z M44.8,19.6h5.5v28.6h-5.5V19.6z M83.1,45
		c-0.3,3.7-1.3,7.1-4,10c-3.2,3.3-7.9,5.2-12.5,4.6c-0.5-0.1-0.9-0.1-1.4-0.3c-1.3-0.3-2.6-0.8-3.8-1.5c-1.1-0.6-2.2-1.4-3-2.2
		c-0.9-0.9-1.7-1.8-2.4-2.9l4.7-3.1c2,3,4.7,4.6,7.9,4.6c5.4,0,8.8-4.2,9.2-9.4c-2.7,2.5-6,3.8-9.7,3.8c-4,0-7.3-1.5-10.1-4.4
		c-2.8-2.9-4.2-6.3-4.2-10.4c0-4,1.5-7.5,4.4-10.4c3-2.9,6.4-4.4,10.4-4.4c4,0,7.5,1.5,10.4,4.4c2.9,2.9,4.4,6.4,4.4,10.4
		c0,2.2,0,4.4,0,6.7C83.3,42,83.3,43.5,83.1,45z M77.7,33.9c0-2.5-0.9-4.7-2.7-6.5c-1.8-1.8-4-2.7-6.5-2.7c-2.5,0-4.7,0.9-6.5,2.7
		c-1.8,1.8-2.7,4-2.7,6.5c0,2.5,0.9,4.7,2.7,6.5c1.8,1.8,4,2.7,6.5,2.7C73.5,43.1,77.7,38.9,77.7,33.9z M115.3,33.9
		c0,4-1.5,7.5-4.4,10.4c-2.9,2.9-6.4,4.3-10.4,4.3c-4.1,0-7.6-1.4-10.4-4.3c-2.9-2.9-4.3-6.4-4.3-10.4V10.3h5.5V23
		c2.7-2.6,6-3.9,9.7-3.9c3.9,0,7.3,1.5,10.1,4.4C113.9,26.4,115.3,29.9,115.3,33.9z M109.7,33.9c0-2.5-0.9-4.7-2.7-6.5
		c-1.8-1.8-4-2.7-6.5-2.7c-2.5,0-4.7,0.9-6.5,2.7c-1.8,1.8-2.7,4-2.7,6.5c0,2.5,0.9,4.7,2.7,6.5c1.8,1.8,4,2.7,6.5,2.7
		c2.5,0,4.7-0.9,6.5-2.7C108.8,38.6,109.7,36.4,109.7,33.9z M146.5,33.9c0,4-1.5,7.5-4.4,10.4c-2.9,2.9-6.4,4.3-10.4,4.3
		c-4.1,0-7.6-1.4-10.4-4.3c-2.9-2.9-4.3-6.4-4.3-10.4c0-4.1,1.4-7.5,4.3-10.4c2.9-2.9,6.4-4.4,10.4-4.4c4.1,0,7.5,1.5,10.4,4.4
		C145,26.4,146.5,29.8,146.5,33.9z M140.9,33.9c0-2.5-0.9-4.7-2.7-6.5c-1.8-1.8-4-2.7-6.5-2.7c-2.5,0-4.7,0.9-6.5,2.7
		c-1.8,1.8-2.7,4-2.7,6.5c0,2.5,0.9,4.7,2.7,6.5c1.8,1.8,4,2.7,6.5,2.7c2.5,0,4.7-0.9,6.5-2.7C140,38.6,140.9,36.4,140.9,33.9z
		 M157.2,39l-6.1,9.2h-6.5l9.3-14.3l-9.3-14.3h6.5l6.1,9.2l6-9.2h6.5l-9.3,14.3l9.3,14.3h-6.5L157.2,39z M44.8,10.6h5.5v5.5h-5.5
		V10.6z"/>
</g>
</svg>
