<?xml version="1.0" encoding="utf-8"?>
<!-- Generator: Adobe Illustrator 25.0.0, SVG Export Plug-In . SVG Version: 6.00 Build 0)  -->
<svg version="1.1" id="Capa_1" xmlns="http://www.w3.org/2000/svg" xmlns:xlink="http://www.w3.org/1999/xlink" x="0px" y="0px"
	 viewBox="0 0 300 214.2" enable-background="new 0 0 300 214.2" xml:space="preserve">
<g>
	<g>
		<g id="XMLID_45_">
			<rect x="129.2" y="28.5" fill="#EA550D" width="41.7" height="74.9"/>
			<path id="XMLID_49_" fill="#E10814" d="M131.8,66c0-15.2,7.1-28.7,18.2-37.5c-8.1-6.4-18.3-10.2-29.4-10.2
				c-26.3,0-47.6,21.3-47.6,47.6c0,26.3,21.3,47.6,47.6,47.6c11.1,0,21.3-3.8,29.4-10.2C138.9,94.7,131.8,81.2,131.8,66z"/>
			<path fill="#F49E00" d="M227.1,66c0,26.3-21.3,47.6-47.6,47.6c-11.1,0-21.3-3.8-29.4-10.2c11.1-8.7,18.2-22.3,18.2-37.5
				s-7.1-28.7-18.2-37.5c8.1-6.4,18.3-10.2,29.4-10.2C205.8,18.3,227.1,39.7,227.1,66z M222.5,95.5V94h0.6v-0.3h-1.6V94h0.6v1.5
				H222.5z M225.6,95.5v-1.8h-0.5l-0.6,1.3l-0.6-1.3h-0.5v1.8h0.3v-1.4l0.5,1.2h0.4l0.5-1.2v1.4H225.6z"/>
		</g>
	</g>
</g>
<g>
	<path fill="#020203" d="M22.6,182.6c0.5,1.4,1.3,2.7,2.2,3.7c1,1,2.1,1.8,3.4,2.3c1.3,0.5,2.7,0.8,4.3,0.8c1.5,0,2.9-0.3,4.2-0.8
		c1.3-0.6,2.5-1.4,3.4-2.4c1-1,1.7-2.2,2.3-3.7c0.5-1.4,0.8-3,0.8-4.7v-27h6.6v43.7h-6.5v-4.1c-1.5,1.5-3.2,2.7-5.1,3.6
		c-2,0.8-4.1,1.2-6.4,1.2c-2.3,0-4.5-0.4-6.5-1.2c-2-0.8-3.8-2-5.2-3.5c-1.5-1.5-2.6-3.3-3.5-5.4c-0.9-2.1-1.3-4.4-1.3-7v-27.3h6.6
		v27C21.8,179.6,22.1,181.2,22.6,182.6z"/>
	<path fill="#020203" d="M54.5,150.9h6.3v15.9c1.5-1.5,3.1-2.6,5.1-3.5c1.9-0.9,4-1.3,6.2-1.3c2.3,0,4.5,0.4,6.6,1.3
		c2,0.9,3.8,2.1,5.3,3.6c1.5,1.5,2.7,3.3,3.6,5.3c0.9,2,1.3,4.2,1.3,6.5c0,2.3-0.4,4.4-1.3,6.5c-0.9,2-2.1,3.8-3.6,5.3
		c-1.5,1.5-3.3,2.7-5.3,3.6c-2,0.9-4.2,1.3-6.6,1.3c-2.2,0-4.3-0.4-6.3-1.3c-1.9-0.9-3.6-2-5.1-3.5v4h-6.2V150.9z M60.7,178.7
		c0,1.5,0.3,3,0.8,4.3c0.6,1.3,1.3,2.5,2.3,3.5c1,1,2.2,1.8,3.5,2.4c1.3,0.6,2.8,0.9,4.3,0.9c1.5,0,2.9-0.3,4.2-0.9
		c1.3-0.6,2.5-1.4,3.5-2.4c1-1,1.8-2.2,2.3-3.5c0.6-1.3,0.9-2.8,0.9-4.3c0-1.5-0.3-3-0.9-4.3c-0.6-1.4-1.4-2.5-2.3-3.5
		c-1-1-2.1-1.8-3.5-2.3c-1.3-0.6-2.7-0.8-4.2-0.8s-2.9,0.3-4.2,0.8c-1.3,0.6-2.5,1.3-3.5,2.3c-1,1-1.8,2.2-2.4,3.5
		C60.9,175.7,60.7,177.2,60.7,178.7z"/>
	<path fill="#020203" d="M90.7,178.7c0-2.2,0.4-4.4,1.2-6.4c0.8-2,2-3.8,3.4-5.3c1.5-1.5,3.2-2.7,5.2-3.6s4.2-1.3,6.5-1.3
		c2.3,0,4.4,0.4,6.4,1.2c2,0.8,3.6,2,5.1,3.5c1.4,1.5,2.5,3.2,3.3,5.2c0.8,2,1.2,4.2,1.2,6.6v2.1H97.1c0.2,1.3,0.6,2.5,1.2,3.6
		c0.6,1.1,1.4,2.1,2.3,2.9s2,1.4,3.2,1.9c1.2,0.5,2.4,0.7,3.8,0.7c3.8,0,6.8-1.6,9.2-4.7l4.6,3.4c-1.6,2.1-3.5,3.8-5.9,5
		c-2.3,1.2-5,1.8-7.9,1.8c-2.4,0-4.6-0.4-6.6-1.2c-2.1-0.8-3.8-2-5.4-3.5c-1.5-1.5-2.7-3.3-3.6-5.3C91.2,183.2,90.7,181,90.7,178.7z
		 M107,167.6c-2.4,0-4.4,0.7-6.2,2.2c-1.8,1.5-2.9,3.4-3.5,5.9h19.4c-0.5-2.5-1.7-4.4-3.5-5.9C111.4,168.4,109.3,167.6,107,167.6z"
		/>
	<path fill="#020203" d="M139.5,168.4c-2.1,0-3.8,0.7-5.1,2.2c-1.3,1.5-2,3.4-2,5.9v18.1h-6.3v-31.8h6.2v3.9
		c0.8-1.3,1.8-2.3,3.1-3.1c1.3-0.7,2.8-1.1,4.5-1.1h2.2v5.9H139.5z"/>
	<path fill="#020203" d="M157.8,150.9h18.5c1.9,0,3.7,0.3,5.3,1c1.6,0.7,3.1,1.6,4.3,2.8c1.2,1.2,2.2,2.6,2.9,4.2
		c0.7,1.6,1,3.4,1,5.2c0,1.9-0.3,3.6-1,5.3c-0.7,1.6-1.6,3.1-2.9,4.3c-1.2,1.2-2.7,2.2-4.3,2.9c-1.6,0.7-3.4,1-5.3,1h-10.1v16.9
		h-8.4V150.9z M166.2,158.3v12.3h9.4c1.8,0,3.2-0.6,4.2-1.8c1-1.2,1.6-2.7,1.6-4.4s-0.5-3.2-1.6-4.4c-1-1.2-2.5-1.7-4.2-1.7H166.2z"
		/>
	<path fill="#020203" d="M191.1,185.5c0-2.9,0.9-5.2,2.8-6.8c1.9-1.6,4.5-2.6,8-2.8l9.5-0.7V174c0-1.6-0.5-2.8-1.5-3.7
		c-1-0.9-2.5-1.4-4.4-1.4c-2.9,0-5.7,1-8.6,2.9l-3.4-5.8c1.9-1.4,3.9-2.4,6-3.2c2.1-0.7,4.5-1.1,7-1.1c1.9,0,3.7,0.3,5.2,0.8
		c1.6,0.5,2.9,1.3,4.1,2.3c1.1,1,2,2.2,2.6,3.6c0.6,1.4,0.9,2.9,0.9,4.7v12.7c0,1.2,0.6,1.9,1.8,1.9h1.7v7.1H219
		c-1.6,0-2.9-0.3-4.1-1c-1.1-0.7-2-1.6-2.6-2.8c-1.1,1.5-2.5,2.6-4.3,3.4c-1.7,0.8-3.7,1.2-5.8,1.2c-1.6,0-3.1-0.2-4.5-0.7
		c-1.4-0.5-2.5-1.2-3.5-2.1c-1-0.9-1.8-1.9-2.3-3.1C191.4,188.3,191.1,186.9,191.1,185.5z M198.9,185.5c0,1.1,0.5,2,1.4,2.7
		c1,0.7,2.2,1,3.7,1c1,0,1.9-0.2,2.8-0.5c0.9-0.3,1.7-0.7,2.3-1.2c0.7-0.5,1.2-1.1,1.6-1.8c0.4-0.7,0.6-1.5,0.6-2.3v-2.1L203,182
		C200.3,182.2,198.9,183.4,198.9,185.5z"/>
	<path fill="#020203" d="M241.1,195.3c-2.1,0-4-0.3-5.7-0.8c-1.7-0.6-3.2-1.3-4.4-2.3c-1.2-1-2.3-2.1-3.1-3.5
		c-0.8-1.3-1.4-2.8-1.7-4.3h7.7c0.4,1.6,1.3,2.8,2.6,3.5c1.3,0.7,2.8,1.1,4.6,1.1c1.5,0,2.6-0.3,3.4-0.9c0.8-0.6,1.2-1.4,1.2-2.4
		c0-0.7-0.3-1.3-0.8-1.8c-0.5-0.5-1.4-0.9-2.4-1.2l-6.7-1.6c-6-1.5-9.1-4.6-9.1-9.5c0-1.5,0.3-2.9,0.9-4.2c0.6-1.2,1.4-2.3,2.5-3.2
		c1.1-0.9,2.4-1.6,3.8-2.1c1.5-0.5,3.1-0.7,4.8-0.7c2,0,3.9,0.3,5.6,0.8c1.7,0.6,3.1,1.3,4.3,2.3c1.2,1,2.1,2.2,2.9,3.5
		c0.7,1.4,1.2,2.8,1.5,4.3h-7.7c-0.2-0.8-0.5-1.5-1-2.2c-0.5-0.6-1-1.1-1.6-1.5c-0.6-0.4-1.2-0.7-1.9-0.8c-0.7-0.2-1.4-0.3-2-0.3
		c-1.3,0-2.3,0.3-3,0.9c-0.7,0.6-1,1.3-1,2.1c0,1.7,1.3,2.8,3.9,3.4l6.2,1.5c5.9,1.4,8.9,4.5,8.9,9.4c0,1.5-0.3,2.8-0.9,4.1
		c-0.6,1.2-1.4,2.3-2.5,3.2c-1.1,0.9-2.4,1.6-3.9,2.2C244.8,195.1,243.1,195.3,241.1,195.3z"/>
	<path fill="#020203" d="M272.2,195.3c-2.1,0-4-0.3-5.7-0.8c-1.7-0.6-3.2-1.3-4.4-2.3c-1.2-1-2.3-2.1-3.1-3.5
		c-0.8-1.3-1.4-2.8-1.7-4.3h7.7c0.4,1.6,1.3,2.8,2.6,3.5c1.3,0.7,2.8,1.1,4.6,1.1c1.5,0,2.6-0.3,3.4-0.9c0.8-0.6,1.2-1.4,1.2-2.4
		c0-0.7-0.3-1.3-0.8-1.8c-0.5-0.5-1.4-0.9-2.4-1.2l-6.7-1.6c-6-1.5-9.1-4.6-9.1-9.5c0-1.5,0.3-2.9,0.9-4.2c0.6-1.2,1.4-2.3,2.5-3.2
		c1.1-0.9,2.4-1.6,3.8-2.1c1.5-0.5,3.1-0.7,4.8-0.7c2,0,3.9,0.3,5.6,0.8c1.7,0.6,3.1,1.3,4.3,2.3c1.2,1,2.1,2.2,2.9,3.5
		c0.7,1.4,1.2,2.8,1.5,4.3h-7.7c-0.2-0.8-0.5-1.5-1-2.2c-0.5-0.6-1-1.1-1.6-1.5c-0.6-0.4-1.2-0.7-1.9-0.8c-0.7-0.2-1.4-0.3-2-0.3
		c-1.3,0-2.3,0.3-3,0.9c-0.7,0.6-1,1.3-1,2.1c0,1.7,1.3,2.8,3.9,3.4l6.2,1.5c5.9,1.4,8.9,4.5,8.9,9.4c0,1.5-0.3,2.8-0.9,4.1
		c-0.6,1.2-1.4,2.3-2.5,3.2c-1.1,0.9-2.4,1.6-3.9,2.2C275.9,195.1,274.1,195.3,272.2,195.3z"/>
</g>
</svg>
