<?xml version="1.0" encoding="utf-8"?>
<!-- Generator: Adobe Illustrator 25.0.1, SVG Export Plug-In . SVG Version: 6.00 Build 0)  -->
<svg version="1.1" id="Capa_1" xmlns="http://www.w3.org/2000/svg" xmlns:xlink="http://www.w3.org/1999/xlink" x="0px" y="0px"
	 viewBox="0 102.3 841.9 376" enable-background="new 0 102.3 841.9 376" xml:space="preserve">
<path fill="#6F36FF" d="M116.2,234.8c10.7,0,20.4,4.4,27.3,11.3l0,0c15,15,39.6,15,54.8,0c15-15,15-39.6,0-54.8
	c-21-20.8-50.1-33.9-82.2-33.9C52.1,157.4,0,209.4,0,273.6c0,32.1,13.1,61.2,34.1,82.2l82.2,82.2l82.2-82.2c15-15,15-39.6,0-54.8
	c-15-15-39.6-15-54.8,0l-27.3,27.5l-27.3-27.5l0,0c-6.9-6.9-11.3-16.6-11.3-27.3C77.4,252.2,94.8,234.8,116.2,234.8z M75.2,314.8
	l41.2,41.2l41.2-41.2c7.5-7.5,19.8-7.5,27.3,0c7.5,7.5,7.5,19.8,0,27.3l-68.5,68.5l-68.7-68.5c-17.4-17.6-28.3-41.8-28.3-68.5
	c0-53.5,43.4-96.8,96.8-96.8c26.7,0,50.9,10.9,68.5,28.3l0,0c7.5,7.5,7.5,19.8,0,27.3s-19.8,7.5-27.3,0l0,0
	c-10.5-10.5-25.1-17-41.2-17c-32.1,0-58.2,25.9-58.2,58.2C58.2,289.6,64.5,304.3,75.2,314.8z M458.6,229
	c-8.7-8.5-20.6-13.7-34.1-13.7c-31.1,0.2-55,24.4-55,58.2l0,0c0,33.9,23.8,58,55,58.2c13.5,0,25.3-5.1,34.1-13.7v10.7h20.6V218.3
	l-20.6,1.8V229z M424.5,312.2c-18.4-0.2-33.9-15-33.9-38.8s15.2-38.6,33.9-38.8c18.4,0.2,33.9,15,33.9,38.8
	C458.2,297.1,442.9,312.2,424.5,312.2z M314.4,234.8c12.1,0.2,23,7.1,28.9,18l17.8-10.9c-9.5-16.2-26.5-26.5-46.7-26.5
	c-31.3,0.2-55,24.4-55,58.2l0,0c0,33.9,23.8,58,55,58.2c20.2,0,37.2-10.3,46.7-26.5l-17.8-10.9c-5.9,10.9-16.8,18-28.9,18
	c-18.4-0.2-33.9-15-33.9-38.8S296,235,314.4,234.8z M555.2,215.4c-13.5,0-25.3,5.1-34.1,13.7v-52.3l-20.6,1.8v150.3h20.6v-10.7
	c8.7,8.5,20.6,13.7,34.1,13.7c31.1-0.2,55-24.4,55-58.2l0,0C610.2,239.7,586.3,215.6,555.2,215.4z M555.2,312.2
	c-18.4-0.2-33.9-15-33.9-38.8s15.2-38.6,33.9-38.8c18.4,0.2,33.9,15,33.9,38.8S573.6,312.2,555.2,312.2z M818.3,218.3L786.6,291
	l-33.9-72.7h-44v-9.5c0-11.3,5.3-16,16.2-16c3.4,0,7.3,0.6,11.3,1.6l5-17.2c-6.5-2.2-13.7-3.4-21.6-3.4c-21.4,0-32.9,13.7-32.9,33.7
	v11.1l-18.8,1.6v17.4h18.8v91.3h22v-91.5h28.7l38.2,78.4c-3.2,6.9-7.1,14.7-13.3,19.4c-5.5,4.4-12.5,4.8-19.2,3.4l-5.1,17.8
	c9.9,3.6,22.4,3.2,31.7-1.8c10.1-5.5,16.8-15.8,21.4-26.1l50.5-110.3h-23.4V218.3z M639.1,173.6c-8.3,0-15,6.5-15,15
	c0,8.3,6.7,14.8,15,14.8s15-6.5,15-14.8C654,180.3,647.5,173.6,639.1,173.6z M628.2,328.6h22V218.3l-22,2V328.6z"/>
</svg>
