<?xml version="1.0" encoding="utf-8"?>
<!-- Generator: Adobe Illustrator 25.0.1, SVG Export Plug-In . SVG Version: 6.00 Build 0)  -->
<svg version="1.1" id="Layer_1" xmlns="http://www.w3.org/2000/svg" xmlns:xlink="http://www.w3.org/1999/xlink" x="0px" y="0px"
	 viewBox="0 0 322.1 131.7" enable-background="new 0 0 322.1 131.7" xml:space="preserve">
<g>
	<g>
		<path d="M58.4,21.6c-23.2,0-42.3,17.9-44.1,40.7L38,72.1c2-1.4,4.4-2.2,7-2.2c0.2,0,0.5,0,0.7,0l10.5-15.3c0-0.1,0-0.1,0-0.2
			c0-9.2,7.5-16.7,16.7-16.7c9.2,0,16.7,7.5,16.7,16.7c0,9.2-7.5,16.7-16.7,16.7c-0.1,0-0.3,0-0.4,0l-15,10.7c0,0.2,0,0.4,0,0.6
			C57.6,89.4,52,95,45.1,95C39,95,34,90.6,32.8,84.9l-17-7c5.3,18.6,22.3,32.2,42.6,32.2c24.4,0,44.2-19.8,44.2-44.2
			C102.7,41.4,82.8,21.6,58.4,21.6z"/>
		<path d="M42.1,88.7l-5.4-2.2c1,2,2.6,3.7,4.8,4.6c4.8,2,10.3-0.3,12.3-5.1c1-2.3,1-4.9,0-7.2c-1-2.3-2.8-4.1-5.1-5.1
			c-2.3-1-4.8-0.9-6.9-0.1l5.6,2.3c3.5,1.5,5.2,5.5,3.7,9C49.6,88.5,45.6,90.2,42.1,88.7z"/>
		<path d="M84.1,54.5c0-6.1-5-11.1-11.1-11.1s-11.1,5-11.1,11.1s5,11.1,11.1,11.1S84.1,60.6,84.1,54.5z M64.7,54.4
			c0-4.6,3.7-8.4,8.4-8.4c4.6,0,8.4,3.7,8.4,8.4c0,4.6-3.7,8.3-8.4,8.3C68.4,62.8,64.7,59,64.7,54.4z"/>
	</g>
	<g>
		<path d="M149.9,51.9l-3,5.2c-2.3-1.6-5.4-2.6-8.1-2.6c-3.1,0-5,1.3-5,3.6c0,2.8,3.4,3.4,8.4,5.2c5.4,1.9,8.5,4.2,8.5,9.1
			c0,6.8-5.3,10.6-13,10.6c-3.7,0-8.3-1-11.7-3.1l2.2-5.8c2.8,1.5,6.2,2.4,9.2,2.4c4.1,0,6-1.5,6-3.7c0-2.5-2.9-3.3-7.7-4.9
			c-5.4-1.8-9.1-4.2-9.1-9.7c0-6.2,5-9.8,12.1-9.8C143.7,48.6,147.7,50.2,149.9,51.9z"/>
		<path d="M173.1,55.2v27.3h-7V55.2H156v-6h27.2v6H173.1z"/>
		<path d="M197.9,55.2v7.5h13.4v6h-13.4v7.8h15.5v6h-22.5V49.2h22.5v6H197.9z"/>
		<path d="M228.9,76l-2.2,6.5h-7.3l12.5-33.3h7l12.8,33.3h-7.6L242,76H228.9z M235.4,57.1l-4.5,13.3h9.2L235.4,57.1z"/>
		<path d="M287.6,62.1l-9.1,19.5h-3.9l-9-19.3v20.3h-6.7V49.2h6.7l11.2,24.1l10.8-24.1h6.7v33.3h-6.7L287.6,62.1z"/>
		<path d="M307.8,53.4c0,2.9-2.1,4.6-4.6,4.6c-2.5,0-4.6-1.8-4.6-4.6c0-2.9,2.2-4.6,4.6-4.6C305.6,48.8,307.8,50.5,307.8,53.4z
			 M299.3,53.4c0,2.4,1.7,3.9,3.8,3.9c2.1,0,3.8-1.5,3.8-3.9c0-2.4-1.7-3.9-3.8-3.9C301.1,49.5,299.3,51,299.3,53.4z M303.2,51
			c1.2,0,1.6,0.6,1.6,1.3c0,0.6-0.4,1-0.8,1.3l1.1,2h-0.9l-0.9-1.8h-0.9v1.8h-0.7V51H303.2z M302.4,53.2h0.8c0.5,0,0.8-0.3,0.8-0.7
			c0-0.4-0.2-0.7-0.8-0.7h-0.8V53.2z"/>
	</g>
</g>
</svg>
