<?xml version="1.0" encoding="utf-8"?>
<!-- Generator: Adobe Illustrator 25.0.0, SVG Export Plug-In . SVG Version: 6.00 Build 0)  -->
<svg version="1.1" id="Capa_1" xmlns="http://www.w3.org/2000/svg" xmlns:xlink="http://www.w3.org/1999/xlink" x="0px" y="0px"
	 viewBox="0 0 300 229.3" enable-background="new 0 0 300 229.3" xml:space="preserve">
<path fill="#413D3B" d="M283.5,191.3c-2.4,2.6-5.5,3.8-9.1,3.8c-4.2,0-7.3-1.8-8.2-4.3v13.6h-6.1v-35.6h6.1v3.7
	c0.9-2.5,4-4.3,8.2-4.3c3.6,0,6.7,1.3,9.1,3.9c2.5,2.6,3.7,5.7,3.7,9.5C287.2,185.6,286,188.7,283.5,191.3 M279,176.1
	c-1.4-1.5-3.2-2.2-5.4-2.2c-2.2,0-4.1,0.8-5.6,2.2c-1.5,1.5-2.2,3.4-2.2,5.6c0,2.2,0.8,4.1,2.2,5.6c1.5,1.5,3.4,2.3,5.6,2.3
	c2.2,0,4-0.8,5.4-2.3c1.5-1.5,2.2-3.4,2.2-5.6C281.2,179.5,280.5,177.6,279,176.1 M241.8,195.4c-3.9,0-7.2-1.3-9.9-3.9
	c-2.7-2.6-4.1-5.9-4.1-9.7c0-3.8,1.4-7.1,4.1-9.7c2.7-2.6,6-3.9,9.9-3.9c3.9,0,7.2,1.3,9.9,3.9c2.7,2.6,4.1,5.9,4.1,9.7
	c0,3.8-1.4,7.1-4.1,9.7C249,194,245.7,195.4,241.8,195.4 M247.4,176c-1.5-1.6-3.4-2.4-5.7-2.4c-2.3,0-4.2,0.8-5.7,2.4
	c-1.5,1.5-2.2,3.4-2.2,5.7c0,2.3,0.8,4.2,2.2,5.8c1.5,1.5,3.4,2.3,5.7,2.3c2.2,0,4.1-0.8,5.7-2.3c1.5-1.6,2.3-3.5,2.3-5.8
	C249.7,179.4,249,177.5,247.4,176 M222.8,194.9c-4,0-6-2.2-6-6.7v-8.6c0-3.5-1.9-5.7-5.1-5.7c-3.3,0-5.7,2.5-5.7,6v14.8H200V159h6.1
	v13.4c1.2-2.5,4-4.1,7.5-4.1c5.9,0,9.4,3.9,9.4,10.3v8.1c0,2,0.4,2.7,1.7,2.7c0.3,0,0.6-0.1,0.9-0.1v5.2
	C224.9,194.8,224,194.9,222.8,194.9 M186.1,178.4c0.8,0.2,2.2,0.7,3.2,1.1c4.7,1.7,6.9,4,6.9,7.7c0,4.7-3.6,8.2-10.5,8.2
	c-5.1,0-9-2-10.6-5.2l3.9-3.3c1.2,1.8,3.7,3.2,6.8,3.2c3.2,0,4.6-1.2,4.6-2.8c0-0.9-0.6-1.6-1.5-2c-0.6-0.4-1.6-0.7-2.4-1
	c-0.8-0.3-2.3-0.7-3.2-1.1c-4.1-1.5-6.3-3.6-6.3-7.3c0-2.4,0.9-4.2,2.6-5.6c1.8-1.4,3.9-2.1,6.5-2.1c3.6,0,6.4,1.3,8.3,3.8l-3.4,3.6
	c-1.1-1.4-2.8-2.1-5-2.1c-1.9,0-3.1,0.9-3.1,2.3c0,0.9,0.5,1.3,1.2,1.8C184.4,177.7,185.4,178.1,186.1,178.4 M171.2,174.2
	c-4.2,0-6.9,2.7-6.9,6.9v13.5h-6.1v-25.7h6.1v3.8c1.2-2.7,4-4.3,7.6-4.3c0.7,0,1.3,0,1.8,0.2v5.9C173,174.3,172.1,174.2,171.2,174.2
	 M134.1,183.3c0.2,4.1,3.2,6.7,7.7,6.7c2.7,0,4.9-1,6.9-3l3.7,3.6c-2.9,3.1-6.5,4.6-10.8,4.6c-4,0-7.3-1.2-9.8-3.6
	c-2.5-2.4-3.8-5.6-3.8-9.7v-0.2c0-4.1,1.3-7.4,3.8-9.9c2.5-2.5,5.8-3.7,9.7-3.7c3.7,0,6.8,1.2,9.1,3.7c2.4,2.5,3.6,5.6,3.6,9.2
	c0,0.8-0.1,1.5-0.1,2.1H134.1z M146,175c-1.3-1.1-2.7-1.7-4.5-1.7c-1.9,0-3.6,0.6-4.9,1.6c-1.4,1.1-2.1,2.4-2.3,4h13.7
	C147.9,177.4,147.3,176.1,146,175 M123,194.9c-4,0-6-2.2-6-6.7v-8.6c0-3.5-2-5.7-5.4-5.7c-3.4,0-5.8,2.5-5.8,6v14.8h-6.1v-25.7h6.1
	v3.7c1.2-2.5,4.1-4.2,7.7-4.2c6.1,0,9.6,3.9,9.6,10.3v8.1c0,2,0.4,2.7,1.7,2.7c0.3,0,0.6-0.1,0.9-0.1v5.2
	C125,194.8,124.1,194.9,123,194.9 M92.9,174.2c-4.2,0-6.9,2.7-6.9,6.9v13.5h-6.1v-25.7h6.1v3.8c1.2-2.7,4-4.3,7.6-4.3
	c0.7,0,1.3,0,1.8,0.2v5.9C94.6,174.3,93.8,174.2,92.9,174.2 M61.6,195.4c-3.9,0-7.2-1.3-9.9-3.9c-2.7-2.6-4.1-5.9-4.1-9.7
	c0-3.8,1.4-7.1,4.1-9.7c2.7-2.6,6-3.9,9.9-3.9c3.9,0,7.2,1.3,9.9,3.9c2.7,2.6,4.1,5.9,4.1,9.7c0,3.8-1.4,7.1-4.1,9.7
	C68.8,194,65.5,195.4,61.6,195.4 M67.2,176c-1.5-1.6-3.4-2.4-5.7-2.4c-2.3,0-4.2,0.8-5.7,2.4c-1.5,1.5-2.2,3.4-2.2,5.7
	c0,2.3,0.8,4.2,2.2,5.8c1.5,1.5,3.4,2.3,5.7,2.3c2.2,0,4.1-0.8,5.7-2.3c1.5-1.6,2.3-3.5,2.3-5.8C69.5,179.4,68.8,177.5,67.2,176
	 M31.6,189.4c4,0,7.3-1.5,9.8-4.4l4.3,3.7c-3.5,4.1-8.6,6.5-14.1,6.5c-5.2,0-9.7-1.7-13.4-5.2c-3.6-3.5-5.5-7.9-5.5-13.2
	c0-5.3,1.8-9.7,5.5-13.2c3.7-3.5,8.1-5.3,13.4-5.3c5.7,0,10.3,2.1,14.1,6.4l-4.3,3.7c-2.5-2.9-5.8-4.3-9.7-4.3c-3.6,0-6.6,1.2-9,3.6
	c-2.4,2.4-3.6,5.4-3.6,9c0,3.6,1.2,6.6,3.6,9C25,188.3,28.1,189.4,31.6,189.4"/>
<g>
	<g>
		<g id="XMLID_45_">
			<rect x="129.2" y="28.5" fill="#EA550D" width="41.7" height="74.9"/>
			<path id="XMLID_49_" fill="#E10814" d="M131.8,66c0-15.2,7.1-28.7,18.2-37.5c-8.1-6.4-18.3-10.2-29.4-10.2
				c-26.3,0-47.6,21.3-47.6,47.6c0,26.3,21.3,47.6,47.6,47.6c11.1,0,21.3-3.8,29.4-10.2C138.9,94.7,131.8,81.2,131.8,66z"/>
			<path fill="#F49E00" d="M227.1,66c0,26.3-21.3,47.6-47.6,47.6c-11.1,0-21.3-3.8-29.4-10.2c11.1-8.7,18.2-22.3,18.2-37.5
				s-7.1-28.7-18.2-37.5c8.1-6.4,18.3-10.2,29.4-10.2C205.8,18.3,227.1,39.7,227.1,66z M222.5,95.5V94h0.6v-0.3h-1.6V94h0.6v1.5
				H222.5z M225.6,95.5v-1.8h-0.5l-0.6,1.3l-0.6-1.3h-0.5v1.8h0.3v-1.4l0.5,1.2h0.4l0.5-1.2v1.4H225.6z"/>
		</g>
	</g>
</g>
</svg>
