<?xml version="1.0" encoding="utf-8"?>
<!-- Generator: Adobe Illustrator 25.0.1, SVG Export Plug-In . SVG Version: 6.00 Build 0)  -->
<svg version="1.1" id="Capa_1" xmlns="http://www.w3.org/2000/svg" xmlns:xlink="http://www.w3.org/1999/xlink" x="0px" y="0px"
	 viewBox="0 0 828.9 349.6" enable-background="new 0 0 828.9 349.6" xml:space="preserve">
<g>
	<g>
		<path fill="#00529B" d="M265.9,148.6l34.6,126.9l-0.1-0.4c0.7,2.2,1,4.5,1,6.8c0,12.6-10.2,22.7-22.8,22.7h-27l-39.9-147.5
			l-15.9,5.2l29.5,111.1l-0.1-0.3c1,2.6,1.5,5.4,1.5,8.3c0,12.6-10.2,22.8-22.9,22.8h-23.4l-39.9-147.5l-16.1,5.1l38.2,142.4H69.9
			l-1,0c-12.7,0-22.8-10.3-22.8-23c0-1.5,0.1-2.9,0.4-4.3l35.2-131.1c3.1-9,11.6-15.4,21.6-15.4h-0.3h70.7l3.1,0.1
			c7.9,0,14.3,6.3,14.3,14.3v0.4h0.1l49.2-12.9l0.6-0.2c1.6-0.4,3.3-0.6,5.1-0.6C256.2,131.4,264.5,138.8,265.9,148.6L265.9,148.6z"
			/>
		<path fill="#00529B" d="M747.1,304.1c-10.8,0-19.8-7.7-22.2-17.7v0.2l-41.7-156.3h53.5l46.1,173.8H747.1z"/>
		<path fill="#00529B" d="M522.5,164.3L560,304.1h-35.9c-11.1,0-20.3-7.7-22.3-18.2l-0.1-0.3l-34.3-127.3l-0.2-0.6l0.2,0.7
			c-1.1-2.5-1.7-5.1-1.7-8c0-11.1,9-20.1,20-20.1l0.1,0h75v15.8h-24.4l-0.1,0c-7.9,0-14.3,6.4-14.3,14.3c0,1.5,0.3,2.9,0.7,4.3
			L522.5,164.3z"/>
		<path fill="#00529B" d="M634.8,164.3l36,139.8H631c-8.9,0-16.3-6.7-17.7-15.2l0.2,1v0.1l-37-144.1V63.4L627,45v70.2l0,0.6
			c0,7.9,6.4,14.3,14.3,14.3h0.1H672v15.8h-23.1c-8.1,0-14.6,6.5-14.6,14.6C634.3,161.8,634.4,163.1,634.8,164.3"/>
		<path fill="#00529B" d="M740.7,88.4c0.8-0.4,1.7-0.8,2.5-1.4c5.1-3.7,6.3-10.8,2.5-16c-3.1-4.3-8.6-5.8-13.3-4l-49.9,18.1
			c-4.8,1.7-8.1,6.5-7.6,11.7c0.5,6.3,6,11,12.3,10.5c1-0.1,1.9-0.3,2.8-0.6L740.7,88.4z"/>
		<path fill="#00529B" d="M313.6,229.5c0-6,3.7-11.2,9-13.3l65.9-24l30,111.9h-90.8l-0.5,0c-7.6-0.3-13.7-6.5-13.7-14.2v-60.8
			L313.6,229.5z"/>
		<path fill="#00529B" d="M395.9,155.5c-1.1-3.6-4.4-6.2-8.3-6.2c-0.9,0-1.8,0.2-2.7,0.5l-0.5,0.1L315,175.3l0.2-16.7l64.1-23.5
			h-0.1c6.7-2.9,14.1-4.5,21.9-4.5c26.9,0,49.5,19.1,54.7,44.5v0.2l26.5,98.3l0.2,0.8c0.7,2.2,1,4.4,1,6.8
			c0,12.6-10.3,22.8-22.9,22.8h-24.8L395.9,155.5L395.9,155.5z"/>
	</g>
</g>
</svg>
