<?xml version="1.0" encoding="utf-8"?>
<!-- Generator: Adobe Illustrator 25.0.1, SVG Export Plug-In . SVG Version: 6.00 Build 0)  -->
<svg version="1.1" id="Layer_1" xmlns="http://www.w3.org/2000/svg" xmlns:xlink="http://www.w3.org/1999/xlink" x="0px" y="0px"
	 viewBox="0 0 619.1 120" enable-background="new 0 0 619.1 120" xml:space="preserve">
<g>
	<g>
		<path fill="#2C3357" d="M102.1,10C102.1,10,102.1,10,102.1,10c-0.1,0-0.1,0-0.1,0c-13.1,0-25.5,5.1-34.8,14.2
			c-4.7-2-9.9-3.1-15.2-3.1c-21.4,0-38.9,17.4-38.9,38.9s17.4,38.9,38.9,38.9c5.2,0,10.4-1.1,15.1-3.1c9,8.8,21.3,14.2,34.8,14.2
			c27.6,0,50-22.4,50-50C152,32.5,129.6,10,102.1,10z M102,98.9c-21.4,0-38.9-17.4-38.9-38.9H52c0,9.8,2.8,19,7.7,26.7
			c-2.5,0.7-5.1,1.1-7.7,1.1c-15.3,0-27.8-12.5-27.8-27.8s12.5-27.8,27.8-27.8c6.1,0,11.8,1.9,16.7,5.6c7.1,5.3,11.1,13.4,11.1,22.2
			H91c0-11.6-5-22.4-13.9-29.8c7-5.8,15.8-9.1,25-9.1c21.4,0,38.9,17.5,38.9,38.9C140.9,81.4,123.5,98.9,102,98.9z"/>
		<g>
			<path fill="#2C3357" d="M180.2,87.9V52.3h-7.5v-8.9h7.5V30.2h10.5v13.2h7.5v8.9h-7.5v35.6H180.2z"/>
			<path fill="#2C3357" d="M209.1,36.9c-3.5,0-6.4-2.9-6.4-6.4c0-3.6,2.9-6.5,6.4-6.5c3.7,0,6.5,3,6.5,6.5S212.9,36.9,209.1,36.9z
				 M204,87.9V43.4h10.5v44.5H204z"/>
			<path fill="#2C3357" d="M263.8,77.4c-3.7,7-10.6,11.5-20.1,11.5c-13.5,0-23.1-9.6-23.1-23.3c0-13.3,9.8-23.3,22.6-23.3
				c13,0,22.1,10,22.1,23.3c0,0.8,0,1.9-0.1,3.2H231c0.5,6.4,6.2,11.3,12.8,11.3c5.8,0,8.8-2.8,11.3-6.7L263.8,77.4z M254.9,61.2
				c-0.7-5.9-5.4-10.3-11.9-10.3c-6.3,0-11.2,5.2-11.9,10.3H254.9z"/>
			<path fill="#2C3357" d="M281.5,87.9h-10.5V43.4h10.5v5.9c2.8-4.3,7.4-7,13.6-7c10.9,0,17.2,7.2,17.2,18.8v26.8h-10.5V63.1
				c0-6.9-3.4-11.1-9.9-11.1c-6.3,0-10.4,4.8-10.4,12.4V87.9z"/>
			<path fill="#2C3357" d="M354.6,87.9v-6.4c-3.3,4.6-8.9,7.4-15.1,7.4c-12.3,0-21.7-10-21.7-23.3c0-13.1,9.4-23.3,21.7-23.3
				c6.2,0,11.8,2.5,15.1,7.2V26.7H365v61.2H354.6z M341.7,79.4c7.5,0,13.3-6.2,13.3-13.8s-5.8-13.8-13.3-13.8
				c-7.5,0-13.3,6.2-13.3,13.8S334.2,79.4,341.7,79.4z"/>
			<path fill="#2C3357" d="M387,61.6l12.1-1.5v-1.9c0-4.4-3.1-7.3-7.9-7.3c-4.5,0-7.4,2.3-8.8,6.7l-9.6-2.5
				c2.2-8,9.3-12.9,18.4-12.9c11.6,0,18.1,6.1,18.1,16.6v28.9h-9.8l-0.1-5.4c-3,4.3-8.1,6.5-13.9,6.5c-8.4,0-14.3-5.4-14.3-12.9
				C371.2,68,376.5,63.2,387,61.6z M388,80.5c6.5,0,11.2-4.2,11.2-10.1v-2.5l-10.1,1.4c-5,0.6-7.4,2.9-7.4,6.1S384.3,80.5,388,80.5z
				"/>
			<path fill="#2C3357" d="M428.3,87.9h-10.5V43.4h10.5v5.9c2.8-4.3,7.4-7,13.6-7c10.9,0,17.2,7.2,17.2,18.8v26.8h-10.5V63.1
				c0-6.9-3.4-11.1-9.9-11.1c-6.3,0-10.4,4.8-10.4,12.4V87.9z"/>
			<path fill="#2C3357" d="M466.7,68.7V43.4h10.5v24.7c0,7,3.4,11.2,9.3,11.2c5.8,0,9.3-4.2,9.3-11.2V43.4h10.5v25.3
				c0,12.8-7.4,20.2-19.8,20.2C474.2,89,466.7,81.5,466.7,68.7z"/>
			<path fill="#2C3357" d="M514.7,87.9V26.7h10.4v23.1c3.3-4.6,8.9-7.4,15.1-7.4c12.3,0,21.7,10,21.7,23.3
				c0,13.1-9.4,23.3-21.7,23.3c-6.2,0-11.8-2.5-15.1-7.2v6.1H514.7z M538.1,51.8c-7.5,0-13.3,6.2-13.3,13.8s5.8,13.8,13.3,13.8
				c7.5,0,13.3-6.2,13.3-13.8S545.6,51.8,538.1,51.8z"/>
			<path fill="#2C3357" d="M608.7,77.4c-3.7,7-10.6,11.5-20.1,11.5c-13.5,0-23.1-9.6-23.1-23.3c0-13.3,9.8-23.3,22.6-23.3
				c13,0,22.1,10,22.1,23.3c0,0.8,0,1.9-0.1,3.2h-34.2c0.5,6.4,6.2,11.3,12.8,11.3c5.8,0,8.8-2.8,11.3-6.7L608.7,77.4z M599.8,61.2
				c-0.7-5.9-5.4-10.3-11.9-10.3c-6.3,0-11.2,5.2-11.9,10.3H599.8z"/>
		</g>
	</g>
</g>
</svg>
