<?xml version="1.0" encoding="utf-8"?>
<!-- Generator: Adobe Illustrator 24.0.1, SVG Export Plug-In . SVG Version: 6.00 Build 0)  -->
<svg version="1.1" id="Layer_1" xmlns="http://www.w3.org/2000/svg" xmlns:xlink="http://www.w3.org/1999/xlink" x="0px" y="0px"
	 viewBox="0 0 344 169" style="enable-background:new 0 0 344 169;" xml:space="preserve">
<style type="text/css">
	.st0{fill:#FD6766;}
	.st1{fill:#3D6BFB;}
	.st2{fill:#E7641E;}
	.st3{fill:#FFFFFF;}
	.st4{fill:#666665;}
</style>
<g>
	<path class="st0" d="M-1769.9-938.1c5.8,0,9.1,2.9,10.9,5.1c0.5,0.6,0,1.2-0.7,1c-0.6-0.1-1.1-0.2-1.8-0.2
		c-13.1,0-15.8,33.2-32.8,33.2c-5.8,0-9.2-2.9-10.9-5.1c-0.5-0.6-0.3-1.2,0.5-1c0.6,0.1,1.4,0.3,2.1,0.3
		C-1789.6-904.8-1787.3-938.1-1769.9-938.1z"/>
	<path class="st1" d="M-1811.4-919.5c0,8.2,0.8,21.6,14.1,23.1c0.7,0.1,0.7,0.9,0.1,1c-1.3,0.2-2.3,0.4-4.5,0.4
		c-11.3,0-23.5-8.9-23.5-24.5c0-3.1,2.5-6.8,6.8-6.8C-1813.8-926.4-1811.4-923-1811.4-919.5z"/>
	<path class="st1" d="M-1752.8-917.5c0-8.2-0.8-21.6-14.1-23.1c-0.7-0.1-0.7-0.9-0.1-1c1.3-0.2,2.3-0.4,4.5-0.4
		c11.3,0,23.5,8.9,23.5,24.5c0,3.1-2.5,6.8-6.8,6.8C-1750.4-910.7-1752.8-914.1-1752.8-917.5z"/>
</g>
<g>
	<path class="st2" d="M78.3,68l22.3-22.2l-24.1,8.8L53,104.7c-1.4,3.1-0.1,6.8,3,8.2l22.3,10.4L78.3,68z"/>
	<g>
		<path class="st2" d="M118.1,44.1c-2.4-2.4-6.3-2.4-8.6,0L83.2,70.4v55.1c0,3.4,2.7,6.1,6.1,6.1l48.9,0c3.4,0,6.1-2.8,6.1-6.1V70.4
			L118.1,44.1z M113.8,55.9c-2.1,0-3.8-1.7-3.8-3.8c0-2.1,1.7-3.8,3.8-3.8c2.1,0,3.8,1.7,3.8,3.8C117.6,54.2,115.9,55.9,113.8,55.9z
			"/>
		<polygon class="st3" points="108,111.1 108,69.9 96.3,69.9 96.3,122.8 131.5,122.8 131.5,111.1 		"/>
	</g>
	<path class="st4" d="M283.4,68.4c-15.4,0-27.9,12.5-27.9,27.9s12.5,27.9,27.9,27.9s27.9-12.5,27.9-27.9S298.8,68.4,283.4,68.4z
		 M283.4,113.1c-9.2,0-16.7-7.5-16.7-16.7s7.5-16.7,16.7-16.7s16.7,7.5,16.7,16.7S292.6,113.1,283.4,113.1z"/>
	<rect x="152.1" y="70" class="st4" width="11.7" height="52.9"/>
	<rect x="237" y="70" class="st4" width="11.7" height="52.9"/>
	<polygon class="st4" points="217,69.9 217,101.4 172.1,68.6 172.1,122.8 183.8,122.8 183.8,91.7 228.8,124.4 228.8,69.9 	"/>
</g>
</svg>
