<?xml version="1.0" encoding="utf-8"?>
<!-- Generator: Adobe Illustrator 25.0.1, SVG Export Plug-In . SVG Version: 6.00 Build 0)  -->
<svg version="1.1" id="Layer_1" xmlns="http://www.w3.org/2000/svg" xmlns:xlink="http://www.w3.org/1999/xlink" x="0px" y="0px"
	 viewBox="0 0 1666 612" enable-background="new 0 0 1666 612" xml:space="preserve">
<g>
	<g>
		<g>
			<g id="XMLID_45_">
				<rect x="1197.8" y="166.1" fill="#FF5F00" width="155.7" height="279.8"/>
				<path id="XMLID_49_" fill="#EB001B" d="M1207.7,306c0-56.8,26.6-107.3,68-139.9c-30.3-23.8-68.5-38-110-38
					c-98.3,0-178,79.7-178,178c0,98.3,79.7,178,178,178c41.5,0,79.7-14.2,110-38C1234.3,413.3,1207.7,362.8,1207.7,306z"/>
				<path fill="#F79E1B" d="M1563.6,306c0,98.3-79.7,178-178,178c-41.5,0-79.7-14.2-110-38c41.4-32.6,68-83.1,68-139.9
					s-26.6-107.3-68-139.9c30.3-23.8,68.5-38,110-38C1484,128,1563.6,207.7,1563.6,306z M1546.6,416.3v-5.7h2.3v-1.2h-5.9v1.2h2.3
					v5.7H1546.6z M1558.1,416.3v-6.9h-1.8l-2.1,4.8l-2.1-4.8h-1.8v6.9h1.3v-5.2l1.9,4.5h1.3l1.9-4.5v5.2H1558.1z"/>
			</g>
		</g>
	</g>
	<g>
		<polygon fill="#FFF100" points="592.3,387.1 714.7,387.1 714.7,485.1 592.3,485.1 561.9,456.4 561.9,416 		"/>
		<path fill="#122028" d="M212.2,204.2l2.4-0.9c1.5-0.7,3.3-2,5.4-3.7c2.1-1.8,4.2-3.8,6.4-6.1c2.1-2.3,4-5.4,5.5-9.2
			c1.5-3.8,2.3-7.9,2.3-12.1c0-11.1-5-20.7-15.1-28.8c-10.1-8.1-23.8-12.1-41.2-12.1h-75.5V286h79.9c20.5,0,62.9-3.8,62.9-44.2
			C245.2,210.9,212.9,204.5,212.2,204.2 M152.4,167.6h18.4c3.7,0,6.7,1.1,9,3.3c2.3,2.2,3.5,4.9,3.5,8.1c0,3.2-1.2,5.9-3.5,8.1
			c-2.3,2.2-5.4,3.3-9,3.3h-18.4V167.6z M186.8,246.1c-2.9,2.7-6.5,4.1-10.9,4.1h-23.6v-27.8H176c4.4,0,8,1.3,10.9,4
			c2.9,2.7,4.3,5.9,4.3,9.8C191.1,240.1,189.7,243.4,186.8,246.1"/>
		<path fill="#122028" d="M251.9,375.4l2.4-0.9c1.5-0.7,3.3-2,5.4-3.7c2.1-1.8,4.2-3.8,6.4-6.1c2.1-2.3,4-5.4,5.5-9.2
			c1.5-3.8,2.3-7.9,2.3-12.1c0-11.1-5-20.7-15.1-28.8c-10.1-8.1-23.8-12.1-41.2-12.1h-75.3v154.6h79.8c20.5,0,62.9-3.8,62.9-44.2
			C285,382,252.6,375.7,251.9,375.4 M192.3,338.7h18.3c3.7,0,6.7,1.1,9,3.3c2.3,2.2,3.5,4.9,3.5,8.1c0,3.2-1.2,5.9-3.5,8.1
			c-2.3,2.2-5.4,3.3-9,3.3h-18.3V338.7z M226.6,417.3c-2.9,2.7-6.5,4.1-10.9,4.1h-23.4v-27.8h23.4c4.4,0,8,1.3,10.9,4
			c2.9,2.7,4.3,5.9,4.3,9.8C230.9,411.3,229.5,414.6,226.6,417.3"/>
		<polygon fill="#122028" points="373.3,248.4 298.5,248.4 298.5,224.2 359.5,224.2 359.5,188.8 298.5,188.8 298.5,169 373.4,169 
			373.4,131.3 248.5,131.3 248.5,286 373.3,286 		"/>
		<polygon fill="#122028" points="501.1,131.3 501.1,169 542,169 542,286 591.7,286 591.7,169 632.6,169 632.6,131.3 		"/>
		<path fill="#122028" d="M444.6,246c-2.7,2.4-6.5,3.6-11.4,3.6c-4.9,0-9.9-1.3-15.1-4c-5.2-2.7-8.8-4.8-10.5-6.4
			c-1-0.9-1.9-1.7-2.6-2.4l-29.5,28l1.9,1.9c1.8,1.9,4.6,4.1,8.3,6.7c3.7,2.6,8.1,5.2,13,7.8c4.9,2.6,11.1,4.8,18.4,6.6
			c7.4,1.8,15,2.7,22.8,2.7c19.6,0,35.1-5.1,46.7-15.2c11.6-10.1,17.4-22.4,17.4-36.7c0-8.3-1.7-15.5-5-21.8
			c-3.3-6.3-7.5-11-12.5-14.1c-5-3.2-10.4-6-16.2-8.5c-5.3-2.3-10.3-4-14.9-5.2c-0.4-0.1-0.9-0.2-1.3-0.3c-5-1.2-9.1-2.7-12.5-4.5
			c-3.3-1.8-5-3.9-5-6.3c0-2.9,1.2-5.2,3.5-7.1c2.3-1.9,5.6-2.8,9.8-2.8c10.1,0,16.3,4.5,19.5,7.8l29.6-28.1l-0.5-0.6
			c-1.3-1.7-3.5-3.5-6.7-5.7c-3.2-2.1-6.8-4.3-11.1-6.4c-4.2-2.2-9.7-4-16.4-5.6c-6.7-1.5-13.7-2.3-21.1-2.3
			c-18.5,0-33.5,4.9-44.8,14.7c-11.3,9.8-17,21.3-17,34.6c0,7,1.3,13.4,3.8,19c2.5,5.6,5.7,10.1,9.6,13.4c3.9,3.3,8.2,6.2,13,8.7
			c4,2.1,8.1,3.9,12.1,5.3c0.8,0.3,1.6,0.6,2.3,0.8c4.9,1.5,9.2,3,13.2,4.3c3.9,1.3,7.1,2.8,9.7,4.3c2.5,1.5,3.8,3.3,3.8,5.4
			C448.7,240.7,447.3,243.6,444.6,246"/>
		<path fill="#122028" d="M373.4,394.4c0,10.2-8.2,18.5-18.4,18.6c-10.3,0.1-18.7-8.3-18.7-18.6v-91.8h-50.1V392
			c0,36.9,29.9,66.8,66.8,66.8h3.1c36.9,0,66.8-29.9,66.8-66.8v-89.5h-49.6V394.4z"/>
		<polygon fill="#122028" points="508.5,355.1 475.7,302.6 425.6,302.6 483.5,402 483.5,457.2 533.5,457.2 533.5,402 591.4,302.6 
			541.3,302.6 		"/>
		<path fill="#122028" d="M586.2,436c0,3.3-2.7,6.1-6.1,6.1c-3.3,0-6.1-2.7-6.1-6.1s2.7-6.1,6.1-6.1
			C583.5,430,586.2,432.7,586.2,436"/>
		<path fill="#122028" d="M592.4,346.9h-3.6v-1.2h8.7v1.2h-3.6v10.6h-1.5V346.9z M599.7,345.7h2l3.8,9.2l3.7-9.2h2v11.7h-1.4v-9.9
			l-4.1,9.9h-0.5l-4.1-9.9v9.9h-1.3V345.7z"/>
	</g>
	
		<line fill="none" stroke="#808080" stroke-width="3" stroke-linecap="round" stroke-linejoin="round" stroke-miterlimit="10" x1="849.7" y1="184.8" x2="849.7" y2="427.2"/>
</g>
</svg>
