<?xml version="1.0" encoding="utf-8"?>
<!-- Generator: Adobe Illustrator 24.2.1, SVG Export Plug-In . SVG Version: 6.00 Build 0)  -->
<svg version="1.1" id="Capa_1" xmlns="http://www.w3.org/2000/svg" xmlns:xlink="http://www.w3.org/1999/xlink" x="0px" y="0px"
	 viewBox="0 0 227 222" enable-background="new 0 0 227 222" xml:space="preserve">
<g>
	<g>
		<g>
			<g>
				<g>
					<path fill="#2D2C2B" d="M212.8,210.3H14.2V11.7h198.7V210.3z M20.3,204.2h186.3V17.8H20.3V204.2z"/>
				</g>
			</g>
			<g>
				<path fill="#2D2C2B" d="M64.3,167.5c0,4-1.5,7.5-4.4,10.4c-2.9,2.9-6.4,4.3-10.4,4.3c-4.1,0-7.6-1.4-10.4-4.3
					c-2.9-2.9-4.3-6.4-4.3-10.4V144h5.5v12.7c2.7-2.6,6-3.9,9.7-3.9c3.9,0,7.3,1.5,10.1,4.4C62.9,160.1,64.3,163.6,64.3,167.5z
					 M58.8,167.5c0-2.5-0.9-4.7-2.7-6.5c-1.8-1.8-4-2.7-6.5-2.7c-2.5,0-4.7,0.9-6.5,2.7c-1.8,1.8-2.7,4-2.7,6.5
					c0,2.5,0.9,4.7,2.7,6.5c1.8,1.8,4,2.7,6.5,2.7c2.5,0,4.7-0.9,6.5-2.7C57.8,172.2,58.8,170,58.8,167.5z M67.3,153.2h5.5v28.6
					h-5.5V153.2z M105.6,178.6c-0.3,3.7-1.3,7.1-4,10c-3.2,3.3-7.9,5.2-12.5,4.6c-0.5-0.1-0.9-0.1-1.4-0.3c-1.3-0.3-2.6-0.8-3.8-1.5
					c-1.1-0.6-2.2-1.4-3-2.2c-0.9-0.9-1.7-1.8-2.4-2.9l4.7-3.1c2,3,4.7,4.6,7.9,4.6c5.4,0,8.8-4.2,9.2-9.4c-2.7,2.5-6,3.8-9.7,3.8
					c-4,0-7.3-1.5-10.1-4.4c-2.8-2.9-4.2-6.3-4.2-10.4c0-4,1.5-7.5,4.4-10.4c3-2.9,6.4-4.4,10.4-4.4c4,0,7.5,1.5,10.4,4.4
					c2.9,2.9,4.4,6.4,4.4,10.4c0,2.2,0,4.4,0,6.7C105.8,175.7,105.8,177.2,105.6,178.6z M100.2,167.5c0-2.5-0.9-4.7-2.7-6.5
					c-1.8-1.8-4-2.7-6.5-2.7c-2.5,0-4.7,0.9-6.5,2.7c-1.8,1.8-2.7,4-2.7,6.5c0,2.5,0.9,4.7,2.7,6.5c1.8,1.8,4,2.7,6.5,2.7
					C96,176.7,100.2,172.5,100.2,167.5z M137.8,167.5c0,4-1.5,7.5-4.4,10.4c-2.9,2.9-6.4,4.3-10.4,4.3c-4.1,0-7.6-1.4-10.4-4.3
					c-2.9-2.9-4.3-6.4-4.3-10.4V144h5.5v12.7c2.7-2.6,6-3.9,9.7-3.9c3.9,0,7.3,1.5,10.1,4.4C136.4,160.1,137.8,163.6,137.8,167.5z
					 M132.2,167.5c0-2.5-0.9-4.7-2.7-6.5c-1.8-1.8-4-2.7-6.5-2.7c-2.5,0-4.7,0.9-6.5,2.7c-1.8,1.8-2.7,4-2.7,6.5
					c0,2.5,0.9,4.7,2.7,6.5c1.8,1.8,4,2.7,6.5,2.7c2.5,0,4.7-0.9,6.5-2.7C131.3,172.2,132.2,170,132.2,167.5z M169,167.5
					c0,4-1.5,7.5-4.4,10.4c-2.9,2.9-6.4,4.3-10.4,4.3c-4.1,0-7.6-1.4-10.4-4.3c-2.9-2.9-4.3-6.4-4.3-10.4c0-4.1,1.4-7.5,4.3-10.4
					c2.9-2.9,6.4-4.4,10.4-4.4c4.1,0,7.5,1.5,10.4,4.4C167.5,160,169,163.5,169,167.5z M163.4,167.5c0-2.5-0.9-4.7-2.7-6.5
					c-1.8-1.8-4-2.7-6.5-2.7c-2.5,0-4.7,0.9-6.5,2.7c-1.8,1.8-2.7,4-2.7,6.5c0,2.5,0.9,4.7,2.7,6.5c1.8,1.8,4,2.7,6.5,2.7
					c2.5,0,4.7-0.9,6.5-2.7C162.5,172.2,163.4,170,163.4,167.5z M179.7,172.6l-6.1,9.2h-6.5l9.3-14.3l-9.3-14.3h6.5l6.1,9.2l6-9.2
					h6.5l-9.3,14.3l9.3,14.3h-6.5L179.7,172.6z M67.3,144.2h5.5v5.5h-5.5V144.2z"/>
			</g>
		</g>
	</g>
</g>
</svg>
