<?xml version="1.0" encoding="utf-8"?>
<!-- Generator: Adobe Illustrator 24.1.2, SVG Export Plug-In . SVG Version: 6.00 Build 0)  -->
<svg version="1.1" id="Layer_1" xmlns="http://www.w3.org/2000/svg" xmlns:xlink="http://www.w3.org/1999/xlink" x="0px" y="0px"
	 viewBox="0 0 158.33 50" style="enable-background:new 0 0 158.33 50;" xml:space="preserve">
<style type="text/css">
	.st0{fill:#888A8C;}
	.st1{fill:url(#SVGID_1_);}
	.st2{fill:url(#SVGID_2_);}
	.st3{fill:url(#SVGID_3_);}
	.st4{fill:url(#SVGID_4_);}
	.st5{fill:url(#SVGID_5_);}
	.st6{fill:url(#SVGID_6_);}
	.st7{fill:url(#SVGID_7_);}
	.st8{fill:url(#SVGID_8_);}
	.st9{fill:url(#SVGID_9_);}
</style>
<g>
	<g>
		<path class="st0" d="M59.02,49.05h-1.98v-5.31h1.98c1.67,0,2.82,1.15,2.82,2.65C61.84,47.89,60.69,49.05,59.02,49.05z
			 M59.02,44.59h-1.05v3.61h1.05c1.12,0,1.84-0.75,1.84-1.8C60.86,45.36,60.14,44.59,59.02,44.59z"/>
		<path class="st0" d="M65.51,49.14c-1.63,0-2.77-1.24-2.77-2.74c0-1.5,1.15-2.75,2.78-2.75c1.63,0,2.77,1.24,2.77,2.74
			C68.29,47.89,67.14,49.14,65.51,49.14z M65.51,44.51c-1.05,0-1.79,0.84-1.79,1.88s0.75,1.9,1.81,1.9c1.05,0,1.79-0.84,1.79-1.88
			S66.56,44.51,65.51,44.51z"/>
		<path class="st0" d="M71.89,49.14c-1.55,0-2.7-1.21-2.7-2.74c0-1.52,1.13-2.75,2.74-2.75c0.98,0,1.57,0.34,2.08,0.83l-0.6,0.69
			c-0.42-0.39-0.88-0.66-1.49-0.66c-1.02,0-1.75,0.83-1.75,1.88c0,1.05,0.74,1.9,1.75,1.9c0.65,0,1.07-0.27,1.52-0.69l0.6,0.61
			C73.49,48.78,72.88,49.14,71.89,49.14z"/>
		<path class="st0" d="M77.26,49.05h-0.94v-4.45h-1.68v-0.86h4.31v0.86h-1.68V49.05z"/>
		<path class="st0" d="M82.18,49.14c-1.63,0-2.77-1.24-2.77-2.74c0-1.5,1.15-2.75,2.78-2.75c1.63,0,2.77,1.24,2.77,2.74
			C84.96,47.89,83.81,49.14,82.18,49.14z M82.18,44.51c-1.05,0-1.79,0.84-1.79,1.88s0.75,1.9,1.81,1.9c1.05,0,1.79-0.84,1.79-1.88
			S83.23,44.51,82.18,44.51z"/>
		<path class="st0" d="M89.5,49.05l-1.3-1.85h-1.17v1.85h-0.93v-5.31h2.37c1.22,0,1.97,0.64,1.97,1.68c0,0.88-0.52,1.41-1.27,1.62
			l1.43,2.01H89.5z M88.38,44.59h-1.36v1.78h1.37c0.67,0,1.09-0.35,1.09-0.9C89.48,44.9,89.07,44.59,88.38,44.59z"/>
		<path class="st0" d="M95.51,44.58h-3v1.38h2.66v0.83h-2.66v1.43h3.04v0.83h-3.98v-5.31h3.94V44.58z"/>
		<path class="st0" d="M98.71,45.97c1.12,0.27,1.71,0.68,1.71,1.56c0,1-0.78,1.59-1.9,1.59c-0.81,0-1.58-0.28-2.22-0.85l0.56-0.67
			c0.51,0.44,1.02,0.69,1.68,0.69c0.58,0,0.94-0.27,0.94-0.68c0-0.39-0.21-0.59-1.2-0.82c-1.13-0.27-1.77-0.61-1.77-1.59
			c0-0.93,0.76-1.55,1.81-1.55c0.77,0,1.39,0.24,1.93,0.67l-0.5,0.71c-0.48-0.36-0.96-0.55-1.44-0.55c-0.55,0-0.86,0.28-0.86,0.64
			C97.45,45.55,97.69,45.73,98.71,45.97z"/>
		<path class="st0" d="M108.87,49.05h-0.99l-0.54-1.28h-2.51l-0.55,1.28h-0.96l2.34-5.35h0.86L108.87,49.05z M106.09,44.82
			l-0.91,2.12h1.83L106.09,44.82z"/>
		<path class="st0" d="M109.78,43.74h0.93v4.46h2.79v0.85h-3.73V43.74z"/>
		<path class="st0" d="M117.74,43.74v5.31h-0.93v-5.31H117.74z"/>
		<path class="st0" d="M122.87,43.74h0.92v5.31H123l-2.93-3.78v3.78h-0.92v-5.31h0.86l2.85,3.67V43.74z"/>
		<path class="st0" d="M127.2,45.97c1.12,0.27,1.71,0.68,1.71,1.56c0,1-0.78,1.59-1.9,1.59c-0.81,0-1.58-0.28-2.22-0.85l0.56-0.67
			c0.51,0.44,1.02,0.69,1.68,0.69c0.58,0,0.94-0.27,0.94-0.68c0-0.39-0.21-0.59-1.2-0.82c-1.13-0.27-1.77-0.61-1.77-1.59
			c0-0.93,0.76-1.55,1.81-1.55c0.77,0,1.39,0.24,1.93,0.67l-0.5,0.71c-0.48-0.36-0.96-0.55-1.44-0.55c-0.55,0-0.86,0.28-0.86,0.64
			C125.94,45.55,126.18,45.73,127.2,45.97z"/>
		<path class="st0" d="M132.14,49.05h-0.94v-4.45h-1.68v-0.86h4.31v0.86h-1.68V49.05z"/>
		<path class="st0" d="M139.21,49.05h-0.99l-0.54-1.28h-2.51l-0.55,1.28h-0.96l2.34-5.35h0.86L139.21,49.05z M136.42,44.82
			l-0.91,2.12h1.83L136.42,44.82z"/>
		<path class="st0" d="M143.83,43.74h0.92v5.31h-0.78l-2.93-3.78v3.78h-0.92v-5.31h0.86l2.85,3.67V43.74z"/>
		<path class="st0" d="M148.36,49.05h-0.94v-4.45h-1.68v-0.86h4.31v0.86h-1.68V49.05z"/>
		<path class="st0" d="M154.96,44.58h-3v1.38h2.66v0.83h-2.66v1.43H155v0.83h-3.98v-5.31h3.94V44.58z"/>
	</g>
	<g>
		<linearGradient id="SVGID_1_" gradientUnits="userSpaceOnUse" x1="20.3259" y1="-29.5825" x2="34.7538" y2="78.3596">
			<stop  offset="0" style="stop-color:#00FFA8"/>
			<stop  offset="1" style="stop-color:#299BFF"/>
		</linearGradient>
		<path class="st1" d="M40.28,49.4H14.96C8.53,49.4,3.3,44.15,3.3,37.7V12.3c0-6.45,5.23-11.7,11.66-11.7h25.32
			c6.43,0,11.66,5.25,11.66,11.7v2.56c0,0.74-0.6,1.34-1.34,1.34s-1.34-0.6-1.34-1.34V12.3c0-4.98-4.03-9.02-8.99-9.02H14.96
			c-4.96,0-8.99,4.05-8.99,9.02v25.4c0,4.98,4.03,9.02,8.99,9.02h25.32c3.62,0,6.87-2.16,8.28-5.51c0.29-0.68,1.07-1,1.75-0.71
			c0.68,0.29,1,1.07,0.71,1.75C49.2,46.59,44.98,49.4,40.28,49.4z"/>
	</g>
	<g>
		<g>
			<linearGradient id="SVGID_2_" gradientUnits="userSpaceOnUse" x1="79.4932" y1="-16.8916" x2="85.6582" y2="54.5665">
				<stop  offset="0" style="stop-color:#00FFA8"/>
				<stop  offset="1" style="stop-color:#299BFF"/>
			</linearGradient>
			<path class="st2" d="M35.94,18.4l-0.1-0.02l-6.5,19.28h-3.27l-6.47-19.21l-0.1,0.02l0.47,11.43V34l2.6,0.54v3.13H12.52v-3.13
				L15.11,34V15.31l-2.58-0.54v-3.15h2.58h6.35l6.18,19.19h0.1l6.23-19.19h8.97v3.15l-2.6,0.54V34l2.6,0.54v3.13H32.89v-3.13
				L35.48,34v-4.1L35.94,18.4z"/>
			<linearGradient id="SVGID_3_" gradientUnits="userSpaceOnUse" x1="79.4932" y1="-16.8916" x2="85.6582" y2="54.5665">
				<stop  offset="0" style="stop-color:#00FFA8"/>
				<stop  offset="1" style="stop-color:#299BFF"/>
			</linearGradient>
			<path class="st3" d="M52.43,38.02c-2.6,0-4.68-0.83-6.23-2.5c-1.56-1.67-2.33-3.78-2.33-6.35V28.5c0-2.68,0.74-4.88,2.21-6.62
				c1.47-1.73,3.45-2.59,5.93-2.58c2.43,0,4.32,0.73,5.67,2.2c1.34,1.47,2.02,3.45,2.02,5.95v2.65H48.91l-0.03,0.1
				c0.09,1.19,0.49,2.17,1.19,2.93c0.71,0.77,1.66,1.15,2.88,1.15c1.08,0,1.97-0.11,2.68-0.32c0.71-0.22,1.49-0.56,2.33-1.03l1.32,3
				c-0.74,0.59-1.71,1.08-2.89,1.48C55.21,37.82,53.89,38.02,52.43,38.02z M52,23.05c-0.9,0-1.61,0.34-2.13,1.03
				c-0.52,0.69-0.84,1.59-0.97,2.72l0.05,0.08h5.97v-0.43c0-1.03-0.24-1.86-0.73-2.48C53.71,23.36,52.98,23.05,52,23.05z"/>
			<linearGradient id="SVGID_4_" gradientUnits="userSpaceOnUse" x1="79.4932" y1="-16.8916" x2="85.6582" y2="54.5665">
				<stop  offset="0" style="stop-color:#00FFA8"/>
				<stop  offset="1" style="stop-color:#299BFF"/>
			</linearGradient>
			<path class="st4" d="M73.18,35.47c-0.57,0.83-1.24,1.47-2.01,1.9c-0.77,0.43-1.65,0.65-2.64,0.65c-2.22,0-3.95-0.81-5.18-2.43
				c-1.23-1.62-1.84-3.77-1.84-6.43V28.8c0-2.84,0.62-5.14,1.85-6.88c1.23-1.74,2.97-2.62,5.2-2.62c0.9,0,1.71,0.2,2.43,0.59
				c0.72,0.39,1.36,0.95,1.9,1.68V15.1l-2.6-0.5v-2.93h2.6h4.87v22.59l2.33,0.5v2.92h-6.55L73.18,35.47z M66.38,29.15
				c0,1.58,0.26,2.82,0.79,3.73c0.53,0.91,1.39,1.36,2.59,1.36c0.71,0,1.33-0.14,1.85-0.43c0.52-0.29,0.95-0.71,1.28-1.25V24.9
				c-0.33-0.58-0.76-1.03-1.28-1.34c-0.52-0.32-1.13-0.48-1.83-0.48c-1.19,0-2.06,0.53-2.6,1.58c-0.54,1.06-0.82,2.43-0.82,4.13
				V29.15z"/>
			<linearGradient id="SVGID_5_" gradientUnits="userSpaceOnUse" x1="79.4932" y1="-16.8916" x2="85.6582" y2="54.5665">
				<stop  offset="0" style="stop-color:#00FFA8"/>
				<stop  offset="1" style="stop-color:#299BFF"/>
			</linearGradient>
			<path class="st5" d="M81.34,34.75l2.35-0.5V23.06l-2.6-0.5v-2.93h7.47v14.62l2.33,0.5v2.92h-9.55V34.75z M88.56,15.31h-4.87
				v-3.65h4.87V15.31z"/>
			<linearGradient id="SVGID_6_" gradientUnits="userSpaceOnUse" x1="79.4932" y1="-16.8916" x2="85.6582" y2="54.5665">
				<stop  offset="0" style="stop-color:#00FFA8"/>
				<stop  offset="1" style="stop-color:#299BFF"/>
			</linearGradient>
			<path class="st6" d="M99.98,34.28c0.87,0,1.56-0.25,2.08-0.76c0.52-0.51,0.78-1.18,0.78-2.03h4.4l0.05,0.1
				c0.04,1.82-0.64,3.35-2.05,4.58c-1.41,1.23-3.17,1.84-5.27,1.84c-2.69,0-4.76-0.85-6.22-2.55c-1.46-1.7-2.18-3.88-2.18-6.55v-0.5
				c0-2.66,0.75-4.84,2.24-6.55c1.49-1.71,3.63-2.57,6.39-2.57c1.46,0,2.76,0.22,3.92,0.65c1.16,0.43,2.12,1.04,2.88,1.83l0.07,4.82
				h-3.95l-0.8-2.82c-0.24-0.21-0.54-0.39-0.9-0.53c-0.36-0.14-0.76-0.21-1.22-0.21c-1.38,0-2.35,0.5-2.92,1.5
				c-0.57,1-0.85,2.29-0.85,3.87v0.5c0,1.61,0.26,2.91,0.78,3.89C97.75,33.79,98.67,34.28,99.98,34.28z"/>
			<linearGradient id="SVGID_7_" gradientUnits="userSpaceOnUse" x1="79.4932" y1="-16.8916" x2="85.6582" y2="54.5665">
				<stop  offset="0" style="stop-color:#00FFA8"/>
				<stop  offset="1" style="stop-color:#299BFF"/>
			</linearGradient>
			<path class="st7" d="M120.29,37.67c-0.13-0.3-0.25-0.61-0.35-0.93c-0.1-0.32-0.18-0.64-0.23-0.96c-0.58,0.67-1.28,1.21-2.11,1.62
				c-0.83,0.41-1.78,0.62-2.84,0.62c-1.77,0-3.17-0.48-4.21-1.44c-1.04-0.96-1.56-2.27-1.56-3.93c0-1.69,0.68-2.99,2.03-3.92
				c1.36-0.92,3.35-1.38,5.97-1.38h2.48v-1.77c0-0.87-0.25-1.54-0.75-2.02c-0.5-0.48-1.24-0.72-2.22-0.72
				c-0.56,0-1.05,0.06-1.48,0.19c-0.43,0.13-0.78,0.28-1.05,0.46l-0.32,1.93h-3.67l0.02-4c0.89-0.6,1.91-1.11,3.06-1.52
				c1.15-0.41,2.4-0.62,3.76-0.62c2.23,0,4.05,0.55,5.44,1.64c1.39,1.09,2.09,2.65,2.09,4.68v7.45c0,0.28,0,0.54,0.01,0.78
				c0.01,0.24,0.02,0.48,0.06,0.7l1.48,0.2v2.92H120.29z M116.07,34.42c0.73,0,1.4-0.16,2-0.48c0.6-0.32,1.07-0.71,1.4-1.19V30
				h-2.48c-1.03,0-1.82,0.24-2.35,0.73c-0.53,0.48-0.8,1.06-0.8,1.74c0,0.61,0.2,1.09,0.59,1.43
				C114.82,34.24,115.37,34.42,116.07,34.42z"/>
			<linearGradient id="SVGID_8_" gradientUnits="userSpaceOnUse" x1="79.4932" y1="-16.8916" x2="85.6582" y2="54.5665">
				<stop  offset="0" style="stop-color:#00FFA8"/>
				<stop  offset="1" style="stop-color:#299BFF"/>
			</linearGradient>
			<path class="st8" d="M133.61,15.21v4.42h3.17v3.42h-3.17v9.19c0,0.7,0.14,1.2,0.43,1.5c0.29,0.3,0.68,0.45,1.17,0.45
				c0.33,0,0.63-0.01,0.88-0.04c0.25-0.03,0.53-0.08,0.84-0.14l0.42,3.52c-0.54,0.17-1.08,0.29-1.62,0.38
				c-0.53,0.08-1.11,0.12-1.73,0.12c-1.68,0-2.97-0.46-3.88-1.38c-0.91-0.92-1.36-2.38-1.36-4.38v-9.2h-2.65v-3.42h2.65v-4.42
				H133.61z"/>
			<linearGradient id="SVGID_9_" gradientUnits="userSpaceOnUse" x1="79.4932" y1="-16.8916" x2="85.6582" y2="54.5665">
				<stop  offset="0" style="stop-color:#00FFA8"/>
				<stop  offset="1" style="stop-color:#299BFF"/>
			</linearGradient>
			<path class="st9" d="M138.01,28.48c0-2.69,0.75-4.89,2.26-6.61c1.51-1.72,3.59-2.58,6.24-2.58c2.67,0,4.75,0.86,6.26,2.57
				c1.51,1.71,2.26,3.92,2.26,6.62v0.35c0,2.71-0.75,4.92-2.26,6.63c-1.51,1.71-3.58,2.56-6.23,2.56c-2.68,0-4.77-0.85-6.28-2.56
				c-1.51-1.71-2.26-3.91-2.26-6.63V28.48z M142.88,28.83c0,1.64,0.29,2.96,0.87,3.96c0.58,0.99,1.51,1.49,2.8,1.49
				c1.26,0,2.18-0.5,2.76-1.5c0.58-1,0.88-2.32,0.88-3.95v-0.35c0-1.6-0.29-2.91-0.88-3.92c-0.59-1.01-1.52-1.52-2.78-1.52
				c-1.27,0-2.19,0.51-2.77,1.52c-0.58,1.01-0.87,2.32-0.87,3.92V28.83z"/>
		</g>
	</g>
</g>
</svg>
