<?xml version="1.0" encoding="UTF-8"?>
<svg width="109px" height="83px" viewBox="0 0 109 83" version="1.1" xmlns="http://www.w3.org/2000/svg" xmlns:xlink="http://www.w3.org/1999/xlink">
    <!-- Generator: Sketch 59.1 (86144) - https://sketch.com -->
    <title>Group 14 Copy 2</title>
    <desc>Created with Sketch.</desc>
    <defs>
        <polygon id="path-1" points="0 0.252177778 108.849873 0.252177778 108.849873 33.90625 0 33.90625"></polygon>
    </defs>
    <g id="Welcome" stroke="none" stroke-width="1" fill="none" fill-rule="evenodd">
        <g id="Home-Promos---desktop" transform="translate(-267.000000, -666.000000)">
            <g id="Group-14-Copy-2" transform="translate(267.000000, 666.000000)">
                <g id="Group-3" transform="translate(0.000000, 49.000000)">
                    <mask id="mask-2" fill="white">
                        <use xlink:href="#path-1"></use>
                    </mask>
                    <g id="Clip-2"></g>
                    <path d="M108.850017,9.85504935 C108.779268,10.2590988 108.738429,10.5786652 108.666241,10.8914504 C107.314526,16.7529934 104.519352,21.8561665 100.211695,26.1195949 C96.259223,30.0318111 91.4600594,32.4083566 85.952252,33.4297824 C83.4400752,33.8957108 80.9048905,34.0044934 78.3697058,33.8208345 C72.6999802,33.4102863 67.4515871,31.7209074 62.7292124,28.5732772 C59.7295554,26.5739387 57.2306082,24.0917186 55.4126953,20.9867538 C55.0810937,20.4202368 54.7894683,19.8308332 54.4581544,19.2120441 C54.3934446,19.2843775 54.323558,19.3346717 54.2916346,19.4024842 C52.4909776,23.2036574 49.7021306,26.1650858 46.215281,28.5181796 C42.4316293,31.0716027 38.246777,32.6524816 33.7329116,33.4354335 C31.2172836,33.8716939 28.6832493,34.013535 26.1486398,33.8245077 C18.5560277,33.2577082 12.1701807,30.240052 7.17228628,24.5471926 C3.81111741,20.7186118 1.5258562,16.3308605 0.323405013,11.4082382 C0.200312665,10.9052954 0.107130607,10.3952889 -0.000143799472,9.88867305 L0.110006596,9.82933711 C0.372009235,10.0517056 0.637463061,10.2704009 0.895439314,10.4967251 C2.0449723,11.5051535 3.23994591,12.4531158 4.57469261,13.2191145 C6.50361873,14.3264361 8.5559248,14.9765884 10.8178905,14.8364426 C12.2210858,14.7494165 13.5474921,14.3688189 14.823281,13.8000415 C16.5411095,13.0340428 18.0748747,11.9832316 19.5292625,10.8202473 C21.4691174,9.26875378 23.3612309,7.65848945 25.3212177,6.13242565 C27.4287427,4.49192826 29.6294499,2.97744909 32.0513206,1.80203242 C33.625062,1.03801159 35.271566,0.49974987 37.0227559,0.327393099 C39.2939248,0.104176953 41.4877296,0.429959505 43.6067586,1.27281237 C45.4269723,1.99699336 47.0507559,3.04752201 48.6155818,4.18535924 C50.2385026,5.3655793 51.8205844,6.5997668 53.420785,7.81078503 C53.4501201,7.83282409 53.4783047,7.85627591 53.5076398,7.87859753 C54.2648879,8.45698164 54.5798087,8.46602331 55.3310172,7.89498555 C56.517938,6.99279674 57.6890409,6.06969909 58.8831517,5.17655195 C60.5497876,3.93021471 62.2414446,2.71750117 64.1177401,1.78253633 C66.0817533,0.803493359 68.1659828,0.268339714 70.3684156,0.252516797 C72.4558087,0.237541536 74.4399538,0.719292839 76.3340805,1.57712096 C78.3984657,2.51208581 80.3032335,3.7109543 82.0949749,5.0672043 C84.1044288,6.58846471 86.0485976,8.1942082 88.0140488,9.77169648 C89.5644947,11.0160559 91.1140778,12.2606978 92.8741834,13.2191145 C94.2281992,13.9562928 95.6486504,14.5089647 97.1890303,14.7423527 C99.1924446,15.0460962 101.096637,14.7172056 102.93008,13.9088241 C104.690474,13.1329361 106.215611,12.0140298 107.654756,10.7702355 C107.932864,10.5297837 108.209822,10.287354 108.493682,10.0536835 C108.571334,9.98954414 108.672281,9.95224727 108.850017,9.85504935" id="Fill-1" fill="#F26354" mask="url(#mask-2)"></path>
                </g>
                <path d="M36.1223249,27.3777903 C36.1223249,27.6852597 36.10623,27.9941344 36.1279723,28.3001985 C36.1429378,28.5140781 36.1872696,28.7321734 36.2578616,28.9348109 C36.3815388,29.2889347 36.5568893,29.3507658 36.8830244,29.1568409 C37.0685402,29.046669 37.2492557,28.91317 37.3960871,28.7569058 C37.718269,28.413743 38.0396038,28.0660834 38.3222542,27.6908808 C39.2441858,26.4666242 39.9060564,25.0967834 40.5281132,23.7058638 C41.6047825,21.2975408 42.4213908,18.8099616 42.7328427,16.1838245 C42.8152942,15.4904725 42.8068231,14.7684535 42.7130769,14.0767878 C42.5981532,13.2266096 42.2293805,13.1116599 41.619748,13.7288471 C41.0753424,14.2797064 40.5566324,14.8786253 40.1421161,15.5295386 C38.6232585,17.9139722 37.5516719,20.5030107 36.7788306,23.2137441 C36.3914217,24.573186 36.1065123,25.9545499 36.1223249,27.3777903 L36.1223249,27.3777903 Z M79.2020846,28.003128 C79.2486753,28.341513 79.2650527,28.6874863 79.3497631,29.0163156 C79.4466153,29.3912371 79.6132124,29.4496957 79.9506422,29.2731959 C80.1101801,29.1897238 80.2745183,29.0933234 80.396219,28.9651644 C80.8321952,28.5064897 81.3037498,28.0683318 81.6677222,27.5562575 C84.1031463,24.1310934 85.7476577,20.3593938 86.5653955,16.2389104 C86.6989556,15.5669183 86.8107733,14.8887431 86.7034735,14.194267 C86.5735842,13.3536445 86.3050522,13.2134003 85.6787599,13.7828089 C85.093411,14.3159619 84.5368636,14.9025146 84.0709564,15.5402185 C82.1135813,18.2177879 80.8231594,21.2165983 79.9113931,24.38432 C79.571422,25.5652948 79.2721119,26.7586358 79.2020846,28.003128 L79.2020846,28.003128 Z M58.190233,28.0053764 C58.190233,28.2043603 58.1857151,28.4033441 58.1924919,28.6020469 C58.195598,28.691421 58.2162108,28.7810762 58.2379532,28.8684829 C58.3740545,29.4179369 58.5940192,29.5309193 59.0314073,29.1843838 C59.482349,28.8268874 59.9293376,28.4342597 60.2743913,27.9789577 C62.9105792,24.500675 64.6095876,20.5968816 65.4846461,16.3369971 C65.6179238,15.6877701 65.6515256,15.0115623 65.660279,14.3465964 C65.6642321,14.0478396 65.687104,13.62261 65.3284966,13.4888299 C64.9825957,13.3595466 64.7019219,13.6518393 64.4884517,13.8828629 C63.8999967,14.5202857 63.2849992,15.1467476 62.7883138,15.8527468 C60.9455801,18.4718577 59.7099377,21.3779213 58.8351615,24.4424975 C58.5022496,25.6080145 58.22327,26.7864598 58.190233,28.0053764 L58.190233,28.0053764 Z M67.8203944,28.8322274 C70.1298824,27.5950425 71.8737873,25.8603979 72.7217385,23.3315043 C73.803208,20.105324 74.9609169,16.9072488 76.299059,13.7760636 C76.5548844,13.1768637 76.8471353,12.5922784 77.0860186,11.9866142 C77.6962159,10.4391494 79.1326221,9.88491756 80.6768928,10.0667573 C81.8814748,10.2086879 82.393408,10.5122226 83.4658417,11.5568878 C83.7818115,11.2994454 84.0969343,11.0330094 84.4225046,10.7795017 C85.3306001,10.0718162 86.2914985,9.46418475 87.435089,9.19409509 C88.2409673,9.00382381 89.054752,8.9360906 89.8691014,9.07324332 C91.2128908,9.29920803 92.1904489,10.0563584 92.8509077,11.2283396 C93.3388396,12.0948187 93.5715109,13.0377436 93.6703397,14.0200156 C93.9055522,16.3527359 93.4563047,18.5963631 92.7534907,20.7998002 C91.8730672,23.5585932 90.6713089,26.1639326 88.9231685,28.4974961 C88.8698009,28.568883 88.8350697,28.6543223 88.7921497,28.7332976 C88.7704074,28.7813572 88.7481003,28.8291358 88.7257932,28.8766334 C88.7794432,28.8606135 88.8333755,28.8443126 88.8870254,28.8282927 C91.3998184,27.4519877 93.3278273,25.5787852 94.1379411,22.7441085 C95.0353067,19.6044918 96.1783324,16.5562166 97.6099383,13.6181132 C97.911225,12.9995207 98.2418779,12.3949808 98.5691425,11.7895977 C99.3202414,10.4000834 100.571414,9.96923275 102.054129,10.0496132 C102.482481,10.0729404 102.912527,10.198289 103.325914,10.3270102 C103.856484,10.4917059 104.299801,10.8118226 104.664339,11.2314312 C105.132222,11.7702052 105.280183,12.379523 105.000639,13.0478614 C104.637514,13.916589 104.226951,14.765924 103.876532,15.6394294 C102.993849,17.8400559 102.112579,20.0418066 101.273099,22.2592961 C100.876089,23.3084582 100.595698,24.400902 100.490092,25.5234182 C100.453384,25.9143597 100.464961,26.3187915 100.524541,26.7066414 C100.575932,27.0408106 100.770201,27.1327142 101.082218,26.9989341 C101.345103,26.8862328 101.599516,26.7294065 101.819763,26.5470047 C102.87469,25.6749045 103.785609,24.6662138 104.600241,23.5703973 C104.957437,23.0900818 105.292607,22.5934653 105.659968,22.1213003 C106.131523,21.5156361 106.953496,21.4088369 107.552399,21.8523348 C107.976516,22.1665494 108.113182,22.6752511 107.902253,23.1589392 C107.88051,23.2086852 107.855662,23.257588 107.826578,23.3031182 C106.197879,25.8629274 104.471199,28.3488203 102.270987,30.46738 C101.354703,31.3493169 100.384486,32.1730763 99.2807099,32.8211791 C98.2568435,33.4220654 97.1598437,33.7596072 95.9555441,33.6983382 C94.7577389,33.6376312 93.8812686,33.0988571 93.3710296,32.0061323 C93.0674839,31.3560621 92.9469128,30.6629913 92.9116168,29.9530573 C92.9017339,29.7577272 92.910205,29.5615538 92.910205,29.379433 C92.5908467,29.2456529 92.454463,29.4721797 92.2994429,29.5933125 C91.2072434,30.4457391 90.0385222,31.1773139 88.8028797,31.8015274 C87.2069356,32.6075806 85.5525414,33.2495003 83.7727758,33.5316751 C82.3990553,33.7489273 81.0157344,33.7775944 79.6372137,33.6620826 C78.5944286,33.5743948 77.7281235,33.1008245 77.1529399,32.1848805 C77.0888423,32.0828591 76.9953785,31.9988249 76.8663363,31.8495871 C76.7765433,32.0170932 76.6892916,32.1278272 76.6537132,32.2531758 C75.73517,35.4714866 74.7604356,38.6749018 74.0508448,41.9485796 C73.9971948,42.1959042 73.9683933,42.4491308 73.9062723,42.694207 C73.7439107,43.3310677 73.3257237,43.721166 72.6954783,43.8948553 C71.9810872,44.0913097 71.279685,43.9980009 70.609908,43.7349375 C69.250306,43.2006602 68.2484643,42.3263117 67.9488718,40.8212855 C67.8359246,40.2538443 67.9163995,39.6998935 68.0623838,39.1566226 C68.7841164,36.4661248 69.5179909,33.7784376 70.2467828,31.0899072 C70.3055153,30.8729361 70.35973,30.6548408 70.4190273,30.4252224 C70.0954335,30.3361294 69.9449314,30.5272438 69.7740987,30.6365725 C68.2377343,31.6210929 66.6135534,32.4271461 64.8817904,33.0080778 C62.8493053,33.6899066 60.7493343,33.8228436 58.6301623,33.6693899 C57.585683,33.5937873 56.7134482,33.1337074 56.1221696,32.2298486 C56.0462126,32.1140557 55.949078,32.0120343 55.7985758,31.8254167 C55.7014412,32.0331131 55.6167308,32.1629585 55.577764,32.3051701 C54.7546612,35.3244971 53.9349469,38.3449484 53.119468,41.3665238 C53.0440758,41.645326 52.9768722,41.9303114 52.9463764,42.216702 C52.8077337,43.5196527 51.9888665,44.070793 50.6645604,43.9797326 C49.3868451,43.8920448 48.3338948,43.3007143 47.5446762,42.2942719 C46.946056,41.5303763 46.6797829,40.6475962 46.9110423,39.6923051 C47.4170458,37.6010073 47.9569335,35.5172979 48.4976682,33.4341506 C48.688549,32.6992031 48.924044,31.9754977 49.1341258,31.2453282 C49.1663157,31.13347 49.1699865,31.0134614 49.2050001,30.7748494 C48.9971773,30.8962633 48.8743472,30.9491008 48.7743889,31.0300434 C48.3228824,31.3954092 47.8866238,31.7804486 47.4286229,32.137664 C46.4863608,32.8723303 45.4585412,33.453543 44.25763,33.6269513 C43.7414613,33.7017108 43.1987499,33.7205412 42.683993,33.6499974 C41.5548033,33.4951385 40.8282704,32.8043161 40.4177073,31.7635856 C40.0729359,30.888956 39.862007,30.8467984 39.1718996,31.4965875 C37.9944249,32.6053322 36.6342582,33.3796267 35.0193954,33.6320102 C32.6887298,33.9962518 30.9067052,33.1103802 29.8534725,31.0783841 C29.3277032,30.0635102 29.1020912,28.968818 29.0306521,27.8392755 C28.8691376,25.2876167 29.3607403,22.8287047 30.156171,20.4234733 C30.8745153,18.2503898 31.781199,16.1602162 33.0693619,14.249915 C34.2248118,12.5369114 35.6832427,11.1454297 37.481927,10.1179085 C38.7672662,9.38380427 40.1407043,8.96588197 41.642055,9.01113112 C43.4830945,9.0670602 44.7650454,10.0296586 45.3057801,11.7873493 C45.3410761,11.902299 45.3933142,12.0121898 45.4605178,12.1825065 C45.5793947,11.9995426 45.6734233,11.8708214 45.7507921,11.7328255 C46.4883374,10.4208811 47.6830365,9.96867065 49.1039124,10.048489 C49.6539653,10.0794046 50.2153129,10.2441003 50.7306346,10.4492672 C51.1053369,10.5982241 51.4484141,10.8778695 51.7434887,11.1631359 C52.3051187,11.7064067 52.4482792,12.3733399 52.1356978,13.1046337 C51.7725726,13.9539687 51.3733042,14.788408 51.0296623,15.6450504 C50.1469799,17.8459579 49.2659916,20.0477086 48.4265115,22.2651982 C48.0292197,23.3143602 47.7533461,24.4076472 47.6437873,25.5296013 C47.6073619,25.9031176 47.6090561,26.2906865 47.6663768,26.6605491 C47.7276506,27.0543011 47.9210727,27.1394594 48.2946456,26.97645 C48.5242108,26.876396 48.7436108,26.7355896 48.9398566,26.5787634 C50.4076055,25.405658 51.4642267,23.9517831 52.0673648,22.1595231 C53.2225324,18.7264896 54.4996829,15.3387052 56.0111989,12.0428244 C56.1755371,11.6847658 56.3723476,11.3224916 56.6307144,11.0293558 C57.409203,10.1462947 58.456506,9.96164438 59.5650829,10.0563584 C60.7021789,10.1533209 61.6486765,10.6507805 62.3859394,11.5807771 C62.5418066,11.4500886 62.6764961,11.3345768 62.8140093,11.2221565 C63.7864848,10.4262211 64.7792908,9.66569806 66.0121095,9.29471122 C66.9317822,9.01759529 67.8683969,8.91669811 68.8148945,9.07521067 C70.1821205,9.30426694 71.1627846,10.0867119 71.8212669,11.2823013 C72.4306171,12.3896408 72.639287,13.600407 72.6720417,14.8404024 C72.7265387,16.908373 72.3086341,18.9052378 71.675565,20.8630365 C70.7948591,23.5855741 69.6052426,26.1563443 67.8890098,28.4674237 C67.8249122,28.5537062 67.7777568,28.652636 67.7229774,28.7456638 C67.7145063,28.7869782 67.7057529,28.8280116 67.6967172,28.8693261 L67.8203944,28.8322274 Z" id="Fill-4" fill="#F26354"></path>
                <path d="M14.211203,20.0077531 C14.442924,19.9538454 14.5690365,19.9489446 14.672679,19.8967665 C17.5437731,18.4467343 19.8778361,16.4068878 21.2948455,13.4041968 C22.1388719,11.6160159 22.4222738,9.73328026 21.9773693,7.77126847 C21.674868,6.43597041 20.8642656,5.54605998 19.6433063,5.04128733 C18.4015623,4.52786638 17.1028009,4.48837246 15.7967368,4.64000605 C12.9997934,4.96547054 10.8373444,6.50573339 8.97571146,8.53779644 C7.36602251,10.2951317 6.20517023,12.3407438 5.62797414,14.6985596 C5.50579395,15.1984315 5.46450547,15.7219422 5.41759951,16.2373811 C5.31929361,17.3218783 4.80332805,17.8113723 3.74836527,17.8837298 C1.99177922,18.0045177 0.475340442,16.3803663 0.146998725,14.9043892 C-0.12235945,13.6924736 -0.0170316965,12.5139981 0.425906616,11.3551254 C1.30813188,9.04804635 2.75968876,7.17021138 4.59520041,5.60659811 C7.2354161,3.35688609 10.2427341,1.86620684 13.6441184,1.30608505 C17.2634608,0.710216935 20.8229772,0.94545079 24.2563811,2.35627737 C26.1918839,3.15134474 27.854658,4.33616232 29.060731,6.12261355 C29.7912843,7.20509287 30.1614762,8.41210776 30.2151232,9.72203747 C30.3277536,12.4770987 29.3882301,14.8487518 27.6917511,16.9370288 C26.0351562,18.9760105 23.9432065,20.4171061 21.6127949,21.505351 C20.6269271,21.9654407 19.5983665,22.3280929 18.5891862,22.7348515 C18.5063283,22.7682916 18.4237514,22.8017317 18.2875275,22.8565043 C18.2875275,23.0309117 18.2776969,23.2110847 18.2892127,23.3895281 C18.4439743,25.7660819 18.7537783,28.1161142 19.4795568,30.3888884 C20.1162982,32.3831872 20.9954338,34.2471848 22.4000847,35.804456 C24.124932,37.7165959 26.2382281,38.677999 28.7986755,38.457179 C30.2628717,38.3309138 31.6127522,37.8097093 32.8969082,37.0921884 C33.1159899,36.9696708 33.3524858,36.8488828 33.5940375,36.8070827 C34.1358435,36.7133927 34.6119249,36.9863908 34.8546,37.4721372 C35.1079484,37.9797926 35.0321124,38.5344372 34.6122058,38.9518619 C34.3009974,39.2614712 33.9622633,39.5431176 33.6238101,39.8218813 C31.8200373,41.3079481 29.8836918,42.5596459 27.6765839,43.322138 C25.6099129,44.0361996 23.5092562,44.2434706 21.3791077,43.6654756 C19.1059943,43.0485633 17.3151417,41.6881852 15.8793137,39.8066026 C14.311475,37.7523423 13.3348761,35.4051927 12.7450407,32.8917074 C12.4242825,31.5246989 12.2397483,30.1236737 11.9908939,28.7385038 C11.9698284,28.6203103 11.9276973,28.506441 11.8973629,28.3989137 C11.6187359,28.4026613 11.6268812,28.6139682 11.5900867,28.7555121 C11.3145493,29.8126231 11.0426633,30.8711754 10.7862253,31.9331871 C10.5300682,32.9951988 10.2916062,34.0618229 10.0475267,35.1270056 C9.85316186,35.9745393 9.36078972,36.4597092 8.53333489,36.5727137 C6.77337835,36.8128482 5.3355843,36.1622075 4.17978775,34.8300805 C3.71016641,34.2886967 3.4983874,33.6178766 3.48490545,32.8824825 C3.46159291,31.6440455 3.72786147,30.4482734 3.99160216,29.2550958 C4.89264599,25.175691 6.19281177,21.2213984 7.5735884,17.2927624 C8.5310879,14.5679702 9.60149875,11.891032 10.7483073,9.24436284 C11.2047276,8.19128775 11.9594361,7.68939787 13.0537212,7.59916723 C14.3033297,7.4965407 15.5456354,7.47463166 16.7840089,7.70582964 C16.837375,7.71591933 16.8913028,7.7225497 16.9449497,7.73033317 C18.2142194,7.91713653 18.4605459,9.00365172 18.0535594,9.90076907 C16.6483468,12.9985914 15.5091218,16.2088417 14.3797274,19.4211099 C14.3257996,19.5741848 14.289286,19.7333136 14.211203,20.0077531" id="Fill-6" fill="#F26354"></path>
                <path d="M104.505769,8.99879785 C102.008804,8.9993379 99.9930096,6.9828054 100,4.4915723 C100.007027,2.00168931 102.029291,0.00486849876 104.530029,0 C106.735866,-0.00431228657 109.014754,1.72356552 109,4.54233664 C108.985372,7.30089261 106.694084,9.05253245 104.505769,8.99879785" id="Fill-8" fill="#F26354"></path>
                <path d="M89.0819657,30.0228946 C89.0273219,30.0390883 88.9726781,30.0550028 88.9180343,30.0711966 C88.940467,30.0237322 88.9631873,29.9762678 88.9853325,29.9288034 C89.0172559,29.9600741 89.0497546,29.9913447 89.0819657,30.0228946" id="Fill-10" fill="#FFFFFF"></path>
                <path d="M67.0629842,30.0245698 L66.9370158,30.0614245 C66.946219,30.0203818 66.9551346,29.9796182 66.9637625,29.9385755 C66.9965488,29.9670541 67.0296227,29.995812 67.0629842,30.0245698" id="Fill-12" fill="#FFFFFF"></path>
            </g>
        </g>
    </g>
</svg>