<?xml version="1.0" encoding="UTF-8"?>
<svg width="1490px" height="758px" viewBox="0 0 1490 758" version="1.1" xmlns="http://www.w3.org/2000/svg" xmlns:xlink="http://www.w3.org/1999/xlink">
    <title>Group 2</title>
    <g id="Welcome" stroke="none" stroke-width="1" fill="none" fill-rule="evenodd">
        <g id="Transferencias---desktop" transform="translate(28.000000, -1196.000000)" fill="#DEE8FF">
            <g id="Group-2" transform="translate(717.000000, 1575.000000) scale(-1, 1) translate(-717.000000, -1575.000000) translate(-28.000000, 1196.000000)">
                <rect id="Rectangle" x="3" y="63" width="1475" height="695"></rect>
                <path d="M281.754215,2.72825202 C531.245682,16.7938206 751.415947,53.1636888 980.022104,53.1636888 C1105.49645,53.1636888 1274.15575,42.5858346 1486,21.4301262 L1481.52022,63 L0.975442617,63 C-0.325147539,30.0340876 -0.325147539,12.2975818 0.975442617,9.79048266 C59.9401855,0.205916316 148.691418,-2.73698734 281.754215,2.72825202 Z" id="Rectangle-2-Copy-4" transform="translate(743.000000, 31.500000) scale(-1, 1) translate(-743.000000, -31.500000) "></path>
                <path d="M285.754215,652.728252 C535.245682,666.793821 755.415947,703.163689 984.022104,703.163689 C1109.49645,703.163689 1278.15575,692.585835 1490,671.430126 L1485.52022,713 L4.97544262,713 C3.67485246,680.034088 3.67485246,662.297582 4.97544262,659.790483 C63.9401855,650.205916 152.691418,647.263013 285.754215,652.728252 Z" id="Rectangle-2-Copy-4" transform="translate(747.000000, 681.500000) scale(-1, 1) rotate(180.000000) translate(-747.000000, -681.500000) "></path>
            </g>
        </g>
    </g>
</svg>