<?xml version="1.0" encoding="UTF-8"?>
<svg width="375px" height="780px" viewBox="0 0 375 780" version="1.1" xmlns="http://www.w3.org/2000/svg" xmlns:xlink="http://www.w3.org/1999/xlink">
    <!-- Generator: Sketch 64 (93537) - https://sketch.com -->
    <title>Combined Shape Copy 2</title>
    <desc>Created with Sketch.</desc>
    <g id="Welcome" stroke="none" stroke-width="1" fill="none" fill-rule="evenodd" opacity="1">
        <g id="Home---Mobile----1" transform="translate(0.000000, -3180.000000)" fill="#f5f5f5">
            <path d="M303.70822,3182.11299 C337.376869,3177.88024 359.833439,3180.15948 374.753185,3187.58259 C375.082272,3189.52431 375.082272,3735.99678 374.753185,4827 L374.753185,4827 L373.963125,4826.96736 C374.051478,4300.74984 373.98106,4036.96566 373.751873,4035.61482 C358.752766,4028.16016 336.176746,4025.87123 302.329009,4030.12197 C238.864827,4041.06186 182.8592,4069.34954 124.707702,4069.34954 C93.5024274,4069.34954 51.7967606,4061.48536 -0.409298686,4045.75701 L-1,3196.59733 C52.6025824,3212.98214 95.2781519,3221.17454 127.026709,3221.17454 C184.870527,3221.17454 240.579828,3193.00658 303.70822,3182.11299 Z" id="Combined-Shape-Copy-2"></path>
        </g>
    </g>
</svg>