<?xml version="1.0" encoding="UTF-8"?>
<svg width="1280px" height="1628px" viewBox="0 0 1280 1628" version="1.1" xmlns="http://www.w3.org/2000/svg" xmlns:xlink="http://www.w3.org/1999/xlink">
    <title>Landing Desktop</title>
    <defs>
        <polygon id="path-1" points="0 0 277.6987 0 277.6987 12 0 12"></polygon>
        <polygon id="path-3" points="0 0 277.6987 0 277.6987 12 0 12"></polygon>
    </defs>
    <g id="Landing-Desktop" stroke="none" stroke-width="1" fill="none" fill-rule="evenodd">
        <rect fill="#DEE8FF" x="0" y="0" width="1280" height="1628"></rect>
        <g id="Group-3" transform="translate(-177.000000, 589.000000)">
            <mask id="mask-2" fill="white">
                <use xlink:href="#path-1"></use>
            </mask>
            <g id="Clip-2"></g>
            <path d="M277.6987,12 C271.9627,12 269.0997,9.321 266.3317,6.73 C263.7337,4.297 261.2797,2 256.3327,2 C251.3857,2 248.9307,4.298 246.3317,6.73 C243.5647,9.321 240.7017,12 234.9657,12 C229.2297,12 226.3677,9.321 223.5997,6.73 C221.0017,4.297 218.5477,2 213.6017,2 C208.6567,2 206.2027,4.297 203.6047,6.73 C200.8367,9.321 197.9757,12 192.2397,12 C186.5037,12 183.6417,9.321 180.8747,6.73 C178.2767,4.297 175.8227,2 170.8767,2 C165.9307,2 163.4767,4.297 160.8787,6.73 C158.1117,9.321 155.2497,12 149.5137,12 C143.7787,12 140.9177,9.321 138.1507,6.73 C135.5527,4.297 133.0987,2 128.1547,2 C123.2087,2 120.7557,4.297 118.1577,6.73 C115.3907,9.321 112.5297,12 106.7947,12 C101.0597,12 98.1987,9.321 95.4327,6.73 C92.8357,4.297 90.3817,2 85.4377,2 C80.4917,2 78.0377,4.297 75.4407,6.73 C72.6737,9.321 69.8117,12 64.0767,12 C58.3427,12 55.4807,9.321 52.7147,6.73 C50.1167,4.297 47.6637,2 42.7197,2 C37.7747,2 35.3207,4.297 32.7227,6.73 C29.9557,9.321 27.0947,12 21.3597,12 C15.6247,12 12.7627,9.321 9.9957,6.73 C7.3987,4.297 4.9447,2 -0.0003,2 L-0.0003,0 C5.7347,0 8.5957,2.679 11.3637,5.27 C13.9607,7.703 16.4147,10 21.3597,10 C26.3037,10 28.7577,7.703 31.3557,5.27 C34.1227,2.679 36.9837,0 42.7197,0 C48.4537,0 51.3147,2.679 54.0817,5.27 C56.6787,7.703 59.1327,10 64.0767,10 C69.0217,10 71.4757,7.703 74.0737,5.27 C76.8407,2.679 79.7017,0 85.4377,0 C91.1717,0 94.0327,2.679 96.7997,5.27 C99.3967,7.703 101.8507,10 106.7947,10 C111.7397,10 114.1927,7.703 116.7907,5.27 C119.5577,2.679 122.4187,0 128.1547,0 C133.8887,0 136.7507,2.679 139.5177,5.27 C142.1157,7.703 144.5697,10 149.5137,10 C154.4597,10 156.9137,7.703 159.5117,5.27 C162.2797,2.679 165.1407,0 170.8767,0 C176.6127,0 179.4737,2.679 182.2417,5.27 C184.8397,7.703 187.2937,10 192.2397,10 C197.1847,10 199.6387,7.703 202.2377,5.27 C205.0047,2.679 207.8657,0 213.6017,0 C219.3377,0 222.1997,2.679 224.9677,5.27 C227.5657,7.702 230.0197,10 234.9657,10 C239.9117,10 242.3667,7.703 244.9657,5.27 C247.7337,2.679 250.5957,0 256.3327,0 C262.0687,0 264.9307,2.679 267.6987,5.27 C270.2977,7.703 272.7517,10 277.6987,10 L277.6987,12 Z" id="Fill-1" fill="#C7D4FF" mask="url(#mask-2)"></path>
        </g>
        <g id="Group-3" transform="translate(812.000000, 183.000000)">
            <mask id="mask-4" fill="white">
                <use xlink:href="#path-3"></use>
            </mask>
            <g id="Clip-2"></g>
            <path d="M277.6987,12 C271.9627,12 269.0997,9.321 266.3317,6.73 C263.7337,4.297 261.2797,2 256.3327,2 C251.3857,2 248.9307,4.298 246.3317,6.73 C243.5647,9.321 240.7017,12 234.9657,12 C229.2297,12 226.3677,9.321 223.5997,6.73 C221.0017,4.297 218.5477,2 213.6017,2 C208.6567,2 206.2027,4.297 203.6047,6.73 C200.8367,9.321 197.9757,12 192.2397,12 C186.5037,12 183.6417,9.321 180.8747,6.73 C178.2767,4.297 175.8227,2 170.8767,2 C165.9307,2 163.4767,4.297 160.8787,6.73 C158.1117,9.321 155.2497,12 149.5137,12 C143.7787,12 140.9177,9.321 138.1507,6.73 C135.5527,4.297 133.0987,2 128.1547,2 C123.2087,2 120.7557,4.297 118.1577,6.73 C115.3907,9.321 112.5297,12 106.7947,12 C101.0597,12 98.1987,9.321 95.4327,6.73 C92.8357,4.297 90.3817,2 85.4377,2 C80.4917,2 78.0377,4.297 75.4407,6.73 C72.6737,9.321 69.8117,12 64.0767,12 C58.3427,12 55.4807,9.321 52.7147,6.73 C50.1167,4.297 47.6637,2 42.7197,2 C37.7747,2 35.3207,4.297 32.7227,6.73 C29.9557,9.321 27.0947,12 21.3597,12 C15.6247,12 12.7627,9.321 9.9957,6.73 C7.3987,4.297 4.9447,2 -0.0003,2 L-0.0003,0 C5.7347,0 8.5957,2.679 11.3637,5.27 C13.9607,7.703 16.4147,10 21.3597,10 C26.3037,10 28.7577,7.703 31.3557,5.27 C34.1227,2.679 36.9837,0 42.7197,0 C48.4537,0 51.3147,2.679 54.0817,5.27 C56.6787,7.703 59.1327,10 64.0767,10 C69.0217,10 71.4757,7.703 74.0737,5.27 C76.8407,2.679 79.7017,0 85.4377,0 C91.1717,0 94.0327,2.679 96.7997,5.27 C99.3967,7.703 101.8507,10 106.7947,10 C111.7397,10 114.1927,7.703 116.7907,5.27 C119.5577,2.679 122.4187,0 128.1547,0 C133.8887,0 136.7507,2.679 139.5177,5.27 C142.1157,7.703 144.5697,10 149.5137,10 C154.4597,10 156.9137,7.703 159.5117,5.27 C162.2797,2.679 165.1407,0 170.8767,0 C176.6127,0 179.4737,2.679 182.2417,5.27 C184.8397,7.703 187.2937,10 192.2397,10 C197.1847,10 199.6387,7.703 202.2377,5.27 C205.0047,2.679 207.8657,0 213.6017,0 C219.3377,0 222.1997,2.679 224.9677,5.27 C227.5657,7.702 230.0197,10 234.9657,10 C239.9117,10 242.3667,7.703 244.9657,5.27 C247.7337,2.679 250.5957,0 256.3327,0 C262.0687,0 264.9307,2.679 267.6987,5.27 C270.2977,7.703 272.7517,10 277.6987,10 L277.6987,12 Z" id="Fill-1" fill="#C7D4FF" mask="url(#mask-4)"></path>
        </g>
        <circle id="Oval" stroke="#C7D4FF" stroke-width="2" cx="80" cy="149" r="8"></circle>
        <circle id="Oval" fill="#C7D4FF" cx="271.5" cy="76.5" r="12.5"></circle>
        <circle id="Oval" fill="#C7D4FF" cx="66" cy="59" r="5"></circle>
        <circle id="Oval" fill="#C7D4FF" cx="85" cy="496" r="5"></circle>
        <circle id="Oval" stroke="#C7D4FF" stroke-width="2" cx="352" cy="198" r="8"></circle>
        <circle id="Oval" fill="#C7D4FF" cx="113.5" cy="328.5" r="12.5"></circle>
        <circle id="Oval" fill="#C7D4FF" cx="310.5" cy="688.5" r="12.5"></circle>
        <circle id="Oval" fill="#C7D4FF" cx="1213.5" cy="111.5" r="12.5"></circle>
        <circle id="Oval" fill="#C7D4FF" cx="1004.5" cy="348.5" r="12.5"></circle>
        <circle id="Oval" fill="#C7D4FF" cx="1141.5" cy="673.5" r="12.5"></circle>
        <circle id="Oval" stroke="#C7D4FF" stroke-width="2" cx="261" cy="440" r="8"></circle>
        <circle id="Oval" stroke="#C7D4FF" stroke-width="2" cx="992" cy="570" r="8"></circle>
        <circle id="Oval" stroke="#C7D4FF" stroke-width="2" cx="1186" cy="330" r="8"></circle>
        <circle id="Oval" fill="#C7D4FF" cx="83" cy="702" r="5"></circle>
        <circle id="Oval" fill="#C7D4FF" cx="935" cy="692" r="5"></circle>
        <circle id="Oval" fill="#C7D4FF" cx="1200" cy="497" r="5"></circle>
        <circle id="Oval" fill="#C7D4FF" cx="992" cy="77" r="5"></circle>
    </g>
</svg>