<?xml version="1.0" encoding="UTF-8"?>
<svg width="33px" height="37px" viewBox="0 0 33 37" version="1.1" xmlns="http://www.w3.org/2000/svg" xmlns:xlink="http://www.w3.org/1999/xlink">
    <title>_Group_2</title>
    <g id="Page-1" stroke="none" stroke-width="1" fill="none" fill-rule="evenodd">
        <g id="Home---Desktop-" transform="translate(-239.000000, -464.000000)" fill="#CCCCCC" fill-rule="nonzero">
            <g id="_Group_3" transform="translate(239.000000, 464.000000)">
                <path d="M27.542895,19.6826885 C27.5834942,16.8021586 29.2355218,14.1414253 31.9201873,12.6326807 C30.2188592,10.4115746 27.4714039,9.05383195 24.506638,8.96903892 C21.3874624,8.66975751 18.3635577,10.6751942 16.7740828,10.6751942 C15.1538479,10.6751942 12.7066017,8.99875312 10.0713215,9.0483164 C6.60397993,9.15071733 3.44983879,10.9090967 1.76290659,13.6801147 C-1.82948372,19.3655785 0.850116244,27.7212961 4.29132524,32.3169959 C6.01303495,34.5673795 8.02521932,37.0811158 10.6581219,36.9919732 C13.2345753,36.8942899 14.1968307,35.4901667 17.3068302,35.4901667 C20.3879643,35.4901667 21.2907614,36.9919732 23.9770854,36.9352955 C26.74174,36.8942729 28.4836035,34.6749109 30.1449075,32.403218 C31.3819531,30.7997375 32.3338577,29.0275423 32.9653612,27.1522777 C29.6817912,25.8827704 27.5467275,22.9416642 27.542895,19.6826885 L27.542895,19.6826885 Z" id="_Path_"></path>
                <path d="M24.5391255,0.019682638 C22.2361467,0.240791062 20.1088393,1.24692943 18.58107,2.83762441 C17.072468,4.40705881 16.3082138,6.46029915 16.4566374,8.54511069 C18.7904964,8.56707673 21.0064463,7.60933964 22.4689131,5.94659554 C23.9763176,4.29243481 24.7189585,2.16629145 24.5391255,0.019682638 Z" id="_Path_2"></path>
            </g>
        </g>
    </g>
</svg>