<?xml version="1.0" encoding="UTF-8"?>
<svg width="157px" height="26px" viewBox="0 0 157 26" version="1.1" xmlns="http://www.w3.org/2000/svg" xmlns:xlink="http://www.w3.org/1999/xlink">
    <title>logo-cobroexpress</title>
    <defs>
        <filter id="filter-1">
            <feColorMatrix in="SourceGraphic" type="matrix" values="0 0 0 0 0.686275 0 0 0 0 0.686275 0 0 0 0 0.686275 0 0 0 1.000000 0"></feColorMatrix>
        </filter>
    </defs>
    <g id="Page-1" stroke="none" stroke-width="1" fill="none" fill-rule="evenodd">
        <g id="La-Tarjeta---Desktop-" transform="translate(-371.000000, -1336.000000)">
            <g id="logo-cobroexpress" transform="translate(181.000000, 1249.000000)" filter="url(#filter-1)">
                <g transform="translate(190.000000, 87.000000)">
                    <path d="M147.230653,18.6815232 L147.652442,15.7296625 L147.78747,15.7859152 C149.573459,16.4651666 150.843001,16.8026828 151.604447,16.8026828 C151.90652,16.8026828 152.155696,16.728148 152.360326,16.577672 C152.564956,16.4229771 152.666575,16.2401558 152.666575,16.0207702 C152.666575,15.6368455 152.276803,15.1488533 151.49726,14.5638252 C151.03371,14.2164647 150.67178,13.921138 150.407292,13.6876893 C149.585987,12.9339031 149.029171,12.3151233 148.74241,11.8271311 C148.459826,11.3349199 148.316446,10.8005193 148.316446,10.2253354 C148.316446,9.08199913 148.747978,8.14961056 149.61522,7.42395067 C150.478286,6.70250974 151.596095,6.34108611 152.964472,6.34108611 C153.622908,6.34108611 154.285519,6.43390307 154.949523,6.61672436 C155.607959,6.79954565 156.294235,7.07096495 157,7.44082648 L156.781449,10.5291 C156.021395,10.1536132 155.333726,9.86391173 154.717052,9.65718304 C154.100378,9.45045435 153.613163,9.34779316 153.251232,9.34779316 C152.968648,9.34779316 152.736177,9.41389009 152.551036,9.53905236 C152.365894,9.66562094 152.272627,9.8301601 152.272627,10.0312635 C152.272627,10.4250325 152.722257,10.9636521 153.617339,11.6386846 C154.080889,11.9944829 154.438644,12.2855907 154.689211,12.5049762 C155.381056,13.0815664 155.852958,13.6061229 156.11327,14.0842709 C156.368013,14.5581999 156.497473,15.1052575 156.497473,15.7282562 C156.497473,16.9180009 156.057588,17.9066421 155.170858,18.6899611 C154.289695,19.4718736 153.162142,19.8614236 151.793765,19.8614236 C151.069904,19.8614236 150.318201,19.7629814 149.548402,19.5660969 C148.773035,19.3692125 147.99906,19.0738858 147.229261,18.6801168 L147.230653,18.6815232 Z M46.3494113,8.09617049 C46.3633317,7.58708351 46.0974518,6.90923842 45.8120833,6.62094331 L50.3487463,6.62094331 L50.3487463,6.62094331 L50.0995709,8.44774989 L50.1343719,8.408373 L50.1691729,8.36899611 L50.2025819,8.33102553 L50.2359909,8.29305495 L50.2693999,8.25508438 L50.3028089,8.21852012 L50.3028089,8.21852012 L50.3362179,8.18195586 L50.3362179,8.18195586 L50.3696269,8.14539161 L50.3696269,8.14539161 L50.4016439,8.11023367 L50.4016439,8.11023367 L50.4336608,8.07507572 L50.4336608,8.07507572 L50.4656778,8.03991778 L50.4656778,8.03991778 L50.4976947,8.00475984 L50.4976947,8.00475984 L50.5297117,7.97100822 L50.5297117,7.97100822 L50.5617286,7.9372566 L50.5617286,7.9372566 L50.5923535,7.90350498 L50.5923535,7.90350498 L50.6229784,7.87115967 L50.6229784,7.87115967 L50.6536033,7.83881437 L50.6536033,7.83881437 L50.6842283,7.80646906 L50.6842283,7.80646906 L50.7134611,7.77553007 L50.7134611,7.77553007 L50.744086,7.74459109 L50.744086,7.74459109 L50.7733189,7.7136521 L50.7733189,7.7136521 L50.8025518,7.68411943 L50.8025518,7.68411943 L50.8317847,7.65458676 L50.8317847,7.65458676 L50.8610175,7.62505409 L50.8610175,7.62505409 L50.8902504,7.59552142 L50.8902504,7.59552142 L50.9194833,7.56739507 L50.9194833,7.56739507 L50.9473241,7.53926871 L50.9473241,7.53926871 L50.9751649,7.51114236 L50.9751649,7.51114236 L51.0030057,7.48442233 L51.0030057,7.48442233 L51.0308466,7.45770229 L51.0308466,7.45770229 L51.0586874,7.43098226 L51.0586874,7.43098226 L51.0865282,7.40426222 L51.0865282,7.40426222 L51.112977,7.37894851 L51.112977,7.37894851 L51.1394258,7.35363479 L51.1394258,7.35363479 L51.1658746,7.32832107 L51.1658746,7.32832107 L51.1923234,7.30300736 L51.1923234,7.30300736 L51.2187722,7.27909996 L51.2187722,7.27909996 L51.245221,7.25519256 L51.245221,7.25519256 L51.2702777,7.23269148 L51.2702777,7.23269148 L51.2967265,7.21019039 L51.2967265,7.21019039 L51.3217832,7.18768931 L51.3217832,7.18768931 L51.34684,7.16518823 L51.34684,7.16518823 L51.3718967,7.14409347 L51.3718967,7.14409347 L51.3969535,7.1229987 L51.3969535,7.1229987 L51.4206182,7.10190394 L51.4206182,7.10190394 L51.4442829,7.08080917 L51.4442829,7.08080917 L51.4679476,7.05971441 L51.4679476,7.05971441 L51.4916123,7.04002596 L51.4916123,7.04002596 L51.515277,7.02033752 L51.515277,7.02033752 L51.5389417,7.00064907 L51.5389417,7.00064907 L51.5612144,6.98236694 L51.5612144,6.98236694 L51.583487,6.96408481 L51.583487,6.96408481 L51.6057597,6.947209 L51.6057597,6.947209 L51.6280323,6.93033319 L51.650305,6.91345738 L51.6725777,6.89658157 L51.6948503,6.87970576 L51.715731,6.86423626 L51.7366116,6.84876677 L51.7574922,6.83329727 L51.7783728,6.8192341 L51.7992534,6.80517092 L51.818742,6.79110775 L51.8396226,6.77704457 L51.8591112,6.76438771 L51.8785998,6.75173085 L51.8980884,6.73907399 L51.917577,6.72641714 L51.9384576,6.71376028 L51.9579462,6.70110342 L51.9774347,6.68844656 L51.9983154,6.67719602 L52.0178039,6.66594548 L52.0386846,6.65469494 L52.0581731,6.6434444 L52.0790538,6.63219386 L52.0985423,6.62234963 L52.119423,6.61250541 L52.1403036,6.60266119 L52.1611842,6.59281696 L52.1806728,6.58297274 L52.2015534,6.57312852 L52.221042,6.56469061 L52.2419226,6.55484639 L52.2628032,6.54640848 L52.2628032,6.54640848 L52.2836839,6.53797058 L52.2836839,6.53797058 L52.3045645,6.52953267 L52.3045645,6.52953267 L52.3254451,6.52109476 L52.3254451,6.52109476 L52.3449337,6.51265686 L52.3449337,6.51265686 L52.3658143,6.50562527 L52.3658143,6.50562527 L52.3866949,6.49859368 L52.3866949,6.49859368 L52.4075755,6.49156209 L52.4075755,6.49156209 L52.4284562,6.48453051 L52.4493368,6.47749892 L52.4702174,6.47046733 L52.491098,6.46343574 L52.5119786,6.45781047 L52.5328593,6.4521852 L52.5537399,6.44655993 L52.5746205,6.44093466 L52.5955011,6.43530939 L52.6163818,6.42968412 L52.6372624,6.42405885 L52.658143,6.41843358 L52.6790236,6.41421463 L52.6999042,6.40999567 L52.7207849,6.40577672 L52.7416655,6.40155777 L52.7625461,6.39733881 L52.7834267,6.39311986 L52.8043073,6.38890091 L52.825188,6.38608827 L52.8460686,6.38327564 L52.8669492,6.380463 L52.8878298,6.37765037 L52.9087105,6.37483773 L52.9295911,6.3720251 L52.9504717,6.37061878 L52.9713523,6.36921246 L52.9922329,6.36780614 L53.0131136,6.36639983 L53.0339942,6.36499351 L53.0548748,6.36358719 L53.0757554,6.36218087 L53.096636,6.36218087 L53.1175167,6.36077456 L53.1383973,6.36077456 L53.1592779,6.36077456 L53.1759824,6.36077456 L53.1926869,6.36077456 L53.2093914,6.36077456 L53.2260959,6.36077456 L53.2428004,6.36077456 L53.2595049,6.36077456 L53.2762094,6.36218087 L53.2929139,6.36218087 L53.2929139,6.36218087 L53.3096184,6.36358719 L53.3096184,6.36358719 L53.3263229,6.36499351 L53.3263229,6.36499351 L53.3430274,6.36639983 L53.3430274,6.36639983 L53.3597319,6.36780614 L53.3597319,6.36780614 L53.3764364,6.36921246 L53.3764364,6.36921246 L53.3931409,6.37061878 L53.3931409,6.37061878 L53.4098454,6.3720251 L53.4098454,6.3720251 L53.4265499,6.37343141 L53.4265499,6.37343141 L53.4432544,6.37483773 L53.4432544,6.37483773 L53.4599589,6.37624405 L53.4599589,6.37624405 L53.4766634,6.37765037 L53.4766634,6.37765037 L53.4933679,6.37905669 L53.4933679,6.37905669 L53.5100724,6.38186932 L53.5100724,6.38186932 L53.5267768,6.38468196 L53.5267768,6.38468196 L53.5434813,6.38749459 L53.5434813,6.38749459 L53.5601858,6.39030723 L53.5768903,6.39311986 L53.5768903,6.39311986 L53.5935948,6.3959325 L53.5935948,6.3959325 L53.6102993,6.39874513 L53.6102993,6.39874513 L53.6270038,6.40155777 L53.6270038,6.40155777 L53.6437083,6.4043704 L53.6437083,6.4043704 L53.6618049,6.40718304 L53.6618049,6.40718304 L53.6785094,6.40999567 L53.6785094,6.40999567 L53.6952139,6.41280831 L53.6952139,6.41280831 L53.7119184,6.41702726 L53.7119184,6.41702726 L53.7286229,6.42124621 L53.7286229,6.42124621 L53.7467194,6.42546517 L53.7467194,6.42546517 L53.7648159,6.42968412 L53.7648159,6.42968412 L53.7815204,6.43390307 L53.7815204,6.43390307 L53.799617,6.43812203 L53.799617,6.43812203 L53.8177135,6.44234098 L53.8177135,6.44234098 L53.83581,6.44655993 L53.83581,6.44655993 L53.8539066,6.45077888 L53.8539066,6.45077888 L53.8720031,6.45499784 L53.8720031,6.45499784 L53.8900997,6.45921679 L53.8900997,6.45921679 L53.9081962,6.46343574 L53.9081962,6.46343574 L53.9262927,6.46765469 L53.9262927,6.46765469 L53.9443893,6.47187365 L53.9443893,6.47187365 L53.9624858,6.47749892 L53.9624858,6.47749892 L53.9805824,6.48171787 L53.9805824,6.48171787 L53.9986789,6.48734314 L53.9986789,6.48734314 L54.0167754,6.49296841 L54.0167754,6.49296841 L54.034872,6.49859368 L54.034872,6.49859368 L54.0529685,6.50421895 L54.071065,6.50984422 L54.0891616,6.51546949 L54.1072581,6.52109476 L54.1253547,6.52672003 L54.1434512,6.53234531 L54.1615477,6.53797058 L54.1796443,6.54500216 L54.1977408,6.55062743 L54.2158374,6.55765902 L54.2339339,6.56469061 L54.2520304,6.5717222 L54.271519,6.57875379 L54.2896155,6.58578537 L54.3077121,6.59281696 L54.3258086,6.59984855 L54.3258086,6.59984855 L54.3439052,6.60688014 L54.3439052,6.60688014 L54.3620017,6.61391173 L54.3620017,6.61391173 L54.3800982,6.62094331 L54.3800982,6.62094331 L54.3981948,6.62938122 L54.3981948,6.62938122 L54.4176834,6.63641281 L54.4176834,6.63641281 L54.4357799,6.64485071 L54.4357799,6.64485071 C54.7308927,6.76860666 55.0385338,6.93314582 55.3600954,7.13987451 L55.3600954,7.13987451 L55.380976,7.15393769 L55.380976,7.15393769 L55.4018566,7.16659455 L55.4018566,7.16659455 L55.4227373,7.18065772 L55.4227373,7.18065772 L55.4436179,7.1947209 L55.4436179,7.1947209 L55.4644985,7.20878408 L55.4644985,7.20878408 L55.4853791,7.22284725 L55.4853791,7.22284725 L55.5062598,7.23691043 L55.5062598,7.23691043 L55.5271404,7.2509736 L53.6910377,11.2744483 L53.6743332,11.2561662 L53.6576287,11.2392904 L53.6409242,11.2224145 L53.6242197,11.2055387 L53.6242197,11.2055387 L53.6075153,11.1886629 L53.6075153,11.1886629 L53.5908108,11.1717871 L53.5908108,11.1717871 L53.5741063,11.1549113 L53.5741063,11.1549113 L53.5587938,11.1380355 L53.5587938,11.1380355 L53.5420893,11.1211597 L53.5420893,11.1211597 L53.5267768,11.1042839 L53.5267768,11.1042839 L53.5114644,11.087408 L53.5114644,11.087408 L53.4961519,11.0705322 L53.4961519,11.0705322 L53.4808395,11.0550627 L53.4808395,11.0550627 L53.465527,11.0395932 L53.465527,11.0395932 L53.4488225,11.0241238 L53.4488225,11.0241238 L53.4335101,11.0086543 L53.4335101,11.0086543 L53.4181976,10.9931848 L53.4181976,10.9931848 L53.4028852,10.9777153 L53.4028852,10.9777153 C53.163454,10.7442666 52.9379433,10.5628516 52.724961,10.4334704 C52.6470067,10.3856556 52.5704444,10.3448723 52.4938821,10.3083081 L52.4938821,10.3083081 C52.2836839,10.2112722 52.0804458,10.1620511 51.886952,10.1620511 L51.8702476,10.1620511 L51.8702476,10.1620511 L51.8535431,10.1620511 L51.8535431,10.1620511 L51.8354465,10.1634574 L51.8354465,10.1634574 L51.818742,10.1634574 L51.818742,10.1634574 L51.8020375,10.1648637 L51.8020375,10.1648637 L51.785333,10.16627 L51.785333,10.16627 L51.7672365,10.1676763 L51.7672365,10.1676763 L51.750532,10.1690826 L51.750532,10.1690826 L51.7338275,10.170489 L51.7338275,10.170489 L51.715731,10.1718953 L51.715731,10.1718953 L51.6976344,10.1747079 L51.6976344,10.1747079 L51.6795379,10.1775206 L51.6795379,10.1775206 L51.6614413,10.1803332 L51.6614413,10.1803332 L51.6433448,10.1831458 L51.6433448,10.1831458 L51.6252483,10.1859585 L51.6252483,10.1859585 L51.6071517,10.1887711 L51.6071517,10.1887711 L51.5890552,10.19299 L51.5890552,10.19299 L51.5709586,10.197209 L51.5709586,10.197209 L51.5528621,10.201428 L51.5528621,10.201428 L51.5347656,10.2056469 L51.5347656,10.2056469 L51.516669,10.2098659 L51.516669,10.2098659 L51.4985725,10.2140848 L51.4985725,10.2140848 L51.480476,10.2183038 L51.480476,10.2183038 L51.4623794,10.2225227 L51.4623794,10.2225227 L51.4442829,10.228148 L51.4442829,10.228148 L51.4261863,10.2337733 L51.4261863,10.2337733 L51.4080898,10.2393985 L51.4080898,10.2393985 L51.3899933,10.2450238 L51.3899933,10.2450238 L51.3718967,10.2520554 L51.3718967,10.2520554 L51.3538002,10.259087 L51.3538002,10.259087 L51.3357036,10.2661186 L51.3357036,10.2661186 L51.3176071,10.2731502 L51.3176071,10.2731502 L51.2995106,10.2801817 L51.2995106,10.2801817 L51.281414,10.2872133 L51.281414,10.2872133 L51.2633175,10.2956512 L51.2633175,10.2956512 L51.245221,10.3026828 L51.245221,10.3026828 L51.2271244,10.3111207 L51.2271244,10.3111207 L51.2090279,10.3195586 L51.2090279,10.3195586 L51.1909313,10.3279965 L51.1909313,10.3279965 L51.1728348,10.3364344 L51.1728348,10.3364344 L51.1547383,10.3448723 L51.1547383,10.3448723 L51.1366417,10.3533103 L51.1366417,10.3533103 L51.1185452,10.3631545 L51.1185452,10.3631545 L51.1004486,10.3729987 L51.1004486,10.3729987 L51.0823521,10.3828429 L51.0823521,10.3828429 L51.0642556,10.3926871 L51.0642556,10.3926871 L51.046159,10.4025314 L51.046159,10.4025314 L51.0280625,10.4123756 L51.0280625,10.4123756 L51.009966,10.4236261 L51.009966,10.4236261 L50.9918694,10.4348767 L50.9918694,10.4348767 L50.9737729,10.4461272 L50.9737729,10.4461272 L50.9556763,10.4573778 L50.9556763,10.4573778 L50.9375798,10.4686283 L50.9375798,10.4686283 L50.9194833,10.4798788 L50.9194833,10.4798788 L50.9013867,10.4911294 L50.9013867,10.4911294 L50.8832902,10.5037862 L50.8832902,10.5037862 L50.8651936,10.5164431 L50.8651936,10.5164431 L50.8470971,10.5291 L50.8470971,10.5291 L50.8290006,10.5417568 L50.8290006,10.5417568 L50.810904,10.5544137 L50.810904,10.5544137 L50.7928075,10.5684768 L50.7928075,10.5684768 L50.774711,10.58254 L50.774711,10.58254 L50.7566144,10.5966032 L50.7566144,10.5966032 L50.7385179,10.6106664 L50.7385179,10.6106664 L50.7204213,10.6247296 L50.7204213,10.6247296 L50.7023248,10.6387927 L50.7023248,10.6387927 L50.6842283,10.6542622 L50.6842283,10.6542622 L50.6661317,10.6697317 L50.6661317,10.6697317 L50.6480352,10.6852012 L50.6480352,10.6852012 L50.6299386,10.7006707 L50.6299386,10.7006707 L50.6118421,10.7161402 L50.6118421,10.7161402 L50.5937456,10.7316097 L50.5937456,10.7316097 L50.575649,10.7484855 L50.575649,10.7484855 L50.5575525,10.7653613 L50.5575525,10.7653613 L50.539456,10.7822371 L50.539456,10.7822371 L50.5213594,10.7991129 L50.5213594,10.7991129 L50.5032629,10.8159887 L50.5032629,10.8159887 L50.4851663,10.8328646 L50.4851663,10.8328646 L50.4670698,10.8497404 L50.4670698,10.8497404 L50.4489733,10.8666162 L50.4489733,10.8666162 L50.4308767,10.8848983 L50.4308767,10.8848983 L50.4127802,10.9031804 L50.4127802,10.9031804 L50.3946836,10.9214626 L50.3765871,10.9397447 L50.3584906,10.9580268 L50.340394,10.976309 L50.3222975,10.9945911 L50.304201,11.0142795 L50.2861044,11.033968 L50.2680079,11.0536564 L50.2499113,11.0733449 L50.2318148,11.0930333 L50.2137183,11.1127218 L50.1956217,11.1338165 L50.1775252,11.1549113 L50.1594286,11.1760061 L50.1413321,11.1971008 L50.1232356,11.2181956 L50.105139,11.2392904 L50.0870425,11.2617914 L50.0689459,11.2828862 L50.0689459,11.2828862 L50.0508494,11.3053873 L50.0508494,11.3053873 L50.0327529,11.3278884 L50.0327529,11.3278884 L50.0146563,11.3503894 L50.0146563,11.3503894 L49.9965598,11.3728905 L49.9965598,11.3728905 L49.9784633,11.3953916 L49.9784633,11.3953916 L49.9603667,11.419299 L49.9603667,11.419299 L49.9422702,11.4432064 L49.9422702,11.4432064 L49.9241736,11.4671138 L49.9241736,11.4671138 L49.9060771,11.4910212 L49.9060771,11.4910212 L49.8879806,11.5149286 L49.8879806,11.5149286 L49.869884,11.538836 L49.869884,11.538836 L49.8517875,11.5641497 L49.8517875,11.5641497 L49.8336909,11.5880571 L49.8336909,11.5880571 L49.8155944,11.6133708 L49.8155944,11.6133708 L49.7974979,11.6386846 L49.7974979,11.6386846 L49.7794013,11.6639983 L49.7794013,11.6639983 L49.7613048,11.689312 L49.7613048,11.689312 L49.7432083,11.7146257 L49.7432083,11.7146257 L49.7251117,11.7413457 L49.7251117,11.7413457 L49.7070152,11.7680658 L49.7070152,11.7680658 L49.6889186,11.7947858 L49.6889186,11.7947858 L49.6708221,11.8215058 L49.6708221,11.8215058 L49.6527256,11.8482259 L49.6527256,11.8482259 L49.634629,11.8749459 L49.634629,11.8749459 L49.6165325,11.9016659 L49.6165325,11.9016659 L49.5984359,11.928386 L49.5984359,11.928386 L49.5803394,11.9565123 L49.5803394,11.9565123 L48.4221609,19.827672 L44.627456,19.827672 L46.3675078,8.09476417 L46.3494113,8.09617049 Z M61.9068662,9.5024881 C61.0076075,9.5024881 60.2350245,9.92157075 59.5905093,10.7625487 C58.9459941,11.6049329 58.6258246,12.6371701 58.6258246,13.863479 C58.6258246,14.8141497 58.8471592,15.5609044 59.2898283,16.1178061 C59.7283214,16.6690826 60.3255072,16.9447209 61.0786016,16.9447209 C61.9820365,16.9447209 62.7448752,16.5312635 63.3712938,15.6987235 C63.9977124,14.8661835 64.3081377,13.8339463 64.3081377,12.6118563 C64.3081377,11.6696235 64.0868031,10.9186499 63.6441339,10.3519039 C63.2056409,9.78656426 62.6265516,9.50108178 61.9068662,9.50108178 L61.9068662,9.5024881 Z M54.70862,13.7551926 C54.70862,11.6344656 55.4199532,9.869537 56.8412275,8.45196884 C58.2583256,7.03440069 60.0331785,6.32561662 62.1560416,6.32561662 C63.9587353,6.32561662 65.428731,6.90080052 66.5632448,8.05257464 C67.6977585,9.20856772 68.2671035,10.6866075 68.2671035,12.4993509 C68.2671035,14.673518 67.5557703,16.484855 66.1303199,17.9361748 C64.7034774,19.3874946 62.9286246,20.1103418 60.8057615,20.1103418 C58.9362498,20.1103418 57.4579018,19.5351579 56.3567971,18.3890091 C55.2598684,17.2428602 54.70862,15.6973172 54.70862,13.7565989 L54.70862,13.7551926 Z M34.9221432,17.0037862 C34.9973134,17.0037862 35.0961484,17.0080052 35.218648,17.0178494 C35.3411477,17.0276936 35.4302383,17.0319126 35.487312,17.0319126 C37.1452334,17.0319126 38.4245194,16.6367373 39.3293464,15.8477932 C40.2383494,15.058849 40.6893708,13.9506707 40.6893708,12.5274773 C40.6893708,11.6189961 40.4958771,10.9059931 40.1144577,10.3912808 C39.7330384,9.87234963 39.215199,9.61639983 38.5651156,9.61639983 C38.0848613,9.61639983 37.6185275,9.74015578 37.1716822,9.99188663 C36.7206607,10.2436175 36.2724234,10.6289485 35.8297542,11.1478797 L34.9207512,17.0023799 L34.9221432,17.0037862 Z M24.6071163,9.50389442 C23.7078575,9.50389442 22.9352745,9.92297707 22.2907593,10.763955 C21.6462441,11.6063392 21.3260746,12.6385764 21.3260746,13.8648853 C21.3260746,14.815556 21.5474092,15.5623107 21.9900784,16.1192125 C22.4285714,16.670489 23.0257572,16.9461272 23.7788516,16.9461272 C24.6822865,16.9461272 25.4451252,16.5326698 26.0715438,15.7001298 C26.6979625,14.8675898 27.0083877,13.8353527 27.0083877,12.6132627 C27.0083877,11.6710299 26.7870531,10.9200563 26.344384,10.3533103 C25.9058909,9.78797058 25.3268017,9.5024881 24.6071163,9.5024881 L24.6071163,9.50389442 Z M17.4088701,13.7565989 C17.4088701,11.6358719 18.1202032,9.87094331 19.5414775,8.45337516 C20.9585757,7.03580701 22.7334285,6.32702293 24.8562917,6.32702293 C26.6589853,6.32702293 28.1289811,6.90220684 29.2634948,8.05398096 C30.3980086,9.20997404 30.9673535,10.6880138 30.9673535,12.5007572 C30.9673535,14.6749243 30.2560204,16.4862614 28.8305699,17.9375811 C27.4037275,19.3889009 25.6288747,20.1117482 23.5060115,20.1117482 C21.6364999,20.1117482 20.1581519,19.5365643 19.0570471,18.3904154 C17.9601185,17.2442666 17.4088701,15.6987235 17.4088701,13.7580052 L17.4088701,13.7565989 Z M33.5997039,0.334703592 L29.4653408,0.334703592 L33.5161814,0.905668542 L30.7710757,19.5548464 C31.5714995,19.7404803 32.3524347,19.8782994 33.1250177,19.9725227 C33.8920326,20.062527 34.6506951,20.1103418 35.4037895,20.1103418 C38.3646617,20.1103418 40.6295131,19.4353094 42.1969517,18.0838382 C43.7643903,16.728148 44.5508937,14.7832107 44.5508937,12.2335569 C44.5508937,10.4883167 44.1137927,9.07074859 43.2423748,7.98647772 C42.3667807,6.89658157 41.232267,6.35514929 39.8332654,6.35514929 C39.2639204,6.35514929 38.6945755,6.45921679 38.1238385,6.67438338 C37.5544935,6.88814366 36.9614839,7.21722198 36.3448095,7.65458676 L37.4319939,0.334703592 L33.9978277,0.334703592 L33.5997039,0.334703592 Z M15.1300982,18.7419948 C14.1835101,19.2173302 13.1993368,19.5745348 12.1831465,19.8164215 C11.1711324,20.0583081 10.1354536,20.1778451 9.0900305,20.1778451 C6.40199851,20.1778451 4.21788552,19.3312419 2.53212335,17.6324102 C0.842185062,15.9392038 0,13.7467547 0,11.0635006 C0,9.49405019 0.282584409,8.04835569 0.842185062,6.73063609 C1.40178571,5.41291649 2.23979465,4.23442233 3.35203575,3.19234098 C4.52831075,2.09400692 5.87580685,1.28959325 7.3861718,0.776287322 C8.89792878,0.257356123 10.686702,0 12.7580597,0 C13.6392219,0 14.5050716,0.0576590221 15.3514328,0.175789701 C16.1936179,0.289701428 17.0177064,0.4711164 17.8181302,0.708784076 L17.2821943,4.27661186 C16.4539296,4.0726958 15.6771705,3.91940718 14.9560931,3.8251839 C14.2364076,3.72533535 13.5529153,3.67752055 12.9084001,3.67752055 C10.2537771,3.67752055 8.14344233,4.34833405 6.5899241,5.68996106 C5.03640587,7.03580701 4.25964676,8.84292514 4.25964676,11.1211597 C4.25964676,12.7806145 4.75382146,14.0800519 5.73799475,15.0068152 C6.72216804,15.9335785 8.0919368,16.400476 9.84869308,16.400476 C10.8746276,16.400476 11.9144826,16.1965599 12.9557295,15.7816962 C14.0011526,15.3682389 14.9755816,14.7733665 15.8748404,14.0027045 L15.1314903,18.7405885 L15.1300982,18.7419948 Z M104.073193,4.29489399 L99.8747961,4.29489399 L103.988278,4.87429684 L103.556746,7.80365643 C100.740646,8.35493293 98.427073,9.02293379 96.4754309,10.0031372 C95.6833593,8.85276936 94.8258618,7.71927737 93.8876259,6.60547382 L91.4125763,6.60547382 L90.5495106,6.60547382 L86.9469074,6.60547382 L90.9768673,7.17362614 C92.0376029,8.59260061 93.0454408,10.0593899 93.9962051,11.5725876 C91.7564105,13.3501731 90.0636881,15.8674816 88.5658515,19.6181307 L92.9619184,19.6181307 C93.2960083,18.0908698 94.3971131,16.3793812 95.9046939,14.8183687 C96.7566233,16.3681307 97.5500869,17.9671138 98.2850848,19.6181307 L101.646865,19.6181307 C100.666868,17.2963003 99.5574106,15.0082215 98.2391474,12.7721765 C99.7898815,11.6175898 101.517405,10.6894202 103.197599,10.1986153 L100.858969,26 L104.597993,26 L105.534837,19.6743834 L105.628103,19.6884466 C106.379806,19.7489182 106.917134,19.7812635 107.233127,19.7812635 C109.616302,19.7812635 111.555416,19.0274773 113.053252,17.5184985 C114.551089,16.0053007 115.302791,14.0505193 115.302791,11.6569667 C115.302791,10.1381437 114.777992,8.87386413 113.735353,7.86131545 C112.687145,6.84876677 111.364706,6.34389875 109.773603,6.34389875 C109.411672,6.34389875 109.035821,6.37905669 108.646049,6.4521852 C108.256277,6.52531372 107.852585,6.55344007 107.434973,6.69407183 L107.815,4.2963003 L104.339073,4.2963003 L104.071801,4.2963003 L104.073193,4.29489399 Z M76.6207441,0.410644743 L72.5824319,0.410644743 L76.5386136,0.967546517 L73.7712353,19.6167244 L87.7640357,19.6167244 L88.2415059,16.4721982 L78.3343471,16.4721982 L79.0804813,11.4586759 L85.9028763,11.4586759 L86.3942669,8.20726958 L79.5579515,8.20726958 L80.1982905,3.816746 L87.9296886,3.816746 L88.4308235,0.410644743 L77.0453167,0.410644743 L76.619352,0.410644743 L76.6207441,0.410644743 Z M106.008131,16.4496971 C106.19884,16.4820424 106.393726,16.5101688 106.592788,16.5298572 C106.79185,16.5481393 106.99648,16.5579836 107.205286,16.5579836 C108.480396,16.5579836 109.482666,16.1501514 110.210704,15.3302683 C110.934565,14.5103851 111.296496,13.3811121 111.296496,11.9424492 C111.296496,11.0283427 111.059849,10.3069018 110.582379,9.78234531 C110.109085,9.25356988 109.454825,8.99058849 108.633521,8.99058849 C108.396874,8.99058849 108.151874,9.01871484 107.895739,9.07496755 C107.645171,9.1270013 107.366763,9.21138035 107.070258,9.31826049 L106.008131,16.4496971 Z M115.219269,19.6167244 L116.923127,8.18898745 C116.994122,7.67990048 116.710145,6.9148637 116.403896,6.60547382 L120.873741,6.60547382 L120.628742,8.40415405 C121.352603,7.58005193 121.927516,7.03158806 122.345129,6.75454349 C122.766917,6.47749892 123.194274,6.34249243 123.629983,6.34249243 C123.973817,6.34249243 124.339924,6.41702726 124.729696,6.56328429 C125.119467,6.70813501 125.532904,6.92892687 125.968613,7.22425357 L124.160351,11.1886629 C123.816517,10.8131761 123.501915,10.5375379 123.209586,10.3589355 C122.921434,10.1817395 122.644418,10.0917352 122.384106,10.0917352 C122.012431,10.0917352 121.632404,10.2422112 121.2482,10.5361315 C120.862605,10.8356772 120.482577,11.2758546 120.10255,11.8622891 L118.961076,19.6167244 L115.222053,19.6167244 L115.219269,19.6167244 Z M129.391642,11.3236694 L133.765437,11.3236694 L133.765437,11.060688 C133.765437,10.3856556 133.608136,9.87094331 133.296319,9.51936391 C132.985893,9.16778451 132.52652,8.98918217 131.932118,8.98918217 C131.315444,8.98918217 130.796212,9.18606664 130.368856,9.57983557 C129.941499,9.9736045 129.617153,10.5544137 129.39025,11.3222631 L129.391642,11.3236694 Z M136.02472,18.8390307 C135.334267,19.1863912 134.582565,19.4479662 133.765437,19.6265686 C132.9497,19.8037646 132.104731,19.8937689 131.223569,19.8937689 C129.2942,19.8937689 127.768522,19.3270229 126.640969,18.1977499 C125.513415,17.0684768 124.948246,15.5271527 124.948246,13.5779965 C124.948246,11.4178927 125.602506,9.67546517 126.905456,8.33946344 C128.208407,7.00908698 129.92897,6.34389875 132.067146,6.34389875 C133.797454,6.34389875 135.133813,6.84595413 136.074833,7.85287754 C137.015853,8.85980095 137.489147,10.290026 137.489147,12.136521 C137.489147,12.3657508 137.484971,12.6006058 137.471051,12.8438987 C137.45713,13.0871917 137.434858,13.3262657 137.405625,13.5653397 L128.861275,13.5794029 C128.861275,13.6258113 128.857099,13.6919083 128.847354,13.7861315 C128.83761,13.8747296 128.833434,13.9366075 128.833434,13.9647339 C128.833434,14.8971225 129.107666,15.6087192 129.654738,16.1009303 C130.201811,16.5931415 130.99945,16.8364344 132.039305,16.8364344 C132.628139,16.8364344 133.300495,16.723929 134.056373,16.4989182 C134.812252,16.2739074 135.69759,15.922328 136.71378,15.4357421 L136.021936,18.8418434 L136.02472,18.8390307 Z M137.614431,18.6843358 L138.03622,15.7324751 L138.171248,15.7887278 C139.957237,16.4679792 141.228171,16.8054955 141.988225,16.8054955 C142.290298,16.8054955 142.540866,16.7309606 142.744104,16.5804846 C142.948734,16.4257897 143.050353,16.2429684 143.050353,16.0235829 C143.050353,15.6396582 142.660581,15.1516659 141.881038,14.5666378 C141.417488,14.2192774 141.055558,13.9239507 140.79107,13.6905019 C139.969765,12.9367157 139.414341,12.317936 139.126188,11.8299437 C138.843604,11.3377326 138.700223,10.8033319 138.700223,10.228148 C138.700223,9.08481177 139.131756,8.15242319 139.998998,7.42676331 C140.862064,6.70532237 141.979873,6.34389875 143.34825,6.34389875 C144.006685,6.34389875 144.670689,6.43671571 145.333301,6.619537 C145.991736,6.80235829 146.678013,7.07377759 147.382386,7.44363912 L147.165227,10.5319126 C146.405173,10.1564258 145.717504,9.86672436 145.10083,9.65999567 C144.484156,9.45326698 143.996941,9.3506058 143.63501,9.3506058 C143.352426,9.3506058 143.119955,9.41670273 142.934813,9.54186499 C142.749672,9.66843358 142.656405,9.83297274 142.656405,10.0340762 C142.656405,10.4278451 143.106035,10.9664647 144.001117,11.6414972 C144.464667,11.9972955 144.822422,12.2884033 145.072989,12.5077888 C145.764834,13.0843791 146.236736,13.6089355 146.497047,14.0870835 C146.751791,14.5610125 146.882643,15.1080701 146.882643,15.7310688 C146.882643,16.9208135 146.442758,17.9094548 145.556027,18.6927737 C144.674865,19.4746863 143.547312,19.8642363 142.180327,19.8642363 C141.456465,19.8642363 140.704763,19.765794 139.934964,19.5689096 C139.159597,19.3720251 138.385622,19.0766984 137.615823,18.6829295 L137.614431,18.6843358 Z" id="Shape" fill="#757575"></path>
                </g>
            </g>
        </g>
    </g>
</svg>