<?xml version="1.0" encoding="UTF-8"?>
<svg width="56px" height="77px" viewBox="0 0 56 77" version="1.1" xmlns="http://www.w3.org/2000/svg" xmlns:xlink="http://www.w3.org/1999/xlink">
    <title>Group 4</title>
    <defs>
        <filter id="filter-1">
            <feColorMatrix in="SourceGraphic" type="matrix" values="0 0 0 0 1.000000 0 0 0 0 1.000000 0 0 0 0 1.000000 0 0 0 1.000000 0"></feColorMatrix>
        </filter>
        <polygon id="path-2" points="0 0 35 0 35 34 0 34"></polygon>
    </defs>
    <g id="Page-1" stroke="none" stroke-width="1" fill="none" fill-rule="evenodd">
        <g id="La-Tarjeta---Desktop-" transform="translate(-587.000000, -1312.000000)">
            <g id="Group-7" transform="translate(181.000000, 1249.000000)">
                <g id="Group-4" transform="translate(406.000000, 63.000000)">
                    <rect id="Rectangle" fill="#AFAFAF" x="0" y="0" width="56" height="56" rx="8"></rect>
                    <text id="CVU/CBU" font-family="Roboto-Regular, Roboto" font-size="12" font-weight="normal" fill="#AFAFAF">
                        <tspan x="2" y="74">CVU/CBU</tspan>
                    </text>
                    <g filter="url(#filter-1)" id="Group-3">
                        <g transform="translate(11.000000, 11.000000)">
                            <mask id="mask-3" fill="white">
                                <use xlink:href="#path-2"></use>
                            </mask>
                            <g id="Clip-2"></g>
                            <path d="M5.53527719,31.8178775 L9.99094571,31.8178775 L9.99094571,15.769185 L5.53527719,15.769185 L5.53527719,31.8178775 Z M2.48712833,10.0176557 L17.4950317,2.3161272 L32.5126031,10.183497 L32.5126031,13.5870625 L2.48712833,13.5870625 L2.48712833,10.0176557 Z M18.5741032,31.8178775 L23.0297717,31.8178775 L23.0297717,15.769185 L18.5741032,15.769185 L18.5741032,31.8178775 Z M12.1394207,31.8178775 L16.4256282,31.8178775 L16.4256282,15.769185 L12.1394207,15.769185 L12.1394207,31.8178775 Z M25.1785153,31.8178775 L29.4647228,31.8178775 L29.4647228,15.769185 L25.1785153,15.769185 L25.1785153,31.8178775 Z M33.9257625,31.8178775 L31.6131978,31.8178775 L31.6131978,15.769185 L33.5868406,15.769185 C34.1800882,15.769185 34.6610781,15.2806624 34.6610781,14.6781238 L34.6610781,9.5184952 C34.6610781,9.11016553 34.436831,8.73593152 34.0793785,8.54881452 L17.9924036,0.121457527 C17.6859774,-0.0392012407 17.3226165,-0.0402923019 17.0153846,0.117093282 L0.928678304,8.37260813 C0.566660272,8.55836131 0.338653367,8.93477743 0.338653367,9.34638029 L0.338653367,14.6781238 C0.338653367,15.2806624 0.8196432,15.769185 1.41289085,15.769185 L3.38680223,15.769185 L3.38680223,31.8178775 L1.07423748,31.8178775 C0.480989833,31.8178775 0,32.3064002 0,32.9089388 C0,33.5114773 0.480989833,34 1.07423748,34 L33.9257625,34 C34.5190102,34 35,33.5114773 35,32.9089388 C35,32.3064002 34.5190102,31.8178775 33.9257625,31.8178775 L33.9257625,31.8178775 Z" id="Fill-1" fill="#668AFF" mask="url(#mask-3)"></path>
                        </g>
                    </g>
                </g>
            </g>
        </g>
    </g>
</svg>