<?xml version="1.0" encoding="UTF-8"?>
<svg width="30px" height="34px" viewBox="0 0 30 34" version="1.1" xmlns="http://www.w3.org/2000/svg" xmlns:xlink="http://www.w3.org/1999/xlink">
    <title>Group</title>
    <defs>
        <linearGradient x1="62.1296885%" y1="4.84%" x2="23.7197711%" y2="71.968%" id="linearGradient-1">
            <stop stop-color="#00A0FF" offset="0%"></stop>
            <stop stop-color="#00A1FF" offset="0.7%"></stop>
            <stop stop-color="#00BEFF" offset="26%"></stop>
            <stop stop-color="#00D2FF" offset="51.2%"></stop>
            <stop stop-color="#00DFFF" offset="76%"></stop>
            <stop stop-color="#00E3FF" offset="100%"></stop>
        </linearGradient>
        <linearGradient x1="107.724138%" y1="49.4235294%" x2="-130.669951%" y2="49.4235294%" id="linearGradient-2">
            <stop stop-color="#FFE000" offset="0%"></stop>
            <stop stop-color="#FFBD00" offset="40.9%"></stop>
            <stop stop-color="#FFA500" offset="77.5%"></stop>
            <stop stop-color="#FF9C00" offset="100%"></stop>
        </linearGradient>
        <linearGradient x1="86.3892216%" y1="31.3162202%" x2="-49.8862275%" y2="133.81805%" id="linearGradient-3">
            <stop stop-color="#FF3A44" offset="0%"></stop>
            <stop stop-color="#C31162" offset="100%"></stop>
        </linearGradient>
        <linearGradient x1="-18.5808383%" y1="-10.6785089%" x2="42.2754491%" y2="35.3089904%" id="linearGradient-4">
            <stop stop-color="#32A071" offset="0%"></stop>
            <stop stop-color="#2DA771" offset="6.9%"></stop>
            <stop stop-color="#15CF74" offset="47.6%"></stop>
            <stop stop-color="#06E775" offset="80.1%"></stop>
            <stop stop-color="#00F076" offset="100%"></stop>
        </linearGradient>
    </defs>
    <g id="Page-1" stroke="none" stroke-width="1" fill="none" fill-rule="evenodd">
        <g id="Home---Desktop-" transform="translate(-180.000000, -467.000000)" fill-rule="nonzero">
            <g id="Group" transform="translate(180.000000, 467.000000)">
                <path d="M0.553846154,0 C0.138461538,0.396 0,1.056 0,1.848 L0,31.02 C0,31.812 0.276923077,32.472 0.692307692,32.868 L0.830769231,33 L18,16.632 L18,16.368 L0.553846154,0 Z" id="Path" fill="url(#linearGradient-1)"></path>
                <path d="M21.6551724,23 L16,17.6941176 L16,17.3058824 L21.6551724,12 L21.7931034,12.1294118 L28.5517241,15.7529412 C30.4827586,16.7882353 30.4827586,18.4705882 28.5517241,19.5058824 L21.6551724,23 L21.6551724,23 Z" id="Path" fill="url(#linearGradient-2)"></path>
                <path d="M22,23.2139327 L16.7185629,18 L1,33.5176568 C1.62874251,34.1383631 2.50898204,34.1383631 3.64071856,33.6417981 L22,23.2139327" id="Path" fill="url(#linearGradient-3)"></path>
                <path d="M22,10.7617555 L3.64071856,0.40998663 C2.50898204,-0.213613905 1.62874251,-0.0888937977 1,0.534706737 L16.7185629,16 L22,10.7617555 L22,10.7617555 Z" id="Path" fill="url(#linearGradient-4)"></path>
                <path d="M22,23 L3.65662651,33.3220959 C2.64457831,33.951492 1.75903614,33.8256128 1.12650602,33.3220959 L1,33.4479752 L1.12650602,33.5738544 C1.75903614,34.0773713 2.64457831,34.2032505 3.65662651,33.5738544 L22,23 Z" id="Path" fill="#000000" opacity="0.2"></path>
                <path d="M0.52173913,32.8709677 C0.130434783,32.483871 -5.55111512e-17,31.8387097 -5.55111512e-17,31.0645161 L-5.55111512e-17,31.1935484 C-5.55111512e-17,31.9677419 0.260869565,32.6129032 0.652173913,33 L0.652173913,32.8709677 L0.52173913,32.8709677 Z M28.6956522,18.6774194 L22.173913,22.2903226 L22.3043478,22.4193548 L28.6956522,18.8064516 C29.6086957,18.2903226 30,17.6451613 30,17 C30,17.6451613 29.4782609,18.1612903 28.6956522,18.6774194 L28.6956522,18.6774194 Z" id="Shape" fill="#000000" opacity="0.12"></path>
                <path d="M3.26086957,0.563686099 L28.6956522,14.3816768 C29.4782609,14.8796224 30,15.377568 30,16 C30,15.377568 29.6086957,14.755136 28.6956522,14.2571904 L3.26086957,0.439199696 C1.43478261,-0.556691523 0,0.190226892 0,2.18200933 L0,2.30649573 C0,0.439199696 1.43478261,-0.432205121 3.26086957,0.563686099 Z" id="Path" fill="#FFFFFF" opacity="0.25"></path>
            </g>
        </g>
    </g>
</svg>