<?xml version="1.0" encoding="UTF-8"?>
<svg width="178px" height="31px" viewBox="0 0 178 31" version="1.1" xmlns="http://www.w3.org/2000/svg" xmlns:xlink="http://www.w3.org/1999/xlink">
    <title>Group 46</title>
    <defs>
        <polygon id="path-1" points="0 0.0614259259 30.9919447 0.0614259259 30.9919447 31 0 31"></polygon>
    </defs>
    <g id="Page-1" stroke="none" stroke-width="1" fill="none" fill-rule="evenodd">
        <g id="La-Tarjeta---Desktop-" transform="translate(-360.000000, -1249.000000)">
            <g id="Group-7" transform="translate(181.000000, 1249.000000)">
                <g id="Group-46" transform="translate(179.000000, 0.000000)">
                    <g id="Group-3">
                        <mask id="mask-2" fill="white">
                            <use xlink:href="#path-1"></use>
                        </mask>
                        <g id="Clip-2"></g>
                        <path d="M30.4936475,6.04117284 C30.215413,5.7623642 29.8451352,5.6087037 29.4509377,5.6087037 C29.1288821,5.6087037 28.639771,5.71414198 28.1374562,6.21626543 L26.9190796,7.43559877 C26.9416599,6.16115432 26.4531228,4.87350617 25.4523204,3.8727037 C24.5184932,2.9390679 23.2960981,2.42488889 22.0101722,2.42488889 C21.3140117,2.42488889 20.639666,2.57912346 20.0208142,2.86673457 L19.8809315,2.7708642 L17.8642093,0.749740741 C17.4214068,0.305790123 16.8308759,0.0614259259 16.201308,0.0614259259 C15.5740364,0.0614259259 14.9848451,0.304450617 14.542234,0.74591358 L0.68427716,14.5728704 C-0.228117901,15.4873704 -0.228117901,16.9759444 0.68427716,17.8908272 L2.68703025,19.8983642 L2.71726481,19.9632346 L1.34886358,21.3316358 C1.02948704,21.650821 1.02948704,22.1684444 1.34886358,22.4876296 L6.08995,27.2289074 L6.41430185,27.9273642 L6.22504877,28.1179568 C5.39302407,28.9553395 5.63872778,29.7684198 5.73383272,29.9976667 C5.82893765,30.2269136 6.23155494,30.9745494 7.41242531,30.9758889 L28.6166167,31 L28.618913,31 C29.2450364,31 29.8346105,30.7554444 30.2793265,30.3107284 C30.7227031,29.8667778 30.9672586,29.2783519 30.9680241,28.6535679 L30.9919447,7.4007716 C30.9925179,6.68911111 30.7211722,6.26831481 30.4936475,6.04117284" id="Fill-1" fill="#FEFEFE" mask="url(#mask-2)"></path>
                    </g>
                    <path d="M100.396159,5 C97.2057057,5 94.2495265,6.19957444 92.0717727,8.37812267 C90.6766551,9.77382809 89.6917086,11.4881997 89.1703339,13.3732986 C89.084778,13.3544326 88.9959682,13.3435987 88.9044788,13.3435987 L86.6493992,13.3435987 L89.3473793,10.0196456 C89.7401329,9.53566904 89.6817558,8.83744274 89.2135904,8.42201865 L88.9490751,8.18722184 C86.4968531,6.01278303 83.7544681,5 80.3182566,5 C74.0332415,5 69.2164589,9.46487509 68.7318331,15.5410129 L64.6657229,5.9700078 C64.4794903,5.53160836 64.040992,5.2458175 63.5546436,5.2458175 L57.9096714,5.24619108 C57.423323,5.24619108 56.9848247,5.53216873 56.7985921,5.97038138 L54.2543065,11.9596612 C53.4948297,7.9120781 49.9642578,5.3827356 44.8284108,5.3827356 L36.2029515,5.3827356 C35.5386007,5.3827356 35,5.90817984 35,6.55653283 L35,26.4432804 C35,27.0916334 35.5386007,27.6170776 36.2029515,27.6170776 L42.2913984,27.6170776 C42.9557492,27.6170776 43.49435,27.0916334 43.49435,26.4432804 L43.49435,22.1453968 L44.5533684,22.1453968 C46.9211828,22.1453968 48.9559605,21.6221941 50.5528141,20.6727333 L48.2925667,25.9936735 C48.1386808,26.355862 48.1802147,26.7692314 48.4033875,27.0951824 C48.6265604,27.4213202 49.0018966,27.6170776 49.4036461,27.6170776 L55.8350825,27.6170776 C56.3298525,27.6170776 56.7740928,27.3213868 56.9547748,26.8719667 L58.0298709,24.1971137 L63.3056316,24.1973005 L64.4058012,26.8796251 C64.5885886,27.3251226 65.0307235,27.6170776 65.5224311,27.6170776 L72.0614346,27.6170776 C72.4633754,27.6170776 72.8385202,27.4213202 73.0618845,27.0951824 C73.2850573,26.7692314 73.3265912,26.355862 73.1727053,25.9936735 L73.0184366,25.630551 C74.997134,27.1323539 77.5425679,28 80.4254408,28 C84.7221885,28 87.7650722,26.1907384 89.5605994,24.6734318 L89.6913258,24.563038 C89.9554584,24.3401959 90.1072389,24.0162996 90.1072389,23.6752185 L90.1072389,22.0262239 C92.0453594,25.611685 95.8593953,28 100.343907,28 C106.880039,28 112,22.9245038 112,16.4450833 C112,10.027304 106.903007,5 100.396159,5" id="Fill-4" fill="#FEFEFE"></path>
                    <path d="M47.2703798,14.4413187 C47.2703798,15.7568685 46.3061077,16.5742263 44.7541593,16.5744141 L42.72926,16.5744141 L42.72926,12.2257549 L44.7280443,12.2253792 C45.8875481,12.2253792 47.2703798,12.6001503 47.2703798,14.4413187 M45.1163466,7 L37,7 L37,27 L42.72926,27 L42.72926,21.4971587 L44.8575384,21.4971587 C49.8797136,21.4971587 52.9996398,18.6986803 53,14.1386841 C53,9.73535904 49.9791306,7 45.1163466,7" id="Fill-6" fill="#AFAFAF"></path>
                    <path d="M61.5084812,19.3087371 L58.3867038,19.3083453 L59.9578138,15.0561578 L61.5084812,19.3087371 Z M62.7402433,7 L57.2591992,7.0003918 L49,28 L55.2446697,28 L56.5793884,24.413282 L63.2888495,24.4136738 L64.650887,28 L71,28 L62.7402433,7 Z" id="Fill-8" fill="#AFAFAF"></path>
                    <path d="M100.472727,12.6171956 C103.019981,12.6171956 104.941407,14.7167588 104.941407,17.5557465 C104.941407,20.3077431 103.043302,22.3831842 100.526887,22.3831842 C98.0364922,22.3828044 96.085384,20.2380362 96.085384,17.4444434 C96.085384,14.6928267 97.9713461,12.6171956 100.472727,12.6171956 M100.526116,7 C97.6425314,7 94.9732735,8.09232745 93.0104081,10.0748894 C91.0687442,12.0365583 89.9996147,14.6734531 90.0000001,17.5557465 C90.0000001,23.4122627 94.6003214,28 100.473306,28 C106.376164,28 111,23.3879508 111,17.4444434 C111,11.5877373 106.399293,7 100.526116,7" id="Fill-10" fill="#AFAFAF"></path>
                    <path d="M79.6805589,15.4842173 L79.6809415,20.183595 L83.3605943,20.183595 L83.3605943,21.9672769 C82.657677,22.3965305 81.7981094,22.6054593 80.7398124,22.6054593 C77.9725175,22.6054593 76.0393513,20.5404833 76.0389688,17.5279205 C76.0389688,16.1774809 76.4943827,14.922009 77.320478,13.9930357 C78.1417915,13.0701404 79.2519228,12.5614938 80.4469779,12.5614938 C82.0427438,12.5614938 83.3194713,13.0836258 84.7155513,14.3075685 L85.0003523,14.5571434 L88.5004027,10.1696393 L88.2360675,9.93089071 C86.0200129,7.93106255 83.535989,7 80.4196263,7 C74.4793529,7 70,11.5140009 70,17.555651 C70.0003825,23.6075576 74.4275187,28 80.5267375,28 C84.4498772,28 87.2288395,26.3190731 88.8693626,24.9084241 L89,24.7961724 L89,15.4842173 L79.6805589,15.4842173 Z" id="Fill-12" fill="#AFAFAF"></path>
                    <path d="M164.488293,12 C164.51399,12 164.539314,11.9996188 164.564824,11.9988565 C166.461339,11.950637 168.25544,10.6027796 168.831377,8.79312101 C169.140667,7.81920257 169.020749,6.84204409 168.50235,6.11150996 C167.917847,5.28777699 166.893897,4.87819759 165.767161,5.03181369 C163.738625,5.30969492 161.978414,7.38999233 162.0002,9.48153459 C162.013607,10.9406969 163.060088,11.9998094 164.488293,12" id="Fill-14" fill="#FEFEFE"></path>
                    <path d="M127.60095,14.5333864 C127.155095,14.1130422 126.622295,13.8119723 126.016754,13.6379918 C125.467256,13.458057 124.871311,13.3518079 124.256365,13.3229663 C123.961559,13.3065916 123.670976,13.2998929 123.362352,13.305103 C123.850431,12.625928 124.352138,11.9288898 124.698573,11.4480711 C125.221585,10.7943884 125.893726,10.1235868 126.161853,9.98589105 C126.778911,9.83163459 127.820903,9.63030107 129.104152,9.41761695 C129.116435,9.41557013 129.128911,9.41315115 129.141386,9.41091824 L129.573806,9.32550966 C130.189712,9.2255872 130.813295,9.13329383 131.472769,9.03560427 C131.792334,8.98834114 132.114201,8.94070585 132.422826,8.89381486 C133.4153,8.75630518 134.400672,8.63721696 135.330001,8.52743251 C136.045519,8.43551129 136.732439,8.36294191 137.338556,8.29855984 L137.884023,8.24050433 C138.181132,8.20645254 138.460391,8.17333113 138.718922,8.14300085 C138.750591,8.13927935 138.780148,8.13574391 138.811049,8.13220848 C138.794927,8.14058187 138.779188,8.14988564 138.762874,8.15825903 C137.778653,8.65042831 137.603996,9.35602602 137.58749,9.73282859 C137.576742,9.98291385 137.622806,10.385767 137.934117,10.7891783 C137.470605,10.5951017 136.950664,10.5046691 136.377367,10.5322083 C135.168779,10.5485829 133.908562,11.0053979 133.057541,11.3894574 C132.802465,11.4992418 132.576946,11.6077237 132.367742,11.7214158 C132.337993,11.7376043 132.309011,11.7543511 132.279838,11.7716561 L132.27811,11.7733308 C132.135314,11.8499938 132.053551,11.8978152 132.053551,11.8978152 C132.029176,11.912143 132.005761,11.927029 131.982729,11.9426594 C130.513499,12.7958148 129.227371,13.8540253 128.106112,15.1271528 C127.964851,14.9057231 127.796719,14.7056921 127.60095,14.5333864 M169.530715,20.4256482 C169.541464,20.4062963 169.551828,20.3865724 169.561424,20.3668484 C169.619771,20.2458994 169.712282,20.0767569 169.843371,19.8504893 C169.847785,19.8428602 169.852199,19.835045 169.856422,19.8268577 C171.88513,16.2294631 174.438193,12.5230284 177.661094,8.49617185 C178.042076,8.03451893 178.106949,7.43200697 177.829801,6.91806687 C177.805425,6.87285056 177.7751,6.8250292 177.744775,6.7835344 C177.741321,6.77813821 177.737482,6.7729281 177.734027,6.76771799 C177.710228,6.73161937 177.684509,6.69700936 177.657255,6.6642601 L177.648426,6.65365381 C177.436535,6.3812395 177.223108,6.15925162 177.075129,6.0152293 C176.631961,5.55655358 176.194551,5.18477505 175.735261,4.87700643 C175.393624,4.64980843 175.008035,4.52960376 174.620335,4.52960376 C174.155287,4.52960376 173.712119,4.69260576 173.297164,5.01842369 C173.118477,5.16039918 172.94286,5.33940366 172.774921,5.55097132 L171.652126,6.96514393 C168.950893,10.3398064 166.729678,13.465686 164.862192,16.5201128 L164.333807,17.2532497 C163.834211,17.9688954 163.269551,18.6462097 162.611228,19.3196163 C162.568044,19.3534821 162.526779,19.3908832 162.488009,19.4312615 C162.393771,19.5298815 162.298573,19.6277571 162.2028,19.7248884 C162.08649,19.8369058 161.96922,19.9478067 161.850223,20.057219 C161.637564,20.2207792 161.409742,20.3997837 161.157545,20.6033501 C161.053902,20.686898 160.954866,20.7654218 160.863315,20.8365025 C160.894792,20.7665382 160.92646,20.6975043 160.958321,20.6292146 C161.022042,20.506591 161.064267,20.4299279 161.067529,20.4241596 C161.077894,20.405552 161.087874,20.3862002 161.097279,20.3670345 C161.86481,18.7798118 162.906034,17.1350918 164.283137,15.3353711 L164.672948,14.8216171 C165.041263,14.3631274 165.102297,13.7691749 164.829948,13.2617475 C164.803269,13.2116932 164.776783,13.169268 164.742811,13.1234935 C164.740124,13.119772 164.737821,13.1162366 164.735134,13.112515 C164.721699,13.0918607 164.707496,13.0715785 164.692909,13.0520406 C164.677555,13.0315723 164.661433,13.0112901 164.644735,12.9919382 L164.643583,12.9904496 C164.433995,12.7215707 164.221911,12.5005132 164.074316,12.3568631 C163.630381,11.8976291 163.192779,11.5256645 162.733488,11.2182681 C162.392235,10.9910701 162.006838,10.8710515 161.619138,10.8710515 C161.153898,10.8710515 160.710538,11.0340535 160.297119,11.358941 C160.211134,11.4274167 160.126877,11.5033355 160.041852,11.5894884 C159.98504,11.6399148 159.932835,11.6961095 159.88562,11.7582587 L159.883893,11.7606777 C159.843395,11.8068244 159.806161,11.8512964 159.774684,11.8909304 C159.764128,11.9041418 159.753764,11.9175392 159.743783,11.9314948 L159.342264,12.4740905 C158.719065,13.2889145 158.134444,14.0948068 157.604715,14.8698106 L155.883096,17.234456 C155.878682,17.2405965 155.874076,17.2469231 155.869853,17.2532497 C154.820568,18.7559941 153.423696,20.1586301 151.599586,21.5409838 C150.314226,22.51453 149.243828,22.9726475 148.129862,23.0269815 C148.081496,23.0292144 148.033705,23.0305169 147.987449,23.0305169 C147.369624,23.0305169 147.323369,22.8608162 147.300145,22.7439609 L147.297458,22.727028 C147.278841,22.625803 147.27673,22.5013186 147.291317,22.3569242 C147.293428,22.3360837 147.294963,22.3150572 147.295923,22.2942168 C147.347552,21.143899 147.889565,19.9050094 148.207978,19.2688178 C148.211049,19.2626773 148.21412,19.2565368 148.217191,19.2505824 C148.534644,18.5866656 148.921576,17.9523347 149.382402,17.3423797 C149.336339,17.5494816 149.348814,17.7673758 149.422324,17.9722448 C149.542088,18.30625 149.811367,18.5697327 150.154731,18.6891931 C150.258566,18.7251056 150.357218,18.7671586 150.453184,18.8071648 C150.757586,18.9338822 151.136265,19.0920462 151.585191,19.1173524 C154.148618,19.271795 155.434938,17.2683218 155.84471,16.6271061 C156.537388,15.5447059 156.689013,14.2836733 156.260624,13.1677794 C155.824557,12.0321616 154.836114,11.1570493 153.547683,10.7668493 C152.455213,10.4374959 151.309195,10.4523819 150.123639,10.8154149 C146.286751,11.9199582 143.76766,15.4723225 143.662098,15.6230436 C143.661906,15.6234157 143.661714,15.6237879 143.661331,15.62416 C143.129299,16.3351539 142.653886,17.1043894 142.248145,17.9113981 C141.781177,18.8402863 141.104237,19.6902784 140.119057,20.5841844 L140.093722,20.6040944 C140.062437,20.6295868 140.03288,20.6560095 140.004666,20.6837347 C139.938642,20.7365801 139.874153,20.7871926 139.811008,20.8365025 C139.842293,20.7663521 139.873961,20.6975043 139.905822,20.6292146 C139.968967,20.5075213 140.011,20.4317887 140.014263,20.4256482 C140.025011,20.4062963 140.035375,20.3867584 140.04478,20.3668484 C140.812119,18.7798118 141.853151,17.1350918 143.230254,15.3355572 L143.620449,14.821431 C143.989724,14.3616388 144.04999,13.766942 143.776105,13.2593285 C143.75077,13.2124375 143.722173,13.1670351 143.690696,13.1240517 C143.687433,13.1192138 143.68417,13.1145619 143.680907,13.1100961 C143.657108,13.0736253 143.631197,13.0386431 143.603559,13.0055217 L143.592044,12.9919382 C143.381496,12.7217568 143.16922,12.5003272 143.021625,12.356677 C142.642178,11.963872 142.26657,11.6382401 141.879254,11.3591271 C142.873455,11.0547078 143.880899,10.7149342 144.820208,10.1922486 C145.852412,9.61690365 147.039504,8.79221773 147.056777,7.51053076 C147.073859,6.21805143 145.871413,5.33996188 144.821552,4.71940061 C144.457651,4.50429752 144.137895,4.3610195 143.759983,4.3610195 C143.459995,4.3610195 143.028535,4.4538711 142.664634,4.91012784 C142.452935,5.16988902 142.237588,5.41234519 142.019939,5.64735835 C141.928196,5.52659545 141.813997,5.41178697 141.677151,5.30330504 C141.521303,5.17007509 141.363344,5.05508053 141.188879,4.93041005 C141.17909,4.92333919 141.168918,4.91626833 141.158746,4.90938354 C141.08466,4.8598875 141.014414,4.81020538 140.946278,4.76201187 C140.860677,4.70172346 140.778147,4.64366795 140.708668,4.59752126 C140.54783,4.48755074 140.41962,4.40846871 140.3321,4.35599547 C139.204699,3.62360292 137.75044,3.18911699 136.009244,3.06444651 C134.426583,2.9513127 132.686155,2.98722524 130.847459,3.17143983 C129.432545,3.2901559 127.951032,3.48665146 126.309256,3.77376572 C124.823904,4.04450534 123.496895,4.34148159 122.287156,4.62096676 C121.096225,4.89338106 119.879192,5.20803446 118.456794,5.61088758 C118.432994,5.61758629 118.409579,5.62502931 118.386547,5.63303055 C117.682353,5.80459201 114.167717,6.676355 112.654344,7.36092619 C111.593926,7.84062842 111.037711,8.48668201 111.001244,9.28103765 C110.997022,9.37128419 111.003547,9.46153074 111.020821,9.55028867 C111.086078,9.88503822 111.204499,10.1933651 111.373014,10.4667097 C111.387217,10.4897831 111.402571,10.5122982 111.41831,10.5344412 C111.463029,10.5969625 111.509093,10.6566927 111.552661,10.7128874 C111.568975,10.7337279 111.584522,10.7534518 111.598725,10.7722455 C111.640565,10.835325 111.688932,10.894683 111.743056,10.9493892 C112.026346,11.2352009 112.341305,11.4560723 112.679295,11.6051187 C112.702134,11.6151668 112.725166,11.6244705 112.748582,11.6332161 C113.11421,11.7686789 113.468898,11.8525989 113.791725,11.8814406 C114.084228,11.9102823 114.360608,11.9102823 114.598794,11.892419 C115.566893,11.8081269 116.623279,11.6704311 117.818816,11.4735634 C118.01708,11.4423028 118.215345,11.4102978 118.413225,11.3773625 C117.594065,12.4363172 116.697749,13.6242222 115.929258,14.7109022 C115.879356,14.7205782 115.827343,14.730068 115.775713,14.7393718 L115.738479,14.7464426 C115.609117,14.7704464 115.480908,14.7948222 115.358648,14.8236639 C114.778057,14.9585685 114.205528,15.1600881 113.699982,15.4073823 C113.506132,15.5028389 113.221499,15.6619333 112.994445,15.932859 C112.651657,16.3325489 112.500031,16.87868 112.577955,17.4287187 C112.634383,17.8339908 112.792342,18.2303313 113.062004,18.6415578 C113.149525,18.7744156 113.254319,18.9022493 113.35681,19.0269198 C113.377347,19.0518539 113.402298,19.0821842 113.428784,19.1149335 C112.480454,20.7170422 111.834224,22.5677475 111.551126,24.5021868 C111.321001,26.0708019 111.680871,27.2635449 112.613846,28.041712 L112.647434,28.0699954 C112.998092,28.3623198 113.187719,28.5132269 113.669273,28.7465654 C113.924541,28.8693751 114.40955,29 114.805311,29 C115.422177,29 115.782239,28.7032098 115.946915,28.5180649 C116.322332,28.0971624 116.315806,27.6020159 116.31216,27.308203 L116.311776,27.2775005 C116.325403,26.8498994 116.504858,26.3419137 116.696021,25.8011788 L116.747267,25.6549236 C116.944763,25.0946507 117.18602,24.4960463 117.530344,23.7137856 C117.833595,23.0241904 118.159109,22.2871459 118.485967,21.56629 C118.494604,21.548985 118.502473,21.5313079 118.51015,21.5136307 C118.648916,21.2075368 118.788642,20.9047922 118.929327,20.602978 C119.470764,19.5326726 119.826028,19.1796877 119.936772,19.0872082 C120.906982,18.9431859 123.894,18.5909453 124.851734,18.4787419 L124.861331,18.4779976 C124.875725,18.476695 124.89012,18.4755786 124.904707,18.4737178 C124.997985,18.4629255 125.09491,18.4513888 125.179744,18.4404103 L125.313519,18.42478 C125.343653,18.4212446 125.373402,18.4165927 125.402767,18.4110104 C125.453245,18.4041257 125.503915,18.3968687 125.554968,18.3894257 C125.570323,18.3870067 125.693734,18.3693296 125.871462,18.3421626 C125.539806,18.9476517 125.229454,19.5844016 124.941942,20.2561335 C124.390141,21.5437749 124.050807,22.9181274 123.960024,24.2307029 C123.881332,25.3786017 124.225656,26.4126224 124.929658,27.1420377 C125.597385,27.8338658 126.54821,28.2147621 127.6069,28.2147621 C128.070988,28.2147621 128.551007,28.1423787 129.032369,27.999659 C130.393158,27.5979223 131.467587,26.8285007 132.399986,25.9576681 C132.79901,27.3483953 133.959999,28.2434177 135.374721,28.2434177 C135.769906,28.2434177 136.172961,28.172709 136.572753,28.0331525 C137.012082,27.8796404 137.457937,27.6904017 137.948896,27.4483177 C138.716619,27.0586759 139.875497,26.3780123 141.288299,25.2595135 C141.965814,26.7563035 143.317966,28.2110405 146.013826,28.2110405 C146.522442,28.2110405 147.071172,28.1574508 147.645813,28.0513879 C149.432496,27.7201738 151.153539,26.9299118 153.063634,25.5630023 C153.158447,25.4948988 153.252685,25.4260509 153.346348,25.3566448 C153.363621,25.5309974 153.38934,25.6986513 153.425039,25.8549545 C153.428302,25.8681659 153.431565,25.8813772 153.43502,25.8945886 C153.81677,27.3216004 154.991386,28.2434177 156.427412,28.2434177 C156.822597,28.2434177 157.225652,28.172709 157.624868,28.0331525 C158.064965,27.8796404 158.511012,27.6902157 159.001395,27.4481316 C159.677567,27.1050087 160.657565,26.5358042 161.847152,25.6405958 C161.859436,25.7139094 161.873255,25.7857345 161.889377,25.8551406 C161.892448,25.8681659 161.895519,25.8811912 161.899165,25.8944025 C162.280724,27.3214143 163.455148,28.2434177 164.891558,28.2434177 C165.286551,28.2434177 165.689606,28.172709 166.089205,28.0331525 C166.528727,27.8796404 166.974774,27.6902157 167.465349,27.4481316 C168.244588,27.0527215 169.487339,26.3251669 171.010118,25.0946507 C171.041018,25.0736242 171.07096,25.0507369 171.099941,25.0267332 C171.099941,25.0267332 171.169036,24.9692359 171.278245,24.8760122 C171.383807,24.7881846 171.490712,24.6983102 171.599153,24.6058308 C171.607598,24.5987599 171.615851,24.591503 171.623912,24.584246 C171.855573,24.3752834 172.095102,24.1592499 172.33444,23.9560557 C172.378776,23.9182824 172.420233,23.8769737 172.458427,23.8328738 C173.318852,23.0470776 174.061433,22.3118939 174.66755,21.6461164 C174.699986,21.6103899 174.730119,21.5729888 174.757949,21.5339129 C175.062351,21.1243611 175.106495,20.5869755 174.866006,20.141139 C174.841055,20.0949923 174.817448,20.0564747 174.786355,20.0136774 L174.785587,20.0125609 C174.764475,19.980742 174.741635,19.9500396 174.717452,19.9202676 L174.716876,19.9197093 C174.714765,19.9172903 174.712654,19.9146853 174.710734,19.9122663 C174.57715,19.7416352 174.442799,19.6007762 174.347409,19.5075524 C174.069686,19.2206243 173.792921,18.9863554 173.4985,18.7889295 C173.216553,18.6013655 172.894686,18.5021874 172.568019,18.5021874 C172.301428,18.5021874 171.897605,18.5697327 171.483035,18.8953646 C171.362311,18.9911934 171.245425,19.1074905 171.134873,19.2414647 C171.004744,19.380463 170.872503,19.5172284 170.738536,19.6530634 C170.270033,20.0799202 169.775619,20.4941239 169.323238,20.8454342 C169.356058,20.7723065 169.389071,20.7004815 169.422275,20.6292146 C169.48542,20.5075213 169.527453,20.4317887 169.530715,20.4256482" id="Fill-16" fill="#FEFEFE"></path>
                    <path d="M139.412633,10.7199262 C139.72308,10.9050849 140.203122,11.0669165 140.516424,10.971968 C141.830924,10.5701225 143.201384,10.2218565 144.381693,9.57270746 C146.574809,8.36571311 146.511806,7.44155965 144.357138,6.18353729 C143.883759,5.90743939 143.868531,5.99728511 143.77888,6.10243923 C142.598191,7.53341004 141.219356,8.74386701 139.519034,9.59184296 C138.888813,9.90274925 138.807727,10.3563517 139.412633,10.7199262" id="Fill-18" fill="#AFAFAF"></path>
                    <path d="M164.464848,9.99934472 C165.964307,9.96065087 167.426814,8.8548758 167.879229,7.41678884 C168.340432,5.94600868 167.434205,4.81974863 165.952323,5.02397767 C164.411117,5.23793191 162.983564,6.94522047 163.000143,8.55380868 C163.008332,9.45018173 163.586784,10.0221058 164.464848,9.99934472" id="Fill-20" fill="#AFAFAF"></path>
                    <path d="M137.328906,15.9906719 L136.833969,16.6992856 C135.759361,18.1345157 134.703709,19.5881314 133.581522,20.9829513 C132.885653,21.84746 132.112822,22.6495341 131.342646,23.4495015 C131.140576,23.6389121 129.783905,24.883391 129.376923,24.5480443 C129.014676,24.2492775 129.295981,23.2689008 129.406684,22.9318305 C130.595974,19.9751877 132.229401,17.3155881 134.612152,15.1765322 C134.924545,14.8971086 135.293236,14.6661389 135.66951,14.4807502 C136.174305,14.2323524 136.717959,14.0848841 137.137262,14.6544563 C137.455152,15.0884343 137.546709,15.5379252 137.328906,15.9906719 M167.040701,22.3597686 C167.227795,21.8409484 167.421334,21.3456849 167.645582,20.8471656 C167.725765,20.685142 167.779031,20.5857446 167.779031,20.5857446 C167.852201,20.4279344 167.958354,20.2256922 168.091045,19.9878278 C168.092182,19.9855296 168.09294,19.983806 168.094078,19.9816993 C170.336745,15.8342024 173.01464,11.9182498 175.923606,8.13137983 C176.03355,7.99616867 176.002083,7.87723648 175.968532,7.81231214 C175.955452,7.79354345 175.942752,7.77362566 175.929482,7.75504849 C175.927966,7.75275029 175.927397,7.74987753 175.925691,7.74777084 C175.919436,7.74011015 175.91318,7.73264098 175.906925,7.72498029 C175.730067,7.48558377 175.547143,7.287938 175.422224,7.16211118 C175.074005,6.7852053 174.695077,6.4349203 174.281081,6.14630386 C173.911821,5.89024533 173.579145,6.00381504 173.302769,6.22999688 C173.171026,6.33897018 173.05331,6.47954382 172.975591,6.58123946 L171.86383,8.0409837 C169.450749,11.1824406 167.197276,14.4123785 165.218853,17.7897847 L164.681265,18.566387 C164.101026,19.4326194 163.450081,20.2266498 162.743407,20.9674384 L162.745113,20.9523085 C162.644457,21.0618564 162.543233,21.1706382 162.440872,21.2784624 C162.303442,21.4165463 162.164495,21.5532896 162.023084,21.6879262 C161.808314,21.8599086 161.577432,22.0485531 161.319822,22.2653506 C161.160024,22.3996042 161.010273,22.5217921 160.866587,22.6361279 C160.575236,22.8609691 158.993748,24.0522062 158.620318,23.7233712 C158.34887,23.4843577 158.523833,22.809068 158.674532,22.375856 C158.676806,22.370302 158.67946,22.3653226 158.681545,22.3597686 C158.86845,21.8409484 159.061989,21.3456849 159.286048,20.8471656 C159.36661,20.685142 159.419687,20.5857446 159.419687,20.5857446 C160.304736,18.6782331 161.435263,16.9066988 162.685023,15.2046853 L163.082906,14.6582866 C163.19285,14.522884 163.161384,14.4039518 163.128021,14.339219 C163.114752,14.3202588 163.102241,14.300341 163.088972,14.2819553 C163.087456,14.2796571 163.086887,14.2767843 163.085181,14.2746777 C163.079115,14.267017 163.07267,14.2593563 163.066225,14.2516956 C162.889746,14.0124906 162.706822,13.8148448 162.581903,13.6888265 C162.233494,13.3121121 161.854567,12.9620186 161.440571,12.6730192 C161.0715,12.4171522 160.738635,12.5305303 160.462259,12.7567122 C160.387952,12.8183807 160.319332,12.8892421 160.258862,12.9579968 L160.260758,12.9497615 L160.233272,12.9874904 C160.196877,13.0303903 160.162756,13.0719495 160.135081,13.1081463 L159.888654,13.460921 L159.721843,13.6899756 C159.136865,14.4866872 158.571601,15.2950814 158.032497,16.1180309 L156.32192,18.566387 C155.099646,20.39078 153.566496,21.8991697 151.85137,23.2535794 C150.651464,24.2004406 149.328155,24.9565505 147.75008,25.0366047 C146.587896,25.094826 145.868521,24.6549109 145.700004,23.760717 L145.697918,23.7614831 C145.696971,23.7530563 145.696781,23.7442465 145.695833,23.7356283 C145.65868,23.5245763 145.652045,23.2884356 145.677257,23.0277806 C145.735641,21.6741369 146.289531,20.2887014 146.696513,19.4408546 C147.613598,17.4444791 149.040974,15.7529991 150.825668,14.2949785 C151.103751,14.0687966 151.680009,13.8271019 151.984819,14.089672 C152.283943,14.3484118 151.93307,15.2416481 151.705031,15.6156812 C151.203458,16.4439932 150.69165,17.2657936 150.092835,18.2367859 C150.488633,18.3800408 150.827185,18.588603 151.176731,18.6092869 C152.672917,18.7017897 153.590191,17.7669941 154.298382,16.6129114 C155.341902,14.9131961 154.577222,12.9614441 152.688081,12.364868 C151.749766,12.0699314 150.860357,12.1432825 150.009808,12.4165776 C146.579176,13.4404287 144.264855,16.8892707 144.264855,16.8892707 L144.265424,16.8896538 C143.768781,17.5770091 143.330521,18.3141588 142.95292,19.0968897 C142.348608,20.3494123 141.508294,21.3384072 140.562207,22.2283878 C140.545716,22.242177 140.533773,22.2511783 140.517092,22.2653506 L140.520694,22.2707131 C140.36355,22.4028599 140.215694,22.5233243 140.074094,22.6361279 C139.782742,22.8609691 138.201634,24.0522062 137.828014,23.7233712 C137.556566,23.4843577 137.731339,22.809068 137.882228,22.375856 C137.884502,22.370302 137.886967,22.3653226 137.889052,22.3597686 C138.075957,21.8409484 138.269686,21.3456849 138.493744,20.8471656 C138.574117,20.685142 138.627383,20.5857446 138.627383,20.5857446 C139.512432,18.6782331 140.64277,16.9066988 141.89253,15.2046853 L142.290603,14.6582866 C142.400736,14.522884 142.36908,14.4039518 142.335528,14.339219 C142.322448,14.3202588 142.309748,14.300341 142.296479,14.2819553 C142.295152,14.2796571 142.294394,14.2767843 142.292877,14.2746777 C142.286622,14.267017 142.280177,14.2593563 142.274111,14.2516956 C142.097253,14.0124906 141.914329,13.8148448 141.78941,13.6888265 C141.441191,13.3121121 141.062073,12.9620186 140.648456,12.6730192 C140.279007,12.4171522 139.946521,12.5305303 139.669955,12.7567122 C139.538212,12.865877 139.420306,13.0064506 139.342777,13.1081463 L138.541323,14.2553344 C138.518007,14.1270179 138.481991,13.9969777 138.425313,13.8692357 C138.416973,13.8506585 138.408822,13.8339965 138.400671,13.817143 C137.966771,12.6762749 137.229388,12.1160871 136.121039,12.1773726 C135.129079,12.1856078 134.036463,12.6042645 133.298511,12.9524428 C133.095873,13.0428389 132.897405,13.1399381 132.706709,13.2479538 C132.674484,13.266148 132.644155,13.2862573 132.61212,13.3046429 C132.494972,13.3703334 132.427679,13.411318 132.427679,13.411318 L132.428248,13.4149569 C129.313421,15.2761212 127.261449,18.1061711 125.889803,21.4443163 C125.411736,22.6068258 125.091761,23.899184 125.008545,25.1534302 C124.868651,27.2783138 126.464355,28.4241613 128.482585,27.8013473 C130.016114,27.3294489 131.140007,26.2479511 132.182201,25.0885059 C132.451184,24.7885899 132.710311,24.4789066 132.967921,24.166159 L133.272542,23.7019212 L133.383813,23.6053966 C133.383813,23.6053966 133.066112,25.4604323 133.291498,26.4835173 C133.59536,27.6674768 134.63452,28.3056121 135.872717,27.8547806 C136.284628,27.7048226 136.687819,27.5221152 137.083238,27.3187239 C137.970373,26.8495067 139.302022,26.0070225 140.932036,24.555705 C141.137707,24.3622726 141.344326,24.1699893 141.553788,23.9815364 C142.060858,27.1547852 143.890098,28.4193734 146.989192,27.8237548 C148.81919,27.470214 150.384944,26.5737219 151.854782,25.4772859 C152.621546,24.9036918 153.349262,24.2751323 154.08892,23.6743428 C154.08873,23.6768325 154.08854,23.6791307 154.08854,23.6812374 L154.176306,23.6053966 C154.176306,23.6053966 153.858416,25.4606239 154.083991,26.4837088 C154.387664,27.6674768 155.427014,28.3056121 156.665021,27.8547806 C157.077121,27.7048226 157.480312,27.5219237 157.875921,27.3187239 C158.762866,26.8495067 160.094515,26.0070225 161.72415,24.555705 C161.964132,24.3302892 162.204492,24.1048735 162.450349,23.8869269 L162.498308,23.8476658 C162.421916,24.382765 162.267425,25.6856566 162.443146,26.4837088 C162.747198,27.6674768 163.786358,28.3056121 165.024366,27.8547806 C165.436277,27.7048226 165.839657,27.5219237 166.235076,27.3187239 C167.03255,26.897003 168.190184,26.1719188 169.599552,24.9757023 L169.601069,24.9799156 C169.601069,24.9799156 169.665518,24.9238011 169.778685,24.823063 C169.879151,24.7363057 169.980754,24.6472502 170.083495,24.555705 C170.323856,24.3297147 170.564784,24.1037244 170.8114,23.8855863 L170.813675,23.8719885 C171.472202,23.2482169 172.295075,22.4325451 173.007626,21.6166818 C173.009901,21.6126599 173.011796,21.6090211 173.015398,21.6048077 C173.078521,21.5270517 173.060323,21.4588716 173.040989,21.4217172 C173.033406,21.4109923 173.026203,21.3993097 173.018621,21.3889678 C173.017862,21.3876272 173.017483,21.3859035 173.016725,21.3845629 C173.012934,21.3803495 173.009332,21.3759446 173.005731,21.3715397 C172.904317,21.2342219 172.799301,21.1204606 172.727459,21.0482587 C172.527474,20.8318442 172.310051,20.6309426 172.072344,20.4648972 C171.860418,20.318195 171.669342,20.3833109 171.510492,20.5131595 C171.435048,20.5757857 171.367186,20.6564144 171.322829,20.7148272 C171.171941,20.8835538 171.018209,21.0492162 170.862581,21.2133465 L170.86296,21.2133465 C170.86296,21.2133465 170.860875,21.2154532 170.860117,21.2160277 C170.859359,21.2169853 170.8586,21.2177514 170.857842,21.218709 L170.857273,21.2189005 C170.735766,21.3343854 167.83097,24.0897436 167.077096,23.7723996 L167.077854,23.7706759 C167.039753,23.7616746 167.00639,23.7467363 166.979663,23.7233712 C166.708215,23.4843577 166.883177,22.809068 167.034066,22.375856 C167.036151,22.370302 167.038615,22.3653226 167.040701,22.3597686" id="Fill-22" fill="#AFAFAF"></path>
                    <path d="M140.811267,6.05610045 C140.687736,5.94399156 140.551555,5.84075324 140.398817,5.726757 C140.239194,5.61464811 140.094828,5.50197301 139.954182,5.40420802 C139.807024,5.29870488 139.697075,5.22925021 139.62917,5.18678472 C138.703064,4.55131228 137.492876,4.17553989 135.986326,4.06248733 C134.490753,3.95075591 132.879648,3.99039036 131.179803,4.16912289 C129.736693,4.29538694 128.306606,4.50507208 126.886006,4.76496087 C125.465593,5.03579632 124.181732,5.33682945 123.040007,5.61313822 C121.759495,5.91945595 120.546144,6.2572925 119.386744,6.60097985 L119.386,6.60758559 C119.386,6.60758559 115.443446,7.59561596 113.928896,8.31262213 C113.231806,8.64234306 113.012279,8.95715388 113,9.23799231 C113.038324,9.44428022 113.104554,9.62357894 113.196086,9.77928573 C113.266037,9.88158038 113.340453,9.97406077 113.393846,10.0538959 L113.394404,10.0557832 C113.557561,10.2280988 113.742485,10.3704053 113.943035,10.4628857 C114.192143,10.5595183 114.433808,10.6219898 114.655196,10.6427507 C114.899838,10.66823 115.081041,10.6629454 115.214431,10.6525649 C116.153188,10.566879 117.172685,10.4245724 118.253762,10.2381017 C119.337816,10.0601242 120.340942,9.86610407 121.269652,9.66472328 L121.417182,9.63660169 L121.419414,9.63792284 C121.419414,9.63792284 121.790378,9.54242268 121.664987,9.73851887 C121.659592,9.74701196 121.656243,9.75512759 121.652708,9.76343195 C120.690883,11.0198442 118.72314,13.6281689 117.334726,15.7193582 C117.129896,15.8005145 116.902928,15.8441124 116.681354,15.8863892 C116.561917,15.9097924 116.443223,15.9322519 116.328437,15.9605622 C115.851989,16.0764458 115.384471,16.2483839 114.97723,16.4567479 C114.871002,16.5112924 114.750448,16.5816908 114.663195,16.6907799 C114.540223,16.8408246 114.48776,17.0599465 114.519014,17.29077 C114.550641,17.529143 114.647754,17.7741217 114.815376,18.0417486 C114.866165,18.1225274 114.943557,18.2214248 115.029135,18.3305139 C115.274336,18.6424937 115.610138,19.0696022 115.459631,19.3108061 C114.471388,20.9009028 113.801645,22.795996 113.522586,24.791119 C113.356824,25.9722257 113.567235,26.7996422 114.164237,27.3203635 L114.190096,27.3432004 C114.476225,27.5930863 114.583384,27.6866991 114.938162,27.866564 C115.044391,27.9201649 115.334985,28 115.51935,28 C115.624463,28 115.69739,27.9747094 115.740737,27.9224297 C115.803619,27.8495778 115.813665,27.7170855 115.810874,27.4824872 L115.810316,27.4300188 C115.823339,26.8077578 116.037843,26.1730403 116.245463,25.5587063 L116.295322,25.4101714 C116.496059,24.8133898 116.739585,24.1809371 117.085247,23.3591827 C117.411746,22.5823474 117.720386,21.851941 118.029398,21.1396532 L118.02977,21.1398419 L118.032375,21.1332362 C118.173765,20.80729 118.315527,20.4851184 118.458964,20.1638906 C118.887786,19.2736252 119.572412,18.0813831 120.202528,17.9772011 C121.023522,17.8415002 124.020064,17.4712012 125.138349,17.3343679 C125.149139,17.3334243 125.159743,17.3322919 125.17072,17.3313482 C125.256484,17.3213452 125.345039,17.3100211 125.436757,17.2977533 C125.517498,17.287939 125.563636,17.2822769 125.563636,17.2822769 L125.561589,17.2807671 C125.628564,17.2711416 125.69684,17.2613273 125.768093,17.2505694 C125.887159,17.2324508 126.943306,17.069572 127.353338,16.9591618 C127.449334,16.933305 127.617886,16.8778168 127.659745,16.8066635 C127.712581,16.734944 127.721697,16.6254774 127.688396,16.4884554 C127.608398,16.0164279 127.415847,15.6412217 127.122277,15.3783132 C126.819404,15.0742603 126.451045,14.8575919 126.03413,14.7356688 C125.597681,14.5837367 125.118815,14.4940874 124.612787,14.4691743 C124.107875,14.4395428 123.604265,14.4478472 123.035728,14.4897464 L122.67016,14.5131496 C122.286546,14.5365528 122.206921,14.5418374 121.757821,14.6212951 C121.61457,14.6528139 121.505737,14.6737636 121.423507,14.6850877 C121.770843,14.1630453 123.147724,12.1613165 124.167779,10.6789879 L124.167593,10.6789879 C124.167593,10.6789879 124.168896,10.6772893 124.16964,10.6761568 C124.172244,10.6727596 124.174663,10.6689849 124.177081,10.6655877 L124.178012,10.6655877 C124.296891,10.5098809 125.506521,8.9445086 126.194682,8.76237884 C127.005444,8.54684289 128.300466,8.30771501 129.182109,8.15465052 L129.621534,8.06405748 C130.529222,7.90929436 131.472072,7.77000756 132.430548,7.61845295 C133.380653,7.48067603 134.327224,7.36007405 135.260957,7.24494539 C136.174784,7.12207858 137.012521,7.03563772 137.752773,6.95165042 C138.489305,6.86351094 139.109747,6.78292088 139.579311,6.73139608 C140.03883,6.67364302 140.291844,6.63853822 140.343563,6.63400856 C140.64997,6.60513203 140.833219,6.57115964 140.906333,6.53020404 C140.97647,6.46716638 141.00605,6.38770873 140.998981,6.29145363 C140.993958,6.23898516 140.937216,6.15726268 140.811267,6.05610045" id="Fill-24" fill="#AFAFAF"></path>
                    <path d="M28.185809,7.25750458 L28.1852344,7.25807864 L25.7415142,9.70148557 L25.7411311,9.70186828 C25.6694992,9.77362625 25.5898231,9.83256347 25.5059333,9.88135889 C25.2929529,10.257562 25.0257698,10.6132903 24.7020856,10.9368709 C23.7890662,11.8488669 22.5872209,12.3513641 21.3177658,12.3513641 L21.3173827,12.3513641 C21.1859937,12.3511728 21.0553709,12.3444753 20.9255141,12.3337595 C20.9569249,12.4321158 20.9709065,12.5362127 20.9634369,12.6414577 L20.9586487,12.707475 C20.888932,13.6753466 20.5451373,15.0900312 19.3024962,16.3313485 C18.6691094,16.9641582 17.9190813,17.4071441 17.1186811,17.6344733 C17.1324712,17.673127 17.1445375,17.7121633 17.1527732,17.7529218 C17.2060183,18.0206269 17.1219371,18.2973257 16.9286842,18.4904025 L15.156082,20.2613893 C14.9195435,20.4977123 14.5629163,20.5664086 14.2553205,20.434948 L13.4344266,20.0836209 L12.3473073,21.1695583 L12.7014446,21.979945 C12.8360896,22.2882173 12.7680968,22.6473899 12.5300261,22.8850523 L10.7865364,24.6269533 C10.6317808,24.7817591 10.4228225,24.8663379 10.2081184,24.8663379 C10.1548733,24.8663379 10.1014367,24.8613626 10.0483831,24.8506468 C9.78024231,24.7974502 9.55653628,24.6139411 9.45196137,24.3617358 L8.93310895,23.1089372 C8.69867729,23.5601513 8.37212012,24.0023718 7.9519052,24.4222038 L7.91742995,24.456839 L8.85860412,25.3969642 C9.01201895,25.5504306 9.09839859,25.758433 9.09839859,25.9750464 C9.09839859,26.1918512 9.01221048,26.3998537 8.85860412,26.5531287 L7.20819757,28.2022227 C7.19670582,28.2137039 7.18444796,28.2240371 7.17219009,28.2347529 L6.25648931,29.155934 C5.80888572,29.6061914 5.96249209,29.9749317 6.59741116,29.9756971 L27.8201799,30 C28.1381182,30.0003819 28.4273272,29.8704521 28.6368601,29.6611102 C28.8458184,29.4521509 28.9756751,29.1643536 28.9758667,28.8476617 L29,7.59562816 C29.0005739,6.96128765 28.6343702,6.8093521 28.185809,7.25750458" id="Fill-26" fill="#AFAFAF"></path>
                    <path d="M4.28233448,19 L4.3826951,18.9000937 C5.24400169,18.0426862 6.21702356,17.5894617 7.19663847,17.5894617 C7.52354305,17.5894617 7.84330518,17.6405087 8.15098008,17.7402327 L7.56749661,16.3371691 C7.44662433,16.0460189 7.51347036,15.711114 7.73726722,15.4885126 L9.20037126,14.0318497 C9.42398499,13.8090659 9.76059598,13.7425225 10.052704,13.8628476 L12.6076877,14.9155099 C11.7189101,13.1826462 12.0062565,11.108679 13.4803489,9.64125979 C14.4216876,8.70418252 15.5040439,8.21887129 16.7893192,8.15761488 L16.9204473,8.15159862 C17.0812441,8.14412388 17.233067,8.18605536 17.3616312,8.26299049 C17.3396544,8.09234763 17.3264683,7.91988166 17.3242706,7.74613951 C17.3088869,6.51590655 17.7920097,5.34893541 18.6848164,4.4603528 C18.7860927,4.35935265 18.8915812,4.26436874 19,4.17412492 L17.1431453,2.32148304 C16.7142319,1.89359971 16.0117075,1.89268815 15.5820615,2.31965994 L2.32292153,15.4888772 C2.32255525,15.4890595 2.32218897,15.4894241 2.32200583,15.4896064 C1.89309236,15.9167605 1.89254294,16.6153753 2.32109013,17.0430764 L4.28233448,19 Z" id="Fill-28" fill="#AFAFAF"></path>
                    <path d="M7.71375318,20.5721751 C8.05532428,20.9355227 8.00634835,21.4388847 7.58627172,21.886126 L7.03781333,22.4695508 L5.90866606,21.2686073 L6.44974205,20.6926525 C6.76394425,20.3584186 7.23569769,20.0636416 7.71375318,20.5721751 M5.19815497,19.1373636 L3,21.47566 L8.19306908,27 L9.7448138,25.3491337 L8.31586902,23.8292794 L8.89241655,23.2161661 C10.252579,21.7692878 10.3708774,20.0973523 9.18699236,18.8377981 C8.04362047,17.6217231 6.51510331,17.7362629 5.19815497,19.1373636" id="Fill-30" fill="#AFAFAF"></path>
                    <path d="M12.2579837,18.4512106 L11.4232611,19.2859501 L10.7648006,17.787234 L12.2579837,18.4512106 Z M9.46530396,15 L8,16.4655172 L11.1182417,24 L12.7876867,22.3303375 L12.2348733,21.0638298 L14.0288573,19.2701761 L15.3026758,19.8154806 L17,18.1181218 L9.46530396,15 Z" id="Fill-32" fill="#AFAFAF"></path>
                    <path d="M16.1603559,11.7163248 L17.3853902,12.9572599 L18.3379307,11.9922116 L18.8026872,12.4632559 C18.7326904,12.7611766 18.5647348,13.0416924 18.2907789,13.3192456 C17.5745459,14.0448834 16.5359259,14.0063704 15.7504272,13.2109276 C15.3986159,12.8543115 15.1891739,12.4034495 15.1608463,11.941478 C15.1327014,11.4822839 15.2876811,11.0567887 15.5969095,10.7434998 C16.0099451,10.3248555 16.4765291,10.1282167 17.1569413,10.0850746 L17.2956555,10.0765573 L17.0580687,8 L16.9273959,8.00611024 C15.832486,8.05925086 14.9468354,8.46456374 14.1401366,9.28204039 C12.6025842,10.8397824 12.6195808,13.2064838 14.1945988,14.8019983 C15.7721755,16.4002901 18.063061,16.3991791 19.6417343,14.7995912 C20.6573267,13.7708482 20.9384102,12.5982367 20.995431,11.7955728 L21,11.7315078 L18.5725934,9.27241213 L16.1603559,11.7163248 Z" id="Fill-34" fill="#AFAFAF"></path>
                    <path d="M19.6748613,5.69027133 C20.3532587,5.01330636 21.4324412,5.06890069 22.1997124,5.83455186 C22.9436756,6.57675507 22.9990086,7.64098939 22.3287595,8.31001231 C21.6653323,8.97166047 20.5660632,8.91171693 19.8109197,8.15835703 C19.067146,7.41615381 19.0085916,6.35513414 19.6748613,5.69027133 M18.1708277,4.16104907 C17.4027984,4.92764571 16.9870431,5.93155829 17.0003079,6.98785056 C17.0133831,8.03317524 17.4410767,9.02838938 18.2202862,9.80576452 C19.8031504,11.3850973 22.2683101,11.3998468 23.8326036,9.83885638 C25.4046665,8.27011298 25.3896962,5.79711078 23.7833345,4.19433003 C22.2004704,2.61480813 19.7351211,2.60024771 18.1708277,4.16104907" id="Fill-36" fill="#AFAFAF"></path>
                    <path d="M19.2225517,20.9850353 C19.3182147,20.9500914 19.4413104,20.8569078 19.481932,20.7334949 C19.6516282,20.2146061 19.8427783,19.6957173 19.9380895,19.139666 C20.1149956,18.1060485 19.919801,17.8362041 19.2617665,18.0880219 C19.117217,18.143211 19.1321643,18.1756589 19.136033,18.2355627 C19.1956465,19.0359438 19.173841,19.8268955 19.0192679,20.6006527 C18.9612371,20.8865823 19.0357979,21.052427 19.2225517,20.9850353" id="Fill-38" fill="#FEFEFE"></path>
                    <path d="M24.7460073,15.8293877 C25.0061878,15.4516375 25.0766426,14.8295452 24.9099401,14.3772013 C24.7394292,13.914816 24.3845589,13.8705858 24.1558839,14.2830029 C23.9183805,14.7126339 23.9576759,15.4688515 24.2368982,15.8463625 C24.3925218,16.0569941 24.5936727,16.050778 24.7460073,15.8293877" id="Fill-40" fill="#FEFEFE"></path>
                    <path d="M19.6358059,22.0853095 L19.6776611,22.3428787 C19.7475443,22.8802762 19.8250885,23.4172761 19.8774075,23.9560648 C19.9097332,24.2903483 19.9140275,24.6274141 19.9183284,24.9638838 C19.9155256,25.0477528 19.8901135,25.6050244 19.7406307,25.6211225 C19.6074042,25.6354319 19.4680114,25.3661369 19.4227929,25.2703434 C19.0711345,24.3841543 18.868959,23.4655704 18.9225859,22.4967048 C18.9300601,22.3701063 18.958275,22.2413217 18.9973274,22.1208843 C19.0496464,21.9591086 19.1301802,21.8106485 19.3291792,21.841851 C19.4805306,21.8658987 19.5890925,21.941818 19.6358059,22.0853095 M26.9266439,17.0452209 C26.8606846,16.894376 26.8005178,16.7473072 26.7459566,16.5926862 C26.7298872,16.5408146 26.7205445,16.5082209 26.7205445,16.5082209 C26.7039145,16.4587343 26.6848555,16.392752 26.6641147,16.3136529 C26.6639279,16.3128579 26.6635542,16.3122617 26.6633673,16.3114667 C26.2864837,14.9447203 26.0439478,13.5338532 25.8739111,12.1003296 C25.8690529,12.0478618 25.8389695,12.0291801 25.819163,12.0226216 C25.81281,12.0214291 25.8060833,12.0198392 25.7997303,12.0190442 C25.7989829,12.0188455 25.7982354,12.0182493 25.7976749,12.0182493 C25.7946852,12.0178518 25.7918824,12.0176531 25.7892665,12.0172556 C25.7053692,12.0043374 25.6287593,12.001555 25.5783088,12.0017537 C25.4321894,11.996189 25.2853225,12.0033437 25.1436875,12.03077 C25.0177482,12.0558114 24.9730902,12.1518037 24.9624396,12.2595217 C24.9575814,12.3109957 24.961879,12.3664447 24.9665504,12.4048018 L25.0340045,12.9553162 C25.1750789,14.1441889 25.3658564,15.3177584 25.6422127,16.4635041 L25.6889261,16.7449223 C25.7449822,17.054363 25.7724497,17.3638038 25.7778684,17.6738408 L25.7750656,17.6702635 C25.7765604,17.7151791 25.7778684,17.7600947 25.7788027,17.805209 C25.7786158,17.8642353 25.7780553,17.9234603 25.7763736,17.9822879 C25.7672178,18.0651631 25.7584356,18.1553919 25.7496535,18.2567501 C25.7442348,18.31995 25.7382555,18.37838 25.7320893,18.4336302 C25.7182621,18.5443293 25.636794,19.1385669 25.4953459,19.1489014 C25.3923896,19.1564536 25.2924229,18.9748037 25.2363669,18.849994 C25.2356195,18.848404 25.2352457,18.8468141 25.2344983,18.8450254 C25.1683522,18.6943792 25.1083722,18.5469129 25.053811,18.3926894 C25.0375547,18.3406191 25.0283989,18.3080255 25.0283989,18.3080255 C24.8252891,17.7110055 24.6993498,17.0899378 24.6113418,16.4583368 L24.5823795,16.2560178 C24.5775213,16.20355 24.547251,16.185067 24.5276314,16.1783098 C24.5210915,16.1771173 24.5145517,16.1757261 24.5081986,16.1747324 C24.5074512,16.1745337 24.5067038,16.1739375 24.5059564,16.1739375 C24.5031536,16.17354 24.5003508,16.1733412 24.497548,16.1729438 C24.4138376,16.1602243 24.3372277,16.1574419 24.2867772,16.1574419 C24.1406577,16.1520759 23.9937909,16.1592306 23.8521559,16.1864582 C23.7260297,16.2114996 23.6813718,16.3074919 23.670908,16.4152098 C23.6681052,16.4442261 23.6684789,16.4742361 23.6699737,16.5018612 L23.6686657,16.4998738 L23.6707211,16.513587 C23.6718422,16.5306788 23.6733371,16.5467768 23.6750187,16.56049 L23.6957595,16.6888771 L23.707905,16.7733423 C23.7491996,17.0692687 23.7968472,17.3630088 23.8523427,17.6547616 L23.9967805,18.5449255 C24.114872,19.1967982 24.1066504,19.8482733 24.0307879,20.506307 C23.9777215,20.9663939 23.8613117,21.4123702 23.5578616,21.7693103 C23.3341979,22.031848 23.1004441,22.0930604 22.8872442,21.9388369 L22.8868705,21.9394331 C22.885002,21.9378432 22.8833203,21.9360545 22.8814518,21.9342659 C22.8315619,21.8974986 22.78298,21.8486082 22.735706,21.7875945 C22.4763533,21.4863021 22.3108011,21.0719258 22.2233536,20.8036245 C22.0090326,20.1807682 21.9591427,19.5129962 22.0282785,18.8179966 C22.039116,18.7098811 22.1075044,18.5341935 22.2216719,18.5244551 C22.3341578,18.515313 22.4421591,18.7812294 22.4709346,18.9098152 C22.535399,19.1944133 22.5963133,19.480005 22.6695599,19.8156797 C22.7784955,19.7610258 22.8889259,19.7326057 22.9636673,19.6618537 C23.2852423,19.3591701 23.2835606,18.9624818 23.1957394,18.5640047 C23.0664368,17.9771206 22.5204507,17.7257124 22.0185622,18.0055406 C21.7694864,18.1446598 21.604121,18.3519474 21.486777,18.5932197 C20.9974076,19.5499621 21.2199502,20.7833529 21.2199502,20.7833529 L21.220137,20.7833529 C21.2573209,21.0369472 21.3161797,21.2881567 21.3967136,21.536385 C21.5252688,21.9332721 21.5532969,22.3251907 21.5400303,22.7185005 C21.5394697,22.7250589 21.5389091,22.7294312 21.5383486,22.7359897 L21.5402171,22.7363872 C21.5349852,22.7983946 21.5290059,22.8560297 21.5230266,22.9104849 C21.5090126,23.021184 21.4277313,23.6154216 21.2862832,23.6257562 C21.1833269,23.6333083 21.0833602,23.4516585 21.0271173,23.3268487 C21.0263699,23.3252588 21.0259962,23.3236688 21.0252488,23.3220789 C20.9592895,23.171234 20.8991226,23.0239664 20.8447483,22.8695441 C20.828492,22.8176725 20.8193362,22.7850789 20.8193362,22.7850789 C20.6162264,22.188059 20.4901002,21.5669913 20.4020922,20.9351915 L20.3731299,20.7328725 C20.3682717,20.6806034 20.3381883,20.6619217 20.3183818,20.6553632 C20.3120288,20.6541708 20.3053021,20.6525809 20.2989491,20.6515872 C20.2982017,20.6513884 20.2976411,20.6507922 20.2968937,20.6507922 C20.293904,20.6503947 20.2911012,20.650196 20.2884853,20.6499972 C20.204588,20.637079 20.1279781,20.6342966 20.0775276,20.6342966 C19.931595,20.6291293 19.7845413,20.6360853 19.6429063,20.6637104 C19.516967,20.6885531 19.472309,20.7843466 19.4616584,20.8920646 C19.4568002,20.9437374 19.4610978,20.9989876 19.4657692,21.0375435 L19.533597,21.4545035 C19.5031399,21.4320457 19.4696931,21.4119728 19.4326961,21.3970671 C19.4272773,21.394881 19.4222323,21.393291 19.4173741,21.3913036 C19.1008442,21.2416512 18.8392493,21.281002 18.6271705,21.5328077 C18.4279846,21.7480449 18.2906473,22.0725901 18.2110477,22.3055153 C18.1882516,22.3685164 18.1675108,22.431915 18.1505071,22.4959098 C18.1477043,22.5068406 18.1454621,22.5177714 18.1426593,22.5283047 C18.1321955,22.5678543 18.1267767,22.5911071 18.1267767,22.5911071 L18.1275242,22.5915045 C17.8698531,23.658946 18.0215782,24.7039297 18.4128495,25.7105562 C18.5488789,26.0613352 18.7430197,26.4055558 18.9775209,26.6907501 C19.3749584,27.1738911 19.9276711,27.0745202 20.2115016,26.5071128 C20.4273175,26.0764396 20.4379681,25.6038319 20.4166668,25.1324167 C20.4110612,25.0105881 20.4015317,24.8887594 20.3910679,24.7665333 L20.3596765,24.6021739 L20.362853,24.5574571 C20.362853,24.5574571 20.6702271,25.0213201 20.9207976,25.1908468 C21.2195764,25.3776639 21.5577813,25.2900188 21.7181017,24.9273153 C21.7715418,24.8064804 21.8163866,24.6808756 21.8558127,24.5524885 C21.9413916,24.261332 22.0421057,23.7952828 22.0811581,23.1348642 C22.0841477,23.0494053 22.0875111,22.9639464 22.0921824,22.8784875 C22.8306276,23.4456962 23.4543447,23.3214827 23.9622126,22.5271122 C24.2619257,22.0576844 24.399263,21.5294291 24.477181,20.9795109 C24.5173545,20.6921305 24.5386558,20.4013714 24.5681786,20.1141897 C24.5685523,20.1145872 24.568926,20.1151834 24.5694866,20.1157796 L24.5719157,20.0806024 C24.5719157,20.0806024 24.8792898,20.5444654 25.1300472,20.713992 C25.4286392,20.9008092 25.766844,20.8129654 25.9271644,20.4502618 C25.9806045,20.3296257 26.0256362,20.2038222 26.0650623,20.0754351 C26.1504544,19.7844773 26.2513553,19.3182293 26.2904076,18.6580095 C26.293771,18.5582412 26.2973212,18.4584729 26.3034874,18.3591021 L26.3051691,18.3402216 C26.397101,18.4707949 26.626744,18.7818256 26.8221928,18.9139888 C27.1209716,19.100806 27.4591765,19.0131609 27.6194968,18.6504573 C27.6729369,18.5296224 27.7177818,18.4040177 27.7572079,18.2754318 C27.8340047,18.0140865 27.9231338,17.6100447 27.9689129,17.0517794 L27.9700341,17.0523756 C27.9700341,17.0523756 27.9717157,17.0265392 27.9745186,16.9806299 C27.9775082,16.9404841 27.9801242,16.899742 27.9825533,16.8580063 C27.9861035,16.7580392 27.9896537,16.6580722 27.995633,16.5585026 L27.9933908,16.555124 C28.0017992,16.2802643 28.0049757,15.9292865 27.9857298,15.6021577 C27.9855429,15.6007665 27.9849823,15.5995741 27.9849823,15.5977854 C27.9819927,15.5677754 27.9648022,15.5570433 27.9534041,15.553466 C27.949667,15.552671 27.94593,15.5516773 27.9423797,15.5510811 C27.9418192,15.5510811 27.9414455,15.5506836 27.9410718,15.5506836 C27.9393901,15.5504849 27.9378953,15.5502861 27.9362136,15.5502861 C27.8881922,15.5427339 27.8440948,15.541144 27.8151325,15.541144 C27.7312353,15.5383616 27.6469643,15.5421377 27.5654962,15.5580371 C27.4931838,15.5723465 27.4677718,15.6273979 27.4616056,15.6892065 C27.4588028,15.7190178 27.4612319,15.7506177 27.4640347,15.772678 C27.4672112,15.8410452 27.4692666,15.9096111 27.4707614,15.9781769 L27.4707614,15.9779782 L27.4707614,15.9789719 L27.4707614,15.9801643 C27.4692666,16.0310422 27.4332039,17.2437638 27.2170143,17.3383649 L27.2168275,17.3377687 C27.2072979,17.3443271 27.1975816,17.348302 27.1874915,17.3488982 C27.084722,17.3564504 26.9847554,17.1749992 26.9285125,17.0499907 C26.9277651,17.0484008 26.9273913,17.0468109 26.9266439,17.0452209" id="Fill-42" fill="#FEFEFE"></path>
                    <path d="M18.889422,19.0022116 C18.8435396,19.0050647 18.7967679,19.0122926 18.7446611,19.0206618 C18.6916651,19.030933 18.6415145,19.0379707 18.5949207,19.0472909 C18.5456593,19.0564209 18.510625,19.0651705 18.4891065,19.0704963 C18.1842905,19.1334552 17.8739615,19.3097782 17.5563411,19.6026987 C17.2410326,19.8937172 16.9326598,20.2400863 16.6333569,20.6340074 C16.3746012,20.9632577 16.1343407,21.3067736 15.9058176,21.6590391 C15.6794286,22.0132067 15.4855842,22.3451199 15.3148587,22.6420349 C15.1227927,22.9743285 14.9499332,23.2990138 14.7888111,23.6134279 L14.7900559,23.6149496 C14.7900559,23.6149496 14.2070998,24.6473994 14.0486453,25.1137898 C13.9755535,25.3285348 13.9935152,25.4396164 14.0454442,25.5002928 C14.0927494,25.5351009 14.1404102,25.5583063 14.1886046,25.5712404 C14.2220383,25.5775173 14.2545828,25.5811313 14.2805473,25.5864571 L14.2810808,25.5868375 C14.3465256,25.588169 14.4101919,25.5788488 14.4674561,25.5558336 C14.5352127,25.5234982 14.5946109,25.4856468 14.6420939,25.4434206 C14.6950899,25.3973902 14.7295907,25.3582073 14.7537768,25.3281544 C14.9214789,25.1134094 15.0941606,24.8697528 15.2702212,24.6042222 C15.4485936,24.3398328 15.6079374,24.0889483 15.7512756,23.8523293 L15.7749282,23.8156192 L15.7756395,23.8152388 C15.7756395,23.8152388 15.8298804,23.717662 15.8432183,23.7846152 C15.8439297,23.7872782 15.8448189,23.7897509 15.8457081,23.7924138 C15.899949,24.2542392 16.0183897,25.207182 16.1505241,25.9316849 C16.1259823,25.9914103 16.089881,26.0480923 16.0546689,26.1034429 C16.0356401,26.1333055 16.0167892,26.1627878 15.9995388,26.1928407 C15.928581,26.3168564 15.8698942,26.4505727 15.8304139,26.5793437 C15.8200993,26.6130105 15.8101403,26.652764 15.8140527,26.6936588 C15.8188544,26.7503408 15.8510432,26.8068326 15.9019052,26.8481078 C15.9541898,26.8909046 16.0207016,26.9211477 16.105353,26.9413098 C16.1309618,26.9473964 16.1652847,26.951581 16.2031644,26.956146 C16.3116462,26.9692704 16.4603195,26.98715 16.4773921,27.068559 C16.591209,27.6051362 16.8263121,28.1380995 17.1576261,28.6096255 C17.3537825,28.8890413 17.5550962,29.0159101 17.7731268,28.998411 L17.7825523,28.9978404 C17.8871216,28.989281 17.9262462,28.9862377 18.0306376,28.9489569 C18.0619373,28.9377346 18.1343178,28.8932259 18.1705969,28.8546136 C18.1912262,28.8325495 18.2006517,28.8118168 18.1990511,28.7920351 C18.1972727,28.7636941 18.1736202,28.7342119 18.1277377,28.6862794 L18.117423,28.6754375 C17.9995158,28.5440037 17.9187769,28.3674905 17.8407056,28.1968738 L17.8218547,28.1555986 C17.7457396,27.9899273 17.6710472,27.8078981 17.5799937,27.5653827 C17.4937418,27.3358015 17.4130029,27.1199152 17.3358208,26.9076429 L17.3359986,26.9076429 C17.3359986,26.9076429 17.3354651,26.9066919 17.3351094,26.9057409 C17.2998973,26.8085445 17.2653966,26.7119188 17.2312515,26.6154832 C17.1432212,26.3412031 17.0468325,25.9505155 17.1505126,25.7968273 C17.2853145,25.5963479 17.8019367,24.8904855 17.9950698,24.6272374 C17.9970261,24.6249549 17.9988045,24.6224822 18.0007607,24.6200095 C18.0156992,24.5998474 18.0308155,24.5789245 18.0464653,24.5570506 C18.0605146,24.5380297 18.0685173,24.5273781 18.0685173,24.5273781 L18.0676281,24.5273781 C18.0790098,24.5114006 18.0905694,24.4950427 18.1024846,24.4777338 C18.1224025,24.4490123 18.2981074,24.1935628 18.35715,24.0847637 C18.3710214,24.0590856 18.3934291,24.0122944 18.3879161,23.9887086 C18.3843593,23.9628403 18.3649749,23.9381132 18.3318968,23.9168099 C18.2248378,23.8359714 18.1145776,23.7988809 18.005918,23.8059186 C17.8876551,23.8066794 17.7734825,23.839205 17.668024,23.9014031 C17.5527843,23.9615088 17.4414571,24.0436788 17.3374213,24.1446793 C17.2324963,24.2447288 17.1352184,24.3520062 17.0317161,24.4802065 L16.964493,24.5618058 C16.8937131,24.647019 16.8791303,24.6648986 16.8063942,24.7757899 C16.7843421,24.8123099 16.7669139,24.8393195 16.7530425,24.8591011 C16.7203201,24.6780229 16.6031242,23.9746332 16.5166945,23.4536531 L16.5165167,23.4536531 C16.5165167,23.4536531 16.5165167,23.4530824 16.5165167,23.452702 C16.516161,23.4515608 16.5159831,23.4502293 16.5158053,23.4488979 L16.5159831,23.4487076 C16.5092253,23.391455 16.4437805,22.8136026 16.543726,22.6313832 C16.6610997,22.4166382 16.8689935,22.0951864 17.0125095,21.8783491 L17.0811554,21.7672676 C17.2294731,21.544724 17.3877498,21.3179959 17.54656,21.0853713 C17.7062594,20.8573117 17.8688042,20.6336269 18.0299263,20.4137463 C18.1855354,20.1963384 18.3333196,20.0027065 18.4622528,19.8299975 C18.5897633,19.6569081 18.6959332,19.5100674 18.7782727,19.4006977 C18.8572332,19.292279 18.9000923,19.2319831 18.90934,19.2201901 C18.9639365,19.1496229 18.99328,19.1041632 18.99986,19.0803872 C19.0012827,19.052807 18.9918573,19.029982 18.9717615,19.0115318 C18.9605576,19.001641 18.9337039,18.9968858 18.889422,19.0022116" id="Fill-44" fill="#FEFEFE"></path>
                </g>
            </g>
        </g>
    </g>
</svg>