<?xml version="1.0" encoding="UTF-8"?>
<svg width="130px" height="24px" viewBox="0 0 130 24" version="1.1" xmlns="http://www.w3.org/2000/svg" xmlns:xlink="http://www.w3.org/1999/xlink">
    <title>Group 21</title>
    <defs>
        <filter id="filter-1">
            <feColorMatrix in="SourceGraphic" type="matrix" values="0 0 0 0 0.686275 0 0 0 0 0.686275 0 0 0 0 0.686275 0 0 0 1.000000 0"></feColorMatrix>
        </filter>
        <polygon id="path-2" points="0.20104 0.263467615 20.8452297 0.263467615 20.8452297 18 0.20104 18"></polygon>
        <polygon id="path-4" points="0.043365 0.263467615 20.7097236 0.263467615 20.7097236 18 0.043365 18"></polygon>
    </defs>
    <g id="Page-1" stroke="none" stroke-width="1" fill="none" fill-rule="evenodd">
        <g id="La-Tarjeta---Desktop-" transform="translate(-185.000000, -1254.000000)">
            <g id="Group-21" transform="translate(181.000000, 1249.000000)" filter="url(#filter-1)">
                <g transform="translate(4.000000, 5.000000)">
                    <g id="Group-3" transform="translate(55.000000, 5.000000)">
                        <mask id="mask-3" fill="white">
                            <use xlink:href="#path-2"></use>
                        </mask>
                        <g id="Clip-2"></g>
                        <path d="M16.43754,0.263717647 L4.75174,0.307129412 L3.36154,3.97701176 C3.36154,3.97701176 3.65414,4.0236 4.57359,4.06207059 C5.78004,4.11924706 5.01144,5.58218824 5.01144,5.58218824 L0.20104,18.0000706 L5.22459,18.0000706 L7.17199,13.0761882 L8.66474,13.0761882 C8.66474,13.0761882 12.40239,13.0708941 12.95469,13.0373647 C17.78504,12.6858353 18.51234,9.11371765 18.51234,9.11371765 C18.51234,9.11371765 19.50879,6.76383529 20.67744,3.44689412 C21.85624,0.173011765 16.43754,0.263717647 16.43754,0.263717647 M14.78764,5.45230588 C14.13664,7.24418824 13.79924,8.02524706 13.79924,8.02524706 C13.79924,8.02524706 13.61724,9.41936471 11.56414,9.41936471 L8.63149,9.41936471 L10.75599,4.06207059 L13.64839,4.06207059 C13.64839,4.06207059 15.37599,3.83689412 14.78764,5.45230588" id="Fill-1" fill="#1D2776" mask="url(#mask-3)"></path>
                    </g>
                    <path d="M91.3788292,14.1637247 C90.2913298,13.9849107 91.1131313,12.3580611 91.1131313,12.3580611 L94,5.06137747 C94,5.06137747 89.2392807,5.01738923 85.5796679,5.01738923 C79.8864993,4.74952587 77.928141,7.66490913 77.928141,7.66490913 C77.928141,7.66490913 76.8102045,9.93191287 75.2725942,14.2517012 C73.7342677,18.5722048 79.2086474,17.9606609 79.2086474,17.9606609 L91.3448113,18 L92.7621055,14.3808049 C92.7621055,14.3808049 92.4663286,14.3418234 91.3788292,14.1637247 M85.2376982,14.2946165 L81.7503236,14.2946165 C80.4261311,14.2946165 80.9979903,12.8430046 80.9979903,12.8430046 C80.9979903,12.8430046 81.5594651,11.2941178 82.1649842,10.0610166 C82.7619093,8.82720005 84.3736429,8.8661815 84.3736429,8.8661815 L87.2587212,8.8661815 L85.2376982,14.2946165" id="Fill-4" fill="#1D2776"></path>
                    <path d="M110.08308,7.04932853 C110.08308,7.04932853 109.976941,6.91289126 109.001316,5.91869154 C108.012111,4.91132361 109.039912,4.29461253 109.039912,4.29461253 L110.010534,3.70899305 L107.42495,1 C107.42495,1 97.1690978,6.75633589 95.2060553,8.14302137 C92.8195273,9.77185557 94.423054,12.2094372 94.423054,12.2094372 L98.4538489,16.3153577 C98.4538489,16.3153577 98.9498808,16.5944505 98.8251581,17.4865966 C98.7118713,18.3070492 97.4478477,18.3070492 97.4478477,18.3070492 L94.5749369,18.3070492 L93,22 L97.6419005,22 C98.6021582,22 99.2804496,21.643361 99.2804496,21.643361 C99.2804496,21.643361 102.869176,19.8795527 104.410162,18.1157444 C105.937569,16.3603491 104.182159,14.7366358 104.182159,14.7366358 L108.552457,12.1644458 C108.552457,12.1644458 109.523079,11.4859173 110.381843,10.5392695 C111.92962,8.83069447 110.08308,7.04932853 110.08308,7.04932853 M105.044855,10.2246956 C103.846587,11.0334431 100.882547,12.7453101 100.882547,12.7453101 L99.1657333,10.8077546 C99.1657333,10.8077546 98.208692,9.72393792 99.4630665,8.9144589 L101.375362,7.7307833 C101.375362,7.7307833 103.132559,6.46188013 104.107826,7.37999686 C105.078447,8.32006062 105.191377,8.46161885 105.191377,8.46161885 C105.191377,8.46161885 106.234545,9.40497466 105.044855,10.2246956" id="Fill-6" fill="#1D2776"></path>
                    <path d="M129.23779,10.589124 C127.066571,8.22421387 125.569073,6.8441135 125.569073,6.8441135 C125.569073,6.8441135 123.388326,5.2870495 121.014311,6.40242383 C118.661731,7.50916578 112.78913,11.1189357 112.78913,11.1189357 C112.78913,11.1189357 109.692736,13.1144523 111.646867,15.3840466 C113.483607,17.4957404 115.309119,19.1067568 115.309119,19.1067568 C115.309119,19.1067568 117.096181,21.0569533 120.798924,19.1941595 C124.532291,17.3317254 128.170725,14.8898433 128.170725,14.8898433 C128.170725,14.8898433 131.439632,12.8950462 129.23779,10.589124 M123.611539,13.6003828 C123.611539,13.6003828 122.012643,14.6243979 120.516165,15.3840466 C119.016966,16.1325451 118.449407,15.2480867 118.449407,15.2480867 C118.449407,15.2480867 117.842037,14.6754728 117.126804,13.8697848 C116.34556,12.9799312 117.880487,12.1433105 117.880487,12.1433105 C117.880487,12.1433105 119.196625,11.2523778 120.374616,10.6678943 C121.552607,10.0888061 122.333851,10.6678943 122.333851,10.6678943 C123.122581,11.4462465 123.270936,11.5879613 123.283525,11.6048663 C123.290331,11.6048663 123.290331,11.6066647 123.283525,11.6048663 C123.283525,11.5980324 123.283525,11.5980324 123.281824,11.5980324 C123.305983,11.6221311 123.381521,11.6940675 123.611539,11.9134736 C124.856902,13.1568948 123.611539,13.6003828 123.611539,13.6003828" id="Fill-8" fill="#1D2776"></path>
                    <path d="M0,17.9763336 L5.15114511,5 L16,5.02725217 L14.4510974,8.82606057 L11.0344327,8.82606057 C11.0344327,8.82606057 9.00687745,8.59154852 8.32594139,10.3425001 C7.65008966,12.0887902 5.27607418,18 5.27607418,18 L0,17.9763336" id="Fill-10" fill="#EC1C2D"></path>
                    <path d="M29.0850001,12.3582635 L32,5.06137915 C32,5.06137915 27.214926,5.0173897 23.5809142,5.0173897 C17.9027931,4.74951898 15.9587451,7.66498244 15.9587451,7.66498244 C15.9587451,7.66498244 14.8362718,9.93169091 13.2699552,14.2519557 C11.7372306,18.5725781 17.2313103,17.9610175 17.2313103,17.9610175 L29.3094233,18 L30.7574531,14.381063 C30.7574531,14.381063 30.4622723,14.3420804 29.3483757,14.1639768 C28.2648548,13.9851579 29.0850001,12.3582635 29.0850001,12.3582635 M23.251784,14.2948722 L19.7342721,14.2948722 C18.4295443,14.2948722 18.9916744,12.8428627 18.9916744,12.8428627 C18.9916744,12.8428627 19.548444,11.2939333 20.150956,10.0611558 C20.7488222,8.8269477 22.3858964,8.86593022 22.3858964,8.86593022 L25.2687338,8.86593022 L23.251784,14.2948722" id="Fill-12" fill="#EC1C2D"></path>
                    <g id="Group-16" transform="translate(29.000000, 5.000000)">
                        <mask id="mask-5" fill="white">
                            <use xlink:href="#path-4"></use>
                        </mask>
                        <g id="Clip-15"></g>
                        <path d="M16.299465,0.263717647 L4.622065,0.307129412 L3.226965,3.97701176 C3.226965,3.97701176 3.514665,4.0236 4.435515,4.06207059 C5.642315,4.11924706 4.873365,5.58218824 4.873365,5.58218824 L0.043365,18.0000706 L5.094915,18.0000706 L7.033915,13.0761882 L8.500415,13.0761882 C8.500415,13.0761882 12.272715,13.0708941 12.824665,13.0373647 C17.621765,12.6858353 18.375665,9.11371765 18.375665,9.11371765 C18.375665,9.11371765 19.374215,6.76383529 20.542865,3.44689412 C21.718165,0.173011765 16.299465,0.263717647 16.299465,0.263717647 M14.653065,5.45230588 C13.999965,7.24418824 13.661165,8.02524706 13.661165,8.02524706 C13.661165,8.02524706 13.480915,9.41936471 11.431315,9.41936471 L8.468915,9.41936471 L10.617915,4.06207059 L13.517315,4.06207059 C13.517315,4.06207059 15.240015,3.83689412 14.653065,5.45230588" id="Fill-14" fill="#EC1C2D" mask="url(#mask-5)"></path>
                    </g>
                    <path d="M52.8307871,5 L58,5 L54.9730853,12.5648469 C54.9730853,12.5648469 54.2725284,14.0246229 55.6323083,14.1567115 C56.5232839,14.2469183 56.7101698,14.2859364 56.7101698,14.2859364 L55.2320405,17.9539904 C55.2320405,17.9539904 52.1369425,18.1762859 50.7951799,17.6436359 C49.3520256,17.0723258 48.5762197,16.0553509 49.2400354,14.2469183 C49.9109167,12.4341901 52.8307871,5 52.8307871,5" id="Fill-17" fill="#EC1C2D"></path>
                    <path d="M58.8181427,2.08950467 C58.2064257,3.19940317 56.2347384,4.05056273 54.3941925,3.99766198 C52.5457616,3.9481523 51.5696705,3.00950303 52.1830475,1.90435204 C52.7926894,0.797844608 54.7975771,-0.0536540585 56.6285779,0.00263776896 C58.4496185,0.0551994151 59.4294446,0.987405641 58.8181427,2.08950467" id="Fill-19" fill="#EC1C2D"></path>
                </g>
            </g>
        </g>
    </g>
</svg>